<?xml version="1.0" encoding="UTF-8" standalone="no"?>
<!-- Created with Inkscape (http://www.inkscape.org/) -->

<svg
   width="49.624008mm"
   height="39.06723mm"
   viewBox="0 0 49.624008 39.06723"
   version="1.1"
   id="svg1"
   inkscape:version="1.4.2 (ebf0e940, 2025-05-08)"
   sodipodi:docname="Datenschutz-Schutzziele.svg"
   xmlns:inkscape="http://www.inkscape.org/namespaces/inkscape"
   xmlns:sodipodi="http://sodipodi.sourceforge.net/DTD/sodipodi-0.dtd"
   xmlns="http://www.w3.org/2000/svg"
   xmlns:svg="http://www.w3.org/2000/svg">
  <sodipodi:namedview
     id="namedview1"
     pagecolor="#505050"
     bordercolor="#eeeeee"
     borderopacity="1"
     inkscape:showpageshadow="0"
     inkscape:pageopacity="0"
     inkscape:pagecheckerboard="0"
     inkscape:deskcolor="#505050"
     inkscape:document-units="mm"
     inkscape:zoom="0.89887065"
     inkscape:cx="-13.350085"
     inkscape:cy="7.2312963"
     inkscape:window-width="2560"
     inkscape:window-height="1264"
     inkscape:window-x="0"
     inkscape:window-y="25"
     inkscape:window-maximized="1"
     inkscape:current-layer="layer1" />
  <defs
     id="defs1" />
  <g
     inkscape:label="Layer 1"
     inkscape:groupmode="layer"
     id="layer1"
     transform="translate(-108.7437,-146.57916)">
    <path
       id="path277"
       d="m 141.90347,170.94493 c -0.0499,0.0863 -8.55248,4.9954 -8.65254,4.9954 -0.0997,0 -8.60202,-4.90911 -8.65222,-4.9954 -0.0499,-0.0866 -0.0499,-9.90418 0,-9.99079 0.0502,-0.0866 8.55248,-4.9954 8.65222,-4.9954 0.10006,0 8.60267,4.90878 8.65254,4.9954 0.0499,0.0866 0.0499,9.90418 0,9.99079"
       style="fill:#ffffff;fill-opacity:1;fill-rule:nonzero;stroke:#000000;stroke-width:0.0770996;stroke-linecap:butt;stroke-linejoin:miter;stroke-miterlimit:4;stroke-dasharray:0.231463, 0.0771554;stroke-dashoffset:0.0308398;stroke-opacity:1" />
    <path
       id="path278"
       d="m 119.20304,157.83866 28.0964,16.22142"
       style="fill:none;stroke:#000000;stroke-width:0.154199;stroke-linecap:butt;stroke-linejoin:miter;stroke-miterlimit:4;stroke-dasharray:0.462926, 0.154311;stroke-dashoffset:0.0616797;stroke-opacity:1" />
    <path
       id="path279"
       d="m 120.28934,159.25663 -1.26509,-1.51804 1.94718,0.33694 c -0.45801,0.20046 -0.73196,0.67815 -0.68209,1.1811"
       style="fill:#000000;fill-opacity:1;fill-rule:evenodd;stroke:none;stroke-width:0.328083" />
    <path
       id="path280"
       d="m 146.21316,172.64243 1.26509,1.51804 -1.94718,-0.33694 c 0.45801,-0.20046 0.73196,-0.67848 0.68209,-1.1811"
       style="fill:#000000;fill-opacity:1;fill-rule:evenodd;stroke:none;stroke-width:0.328083" />
    <path
       id="path281"
       d="m 119.20304,174.06008 28.0964,-16.22142"
       style="fill:none;stroke:#000000;stroke-width:0.154199;stroke-linecap:butt;stroke-linejoin:miter;stroke-miterlimit:4;stroke-dasharray:0.462926, 0.154311;stroke-dashoffset:0.0616797;stroke-opacity:1" />
    <path
       id="path282"
       d="m 120.97403,173.82846 -1.94717,0.33661 1.26508,-1.51771 c -0.0551,0.49672 0.22179,0.97277 0.68209,1.1811"
       style="fill:#000000;fill-opacity:1;fill-rule:evenodd;stroke:none;stroke-width:0.328083" />
    <path
       id="path283"
       d="m 145.52845,158.07061 1.94717,-0.33661 -1.26508,1.51771 c 0.0551,-0.49672 -0.22179,-0.9731 -0.68209,-1.1811"
       style="fill:#000000;fill-opacity:1;fill-rule:evenodd;stroke:none;stroke-width:0.328083" />
    <path
       id="path284"
       d="M 133.25125,182.17096 V 149.72811"
       style="fill:none;stroke:#000000;stroke-width:0.154199;stroke-linecap:butt;stroke-linejoin:miter;stroke-miterlimit:4;stroke-dasharray:0.462926, 0.154311;stroke-dashoffset:0.0616797;stroke-opacity:1" />
    <path
       id="path285"
       d="m 133.93597,180.52136 -0.68209,1.85466 -0.68175,-1.85466 c 0.40256,0.29626 0.95341,0.29462 1.36384,0"
       style="fill:#000000;fill-opacity:1;fill-rule:evenodd;stroke:none;stroke-width:0.328083" />
    <path
       id="path286"
       d="m 132.56654,151.37771 0.68209,-1.85466 0.68175,1.85466 c -0.40256,-0.29626 -0.95341,-0.29462 -1.36384,0"
       style="fill:#000000;fill-opacity:1;fill-rule:evenodd;stroke:none;stroke-width:0.328083" />
    <path
       id="path287"
       d="m 125.44319,147.81571 0.3727,0.11811 c -0.0571,0.208 -0.15223,0.36253 -0.2851,0.46325 -0.13288,0.10073 -0.30151,0.15125 -0.50591,0.15125 -0.25295,0 -0.46063,-0.0863 -0.62335,-0.25919 -0.16273,-0.17257 -0.2441,-0.40879 -0.2441,-0.70833 0,-0.31693 0.0817,-0.56299 0.24541,-0.73851 0.16338,-0.17553 0.37861,-0.26313 0.64534,-0.26313 0.23294,0 0.42224,0.0689 0.56791,0.2067 0.0863,0.0814 0.15125,0.19849 0.19455,0.35072 l -0.38025,0.0909 c -0.023,-0.0988 -0.0699,-0.17651 -0.14107,-0.23393 -0.0715,-0.0571 -0.15814,-0.0856 -0.2605,-0.0856 -0.14108,0 -0.25558,0.0509 -0.3435,0.15191 -0.0879,0.10137 -0.13189,0.26542 -0.13189,0.49212 0,0.24114 0.0433,0.4124 0.12992,0.51476 0.0866,0.10204 0.19915,0.15322 0.3376,0.15322 0.10236,0 0.18996,-0.0325 0.26378,-0.0974 0.0735,-0.065 0.12631,-0.16732 0.15846,-0.30676 z m 0.61712,-0.009 c 0,-0.12106 0.0299,-0.23818 0.0896,-0.3517 0.0597,-0.11352 0.14436,-0.20013 0.25394,-0.25984 0.10925,-0.0597 0.23162,-0.0896 0.3668,-0.0896 0.20866,0 0.37959,0.0676 0.51312,0.20308 0.1332,0.1355 0.20013,0.30709 0.20013,0.51378 0,0.20866 -0.0676,0.38189 -0.2021,0.51903 -0.13484,0.13714 -0.30413,0.20571 -0.50853,0.20571 -0.12664,0 -0.24705,-0.0285 -0.36188,-0.0856 -0.1145,-0.0571 -0.20177,-0.14108 -0.26148,-0.25131 -0.0597,-0.11057 -0.0896,-0.24475 -0.0896,-0.40355 z m 0.37402,0.0197 c -3.3e-4,0.13681 0.0325,0.24147 0.0974,0.3143 0.0646,0.0728 0.14469,0.10925 0.24016,0.10925 0.0951,0 0.17487,-0.0364 0.2395,-0.10925 0.0646,-0.0728 0.0968,-0.17847 0.0968,-0.31693 0,-0.13517 -0.0322,-0.23884 -0.0968,-0.31168 -0.0646,-0.0728 -0.14436,-0.10892 -0.2395,-0.10925 -0.0955,3.3e-4 -0.17553,0.0364 -0.24016,0.10925 -0.065,0.0728 -0.0978,0.1775 -0.0974,0.31431 z m 2.5912,0.68963 h -0.36515 v -0.70407 c 0,-0.14862 -0.008,-0.24508 -0.0233,-0.28871 -0.0157,-0.044 -0.041,-0.0778 -0.0761,-0.10203 -0.0351,-0.0243 -0.0771,-0.0364 -0.12664,-0.0364 -0.063,0 -0.11975,0.0174 -0.16995,0.0518 -0.0502,0.0348 -0.0846,0.0807 -0.10335,0.13779 -0.0187,0.0571 -0.0279,0.16273 -0.0279,0.31693 v 0.62467 h -0.36516 v -1.37926 h 0.33924 v 0.20242 c 0.12008,-0.15551 0.27165,-0.23359 0.45472,-0.23359 0.0804,0 0.15387,0.0144 0.22047,0.0433 0.0666,0.0292 0.11713,0.0663 0.15158,0.11122 0.0341,0.0449 0.0577,0.0961 0.0712,0.15321 0.0135,0.0571 0.0203,0.13911 0.0203,0.24541 z m 0.21162,-1.37926 h 0.20275 v -0.104 c 0,-0.11615 0.0121,-0.20243 0.0371,-0.25985 0.0246,-0.0571 0.0699,-0.10367 0.13616,-0.13976 0.0663,-0.0358 0.14993,-0.0538 0.25164,-0.0538 0.10367,0 0.20538,0.0157 0.30512,0.0469 l -0.0495,0.25459 c -0.0581,-0.0138 -0.11385,-0.021 -0.16765,-0.021 -0.0528,0 -0.0906,0.0125 -0.11352,0.0371 -0.023,0.0249 -0.0344,0.0722 -0.0344,0.14239 v 0.0974 h 0.27297 v 0.28707 h -0.27297 v 1.09219 h -0.36483 v -1.09219 h -0.20275 z m 1.41338,-0.18734 h -0.36499 v -0.33766 h 0.36499 z m -0.36516,0 z m 0.36516,1.5666 h -0.36499 v -1.37943 h 0.36499 z m -0.36516,0 z m 2.00262,0 h -0.33891 v -0.20276 c -0.0564,0.0791 -0.1227,0.1378 -0.19914,0.17619 -0.0768,0.0384 -0.1542,0.0577 -0.23196,0.0577 -0.15846,0 -0.29429,-0.064 -0.40715,-0.1916 -0.11319,-0.12763 -0.16962,-0.30578 -0.16962,-0.53445 0,-0.2336 0.0551,-0.41142 0.16503,-0.53314 0.1099,-0.12171 0.24868,-0.18241 0.41699,-0.18241 0.15387,0 0.2874,0.064 0.39993,0.19226 v -0.68603 h 0.36483 z m -0.97408,-0.71949 c 0,0.14731 0.0203,0.25361 0.061,0.31956 0.059,0.0951 0.1414,0.14271 0.24704,0.14271 0.084,0 0.15519,-0.0354 0.21424,-0.10728 0.0587,-0.0712 0.0883,-0.17782 0.0883,-0.31988 0,-0.15847 -0.0285,-0.27264 -0.086,-0.34219 -0.0571,-0.0699 -0.13025,-0.10466 -0.21916,-0.10466 -0.0869,0 -0.15945,0.0344 -0.21785,0.10334 -0.0584,0.0689 -0.0876,0.17159 -0.0876,0.3084 z m 2.13419,0.28051 0.36351,0.061 c -0.0466,0.1332 -0.12073,0.23491 -0.22145,0.30446 -0.10105,0.0699 -0.22704,0.10466 -0.37861,0.10466 -0.23983,0 -0.41732,-0.0784 -0.53248,-0.23524 -0.0909,-0.12533 -0.13648,-0.28379 -0.13648,-0.47506 0,-0.22868 0.0597,-0.40781 0.17946,-0.53708 0.11942,-0.12959 0.27034,-0.19422 0.45308,-0.19422 0.20538,0 0.36713,0.0676 0.48589,0.20308 0.11844,0.1355 0.1752,0.34318 0.17028,0.62303 h -0.91437 c 0.002,0.10827 0.0318,0.19259 0.0882,0.25263 0.0561,0.06 0.12631,0.0902 0.2103,0.0902 0.0571,0 0.10532,-0.0157 0.14436,-0.0469 0.0387,-0.0312 0.0682,-0.0814 0.0883,-0.15059 z m 0.0207,-0.36909 c -0.003,-0.10531 -0.0299,-0.18569 -0.0817,-0.24081 -0.0522,-0.0548 -0.11516,-0.0823 -0.18963,-0.0823 -0.0797,0 -0.14567,0.0289 -0.19751,0.0869 -0.0518,0.0581 -0.0778,0.13681 -0.0768,0.23622 z m 1.91601,0.80807 h -0.36516 v -0.70407 c 0,-0.14862 -0.008,-0.24508 -0.0233,-0.28871 -0.0157,-0.044 -0.041,-0.0778 -0.0761,-0.10203 -0.0351,-0.0243 -0.0771,-0.0364 -0.12665,-0.0364 -0.063,0 -0.11975,0.0174 -0.16994,0.0518 -0.0502,0.0348 -0.0846,0.0807 -0.10335,0.13779 -0.0187,0.0571 -0.0279,0.16273 -0.0279,0.31693 v 0.62467 h -0.36515 v -1.37926 h 0.33924 v 0.20242 c 0.12007,-0.15551 0.27165,-0.23359 0.45472,-0.23359 0.0804,0 0.15387,0.0144 0.22047,0.0433 0.0666,0.0292 0.11713,0.0663 0.15158,0.11122 0.0341,0.0449 0.0577,0.0961 0.0712,0.15321 0.0135,0.0571 0.0203,0.13911 0.0203,0.24541 z m 1.00394,-1.37926 v 0.29101 h -0.24935 v 0.55577 c 0,0.11253 0.002,0.17815 0.007,0.19685 0.005,0.0187 0.0154,0.0338 0.0325,0.0459 0.0167,0.0121 0.0371,0.0184 0.0617,0.0184 0.0335,0 0.0824,-0.0118 0.14665,-0.0351 l 0.0312,0.28314 c -0.085,0.0364 -0.1811,0.0545 -0.28838,0.0545 -0.0656,0 -0.125,-0.0112 -0.17782,-0.0331 -0.0528,-0.022 -0.0915,-0.0505 -0.11615,-0.0856 -0.0249,-0.0351 -0.042,-0.0823 -0.0515,-0.14239 -0.008,-0.0423 -0.0118,-0.12795 -0.0115,-0.25721 v -0.60105 h -0.16765 v -0.29101 h 0.16765 v -0.27428 l 0.36614,-0.21293 v 0.48721 z m 0.62106,-0.18734 h -0.36499 v -0.33766 h 0.36499 z m -0.36516,0 z m 0.36516,1.5666 h -0.36499 v -1.37943 h 0.36499 z m -0.36516,0 z m 1.0105,-0.95866 -0.33104,-0.0597 c 0.0371,-0.1332 0.10105,-0.23196 0.19226,-0.29593 0.0909,-0.0643 0.22572,-0.0961 0.40518,-0.0961 0.16273,0 0.28379,0.0194 0.36352,0.0577 0.0797,0.0384 0.13582,0.0873 0.1683,0.14666 0.0325,0.0594 0.0486,0.1683 0.0486,0.32677 l -0.004,0.42618 c -3.3e-4,0.12106 0.006,0.21063 0.0174,0.26804 0.0115,0.0577 0.0335,0.11942 0.0656,0.18504 h -0.36122 c -0.01,-0.0243 -0.0213,-0.06 -0.0351,-0.10794 -0.006,-0.0213 -0.0105,-0.0358 -0.0128,-0.0427 -0.0623,0.0607 -0.12927,0.1063 -0.20013,0.13648 -0.0712,0.0302 -0.14699,0.0453 -0.22737,0.0453 -0.14206,0 -0.25393,-0.0384 -0.33562,-0.11549 -0.082,-0.0771 -0.12271,-0.17454 -0.12271,-0.29232 0,-0.0778 0.0184,-0.14731 0.0558,-0.20833 0.0371,-0.061 0.0892,-0.10794 0.15649,-0.14042 0.0673,-0.0325 0.16372,-0.0607 0.29036,-0.085 0.1706,-0.0322 0.28871,-0.062 0.35465,-0.0896 v -0.0364 c 0,-0.0702 -0.0174,-0.12008 -0.0522,-0.14993 -0.0345,-0.0299 -0.10007,-0.045 -0.1962,-0.045 -0.0646,0 -0.11548,0.0128 -0.1519,0.0384 -0.0364,0.0256 -0.0659,0.0702 -0.0882,0.13419 z m 0.48851,0.29626 c -0.0469,0.0157 -0.12106,0.0344 -0.22211,0.0558 -0.10138,0.0217 -0.16765,0.043 -0.19882,0.0636 -0.0476,0.0338 -0.0715,0.0768 -0.0715,0.12861 0,0.0512 0.019,0.0955 0.0571,0.13255 0.038,0.0374 0.0866,0.0558 0.14567,0.0558 0.0656,0 0.1286,-0.0217 0.18832,-0.065 0.044,-0.0328 0.0732,-0.0732 0.0869,-0.12073 0.01,-0.0312 0.0144,-0.0902 0.0144,-0.17783 z m 1.08432,0.6624 h -0.36499 v -1.90413 h 0.36499 z m -0.36483,0 z m 1.10269,-1.5666 h -0.36499 v -0.33766 h 0.36499 z m -0.36483,0 z m 0.36483,1.5666 h -0.36499 v -1.37943 h 0.36499 z m -0.36483,0 z m 1.37008,-1.37926 v 0.29101 h -0.24935 v 0.55577 c 0,0.11253 0.002,0.17815 0.007,0.19685 0.005,0.0187 0.0154,0.0338 0.0325,0.0459 0.0167,0.0121 0.0374,0.0184 0.0617,0.0184 0.0335,0 0.0827,-0.0118 0.14665,-0.0351 l 0.0312,0.28314 c -0.085,0.0364 -0.1811,0.0545 -0.28838,0.0545 -0.0656,0 -0.125,-0.0112 -0.17782,-0.0331 -0.0528,-0.022 -0.0915,-0.0505 -0.11615,-0.0856 -0.0246,-0.0351 -0.042,-0.0823 -0.0515,-0.14239 -0.008,-0.0423 -0.0118,-0.12795 -0.0115,-0.25721 v -0.60105 h -0.16765 v -0.29101 h 0.16765 v -0.27428 l 0.36614,-0.21293 v 0.48721 z m 0.0833,0 h 0.38812 l 0.33005,0.97933 0.32218,-0.97933 h 0.37795 l -0.4872,1.32742 -0.0869,0.24016 c -0.0322,0.0804 -0.0627,0.14206 -0.0915,0.18438 -0.0292,0.0423 -0.0623,0.0768 -0.10006,0.10335 -0.0377,0.0262 -0.084,0.0469 -0.13911,0.0617 -0.0548,0.0148 -0.11713,0.022 -0.18635,0.022 -0.0702,0 -0.13911,-0.007 -0.20637,-0.022 l -0.0325,-0.28576 c 0.0571,0.0112 0.1086,0.0171 0.15453,0.0171 0.0847,0 0.14764,-0.0253 0.18832,-0.0748 0.0407,-0.0499 0.0719,-0.11319 0.0935,-0.19029"
       style="fill:#000000;fill-opacity:1;fill-rule:nonzero;stroke:none;stroke-width:0.328083" />
    <path
       id="path288"
       d="m 141.34605,156.97219 v -1.58202 h -0.56496 v -0.32218 h 1.51312 v 0.32218 h -0.56365 v 1.58202 z m 1.54429,0 h -0.36483 v -1.37959 h 0.33891 v 0.19619 c 0.0577,-0.0925 0.10991,-0.15354 0.1565,-0.18307 0.0463,-0.0292 0.0988,-0.044 0.1578,-0.0443 0.083,3.3e-4 0.16306,0.0233 0.24016,0.0692 l -0.11286,0.31791 c -0.0613,-0.0397 -0.11877,-0.0597 -0.17126,-0.0597 -0.0515,0 -0.0948,0.0141 -0.13025,0.0423 -0.0354,0.0282 -0.0633,0.0791 -0.0837,0.15256 -0.0203,0.0738 -0.0305,0.22802 -0.0305,0.46227 z m 0.95735,-0.95866 -0.33137,-0.0597 c 0.0371,-0.1332 0.10138,-0.23196 0.19226,-0.29593 0.0909,-0.0643 0.22605,-0.0961 0.40518,-0.0965 0.16273,3.3e-4 0.28412,0.0197 0.36385,0.0581 0.0794,0.0384 0.13549,0.0873 0.16797,0.14666 0.0325,0.0594 0.0489,0.1683 0.0489,0.32677 l -0.004,0.42585 c 0,0.12139 0.006,0.21063 0.0174,0.26837 0.0118,0.0577 0.0338,0.11942 0.0656,0.18504 h -0.3609 c -0.01,-0.0243 -0.0213,-0.06 -0.0351,-0.10794 -0.006,-0.0213 -0.0105,-0.0358 -0.0131,-0.0427 -0.0623,0.0607 -0.12894,0.1063 -0.19981,0.13648 -0.0712,0.0302 -0.14698,0.0453 -0.22736,0.0453 -0.14206,0 -0.25393,-0.0384 -0.33596,-0.11549 -0.0817,-0.0771 -0.1227,-0.17454 -0.1227,-0.29232 0,-0.0778 0.0187,-0.14731 0.0561,-0.20833 0.0371,-0.061 0.0892,-0.10794 0.1565,-0.14042 0.0669,-0.0325 0.16371,-0.0607 0.29035,-0.085 0.17028,-0.0322 0.28872,-0.062 0.35433,-0.0899 v -0.0361 c 0,-0.0702 -0.0171,-0.12008 -0.0518,-0.14993 -0.0348,-0.0299 -0.10007,-0.045 -0.1962,-0.045 -0.065,0 -0.11581,0.0128 -0.1519,0.0381 -0.0364,0.0259 -0.0659,0.0705 -0.0882,0.13451 z m 0.48818,0.29626 c -0.0466,0.0157 -0.12073,0.0345 -0.22211,0.0558 -0.10138,0.0217 -0.16765,0.043 -0.19882,0.0637 -0.0476,0.0338 -0.0712,0.0768 -0.0712,0.12861 0,0.0512 0.019,0.0955 0.0571,0.13255 0.0381,0.0374 0.0866,0.0558 0.14535,0.0558 0.0659,0 0.1286,-0.0216 0.18864,-0.065 0.044,-0.0328 0.0732,-0.0732 0.0869,-0.12073 0.01,-0.0312 0.0141,-0.0902 0.0141,-0.17783 z m 1.97441,0.6624 h -0.36483 v -0.70407 c 0,-0.14862 -0.008,-0.24508 -0.0236,-0.28904 -0.0157,-0.0436 -0.041,-0.0774 -0.0758,-0.1017 -0.0351,-0.0243 -0.0774,-0.0364 -0.12664,-0.0364 -0.0633,0 -0.12008,0.0174 -0.17027,0.0518 -0.0502,0.0348 -0.0846,0.0807 -0.10335,0.13779 -0.0187,0.0571 -0.0279,0.16273 -0.0279,0.31693 v 0.62467 h -0.36483 v -1.37959 h 0.33891 v 0.20276 c 0.12041,-0.15584 0.27198,-0.2336 0.45473,-0.23393 0.0804,3.3e-4 0.15387,0.0148 0.2208,0.0436 0.0666,0.0292 0.11679,0.0663 0.15124,0.11122 0.0341,0.0449 0.0581,0.0961 0.0715,0.15321 0.0131,0.0571 0.02,0.13911 0.02,0.24541 z m 0.24278,-0.3937 0.36647,-0.0558 c 0.0154,0.0712 0.0472,0.125 0.0948,0.16174 0.0476,0.0368 0.11417,0.0551 0.1998,0.0551 0.0945,0 0.16568,-0.0171 0.21325,-0.0518 0.0318,-0.0239 0.0479,-0.0568 0.0479,-0.0974 0,-0.0276 -0.009,-0.0505 -0.0259,-0.0689 -0.0184,-0.0171 -0.059,-0.0331 -0.12204,-0.0479 -0.29462,-0.065 -0.48097,-0.12434 -0.55971,-0.17815 -0.10925,-0.0741 -0.16372,-0.17782 -0.16372,-0.31036 0,-0.11943 0.0469,-0.21982 0.14141,-0.30118 0.0945,-0.0814 0.24081,-0.12205 0.4393,-0.12238 0.18865,3.3e-4 0.32874,0.0308 0.4206,0.0925 0.0919,0.0614 0.15519,0.15223 0.18964,0.27264 l -0.34416,0.0636 c -0.0148,-0.0535 -0.0427,-0.0948 -0.0837,-0.12336 -0.0413,-0.0285 -0.10007,-0.0427 -0.17619,-0.043 -0.0961,3.3e-4 -0.16502,0.0138 -0.20636,0.0403 -0.0279,0.019 -0.0417,0.0436 -0.0417,0.0742 0,0.0259 0.0121,0.0479 0.0364,0.0663 0.0328,0.0243 0.14665,0.0584 0.34088,0.10236 0.19455,0.0443 0.33005,0.0984 0.40715,0.16241 0.0761,0.065 0.1145,0.15551 0.1145,0.27165 0,0.12631 -0.0528,0.23523 -0.15846,0.32579 -0.10597,0.0912 -0.26214,0.13648 -0.46916,0.13648 -0.18767,0 -0.33662,-0.0381 -0.44587,-0.11418 -0.1099,-0.0761 -0.18143,-0.17978 -0.21522,-0.31069 z m 1.59908,-0.98589 h 0.34022 v 0.20276 c 0.044,-0.0692 0.10368,-0.12533 0.17913,-0.16864 0.0755,-0.0433 0.1588,-0.065 0.25066,-0.0653 0.1601,3.3e-4 0.29626,0.063 0.40781,0.18865 0.11187,0.12566 0.16765,0.30052 0.16765,0.5246 0,0.23032 -0.0564,0.40945 -0.16864,0.53708 -0.11286,0.12762 -0.24934,0.1916 -0.40912,0.1916 -0.0764,0 -0.14567,-0.0151 -0.20734,-0.0453 -0.062,-0.0302 -0.12697,-0.0823 -0.19554,-0.15617 v 0.69489 h -0.36483 z m 0.36089,0.66634 c 0,0.15518 0.0308,0.26968 0.0922,0.34383 0.0617,0.0742 0.13648,0.11089 0.22474,0.11089 0.085,0 0.15551,-0.0338 0.21194,-0.10203 0.0561,-0.0679 0.0843,-0.17914 0.0843,-0.33432 0,-0.14469 -0.0292,-0.25197 -0.0873,-0.32218 -0.0581,-0.0699 -0.12992,-0.10498 -0.21555,-0.10531 -0.0889,3.3e-4 -0.16306,0.0348 -0.22179,0.10334 -0.059,0.0689 -0.0886,0.17093 -0.0886,0.30578 z m 1.54823,-0.24541 -0.33104,-0.0597 c 0.0371,-0.1332 0.10105,-0.23196 0.19226,-0.29593 0.0909,-0.0643 0.22572,-0.0961 0.40518,-0.0965 0.16273,3.3e-4 0.28379,0.0197 0.36352,0.0581 0.0797,0.0384 0.13582,0.0873 0.1683,0.14666 0.0325,0.0594 0.0486,0.1683 0.0489,0.32677 l -0.004,0.42585 c 0,0.12139 0.006,0.21063 0.0174,0.26837 0.0115,0.0577 0.0335,0.11942 0.0656,0.18504 h -0.36121 c -0.01,-0.0243 -0.021,-0.06 -0.0348,-0.10794 -0.006,-0.0213 -0.0105,-0.0358 -0.0131,-0.0427 -0.0623,0.0607 -0.12893,0.1063 -0.20013,0.13648 -0.0709,0.0302 -0.14665,0.0453 -0.22703,0.0453 -0.14206,0 -0.25394,-0.0384 -0.33596,-0.11549 -0.0817,-0.0771 -0.1227,-0.17454 -0.1227,-0.29232 0,-0.0778 0.0187,-0.14731 0.0558,-0.20833 0.0371,-0.061 0.0892,-0.10794 0.1565,-0.14042 0.0673,-0.0325 0.16404,-0.0607 0.29035,-0.085 0.17061,-0.0322 0.28872,-0.062 0.35466,-0.0899 v -0.0361 c 0,-0.0702 -0.0174,-0.12008 -0.0518,-0.14993 -0.0348,-0.0299 -0.10006,-0.045 -0.19619,-0.045 -0.065,0 -0.11581,0.0128 -0.1519,0.0381 -0.0368,0.0259 -0.066,0.0705 -0.0886,0.13451 z m 0.48851,0.29626 c -0.0469,0.0157 -0.12073,0.0345 -0.22211,0.0558 -0.10138,0.0217 -0.16765,0.043 -0.19882,0.0637 -0.0476,0.0338 -0.0715,0.0768 -0.0712,0.12861 -3.3e-4,0.0512 0.0187,0.0955 0.0571,0.13255 0.0381,0.0374 0.0866,0.0558 0.14534,0.0558 0.0656,0 0.12861,-0.0216 0.18832,-0.065 0.0443,-0.0328 0.0732,-0.0732 0.087,-0.12073 0.01,-0.0312 0.0144,-0.0902 0.0144,-0.17783 z m 1.0689,0.6624 h -0.36483 v -1.37959 h 0.33891 v 0.19619 c 0.0581,-0.0925 0.11023,-0.15354 0.15649,-0.18307 0.0463,-0.0292 0.0991,-0.044 0.15781,-0.0443 0.0833,3.3e-4 0.16339,0.0233 0.24049,0.0692 l -0.11319,0.31791 c -0.0613,-0.0397 -0.11877,-0.0597 -0.17126,-0.0597 -0.0512,0 -0.0945,0.0141 -0.12992,0.0423 -0.0358,0.0282 -0.0636,0.0791 -0.084,0.15256 -0.0203,0.0738 -0.0305,0.22802 -0.0305,0.46227 z m 1.48326,-0.43898 0.36385,0.061 c -0.0469,0.1332 -0.12074,0.23491 -0.22146,0.30446 -0.10105,0.0699 -0.22736,0.10466 -0.37861,0.10466 -0.23983,0 -0.41732,-0.0784 -0.53248,-0.23524 -0.0912,-0.12533 -0.13648,-0.28379 -0.13648,-0.47506 0,-0.22868 0.0597,-0.40781 0.17913,-0.53707 0.11943,-0.1296 0.27067,-0.19423 0.45341,-0.19456 0.20506,3.3e-4 0.36713,0.0679 0.4859,0.20341 0.11843,0.1355 0.17519,0.34318 0.16994,0.62303 h -0.91437 c 0.003,0.10827 0.0322,0.19226 0.0883,0.25263 0.0564,0.06 0.12664,0.0902 0.21063,0.0902 0.0571,0 0.10499,-0.0157 0.14403,-0.0469 0.039,-0.0312 0.0682,-0.0814 0.0883,-0.15059 z m 0.021,-0.36909 c -0.003,-0.10531 -0.0299,-0.18569 -0.082,-0.24081 -0.0518,-0.0548 -0.11516,-0.0823 -0.18963,-0.0823 -0.0797,0 -0.14534,0.0289 -0.19751,0.0869 -0.0518,0.0581 -0.0774,0.13681 -0.0764,0.23622 z m 1.91568,0.80807 h -0.36483 v -0.70407 c 0,-0.14862 -0.008,-0.24508 -0.0233,-0.28904 -0.0157,-0.0436 -0.0413,-0.0774 -0.0761,-0.1017 -0.0351,-0.0243 -0.0774,-0.0364 -0.12664,-0.0364 -0.0633,0 -0.12008,0.0174 -0.17028,0.0518 -0.0502,0.0348 -0.0846,0.0807 -0.10334,0.13779 -0.0184,0.0571 -0.0279,0.16273 -0.0279,0.31693 v 0.62467 h -0.36483 v -1.37959 h 0.33891 v 0.20276 c 0.12041,-0.15584 0.27198,-0.2336 0.45473,-0.23393 0.0804,3.3e-4 0.15387,0.0148 0.2208,0.0436 0.0666,0.0292 0.11712,0.0663 0.15124,0.11122 0.0341,0.0449 0.0581,0.0961 0.0715,0.15321 0.0135,0.0571 0.02,0.13911 0.02,0.24541 z m 1.57414,-0.97145 -0.35958,0.065 c -0.0125,-0.0718 -0.04,-0.12599 -0.0827,-0.16241 -0.043,-0.0364 -0.0984,-0.0545 -0.16667,-0.0548 -0.0912,3.3e-4 -0.16371,0.0315 -0.21785,0.0945 -0.0541,0.0627 -0.081,0.16765 -0.081,0.31496 0,0.16372 0.0275,0.2792 0.0823,0.34679 0.0551,0.0676 0.12894,0.10137 0.22179,0.10105 0.0692,3.2e-4 0.12565,-0.0194 0.16995,-0.0591 0.0443,-0.0394 0.0751,-0.10695 0.0935,-0.20308 l 0.35859,0.061 c -0.0374,0.16437 -0.10892,0.28871 -0.21456,0.3727 -0.10565,0.084 -0.24705,0.12599 -0.42454,0.12599 -0.20177,0 -0.36253,-0.0636 -0.48261,-0.19095 -0.12008,-0.12696 -0.17979,-0.30347 -0.17979,-0.52854 0,-0.22769 0.06,-0.40485 0.18044,-0.53182 0.12041,-0.12697 0.28314,-0.19029 0.48852,-0.19062 0.16765,3.3e-4 0.30118,0.0364 0.40059,0.1086 0.0991,0.0725 0.17027,0.18274 0.21358,0.33071 z m 0.10532,-0.40814 h 0.38845 l 0.32972,0.97933 0.32218,-0.97933 h 0.37795 l -0.48688,1.32775 -0.0869,0.24016 c -0.0322,0.0804 -0.063,0.14173 -0.0919,0.18438 -0.0292,0.0423 -0.0623,0.0768 -0.10007,0.10335 -0.0377,0.0263 -0.084,0.0469 -0.13878,0.0617 -0.0551,0.0148 -0.11712,0.022 -0.18635,0.022 -0.0702,0 -0.1391,-0.007 -0.20669,-0.022 l -0.0325,-0.28576 c 0.0571,0.0111 0.1086,0.0171 0.15453,0.0171 0.085,0 0.14764,-0.0253 0.18832,-0.0748 0.0407,-0.0499 0.0719,-0.11319 0.0935,-0.19029"
       style="fill:#000000;fill-opacity:1;fill-rule:nonzero;stroke:none;stroke-width:0.328083" />
    <path
       id="path289"
       d="m 111.78377,156.9722 h -0.38445 v -1.90413 h 0.38445 z m -0.38452,0 z m 2.00164,0 h -0.36516 v -0.70407 c 0,-0.14862 -0.008,-0.24508 -0.0233,-0.28871 -0.0157,-0.044 -0.041,-0.0778 -0.0761,-0.10204 -0.0351,-0.0243 -0.0771,-0.0364 -0.12664,-0.0364 -0.063,0 -0.11975,0.0174 -0.16994,0.0518 -0.0502,0.0348 -0.0846,0.0807 -0.10335,0.1378 -0.0187,0.0571 -0.0279,0.16273 -0.0279,0.31693 v 0.62467 h -0.36515 v -1.37926 h 0.33923 v 0.20242 c 0.12008,-0.15551 0.27166,-0.23359 0.45473,-0.23359 0.0804,0 0.15387,0.0144 0.22047,0.0433 0.0666,0.0292 0.11713,0.0663 0.15157,0.11123 0.0341,0.0449 0.0581,0.0961 0.0712,0.15321 0.0135,0.0574 0.0203,0.13911 0.0203,0.24541 z m 1.00393,-1.37926 v 0.29068 h -0.24934 v 0.5561 c 0,0.11253 0.002,0.17815 0.007,0.19685 0.005,0.0187 0.0154,0.0338 0.0325,0.0459 0.0167,0.0121 0.0371,0.0184 0.0617,0.0184 0.0335,0 0.0823,-0.0118 0.14665,-0.0351 l 0.0312,0.28313 c -0.085,0.0364 -0.1811,0.0545 -0.28839,0.0545 -0.0656,0 -0.125,-0.0112 -0.17782,-0.0331 -0.0528,-0.022 -0.0915,-0.0505 -0.11614,-0.0856 -0.0249,-0.0351 -0.042,-0.0824 -0.0515,-0.14239 -0.008,-0.042 -0.0118,-0.12795 -0.0115,-0.25689 v -0.6017 h -0.16765 v -0.29068 h 0.16765 v -0.27395 l 0.36614,-0.21326 v 0.48721 z m 1.05479,0.94028 0.36352,0.061 c -0.0466,0.1332 -0.12074,0.2349 -0.22146,0.30446 -0.10105,0.0699 -0.22703,0.10466 -0.37861,0.10466 -0.23982,0 -0.41732,-0.0784 -0.53248,-0.23524 -0.0909,-0.12533 -0.13648,-0.28379 -0.13648,-0.47506 0,-0.22868 0.0597,-0.40781 0.17946,-0.53708 0.11943,-0.12959 0.27034,-0.19422 0.45309,-0.19422 0.20538,0 0.36712,0.0676 0.48589,0.20308 0.11844,0.13583 0.17519,0.34318 0.17027,0.62303 h -0.91436 c 0.002,0.10827 0.0318,0.19259 0.0883,0.25263 0.0561,0.06 0.12631,0.0902 0.2103,0.0902 0.0571,0 0.10532,-0.0157 0.14436,-0.0469 0.0387,-0.0312 0.0682,-0.0814 0.0883,-0.15059 z m 0.0207,-0.36909 c -0.003,-0.10532 -0.0298,-0.1857 -0.0817,-0.24081 -0.0522,-0.0548 -0.11516,-0.0823 -0.18963,-0.0823 -0.0797,0 -0.14567,0.0292 -0.19751,0.0869 -0.0522,0.0581 -0.0778,0.13681 -0.0768,0.23622 z m 0.6273,0.89895 0.41699,0.0508 c 0.007,0.0486 0.0226,0.0817 0.0482,0.0997 0.0344,0.0259 0.0889,0.039 0.16338,0.039 0.0951,0 0.16667,-0.0141 0.21457,-0.0427 0.0318,-0.0194 0.0561,-0.0499 0.0725,-0.0925 0.0112,-0.0302 0.0167,-0.086 0.0171,-0.16732 v -0.20145 c -0.10925,0.14895 -0.24705,0.22343 -0.41306,0.22343 -0.18537,0 -0.33235,-0.0784 -0.44029,-0.23491 -0.085,-0.12402 -0.12729,-0.27789 -0.12729,-0.4626 0,-0.23097 0.0554,-0.4078 0.16666,-0.52985 0.11122,-0.12205 0.24967,-0.18307 0.41503,-0.18307 0.1706,0 0.31135,0.0748 0.42224,0.22473 v -0.19356 h 0.34154 v 1.23753 c 0,0.16305 -0.0135,0.28444 -0.0404,0.36515 -0.0269,0.0804 -0.0643,0.1437 -0.11286,0.18964 -0.0486,0.0456 -0.11319,0.0817 -0.19422,0.10761 -0.081,0.0262 -0.1834,0.039 -0.30709,0.039 -0.23392,0 -0.39961,-0.04 -0.4977,-0.12008 -0.0978,-0.08 -0.14666,-0.18176 -0.14666,-0.30446 0,-0.0125 3.3e-4,-0.0269 10e-4,-0.0443 z m 0.32611,-0.80906 c -3.3e-4,0.14633 0.0282,0.25328 0.085,0.32153 0.0567,0.0679 0.12664,0.10203 0.20997,0.1017 0.0889,3.3e-4 0.16437,-0.0348 0.22572,-0.10433 0.0617,-0.0699 0.0925,-0.1729 0.0925,-0.30971 0,-0.14304 -0.0295,-0.24902 -0.0886,-0.31824 -0.0587,-0.0692 -0.13321,-0.104 -0.22343,-0.104 -0.0876,0 -0.15945,0.0341 -0.2162,0.10203 -0.0568,0.0679 -0.0853,0.17159 -0.085,0.31102 z m 1.6834,0.71818 h -0.36516 v -1.37926 h 0.33924 v 0.19586 c 0.0577,-0.0922 0.10991,-0.15321 0.15617,-0.18307 0.0466,-0.0292 0.0991,-0.044 0.15813,-0.044 0.083,0 0.16306,0.023 0.24016,0.0689 l -0.11286,0.31824 c -0.0617,-0.04 -0.11877,-0.06 -0.17159,-0.06 -0.0512,0 -0.0945,0.0144 -0.12992,0.0423 -0.0354,0.0282 -0.0637,0.0791 -0.0837,0.15256 -0.0207,0.0738 -0.0305,0.22802 -0.0305,0.4626 z m 1.04954,-1.56627 h -0.365 v -0.3377 h 0.365 z m -0.36516,0 z m 0.36516,1.56627 h -0.365 v -1.37946 h 0.365 z m -0.36516,0 z m 1.3704,-1.37926 v 0.29068 h -0.24934 v 0.5561 c 0,0.11253 0.002,0.17815 0.007,0.19685 0.005,0.0187 0.0158,0.0338 0.0325,0.0459 0.0167,0.0121 0.0374,0.0184 0.0617,0.0184 0.0338,0 0.0827,-0.0118 0.14698,-0.0351 l 0.0312,0.28313 c -0.085,0.0364 -0.1811,0.0545 -0.28839,0.0545 -0.0659,0 -0.12532,-0.0112 -0.17815,-0.0331 -0.0528,-0.022 -0.0915,-0.0505 -0.11614,-0.0856 -0.0246,-0.0351 -0.0417,-0.0824 -0.0512,-0.14239 -0.008,-0.042 -0.0118,-0.12795 -0.0118,-0.25689 v -0.6017 h -0.16732 v -0.29068 h 0.16732 v -0.27395 l 0.36647,-0.21326 v 0.48721 z m 0.083,0 h 0.38845 l 0.33005,0.97932 0.32185,-0.97932 h 0.37795 l -0.48687,1.32742 -0.087,0.24016 c -0.0322,0.0804 -0.063,0.14206 -0.0919,0.18438 -0.0292,0.0423 -0.0623,0.0768 -0.10006,0.10335 -0.0374,0.0262 -0.084,0.0469 -0.13878,0.0617 -0.0551,0.0148 -0.11713,0.022 -0.18635,0.022 -0.0702,0 -0.13911,-0.007 -0.2067,-0.022 l -0.0325,-0.28576 c 0.0571,0.0112 0.1086,0.0171 0.15453,0.0171 0.085,0 0.14764,-0.0249 0.18865,-0.0748 0.0403,-0.0499 0.0715,-0.11319 0.0932,-0.19028"
       style="fill:#000000;fill-opacity:1;fill-rule:nonzero;stroke:none;stroke-width:0.328083" />
    <path
       id="path290"
       d="m 108.74375,174.54729 h 0.38451 v 1.03117 c 0,0.16404 0.005,0.27001 0.0141,0.31824 0.0164,0.0781 0.0558,0.14074 0.11746,0.18766 0.062,0.0476 0.14665,0.0712 0.25426,0.0709 0.10892,3.2e-4 0.19127,-0.0223 0.24672,-0.0669 0.0554,-0.0446 0.0886,-0.0994 0.10006,-0.16437 0.0112,-0.0646 0.0167,-0.17257 0.0167,-0.32316 v -1.05348 h 0.38451 v 1 c 0,0.22867 -0.0105,0.39009 -0.0312,0.48458 -0.021,0.0945 -0.0594,0.17421 -0.11516,0.23884 -0.0558,0.0653 -0.13057,0.1168 -0.22375,0.15551 -0.0938,0.0384 -0.21588,0.0574 -0.36647,0.0577 -0.18176,-3.3e-4 -0.31955,-0.021 -0.41371,-0.063 -0.0938,-0.042 -0.16831,-0.0965 -0.22277,-0.16371 -0.0545,-0.0669 -0.0905,-0.13747 -0.10761,-0.21096 -0.0253,-0.10925 -0.0377,-0.27034 -0.0377,-0.48326 z m 3.17716,1.9042 h -0.36516 v -0.70407 c 0,-0.14895 -0.008,-0.24508 -0.0233,-0.28904 -0.0157,-0.0436 -0.041,-0.0774 -0.0761,-0.10204 -0.0351,-0.0239 -0.0774,-0.0361 -0.12664,-0.0361 -0.0633,0 -0.11975,0.0174 -0.16994,0.0518 -0.0505,0.0348 -0.085,0.0804 -0.10335,0.13747 -0.0187,0.0574 -0.0282,0.16306 -0.0279,0.31725 v 0.62468 h -0.36515 v -1.37959 h 0.33923 v 0.20275 c 0.12008,-0.15584 0.27166,-0.23359 0.4544,-0.23392 0.0804,3.3e-4 0.1542,0.0148 0.2208,0.0436 0.0666,0.0292 0.11712,0.0663 0.15125,0.11089 0.0341,0.0453 0.0581,0.0961 0.0715,0.15355 0.0134,0.0571 0.02,0.1391 0.0203,0.2454 z m 0.73622,0 h -0.36499 v -1.90413 h 0.36499 z m -0.36483,0 z m 1.10269,-1.5666 h -0.365 v -0.33767 h 0.365 z m -0.36483,0 z m 0.36483,1.5666 h -0.365 v -1.37943 h 0.365 z m -0.36483,0 z m 1.99245,0 h -0.36516 v -0.70407 c 0,-0.14895 -0.008,-0.24508 -0.0233,-0.28904 -0.0157,-0.0436 -0.041,-0.0774 -0.0761,-0.10204 -0.0351,-0.0239 -0.0774,-0.0361 -0.12664,-0.0361 -0.0633,0 -0.11975,0.0174 -0.16994,0.0518 -0.0505,0.0348 -0.085,0.0804 -0.10335,0.13747 -0.0187,0.0574 -0.0282,0.16306 -0.0279,0.31725 v 0.62468 h -0.36515 v -1.37959 h 0.33923 v 0.20275 c 0.12008,-0.15584 0.27166,-0.23359 0.4544,-0.23392 0.0804,3.3e-4 0.1542,0.0148 0.2208,0.0436 0.0666,0.0292 0.11712,0.0663 0.15125,0.11089 0.0344,0.0453 0.0581,0.0961 0.0715,0.15355 0.0135,0.0571 0.02,0.1391 0.0203,0.2454 z m 0.35827,0 v -1.9042 h 0.36515 v 1.0105 l 0.42717,-0.48589 h 0.44947 l -0.47145,0.50393 0.50524,0.87566 h -0.39337 l -0.34711,-0.61975 -0.16995,0.17815 v 0.4416 z m 1.7664,-0.95866 -0.33104,-0.0597 c 0.0371,-0.1332 0.10105,-0.23195 0.19226,-0.29625 0.0909,-0.064 0.22572,-0.0958 0.40518,-0.0961 0.16273,3.3e-4 0.28379,0.0194 0.36352,0.0581 0.0797,0.0384 0.13582,0.0873 0.1683,0.14665 0.0325,0.0594 0.0486,0.16831 0.0486,0.32677 l -0.004,0.42585 c -3.3e-4,0.1214 0.006,0.21063 0.0174,0.26838 0.0115,0.0577 0.0335,0.11942 0.0656,0.18504 h -0.36122 c -0.01,-0.0243 -0.0213,-0.0604 -0.0351,-0.10794 -0.006,-0.0217 -0.0102,-0.0358 -0.0128,-0.0426 -0.0623,0.0607 -0.12927,0.10597 -0.20014,0.13615 -0.0712,0.0305 -0.14698,0.0453 -0.22736,0.0456 -0.14206,-3.2e-4 -0.25393,-0.0387 -0.33563,-0.11581 -0.082,-0.0768 -0.1227,-0.17421 -0.1227,-0.29199 0,-0.0781 0.0184,-0.14731 0.0558,-0.20867 0.0371,-0.061 0.0892,-0.10761 0.1565,-0.14009 0.0673,-0.0325 0.16404,-0.061 0.29035,-0.0853 0.17061,-0.0318 0.28872,-0.0617 0.35466,-0.0896 v -0.0364 c 0,-0.0699 -0.0174,-0.12008 -0.0522,-0.14994 -0.0344,-0.0299 -0.10007,-0.0446 -0.19587,-0.0446 -0.065,0 -0.11581,0.0128 -0.15223,0.0381 -0.0364,0.0256 -0.0656,0.0705 -0.0883,0.13452 z m 0.48851,0.29626 c -0.0469,0.0157 -0.12106,0.0344 -0.22211,0.0558 -0.10138,0.0216 -0.16765,0.043 -0.19882,0.0636 -0.0476,0.0338 -0.0715,0.0768 -0.0715,0.12861 0,0.0512 0.019,0.0955 0.0574,0.13254 0.0381,0.0371 0.0863,0.0558 0.14534,0.0558 0.0656,0 0.12861,-0.0217 0.18832,-0.065 0.0443,-0.0328 0.0732,-0.0732 0.087,-0.12074 0.01,-0.0312 0.0144,-0.0906 0.0144,-0.17815 z m 0.70407,0.6624 v -1.9042 h 0.36483 v 0.68569 c 0.11253,-0.12795 0.24573,-0.19192 0.40026,-0.19225 0.16765,3.3e-4 0.30676,0.061 0.41667,0.18274 0.1099,0.12139 0.16502,0.29626 0.16502,0.52395 0,0.23556 -0.0561,0.41699 -0.16831,0.54429 -0.1122,0.1273 -0.24835,0.19062 -0.40846,0.19094 -0.0787,-3.2e-4 -0.15649,-0.0197 -0.23294,-0.0591 -0.0768,-0.0394 -0.14271,-0.0978 -0.19816,-0.17487 v 0.20276 z m 0.3622,-0.71982 c 0,0.14305 0.0226,0.24869 0.0676,0.31693 0.0633,0.0971 0.14731,0.14567 0.25197,0.14567 0.0804,0 0.14927,-0.0344 0.20603,-0.10335 0.0564,-0.0689 0.085,-0.17716 0.085,-0.32513 0,-0.15781 -0.0285,-0.27132 -0.0856,-0.34121 -0.0574,-0.0695 -0.13058,-0.10433 -0.21982,-0.10433 -0.0873,0 -0.1601,0.0338 -0.21817,0.10171 -0.0577,0.0682 -0.087,0.17126 -0.087,0.30971 z m 1.64436,-0.84678 h -0.365 v -0.33767 h 0.365 z m -0.36483,0 z m 0.36483,1.5666 h -0.365 v -1.37943 h 0.365 z m -0.36483,0 z m 1.10269,0 h -0.36503 v -1.90413 h 0.36503 z m -0.36483,0 z m 1.10269,-1.5666 h -0.365 v -0.33767 h 0.365 z m -0.36516,0 z m 0.36516,1.5666 h -0.365 v -1.37943 h 0.365 z m -0.36516,0 z m 1.3704,-1.37959 v 0.29101 h -0.24934 v 0.5561 c 0,0.11253 0.002,0.17815 0.007,0.19652 0.005,0.0187 0.0157,0.0341 0.0325,0.0463 0.0167,0.0121 0.0374,0.018 0.0617,0.018 0.0338,0 0.0827,-0.0115 0.14698,-0.0351 l 0.0312,0.28313 c -0.085,0.0364 -0.1811,0.0545 -0.28839,0.0548 -0.0659,-3.2e-4 -0.12532,-0.0112 -0.17815,-0.0331 -0.0528,-0.0223 -0.0915,-0.0505 -0.11614,-0.0856 -0.0246,-0.0351 -0.0417,-0.0823 -0.0512,-0.14239 -0.008,-0.0423 -0.0118,-0.12795 -0.0118,-0.25722 v -0.60137 h -0.16732 v -0.29101 h 0.16732 v -0.27395 l 0.36647,-0.21293 v 0.48688 z m 0.083,0 h 0.38845 l 0.32972,0.97932 0.32218,-0.97932 h 0.37795 l -0.48687,1.32742 -0.087,0.24049 c -0.0322,0.0804 -0.063,0.14173 -0.0919,0.18438 -0.0292,0.0423 -0.0623,0.0768 -0.10006,0.10334 -0.0377,0.0263 -0.084,0.0469 -0.13878,0.0617 -0.0551,0.0144 -0.11713,0.022 -0.18635,0.022 -0.0702,0 -0.13911,-0.007 -0.2067,-0.022 l -0.0325,-0.28576 c 0.0571,0.0112 0.1086,0.0167 0.15453,0.0167 0.085,0 0.14764,-0.0249 0.18832,-0.0745 0.0407,-0.0499 0.0719,-0.11352 0.0935,-0.19029"
       style="fill:#000000;fill-opacity:1;fill-rule:nonzero;stroke:none;stroke-width:0.328083" />
    <path
       id="path291"
       d="m 140.9343,176.45116 h -0.38445 v -1.90413 h 0.38445 z m -0.38452,0 z m 2.00164,0 h -0.36483 v -0.70374 c 0,-0.14895 -0.008,-0.2454 -0.0236,-0.28904 -0.0157,-0.0436 -0.041,-0.0778 -0.0758,-0.10203 -0.0351,-0.0239 -0.0774,-0.0361 -0.12664,-0.0364 -0.0633,3.3e-4 -0.12008,0.0174 -0.17027,0.0522 -0.0502,0.0344 -0.0846,0.0804 -0.10335,0.13746 -0.0184,0.0571 -0.0279,0.16306 -0.0279,0.31693 v 0.62467 h -0.36482 v -1.37926 h 0.33891 v 0.20275 c 0.1204,-0.15583 0.27198,-0.23392 0.45472,-0.23392 0.0804,0 0.15387,0.0148 0.2208,0.0436 0.0666,0.0292 0.11713,0.0659 0.15125,0.11089 0.0341,0.0453 0.0581,0.0961 0.0715,0.15321 0.0135,0.0574 0.02,0.13911 0.02,0.24541 z m 1.00394,-1.37926 v 0.29101 h -0.24935 v 0.55577 c 0,0.11286 0.003,0.17848 0.007,0.19685 0.005,0.0187 0.0154,0.0341 0.0325,0.0463 0.0167,0.0121 0.0374,0.0181 0.0617,0.0181 0.0338,0 0.0827,-0.0118 0.14698,-0.0351 l 0.0308,0.28314 c -0.0846,0.0364 -0.18077,0.0545 -0.28806,0.0545 -0.0659,0 -0.12532,-0.0108 -0.17814,-0.0328 -0.0528,-0.0223 -0.0915,-0.0508 -0.11615,-0.086 -0.0246,-0.0348 -0.0417,-0.0824 -0.0512,-0.14206 -0.008,-0.0423 -0.0118,-0.12828 -0.0118,-0.25721 v -0.60138 h -0.16765 v -0.29101 h 0.16765 v -0.27395 l 0.36614,-0.21325 v 0.4872 z m 1.05478,0.94029 0.36385,0.061 c -0.0469,0.13353 -0.12074,0.23491 -0.22179,0.30479 -0.10072,0.0696 -0.22703,0.10433 -0.3786,0.10433 -0.23983,0 -0.41733,-0.0781 -0.53216,-0.23491 -0.0912,-0.12565 -0.13681,-0.28412 -0.13648,-0.47539 -3.3e-4,-0.22868 0.0597,-0.40748 0.17914,-0.53707 0.11942,-0.12927 0.27066,-0.19423 0.45341,-0.19423 0.20505,0 0.36712,0.0679 0.48556,0.20341 0.11877,0.1355 0.17552,0.34318 0.17028,0.62271 h -0.91437 c 0.003,0.10826 0.0318,0.19258 0.0882,0.25262 0.0564,0.0604 0.12631,0.0902 0.2103,0.0902 0.0571,0 0.10532,-0.0154 0.14436,-0.0469 0.039,-0.0308 0.0682,-0.081 0.0882,-0.15059 z m 0.0207,-0.36877 c -0.002,-0.10564 -0.0299,-0.18602 -0.0817,-0.24081 -0.0522,-0.0551 -0.11516,-0.0824 -0.18963,-0.0827 -0.0797,3.3e-4 -0.14567,0.0292 -0.19751,0.0869 -0.0518,0.0581 -0.0774,0.13681 -0.0764,0.23655 z m 1.0105,0.80774 h -0.36483 v -1.37926 h 0.33891 v 0.19619 c 0.0581,-0.0925 0.11024,-0.15354 0.1565,-0.18307 0.0463,-0.0295 0.0991,-0.0443 0.15781,-0.0443 0.0833,0 0.16338,0.023 0.24048,0.0689 l -0.11319,0.31824 c -0.0614,-0.0397 -0.11876,-0.0597 -0.17126,-0.0597 -0.0512,0 -0.0945,0.0141 -0.12992,0.042 -0.0358,0.0286 -0.0636,0.0791 -0.084,0.15256 -0.0203,0.0738 -0.0305,0.22802 -0.0305,0.4626 z m 1.06397,0 -0.5561,-1.37926 h 0.3832 l 0.25985,0.70407 0.0755,0.2349 c 0.0197,-0.0594 0.0322,-0.0991 0.0377,-0.11811 0.0118,-0.039 0.0249,-0.0778 0.0387,-0.11679 l 0.26247,-0.70407 h 0.37532 l -0.5479,1.37926 z m 1.90026,-0.43897 0.36352,0.061 c -0.0466,0.13353 -0.12074,0.23491 -0.22146,0.30479 -0.10105,0.0696 -0.22703,0.10433 -0.37861,0.10433 -0.23982,0 -0.41732,-0.0781 -0.53247,-0.23491 -0.0909,-0.12565 -0.13649,-0.28412 -0.13649,-0.47539 0,-0.22868 0.0597,-0.40748 0.17946,-0.53707 0.11943,-0.12927 0.27035,-0.19423 0.45309,-0.19423 0.20538,0 0.36712,0.0679 0.48589,0.20341 0.11844,0.1355 0.1752,0.34318 0.17027,0.62271 h -0.91469 c 0.003,0.10826 0.0322,0.19258 0.0886,0.25262 0.0561,0.0604 0.12631,0.0902 0.2103,0.0902 0.0571,0 0.10532,-0.0154 0.14436,-0.0469 0.0387,-0.0308 0.0682,-0.081 0.0882,-0.15059 z m 0.0207,-0.36877 c -0.003,-0.10564 -0.0298,-0.18602 -0.0817,-0.24081 -0.0522,-0.0551 -0.11549,-0.0824 -0.18963,-0.0827 -0.0797,3.3e-4 -0.14567,0.0292 -0.19751,0.0869 -0.0522,0.0581 -0.0777,0.13681 -0.0768,0.23655 z m 1.91601,0.80774 h -0.36516 v -0.70374 c 0,-0.14895 -0.008,-0.2454 -0.0233,-0.28904 -0.0157,-0.0436 -0.041,-0.0778 -0.0761,-0.10203 -0.0351,-0.0239 -0.0771,-0.0361 -0.12664,-0.0364 -0.0633,3.3e-4 -0.11975,0.0174 -0.16994,0.0522 -0.0505,0.0344 -0.085,0.0804 -0.10335,0.13746 -0.0187,0.0571 -0.0282,0.16306 -0.0279,0.31693 v 0.62467 h -0.36515 v -1.37926 h 0.33923 v 0.20275 c 0.12008,-0.15583 0.27166,-0.23392 0.4544,-0.23392 0.0804,0 0.1542,0.0148 0.2208,0.0436 0.0666,0.0292 0.11712,0.0659 0.15125,0.11089 0.0344,0.0453 0.0581,0.0961 0.0715,0.15321 0.0134,0.0574 0.02,0.13911 0.0203,0.24541 z m 0.64403,-0.95833 -0.33104,-0.06 c 0.0371,-0.1332 0.10105,-0.23195 0.19226,-0.29593 0.0909,-0.064 0.22572,-0.0961 0.40518,-0.0961 0.16273,0 0.28379,0.0194 0.36352,0.0577 0.0797,0.0387 0.13582,0.0876 0.1683,0.14666 0.0325,0.0594 0.0486,0.1683 0.0486,0.32677 l -0.004,0.42618 c 0,0.12106 0.006,0.21063 0.0174,0.26804 0.0115,0.0577 0.0335,0.11942 0.0656,0.18504 h -0.36122 c -0.01,-0.0243 -0.021,-0.06 -0.0351,-0.10761 -0.006,-0.0216 -0.0102,-0.0358 -0.0128,-0.043 -0.0623,0.0607 -0.12927,0.1063 -0.20014,0.13648 -0.0709,0.0302 -0.14698,0.0453 -0.22736,0.0453 -0.14206,0 -0.25361,-0.0384 -0.33563,-0.11549 -0.0817,-0.0771 -0.1227,-0.17454 -0.1227,-0.29232 0,-0.0778 0.0184,-0.14731 0.0558,-0.20833 0.0371,-0.061 0.0892,-0.10794 0.1565,-0.14042 0.0673,-0.0325 0.16404,-0.0607 0.29035,-0.085 0.17061,-0.0322 0.28872,-0.062 0.35466,-0.0896 v -0.0364 c 0,-0.0702 -0.0174,-0.12008 -0.0518,-0.14993 -0.0348,-0.0299 -0.10007,-0.0446 -0.1962,-0.045 -0.065,3.3e-4 -0.11581,0.0128 -0.1519,0.0384 -0.0368,0.0256 -0.066,0.0702 -0.0886,0.13451 z m 0.48851,0.29593 c -0.0466,0.0157 -0.12073,0.0344 -0.22211,0.0561 -0.10138,0.0217 -0.16765,0.0426 -0.19882,0.0636 -0.0476,0.0338 -0.0715,0.0764 -0.0712,0.12828 -3.3e-4,0.0512 0.0187,0.0955 0.0571,0.13255 0.0381,0.0374 0.0863,0.0561 0.14534,0.0558 0.0656,3.3e-4 0.12861,-0.0213 0.18832,-0.0646 0.0443,-0.0331 0.0732,-0.0735 0.087,-0.12106 0.01,-0.0308 0.0144,-0.0902 0.0144,-0.17782 z m 0.70374,0.6624 v -1.90387 h 0.36516 v 0.6857 c 0.11253,-0.12795 0.24573,-0.19226 0.39993,-0.19226 0.16798,0 0.30709,0.061 0.417,0.18242 0.1099,0.12171 0.16502,0.29625 0.16502,0.52427 0,0.23557 -0.0561,0.417 -0.16831,0.54429 -0.1122,0.1273 -0.24835,0.19062 -0.40846,0.19062 -0.0787,0 -0.15649,-0.0197 -0.23294,-0.0591 -0.0768,-0.039 -0.14304,-0.0974 -0.19816,-0.17454 v 0.20243 z m 0.36253,-0.71949 c 0,0.14305 0.0226,0.24869 0.0676,0.31693 0.063,0.0971 0.14698,0.14567 0.25197,0.14534 0.0804,3.3e-4 0.14895,-0.0341 0.2057,-0.10301 0.0568,-0.0689 0.085,-0.17717 0.0853,-0.32546 -3.3e-4,-0.15748 -0.0289,-0.27133 -0.086,-0.34088 -0.0571,-0.0695 -0.13025,-0.10433 -0.21949,-0.10466 -0.0873,3.3e-4 -0.1601,0.0341 -0.21817,0.10203 -0.0581,0.0682 -0.087,0.17126 -0.087,0.30971 z m 1.64436,-0.84678 h -0.365 v -0.33766 h 0.365 z m -0.36483,0 z m 0.36483,1.56627 h -0.365 v -1.37942 h 0.365 z m -0.36483,0 z m 1.10269,0 h -0.365 v -1.90413 h 0.365 z m -0.36516,0 z m 1.10302,-1.56627 h -0.365 v -0.33766 h 0.365 z m -0.36516,0 z m 0.36516,1.56627 h -0.365 v -1.37942 h 0.365 z m -0.36516,0 z m 1.3704,-1.37926 v 0.29101 h -0.24934 v 0.55577 c 0,0.11286 0.002,0.17848 0.007,0.19685 0.005,0.0187 0.0154,0.0341 0.0322,0.0463 0.0171,0.0121 0.0374,0.0181 0.0617,0.0181 0.0338,0 0.0827,-0.0118 0.14698,-0.0351 l 0.0312,0.28314 c -0.085,0.0364 -0.1811,0.0545 -0.28839,0.0545 -0.0659,0 -0.125,-0.0108 -0.17782,-0.0328 -0.0532,-0.0223 -0.0919,-0.0508 -0.11647,-0.086 -0.0246,-0.0348 -0.0417,-0.0824 -0.0512,-0.14206 -0.008,-0.0423 -0.0118,-0.12828 -0.0118,-0.25721 v -0.60138 h -0.16732 v -0.29101 h 0.16732 v -0.27395 l 0.36647,-0.21325 v 0.4872 z m 0.083,0 h 0.38845 l 0.33005,0.97933 0.32185,-0.97933 h 0.37795 l -0.48687,1.32742 -0.087,0.24016 c -0.0322,0.0807 -0.063,0.14206 -0.0919,0.18471 -0.0292,0.0423 -0.0623,0.0768 -0.10006,0.10302 -0.0374,0.0266 -0.084,0.0469 -0.13878,0.0617 -0.0551,0.0148 -0.11713,0.0223 -0.18635,0.0223 -0.0702,0 -0.13911,-0.008 -0.2067,-0.022 l -0.0322,-0.28609 c 0.0571,0.0115 0.10827,0.0171 0.1542,0.0171 0.085,0 0.14764,-0.0249 0.18865,-0.0748 0.0404,-0.0499 0.0715,-0.11319 0.0935,-0.19029"
       style="fill:#000000;fill-opacity:1;fill-rule:nonzero;stroke:none;stroke-width:0.328083" />
    <path
       id="path292"
       d="m 128.22338,185.08664 h -0.41831 l -0.16601,-0.43241 h -0.76115 l -0.15715,0.43241 h -0.40814 l 0.7418,-1.9042 h 0.40649 z m -0.708,-0.75328 -0.26214,-0.70669 -0.25722,0.70669 z m 1.29002,0.75328 -0.5561,-1.37959 h 0.3832 l 0.25984,0.70407 0.0755,0.23523 c 0.0197,-0.0597 0.0322,-0.0991 0.0374,-0.11811 0.0121,-0.039 0.0253,-0.0781 0.039,-0.11712 l 0.26247,-0.70407 h 0.37533 l -0.54823,1.37959 z m 1.37401,-0.95866 -0.33103,-0.0597 c 0.0371,-0.1332 0.10105,-0.23196 0.19225,-0.29626 0.0909,-0.064 0.22572,-0.0958 0.40519,-0.0958 0.16273,0 0.28379,0.019 0.36351,0.0577 0.0797,0.0384 0.13583,0.0873 0.16831,0.14666 0.0325,0.0594 0.0486,0.1683 0.0486,0.32677 l -0.004,0.42585 c -3.3e-4,0.12139 0.006,0.21063 0.0174,0.26837 0.0115,0.0577 0.0335,0.11942 0.0656,0.18504 h -0.36122 c -0.01,-0.0243 -0.021,-0.06 -0.0351,-0.10794 -0.006,-0.0213 -0.0102,-0.0358 -0.0128,-0.0427 -0.0623,0.0607 -0.12926,0.1063 -0.20013,0.13615 -0.0712,0.0305 -0.14698,0.0456 -0.22736,0.0456 -0.14206,0 -0.25361,-0.0384 -0.33563,-0.11549 -0.082,-0.0771 -0.1227,-0.17454 -0.1227,-0.29232 0,-0.0778 0.0184,-0.14731 0.0558,-0.20833 0.0371,-0.061 0.0892,-0.10794 0.1565,-0.14042 0.0673,-0.0325 0.16404,-0.061 0.29035,-0.085 0.1706,-0.0322 0.28871,-0.062 0.35466,-0.0899 v -0.0361 c 0,-0.0702 -0.0174,-0.12008 -0.0518,-0.14993 -0.0348,-0.0299 -0.10006,-0.045 -0.19619,-0.045 -0.065,0 -0.11582,0.0128 -0.1519,0.0381 -0.0368,0.0259 -0.0659,0.0705 -0.0886,0.13451 z m 0.48852,0.29626 c -0.0469,0.0157 -0.12074,0.0344 -0.22211,0.0558 -0.10138,0.0217 -0.16765,0.043 -0.19882,0.0636 -0.0476,0.0338 -0.0715,0.0768 -0.0712,0.12861 -3.2e-4,0.0512 0.0187,0.0955 0.0571,0.13255 0.0381,0.0374 0.0863,0.0558 0.14534,0.0558 0.0656,0 0.12861,-0.0216 0.18832,-0.065 0.0443,-0.0328 0.0732,-0.0732 0.0869,-0.12073 0.01,-0.0312 0.0144,-0.0902 0.0144,-0.17783 z m 1.08464,-0.9042 h -0.36499 v -0.33766 h 0.36499 z m -0.36515,0 z m 0.36515,1.5666 h -0.36499 v -1.37943 h 0.36499 z m -0.36515,0 z m 1.10268,0 h -0.36502 v -1.90413 h 0.36502 z m -0.36482,0 z m 1.01049,-0.95866 -0.33136,-0.0597 c 0.0371,-0.1332 0.10138,-0.23196 0.19225,-0.29626 0.0909,-0.064 0.22605,-0.0958 0.40552,-0.0958 0.1624,0 0.28379,0.019 0.36351,0.0577 0.0794,0.0384 0.1355,0.0873 0.16831,0.14666 0.0322,0.0594 0.0486,0.1683 0.0486,0.32677 l -0.004,0.42585 c 0,0.12139 0.006,0.21063 0.0174,0.26837 0.0118,0.0577 0.0335,0.11942 0.0656,0.18504 h -0.36089 c -0.01,-0.0243 -0.0213,-0.06 -0.0351,-0.10794 -0.006,-0.0213 -0.0105,-0.0358 -0.0131,-0.0427 -0.0623,0.0607 -0.12893,0.1063 -0.1998,0.13615 -0.0712,0.0305 -0.14698,0.0456 -0.22736,0.0456 -0.14206,0 -0.25394,-0.0384 -0.33596,-0.11549 -0.0817,-0.0771 -0.1227,-0.17454 -0.1227,-0.29232 0,-0.0778 0.0187,-0.14731 0.0561,-0.20833 0.0371,-0.061 0.0892,-0.10794 0.1565,-0.14042 0.0669,-0.0325 0.16371,-0.061 0.29035,-0.085 0.17027,-0.0322 0.28871,-0.062 0.35433,-0.0899 v -0.0361 c 0,-0.0702 -0.0171,-0.12008 -0.0518,-0.14993 -0.0348,-0.0299 -0.10006,-0.045 -0.19619,-0.045 -0.065,0 -0.11581,0.0128 -0.1519,0.0381 -0.0364,0.0259 -0.0659,0.0705 -0.0883,0.13451 z m 0.48819,0.29626 c -0.0466,0.0157 -0.12073,0.0344 -0.22211,0.0558 -0.10138,0.0217 -0.16765,0.043 -0.19882,0.0636 -0.0476,0.0338 -0.0712,0.0768 -0.0712,0.12861 0,0.0512 0.019,0.0955 0.0571,0.13255 0.0381,0.0374 0.0866,0.0558 0.14534,0.0558 0.0659,0 0.12861,-0.0216 0.18865,-0.065 0.044,-0.0328 0.0732,-0.0732 0.0869,-0.12073 0.01,-0.0312 0.0141,-0.0902 0.0141,-0.17783 z m 0.70407,0.6624 v -1.9042 h 0.36483 v 0.6857 c 0.11253,-0.12795 0.24606,-0.19193 0.40026,-0.19193 0.16765,0 0.30675,0.0607 0.41666,0.18241 0.11024,0.12172 0.16503,0.29626 0.16503,0.52395 0,0.23557 -0.0561,0.41733 -0.16831,0.54429 -0.11187,0.1273 -0.24836,0.19095 -0.40846,0.19095 -0.0787,0 -0.1565,-0.0197 -0.23294,-0.0591 -0.0768,-0.0394 -0.14272,-0.0978 -0.19816,-0.17487 v 0.20276 z m 0.36253,-0.71949 c 0,0.14272 0.0223,0.24836 0.0673,0.31693 0.0633,0.0971 0.14731,0.14534 0.25196,0.14534 0.0804,0 0.14928,-0.0344 0.20604,-0.10334 0.0564,-0.0686 0.085,-0.17717 0.085,-0.32513 0,-0.15781 -0.0285,-0.27133 -0.0856,-0.34121 -0.0574,-0.0695 -0.13057,-0.10433 -0.21948,-0.10433 -0.0876,0 -0.16044,0.0341 -0.21818,0.10203 -0.0581,0.0679 -0.0869,0.17126 -0.0869,0.30971 z m 1.64435,-0.84711 h -0.36502 v -0.33766 h 0.36502 z m -0.36515,0 z m 0.36515,1.5666 h -0.36502 v -1.37943 h 0.36502 z m -0.36515,0 z m 1.10268,0 h -0.36499 v -1.90413 h 0.36499 z m -0.36483,0 z m 1.10269,-1.5666 h -0.36499 v -0.33766 h 0.36499 z m -0.36483,0 z m 0.36483,1.5666 h -0.36499 v -1.37943 h 0.36499 z m -0.36483,0 z m 1.37008,-1.37959 v 0.29101 h -0.24934 v 0.5561 c 0,0.11253 0.002,0.17815 0.007,0.19685 0.005,0.0187 0.0154,0.0338 0.0325,0.0459 0.0167,0.0121 0.0371,0.0184 0.0617,0.0184 0.0335,0 0.0827,-0.0118 0.14666,-0.0351 l 0.0312,0.28314 c -0.085,0.0361 -0.18111,0.0545 -0.28839,0.0545 -0.0656,0 -0.125,-0.0112 -0.17782,-0.0331 -0.0528,-0.022 -0.0915,-0.0505 -0.11614,-0.0856 -0.0249,-0.0351 -0.042,-0.0824 -0.0515,-0.14239 -0.008,-0.0423 -0.0118,-0.12795 -0.0115,-0.25721 v -0.60138 h -0.16765 v -0.29101 h 0.16765 v -0.27395 l 0.36614,-0.21293 v 0.48688 z m 0.0833,0 h 0.38813 l 0.33005,0.97966 0.32218,-0.97966 h 0.37795 l -0.48721,1.32742 -0.0869,0.24049 c -0.0322,0.0804 -0.0627,0.14206 -0.0915,0.18438 -0.0292,0.0423 -0.0627,0.0768 -0.10007,0.10335 -0.0377,0.0263 -0.084,0.0469 -0.13911,0.0617 -0.0548,0.0148 -0.11712,0.022 -0.18635,0.022 -0.0702,0 -0.1391,-0.007 -0.20636,-0.022 l -0.0325,-0.28576 c 0.0571,0.0112 0.10859,0.0171 0.15453,0.0171 0.0846,0 0.14763,-0.0253 0.18831,-0.0748 0.0407,-0.0499 0.0719,-0.11319 0.0935,-0.19029"
       style="fill:#000000;fill-opacity:1;fill-rule:nonzero;stroke:none;stroke-width:0.328083" />
  </g>
</svg>
