<?xml version="1.0" encoding="UTF-8" standalone="no"?>
<svg id="Layer_1" data-name="Layer 1" width="50mm" height="50mm" viewBox="0 0 141.7323 141.7322" version="1.1" sodipodi:docname="PHB_Piktogramme_Kerninhalte_220422_Digitalitaet.svg" inkscape:version="1.4.2 (ebf0e940, 2025-05-08)" xmlns:inkscape="http://www.inkscape.org/namespaces/inkscape" xmlns:sodipodi="http://sodipodi.sourceforge.net/DTD/sodipodi-0.dtd" xmlns="http://www.w3.org/2000/svg" xmlns:svg="http://www.w3.org/2000/svg">
  <sodipodi:namedview id="namedview18" pagecolor="#ffffff" bordercolor="#000000" borderopacity="0.25" inkscape:showpageshadow="2" inkscape:pageopacity="0.0" inkscape:pagecheckerboard="0" inkscape:deskcolor="#d1d1d1" inkscape:document-units="mm" inkscape:zoom="3.1708346" inkscape:cx="63.232564" inkscape:cy="113.2194" inkscape:window-width="1472" inkscape:window-height="805" inkscape:window-x="0" inkscape:window-y="33" inkscape:window-maximized="1" inkscape:current-layer="Layer_1"/>
  <defs id="defs1">
    <style id="style1">
      .cls-1 {
        fill: #fff;
      }

      .cls-2 {
        fill: #b50938;
      }
    </style>
  </defs>
  <rect class="cls-2" width="141.7323" height="141.7322" id="rect1" style="fill-opacity:1.0;fill:#adab6b"/>
  <g id="g17">
    <g id="g4">
      <g id="g1">
        <circle class="cls-2" cx="63.7935" cy="92.6173" r="4.5873" id="circle1" style="fill-opacity:1.0;fill:#adab6b"/>
        <path class="cls-1" d="M63.7937,98.5325c-3.2609,0-5.9146-2.6537-5.9146-5.9146,0-3.2631,2.6537-5.9168,5.9146-5.9168s5.9146,2.6537,5.9146,5.9168c0,3.2609-2.6537,5.9146-5.9146,5.9146ZM63.7937,89.3571c-1.7953,0-3.2587,1.4634-3.2587,3.2609,0,1.7953,1.4634,3.2587,3.2587,3.2587s3.2587-1.4634,3.2587-3.2587c0-1.7975-1.4634-3.2609-3.2587-3.2609Z" id="path1" style="fill-opacity:1.0;fill:#ffffff"/>
      </g>
      <g id="g2">
        <circle class="cls-2" cx="77.9388" cy="92.6173" r="4.5873" id="circle2" style="fill-opacity:1.0;fill:#adab6b"/>
        <path class="cls-1" d="M77.938,98.5325c-3.2609,0-5.9146-2.6537-5.9146-5.9146,0-3.2631,2.6537-5.9168,5.9146-5.9168,3.2631,0,5.9168,2.6537,5.9168,5.9168,0,3.2609-2.6537,5.9146-5.9168,5.9146ZM77.938,89.3571c-1.7953,0-3.2587,1.4634-3.2587,3.2609,0,1.7953,1.4634,3.2587,3.2587,3.2587,1.7975,0,3.2609-1.4634,3.2609-3.2587,0-1.7975-1.4634-3.2609-3.2609-3.2609Z" id="path2" style="fill-opacity:1.0;fill:#ffffff"/>
      </g>
      <g id="g3">
        <circle class="cls-2" cx="92.0841" cy="92.6173" r="4.5873" id="circle3" style="fill-opacity:1.0;fill:#adab6b"/>
        <path class="cls-1" d="M92.0846,98.5325c-3.2609,0-5.9146-2.6537-5.9146-5.9146,0-3.2631,2.6537-5.9168,5.9146-5.9168s5.9146,2.6537,5.9146,5.9168c0,3.2609-2.6537,5.9146-5.9146,5.9146ZM92.0846,89.3571c-1.7953,0-3.2587,1.4634-3.2587,3.2609,0,1.7953,1.4634,3.2587,3.2587,3.2587s3.2587-1.4634,3.2587-3.2587c0-1.7975-1.4634-3.2609-3.2587-3.2609Z" id="path3" style="fill-opacity:1.0;fill:#ffffff"/>
      </g>
    </g>
    <g id="g7">
      <g id="g5">
        <circle class="cls-2" cx="63.7935" cy="78.1165" r="4.5873" id="circle4" style="fill-opacity:1.0;fill:#adab6b"/>
        <path class="cls-1" d="M63.7937,84.0322c-3.2609,0-5.9146-2.6537-5.9146-5.9146,0-3.2631,2.6537-5.9168,5.9146-5.9168s5.9146,2.6537,5.9146,5.9168c0,3.2609-2.6537,5.9146-5.9146,5.9146ZM63.7937,74.8567c-1.7953,0-3.2587,1.4634-3.2587,3.2609,0,1.7953,1.4634,3.2587,3.2587,3.2587s3.2587-1.4634,3.2587-3.2587c0-1.7975-1.4634-3.2609-3.2587-3.2609Z" id="path4" style="fill-opacity:1.0;fill:#ffffff"/>
      </g>
      <g id="g6">
        <circle class="cls-2" cx="49.6482" cy="78.1165" r="4.5873" id="circle5" style="fill-opacity:1.0;fill:#adab6b"/>
        <path class="cls-1" d="M49.6472,84.0322c-3.2609,0-5.9146-2.6537-5.9146-5.9146,0-3.2631,2.6537-5.9168,5.9146-5.9168,3.2631,0,5.9168,2.6537,5.9168,5.9168,0,3.2609-2.6537,5.9146-5.9168,5.9146ZM49.6472,74.8567c-1.7953,0-3.2587,1.4634-3.2587,3.2609,0,1.7953,1.4634,3.2587,3.2587,3.2587,1.7975,0,3.2609-1.4634,3.2609-3.2587,0-1.7975-1.4634-3.2609-3.2609-3.2609Z" id="path5" style="fill-opacity:1.0;fill:#ffffff"/>
      </g>
    </g>
    <g id="g8">
      <circle class="cls-2" cx="92.0841" cy="63.6157" r="4.5873" id="circle7" style="fill-opacity:1.0;fill:#adab6b"/>
      <path class="cls-1" d="M92.0846,69.5318c-3.2609,0-5.9146-2.6537-5.9146-5.9168,0-3.2609,2.6537-5.9146,5.9146-5.9146s5.9146,2.6537,5.9146,5.9146c0,3.2631-2.6537,5.9168-5.9146,5.9168ZM92.0846,60.3564c-1.7953,0-3.2587,1.4634-3.2587,3.2587,0,1.7975,1.4634,3.2609,3.2587,3.2609s3.2587-1.4634,3.2587-3.2609c0-1.7953-1.4634-3.2587-3.2587-3.2587Z" id="path7" style="fill-opacity:1.0;fill:#ffffff"/>
    </g>
    <g id="g9">
      <circle class="cls-2" cx="77.9388" cy="49.1149" r="4.5873" id="circle8" style="fill-opacity:1.0;fill:#adab6b"/>
      <path class="cls-1" d="M77.938,55.0293c-3.2609,0-5.9146-2.6526-5.9146-5.9146s2.6537-5.9157,5.9146-5.9157c3.2631,0,5.9168,2.6537,5.9168,5.9157s-2.6537,5.9146-5.9168,5.9146ZM77.938,45.8571c-1.7953,0-3.2587,1.4612-3.2587,3.2576s1.4634,3.2576,3.2587,3.2576c1.7975,0,3.2609-1.4612,3.2609-3.2576s-1.4634-3.2576-3.2609-3.2576Z" id="path8" style="fill-opacity:1.0;fill:#ffffff"/>
    </g>
    <g id="g10">
      <circle class="cls-2" cx="49.6482" cy="49.1149" r="4.5873" id="circle9" style="fill-opacity:1.0;fill:#adab6b"/>
      <path class="cls-1" d="M49.6472,55.0293c-3.2609,0-5.9146-2.6526-5.9146-5.9146s2.6537-5.9157,5.9146-5.9157c3.2631,0,5.9168,2.6537,5.9168,5.9157s-2.6537,5.9146-5.9168,5.9146ZM49.6472,45.8571c-1.7953,0-3.2587,1.4612-3.2587,3.2576s1.4634,3.2576,3.2587,3.2576c1.7975,0,3.2609-1.4612,3.2609-3.2576s-1.4634-3.2576-3.2609-3.2576Z" id="path9" style="fill-opacity:1.0;fill:#ffffff"/>
    </g>
    <rect class="cls-1" x="62.4658" y="44.2845" width="2.6559" height="9.6614" id="rect10" style="fill-opacity:1.0;fill:#ffffff"/>
    <rect class="cls-1" x="48.3192" y="58.786" width="2.6559" height="9.6603" id="rect11" style="fill-opacity:1.0;fill:#ffffff"/>
    <rect class="cls-1" x="62.4658" y="58.786" width="2.6559" height="9.6603" id="rect12" style="fill-opacity:1.0;fill:#ffffff"/>
    <rect class="cls-1" x="76.6101" y="58.786" width="2.6559" height="9.6603" id="rect13" style="fill-opacity:1.0;fill:#ffffff"/>
    <rect class="cls-1" x="76.6101" y="73.2863" width="2.6559" height="9.6603" id="rect14" style="fill-opacity:1.0;fill:#ffffff"/>
    <rect class="cls-1" x="48.3192" y="87.7867" width="2.6559" height="9.6603" id="rect15" style="fill-opacity:1.0;fill:#ffffff"/>
    <rect class="cls-1" x="90.7566" y="73.2863" width="2.6559" height="9.6603" id="rect16" style="fill-opacity:1.0;fill:#ffffff"/>
    <rect class="cls-1" x="90.7566" y="44.2845" width="2.6559" height="9.6614" id="rect17" style="fill-opacity:1.0;fill:#ffffff"/>
  </g>
  <path class="cls-1" d="M28.7221,41.4838c2.2945-1.3672,3.8366-3.8657,3.8366-6.7306,0-4.3288-3.5092-7.8379-7.838-7.8379s-7.838,3.5091-7.838,7.8379c0,2.8649,1.5421,5.3634,3.8366,6.7306-3.8538,1.373-6.6366,5.0551-6.6366,9.3649v23.9617h21.2763v-23.9617c0-4.3098-2.7829-7.9919-6.6368-9.3649Z" id="path17" style="fill-opacity:1.0;fill:#ffffff"/>
  <path class="cls-1" d="M121.0128,77.8555c2.2945-1.3672,3.8366-3.8657,3.8366-6.7306,0-4.3288-3.5092-7.8379-7.838-7.8379s-7.838,3.5091-7.838,7.8379c0,2.8649,1.5421,5.3634,3.8366,6.7306-3.8538,1.373-6.6366,5.0551-6.6366,9.3649v23.9617h21.2763v-23.9617c0-4.3098-2.7829-7.9919-6.6368-9.3649Z" id="path18" style="fill-opacity:1.0;fill:#ffffff"/>
</svg>