<?xml version="1.0" encoding="UTF-8" standalone="no"?>
<svg id="Layer_1" data-name="Layer 1" width="100mm" height="100mm" viewBox="0 0 283.4646 283.4644" version="1.1" sodipodi:docname="IS1_Digi_Kommunikation.svg" inkscape:version="1.4.3 (0d15f75, 2025-12-25)" xmlns:inkscape="http://www.inkscape.org/namespaces/inkscape" xmlns:sodipodi="http://sodipodi.sourceforge.net/DTD/sodipodi-0.dtd" xmlns="http://www.w3.org/2000/svg" xmlns:svg="http://www.w3.org/2000/svg">
  <sodipodi:namedview id="namedview18" pagecolor="#ffffff" bordercolor="#000000" borderopacity="0.25" inkscape:showpageshadow="2" inkscape:pageopacity="0.0" inkscape:pagecheckerboard="0" inkscape:deskcolor="#d1d1d1" inkscape:document-units="mm" inkscape:zoom="1.0424583" inkscape:cx="-17.746513" inkscape:cy="289.69983" inkscape:window-width="1920" inkscape:window-height="937" inkscape:window-x="0" inkscape:window-y="30" inkscape:window-maximized="1" inkscape:current-layer="Layer_1"/>
  <defs id="defs1">
    <style id="style1">
      .cls-1 {
        fill: #fff;
      }

      .cls-2 {
        fill: #b50938;
      }
    </style>
  </defs>
  <rect class="cls-2" width="141.7323" height="141.73219" id="rect1" x="141.73219" y="141.7323"/>
  <rect class="cls-2" width="283.46451" height="141.73225" id="rect1-3" x="-1.7848733e-05" y="0" style="fill:#9ebecc;fill-opacity:1;stroke-width:1.41421"/>
  <path class="a" d="m 187.89208,104.87614 c -0.004,-9.033403 -0.009,-20.942282 -0.0131,-28.772334 a 3.8490602,3.286182 0 0 1 3.84969,-3.289911 l 69.78972,-0.02024 a 3.8503081,3.2872474 0 0 1 3.85217,3.289378 c 0,10.519615 0.005,27.167337 0.01,37.838237 2.56749,3.08056 8.07934,9.56716 10.76726,13.48938 a 2.9524644,2.5207024 0 0 1 0.39744,1.27421 c 0,0.40057 -0.01,2.26926 -0.01,2.77 a 2.2517844,1.9224883 0 0 1 -2.25179,1.91768 h -95.67994 a 1.876799,1.60234 0 0 1 -1.87743,-1.6018 c 0,-2.47276 -0.0106,-0.65734 -0.0106,-3.08962 a 2.9518405,2.5201697 0 0 1 0.39682,-1.2742 c 2.71661,-3.9643 8.25218,-10.65705 10.7841,-13.69021 -0.001,-2.23358 -0.003,-5.3184 -0.005,-8.84057 z" id="path1-8" style="fill:#ffffff;stroke-width:0.576513"/>
  <path class="a" d="m 19.429401,104.87614 c -0.0037,-9.033403 -0.0093,-20.942282 -0.01309,-28.772334 a 3.8490602,3.286182 0 0 1 3.849685,-3.289911 l 69.789715,-0.02024 a 3.8503081,3.2872474 0 0 1 3.852181,3.289378 c 0,10.519615 0.0049,27.167337 0.01,37.838237 2.567493,3.08056 8.079348,9.56716 10.767258,13.48938 a 2.9524644,2.5207024 0 0 1 0.39745,1.27421 c 0,0.40057 -0.01,2.26926 -0.01,2.77 a 2.2517844,1.9224883 0 0 1 -2.25178,1.91768 H 10.14087 a 1.876799,1.60234 0 0 1 -1.8774239,-1.6018 c 0,-2.47276 -0.010608,-0.65734 -0.010608,-3.08962 a 2.9518405,2.5201697 0 0 1 0.3968242,-1.2742 c 2.7166147,-3.9643 8.2521737,-10.65705 10.7841087,-13.69021 -0.0013,-2.23358 -0.0027,-5.3184 -0.0045,-8.84057 z" id="path2-0" style="fill:#ffffff;stroke-width:0.576513"/>
  <path class="b" d="m 85.704489,59.630813 a 49.698985,42.431113 0 0 1 14.26629,-13.258724 c 6.988081,-4.191227 15.067431,-6.813673 23.413821,-8.237561 a 88.861565,75.866647 0 0 1 15.38875,-1.382338 90.786408,77.509998 0 0 1 16.13685,0.827271 63.96528,54.611136 0 0 1 24.45829,7.609518 61.097046,52.162347 0 0 1 15.87854,12.653585 q 0.78117,0.883204 1.52678,1.788249 c 0.91843,1.112263 3.08348,0.04901 2.15507,-1.075507 A 66.817289,57.046073 0 0 0 183.19884,44.825682 63.562842,54.267547 0 0 0 159.08371,36.065016 93.635299,79.942276 0 0 0 126.34143,35.532323 c -8.92228,1.164467 -17.70979,3.600471 -25.37859,7.718187 A 52.663931,44.962471 0 0 0 84.945159,56.628024 q -0.726883,0.946063 -1.395745,1.923554 c -0.811115,1.185774 1.34209,2.25915 2.155075,1.075506 z" id="path3-2" style="fill:#211715;stroke-width:0.576513"/>
  <path class="a" d="m 108.80696,10.762107 c 0,9.728036 -0.008,22.333147 -0.0112,32.136292 a 3.7947777,3.2398377 0 0 0 3.79727,3.241969 c 13.19936,0.0032 41.30455,0.01385 55.10975,0.01598 a 3.7935299,3.2387723 0 0 0 3.79728,-3.241435 c 0,-9.801548 0.005,-22.403462 0.0119,-32.134162 a 3.792906,3.2382396 0 0 0 -3.79478,-3.2430338 c -11.57588,0 -42.21425,-0.01278 -55.11163,-0.015447 a 3.7941539,3.239305 0 0 0 -3.79852,3.2398378 z" id="path4-4" style="fill:#ffffff;stroke-width:0.576513"/>
  <path class="c" d="m 259.24538,117.18401 a 1.9604064,1.6737208 0 0 1 1.60913,0.71754 c 0.87663,1.06858 1.80068,2.21866 2.68292,3.37567 a 1.9685176,1.6806458 0 0 1 -1.65343,2.59422 h -70.51161 a 1.9678936,1.6801131 0 0 1 -1.6528,-2.59422 c 0.88287,-1.15754 1.80941,-2.30763 2.68293,-3.37674 a 1.9610304,1.6742535 0 0 1 1.60975,-0.71807 c 14.00049,0 51.23511,0 65.23497,0" id="path5-8" style="fill:#cfcfcf;stroke-width:0.576513"/>
  <path class="b" d="m 259.77946,118.43904 c 0.73875,0.90238 1.47,1.81115 2.18379,2.72632 0.31758,0.40804 1.02887,1.04194 0.39744,1.49153 a 0.92841652,0.79264691 0 0 1 -0.66137,0.14703 c -0.67322,0.0128 -1.34833,0 -2.02155,0 h -67.59971 c -0.55156,0 -1.42382,0.0879 -1.43505,-0.60355 a 1.6403273,1.4004494 0 0 1 0.40494,-0.71274 q 0.58213,-0.75535 1.17986,-1.5022 c 0.44112,-0.55186 0.97646,-1.68543 1.84934,-1.73976 1.16864,-0.0725 2.37533,0 3.54708,0 h 57.37839 c 1.60538,0 1.6085,-2.13077 0,-2.13077 h -58.99938 c -1.61786,0 -3.34554,-0.1742 -4.48234,1.03022 -0.83796,0.88747 -1.55486,1.88574 -2.29422,2.83446 -0.61208,0.78519 -1.17737,1.5219 -1.0451,2.50366 a 3.2594408,2.7827873 0 0 0 3.20017,2.45038 c 0.48043,0.0165 0.96585,0 1.44629,0 h 68.59051 c 1.71644,0 3.33867,-0.72179 3.63755,-2.30868 a 3.8515559,3.2883127 0 0 0 -0.8548,-2.43015 c -0.73936,-0.95405 -1.49745,-1.89639 -2.26676,-2.83393 -0.91406,-1.11599 -3.0785,-0.0533 -2.15508,1.07498 z" id="path6" style="fill:#211715;stroke-width:0.576513"/>
  <path class="b" d="m 192.62088,77.847311 q 0.004,7.955233 0.008,15.911002 0.004,7.684097 0.008,15.368717 0,1.58849 0,3.17645 a 1.2653419,1.080301 0 0 0 1.24788,1.06538 l 24.05584,-0.007 30.1542,-0.009 q 5.64599,0 11.29323,-0.003 a 1.2665897,1.0813664 0 0 0 1.24788,-1.06538 q -0.006,-13.903287 -0.0143,-27.806572 l -0.004,-6.649071 a 1.2659658,1.0808337 0 0 0 -1.24788,-1.065386 h -5.57611 l -13.74095,0.0043 -17.42028,0.0048 -16.61666,0.0048 -11.3288,0.0032 h -0.8211 c -1.60539,0 -1.60851,2.130771 0,2.130771 l 10.35297,-0.0027 16.20049,-0.0043 17.56567,-0.0053 14.44535,-0.0043 h 4.65207 a 20.032708,17.103168 0 0 0 2.19002,0 0.84418519,0.72073339 0 0 1 0.0973,0 l -1.24787,-1.065383 q 0.008,13.467006 0.0143,26.933481 l 0.004,7.52162 1.24786,-1.06539 q -11.90594,0 -23.81126,0.007 l -30.22282,0.009 -11.46982,0.004 1.24788,1.06538 q -0.005,-4.47462 -0.005,-8.94924 -0.005,-8.65306 -0.009,-17.305589 0,-4.101734 -0.005,-8.203468 c 0.002,-1.369021 -2.49388,-1.371152 -2.49325,0.0023 z" id="path7-39" style="fill:#211715;stroke-width:0.576513"/>
  <path class="b" d="m 189.13995,104.87614 q -0.004,-9.262992 -0.008,-18.526519 0,-4.314812 -0.005,-8.629624 c 0,-1.124516 -0.24457,-2.409903 0.83296,-3.252091 0.85355,-0.666398 1.89988,-0.590756 2.97181,-0.591289 l 30.95345,-0.0085 33.68069,-0.01012 h 3.13029 c 1.21292,0 2.3229,0.08576 3.03607,1.051002 0.69756,0.944464 0.38995,2.373679 0.38995,3.439066 v 3.971224 q 0,8.909821 0.005,17.820711 0,4.32759 0,8.65519 v 3.9089 c 0,0.61313 -0.13227,1.31789 0.25644,1.85644 0.32008,0.4432 0.71627,0.85657 1.07067,1.27846 1.79132,2.13982 3.57827,4.28232 5.31968,6.45197 0.89722,1.11866 1.78383,2.24158 2.64299,3.38047 q 0.55031,0.72872 1.08128,1.4665 a 3.7298884,3.1844376 0 0 1 0.79427,1.60767 c 0.0156,0.88959 0.0743,1.81967 -0.01,2.70555 -0.0786,0.82195 -0.88038,0.8523 -1.6422,0.8523 h -94.3211 c -0.58213,0 -1.22416,0.0911 -1.34646,-0.53642 a 14.967597,12.778768 0 0 1 -0.009,-1.92728 5.3589849,4.5752985 0 0 1 0.1304,-1.7483 14.034813,11.982393 0 0 1 1.06069,-1.51338 c 1.66092,-2.28472 3.43164,-4.51244 5.2161,-6.72685 q 1.29467,-1.60446 2.60868,-3.19615 0.53783,-0.65308 1.07878,-1.30403 a 6.0403231,5.1569992 0 0 0 1.03948,-1.35251 9.1487711,7.8108747 0 0 0 0.0437,-1.91769 v -2.08337 q 0,-2.56331 0,-5.1261 c 0,-1.37115 -2.49574,-1.37328 -2.49574,0 q 0,4.42135 0.005,8.8427 l 0.17034,-0.53749 q -2.79461,3.35117 -5.51996,6.74389 -1.49183,1.86815 -2.93998,3.76081 a 26.804907,22.885016 0 0 0 -2.57125,3.63882 c -0.44735,0.9466 -0.32445,1.99761 -0.31196,3.00067 0.015,1.38499 -0.12479,2.77426 1.39013,3.65906 1.19296,0.6973 3.05728,0.45439 4.45177,0.45439 h 91.57819 a 10.095282,8.6189697 0 0 0 2.14571,-0.0725 c 1.88242,-0.35691 2.73658,-1.77173 2.74096,-3.30269 0.004,-1.12825 0.21463,-2.44666 -0.21215,-3.53282 a 10.632491,9.077618 0 0 0 -1.16925,-1.81861 c -0.46234,-0.63551 -0.9359,-1.26462 -1.41821,-1.89 -1.96602,-2.55693 -4.03124,-5.05525 -6.10833,-7.54559 q -1.20731,-1.4468 -2.41775,-2.89199 l 0.17033,0.53749 q -0.007,-15.403878 -0.01,-30.807757 c 0,-2.287382 0.0188,-4.574768 0,-6.86215 a 5.2079926,4.4463871 0 0 0 -5.30364,-4.523098 c -4.11797,-0.02078 -8.23595,0 -12.35393,0.0037 l -31.75209,0.0091 -14.61071,0.0043 h -6.23187 c -1.66966,0 -3.41169,-0.11879 -5.07385,0.02237 a 5.1724279,4.4160234 0 0 0 -3.70243,1.797838 c -0.86291,1.004659 -0.96087,2.130772 -0.96024,3.33306 q 0,3.743765 0,7.486996 l 0.008,16.631201 v 3.85776 c 0.008,1.37648 2.50323,1.37861 2.50261,0.005 z" id="path8-0" style="fill:#211715;stroke-width:0.576513"/>
  <path class="b" d="m 267.41145,127.35259 h -71.53112 c -3.28877,0 -6.60312,-0.10175 -9.89001,0 -0.0474,0 -0.0942,0 -0.14163,0 -1.60539,0 -1.60851,2.13077 0,2.13077 h 71.53175 c 3.28876,0 6.60249,0.10121 9.89,0 0.0468,0 0.0942,0 0.14101,0 1.60602,0 1.60851,-2.13077 0,-2.13077 z" id="path9-52" style="fill:#211715;stroke-width:0.576513"/>
  <path class="c" d="m 90.782706,117.18401 a 1.9604064,1.6737208 0 0 1 1.609127,0.71754 c 0.876629,1.06858 1.800677,2.21866 2.682922,3.37567 a 1.9685176,1.6806458 0 0 1 -1.653426,2.59422 H 22.909713 a 1.9678936,1.6801131 0 0 1 -1.652802,-2.59422 c 0.882867,-1.15754 1.809413,-2.30763 2.682922,-3.37674 a 1.9610304,1.6742535 0 0 1 1.609755,-0.71807 c 14.000496,0 51.235117,0 65.234988,0" id="path10" style="fill:#cfcfcf;stroke-width:0.576513"/>
  <path class="b" d="m 91.316795,118.43904 c 0.738734,0.90238 1.469996,1.81115 2.183768,2.72632 0.317586,0.40804 1.02887,1.04194 0.397453,1.49153 a 0.92841652,0.79264691 0 0 1 -0.661369,0.14703 c -0.673235,0.0128 -1.348332,0 -2.021553,0 H 23.615389 c -0.551561,0 -1.423824,0.0879 -1.435055,-0.60355 a 1.6403273,1.4004494 0 0 1 0.406181,-0.71061 q 0.582132,-0.75535 1.179864,-1.50219 c 0.441123,-0.55186 0.97646,-1.68543 1.849346,-1.73977 1.168632,-0.0725 2.375324,0 3.547075,0 h 57.377139 c 1.605388,0 1.608509,-2.13077 0,-2.13077 H 27.540567 c -1.617866,0 -3.345544,-0.1742 -4.482355,1.03022 -0.837946,0.88747 -1.554849,1.88573 -2.294214,2.83446 -0.612079,0.78519 -1.177363,1.52191 -1.045089,2.50366 a 3.2594408,2.7827873 0 0 0 3.200167,2.45038 c 0.480431,0.0165 0.96585,0 1.446282,0 h 68.590516 c 1.716451,0 3.338682,-0.72179 3.637541,-2.30868 a 3.8515559,3.2883127 0 0 0 -0.854789,-2.43015 c -0.739359,-0.95405 -1.497445,-1.89638 -2.266756,-2.83392 -0.914067,-1.116 -3.078498,-0.0533 -2.155075,1.07497 z" id="path11" style="fill:#211715;stroke-width:0.576513"/>
  <path class="b" d="m 24.158211,77.847311 q 0.0037,7.955233 0.0081,15.911002 0.0037,7.684097 0.0081,15.368717 0,1.58849 0,3.17645 a 1.2653419,1.080301 0 0 0 1.247871,1.06538 l 24.055846,-0.007 30.154193,-0.009 q 5.646616,0 11.293232,-0.003 a 1.2665897,1.0813664 0 0 0 1.247876,-1.06538 q -0.0063,-13.903287 -0.01434,-27.806572 l -0.0035,-6.649071 A 1.2659658,1.0808337 0 0 0 90.90773,76.762449 h -5.576119 l -13.740944,0.0043 -17.420284,0.0048 -16.616659,0.0048 -11.328803,0.0032 h -0.818657 c -1.605387,0 -1.608506,2.130771 0,2.130771 l 10.352968,-0.0027 16.200494,-0.0043 17.565661,-0.0053 14.445365,-0.0043 h 4.652064 a 20.032708,17.103168 0 0 0 2.190018,0 0.84418519,0.72073339 0 0 1 0.09733,0 l -1.247869,-1.06533 q 0.0075,13.467006 0.01434,26.93348 l 0.0035,7.52162 1.247869,-1.06538 q -11.905311,0 -23.811259,0.007 l -30.222825,0.009 -11.469812,0.004 1.247871,1.06538 q -0.0044,-4.47462 -0.005,-8.94924 -0.005,-8.653058 -0.0087,-17.305587 0,-4.101734 -0.0044,-8.203468 c -6.55e-4,-1.369022 -2.496368,-1.371152 -2.495744,0.0023 z" id="path12" style="fill:#211715;stroke-width:0.576513"/>
  <path class="b" d="m 20.677271,104.87614 q -0.0037,-9.262992 -0.0081,-18.526519 0,-4.314812 -0.0045,-8.629624 c 0,-1.124516 -0.244582,-2.409903 0.832954,-3.252091 0.853547,-0.666398 1.899886,-0.590756 2.971807,-0.591289 l 30.953457,-0.0085 33.680681,-0.01012 h 3.13029 c 1.212926,0 2.3229,0.08576 3.036068,1.051002 0.697549,0.944464 0.389953,2.373679 0.389953,3.439066 v 3.971224 q 0,8.909821 0.0042,17.820711 0,4.32759 0,8.65519 v 3.9089 c 0,0.61313 -0.132271,1.31789 0.256452,1.85644 0.320073,0.4432 0.716275,0.85657 1.070666,1.27846 1.791314,2.13982 3.578281,4.28232 5.319681,6.45197 0.89721,1.11866 1.78384,2.24158 2.643,3.38047 q 0.55031,0.72872 1.08128,1.4665 a 3.7298884,3.1844376 0 0 1 0.79426,1.60767 c 0.0156,0.88959 0.0743,1.81967 -0.01,2.70555 -0.0786,0.82195 -0.88037,0.8523 -1.6422,0.8523 H 10.856522 c -0.582132,0 -1.224162,0.0911 -1.3464514,-0.53642 a 14.967597,12.778768 0 0 1 -0.00935,-1.92728 5.3589849,4.5752985 0 0 1 0.1304061,-1.7483 14.034813,11.982393 0 0 1 1.0606903,-1.51338 c 1.660918,-2.28472 3.431648,-4.51244 5.216102,-6.72685 q 1.294046,-1.60446 2.608677,-3.19615 0.537834,-0.65308 1.078787,-1.30403 a 6.0403231,5.1569992 0 0 0 1.039478,-1.35251 9.1487711,7.8108747 0 0 0 0.0437,-1.91769 v -2.08337 q 0,-2.56331 0,-5.1261 c 0,-1.37115 -2.495745,-1.37328 -2.495745,0 q 0,4.42135 0.0045,8.8427 l 0.170333,-0.53749 q -2.794611,3.35117 -5.519961,6.74389 -1.491831,1.86815 -2.9399864,3.76081 a 26.804907,22.885016 0 0 0 -2.5724867,3.64363 c -0.4473605,0.94659 -0.3244482,1.99759 -0.3119665,3.00065 0.014987,1.385 -0.1247902,2.77426 1.3901259,3.65906 1.1929684,0.6973 3.0572877,0.45439 4.4517837,0.45439 h 91.579262 a 10.095282,8.6189697 0 0 0 2.14572,-0.0724 c 1.88241,-0.35691 2.73658,-1.77174 2.74095,-3.3027 0.004,-1.12824 0.21463,-2.44666 -0.21214,-3.53281 a 10.632491,9.077618 0 0 0 -1.16926,-1.81862 c -0.46234,-0.63551 -0.93591,-1.26461 -1.4182,-1.89 -1.96603,-2.55692 -4.03126,-5.05525 -6.10833,-7.54559 q -1.207322,-1.44679 -2.417759,-2.89199 l 0.170335,0.53749 q -0.007,-15.403874 -0.01,-30.807753 c 0,-2.287382 0.0187,-4.574768 0,-6.862151 a 5.2079926,4.4463871 0 0 0 -5.303458,-4.523097 c -4.117975,-0.02077 -8.235949,0 -12.353924,0.0038 l -31.752096,0.0091 -14.610705,0.0043 H 27.9037 c -1.669651,0 -3.411681,-0.11879 -5.073845,0.02237 a 5.1724279,4.4160234 0 0 0 -3.702436,1.797838 c -0.862901,1.004659 -0.960859,2.130771 -0.960235,3.333059 q 0,3.743766 0,7.486997 l 0.0075,16.631197 v 3.85777 c 0.0075,1.37168 2.503235,1.37381 2.502607,3.8e-4 z" id="path13" style="fill:#211715;stroke-width:0.576513"/>
  <path class="b" d="M 98.948776,127.35259 H 27.417652 c -3.288765,0 -6.603113,-0.10175 -9.890006,0 -0.04743,0 -0.09422,0 -0.141637,0 -1.605385,0 -1.608504,2.13077 0,2.13077 H 88.91776 c 3.288766,0 6.602486,0.10121 9.890001,0 0.04681,0 0.09422,0 0.141015,0 1.606014,0 1.608504,-2.13077 0,-2.13077 z" id="path14" style="fill:#211715;stroke-width:0.576513"/>
  <path class="b" d="m 107.72007,10.84574 -0.008,22.0391 v 5.440392 2.39179 a 22.044277,18.82057 0 0 0 0.0674,2.746565 5.0463932,4.3084196 0 0 0 3.20078,3.369282 c 1.31027,0.433079 2.87012,0.274869 4.25089,0.275402 q 20.67036,0.0059 41.34199,0.01278 h 9.07015 c 1.55049,0 3.13154,0.106539 4.51542,-0.614195 a 5.1892745,4.4304062 0 0 0 2.43336,-3.881732 c 0.0574,-7.292033 0,-14.586196 0.006,-21.878227 q 0,-2.710341 0,-5.420149 0,-1.294977 0,-2.590486 a 20.176837,17.22622 0 0 0 -0.0668,-2.520702 5.0451451,4.307354 0 0 0 -3.20017,-3.3676836 C 168.1239,6.4478257 166.73689,6.5724757 165.46282,6.571943 l -17.49267,-0.00479 -20.55306,-0.00641 h -9.06018 -3.80601 c -1.45128,0 -2.89881,-0.079904 -4.22217,0.5278981 a 5.1100347,4.3627543 0 0 0 -2.60681,3.7602789 c -0.0449,1.371684 2.45082,1.370618 2.49575,0 a 2.5618805,2.1872367 0 0 1 2.52756,-2.1611347 c 1.10187,-0.036228 2.21435,0 3.31747,0 h 8.15983 l 19.4668,0.00533 17.89323,0.00533 h 3.52898 c 0.99206,0 2.21185,-0.1598083 3.1671,0.085763 a 2.5543934,2.1808445 0 0 1 1.44317,0.9359418 4.0331213,3.4433264 0 0 1 0.37435,1.9651039 q 0,2.484479 0,4.967893 -0.006,10.566494 -0.008,21.131924 c 0,1.612462 0.01,3.225455 0,4.837916 a 2.5955731,2.2160021 0 0 1 -2.31231,2.364623 c -1.26284,0.09748 -2.58496,0.0048 -3.85342,0.0048 h -4.3114 l -39.94062,-0.01385 h -4.10863 -1.77198 a 5.4400967,4.6445488 0 0 1 -1.95665,-0.137967 c -1.59604,-0.518843 -1.62786,-1.819679 -1.62723,-3.062451 v -5.011037 q 0,-10.562766 0.008,-21.126065 v -4.794235 c 0.002,-1.3722164 -2.49325,-1.3743472 -2.49387,-0.0011 z" id="path15" style="fill:#211715;stroke-width:0.576513"/>
  <path class="b" d="m 114.05114,14.785004 q 9.61859,7.270191 19.56164,14.217038 1.1156,0.778264 2.23681,1.551202 a 23.580407,20.13206 0 0 0 2.52819,1.710476 3.3904674,2.8946528 0 0 0 2.70663,0.266346 c 1.03823,-0.270074 1.9342,-1.071777 2.77152,-1.635899 q 5.36585,-3.625507 10.57572,-7.411888 5.98229,-4.326531 11.82483,-8.789432 c 1.2017,-0.914633 -0.56841,-2.416826 -1.76449,-1.506987 -6.56817,4.997724 -13.22744,9.908087 -20.082,14.621884 q -1.15615,0.794246 -2.31917,1.580501 c -0.51475,0.347848 -1.40199,1.23052 -2.12139,1.142093 a 2.3553578,2.0109154 0 0 1 -0.9933,-0.550272 q -0.57651,-0.39366 -1.15116,-0.789983 -1.17237,-0.808095 -2.34038,-1.621518 -4.72819,-3.29577 -9.37776,-6.674641 -5.18927,-3.765073 -10.2912,-7.617507 c -1.19858,-0.905578 -2.97055,0.59555 -1.76449,1.506455 z" id="path16" style="fill:#211715;stroke-width:0.576513"/>
  <path class="b" d="m 198.61504,50.628837 -1.36829,8.291897 a 1.2896754,1.101076 0 0 0 0.8735,1.310425 1.2566068,1.0728434 0 0 0 1.53489,-0.745771 l 1.36704,-8.291896 a 1.2915472,1.1026742 0 0 0 -0.87351,-1.310957 1.2578547,1.0739087 0 0 0 -1.5355,0.74577 z" id="path17-2" style="fill:#211715;stroke-width:0.576513"/>
  <path class="b" d="m 188.59775,59.760791 9.78581,0.563589 a 1.247872,1.065386 0 0 0 0,-2.130772 l -9.78581,-0.563588 a 1.2478716,1.0653856 0 0 0 0,2.130771 z" id="path18-7" style="fill:#211715;stroke-width:0.576513"/>
  <rect class="cls-2" width="141.7323" height="141.73219" id="rect1-3-8" x="0" y="141.7323" style="fill:#6c94a8;fill-opacity:1"/>
  <g id="g17" transform="translate(141.7322,141.73231)">
    <g id="g4">
      <g id="g1">
        <circle class="cls-2" cx="63.793499" cy="92.617302" r="4.5872998" id="circle1"/>
        <path class="cls-1" d="m 63.7937,98.5325 c -3.2609,0 -5.9146,-2.6537 -5.9146,-5.9146 0,-3.2631 2.6537,-5.9168 5.9146,-5.9168 3.2609,0 5.9146,2.6537 5.9146,5.9168 0,3.2609 -2.6537,5.9146 -5.9146,5.9146 z m 0,-9.1754 c -1.7953,0 -3.2587,1.4634 -3.2587,3.2609 0,1.7953 1.4634,3.2587 3.2587,3.2587 1.7953,0 3.2587,-1.4634 3.2587,-3.2587 0,-1.7975 -1.4634,-3.2609 -3.2587,-3.2609 z" id="path1"/>
      </g>
      <g id="g2">
        <circle class="cls-2" cx="77.938797" cy="92.617302" r="4.5872998" id="circle2"/>
        <path class="cls-1" d="m 77.938,98.5325 c -3.2609,0 -5.9146,-2.6537 -5.9146,-5.9146 0,-3.2631 2.6537,-5.9168 5.9146,-5.9168 3.2631,0 5.9168,2.6537 5.9168,5.9168 0,3.2609 -2.6537,5.9146 -5.9168,5.9146 z m 0,-9.1754 c -1.7953,0 -3.2587,1.4634 -3.2587,3.2609 0,1.7953 1.4634,3.2587 3.2587,3.2587 1.7975,0 3.2609,-1.4634 3.2609,-3.2587 0,-1.7975 -1.4634,-3.2609 -3.2609,-3.2609 z" id="path2"/>
      </g>
      <g id="g3">
        <circle class="cls-2" cx="92.084099" cy="92.617302" r="4.5872998" id="circle3"/>
        <path class="cls-1" d="m 92.0846,98.5325 c -3.2609,0 -5.9146,-2.6537 -5.9146,-5.9146 0,-3.2631 2.6537,-5.9168 5.9146,-5.9168 3.2609,0 5.9146,2.6537 5.9146,5.9168 0,3.2609 -2.6537,5.9146 -5.9146,5.9146 z m 0,-9.1754 c -1.7953,0 -3.2587,1.4634 -3.2587,3.2609 0,1.7953 1.4634,3.2587 3.2587,3.2587 1.7953,0 3.2587,-1.4634 3.2587,-3.2587 0,-1.7975 -1.4634,-3.2609 -3.2587,-3.2609 z" id="path3"/>
      </g>
    </g>
    <g id="g7">
      <g id="g5">
        <circle class="cls-2" cx="63.793499" cy="78.116501" r="4.5872998" id="circle4"/>
        <path class="cls-1" d="m 63.7937,84.0322 c -3.2609,0 -5.9146,-2.6537 -5.9146,-5.9146 0,-3.2631 2.6537,-5.9168 5.9146,-5.9168 3.2609,0 5.9146,2.6537 5.9146,5.9168 0,3.2609 -2.6537,5.9146 -5.9146,5.9146 z m 0,-9.1755 c -1.7953,0 -3.2587,1.4634 -3.2587,3.2609 0,1.7953 1.4634,3.2587 3.2587,3.2587 1.7953,0 3.2587,-1.4634 3.2587,-3.2587 0,-1.7975 -1.4634,-3.2609 -3.2587,-3.2609 z" id="path4"/>
      </g>
      <g id="g6">
        <circle class="cls-2" cx="49.648201" cy="78.116501" r="4.5872998" id="circle5"/>
        <path class="cls-1" d="m 49.6472,84.0322 c -3.2609,0 -5.9146,-2.6537 -5.9146,-5.9146 0,-3.2631 2.6537,-5.9168 5.9146,-5.9168 3.2631,0 5.9168,2.6537 5.9168,5.9168 0,3.2609 -2.6537,5.9146 -5.9168,5.9146 z m 0,-9.1755 c -1.7953,0 -3.2587,1.4634 -3.2587,3.2609 0,1.7953 1.4634,3.2587 3.2587,3.2587 1.7975,0 3.2609,-1.4634 3.2609,-3.2587 0,-1.7975 -1.4634,-3.2609 -3.2609,-3.2609 z" id="path5"/>
      </g>
    </g>
    <g id="g8">
      <circle class="cls-2" cx="92.084099" cy="63.6157" r="4.5872998" id="circle7"/>
      <path class="cls-1" d="m 92.0846,69.5318 c -3.2609,0 -5.9146,-2.6537 -5.9146,-5.9168 0,-3.2609 2.6537,-5.9146 5.9146,-5.9146 3.2609,0 5.9146,2.6537 5.9146,5.9146 0,3.2631 -2.6537,5.9168 -5.9146,5.9168 z m 0,-9.1754 c -1.7953,0 -3.2587,1.4634 -3.2587,3.2587 0,1.7975 1.4634,3.2609 3.2587,3.2609 1.7953,0 3.2587,-1.4634 3.2587,-3.2609 0,-1.7953 -1.4634,-3.2587 -3.2587,-3.2587 z" id="path7"/>
    </g>
    <g id="g9">
      <circle class="cls-2" cx="77.938797" cy="49.114899" r="4.5872998" id="circle8"/>
      <path class="cls-1" d="m 77.938,55.0293 c -3.2609,0 -5.9146,-2.6526 -5.9146,-5.9146 0,-3.262 2.6537,-5.9157 5.9146,-5.9157 3.2631,0 5.9168,2.6537 5.9168,5.9157 0,3.262 -2.6537,5.9146 -5.9168,5.9146 z m 0,-9.1722 c -1.7953,0 -3.2587,1.4612 -3.2587,3.2576 0,1.7964 1.4634,3.2576 3.2587,3.2576 1.7975,0 3.2609,-1.4612 3.2609,-3.2576 0,-1.7964 -1.4634,-3.2576 -3.2609,-3.2576 z" id="path8"/>
    </g>
    <g id="g10">
      <circle class="cls-2" cx="49.648201" cy="49.114899" r="4.5872998" id="circle9"/>
      <path class="cls-1" d="m 49.6472,55.0293 c -3.2609,0 -5.9146,-2.6526 -5.9146,-5.9146 0,-3.262 2.6537,-5.9157 5.9146,-5.9157 3.2631,0 5.9168,2.6537 5.9168,5.9157 0,3.262 -2.6537,5.9146 -5.9168,5.9146 z m 0,-9.1722 c -1.7953,0 -3.2587,1.4612 -3.2587,3.2576 0,1.7964 1.4634,3.2576 3.2587,3.2576 1.7975,0 3.2609,-1.4612 3.2609,-3.2576 0,-1.7964 -1.4634,-3.2576 -3.2609,-3.2576 z" id="path9"/>
    </g>
    <rect class="cls-1" x="62.465801" y="44.2845" width="2.6559" height="9.6613998" id="rect10"/>
    <rect class="cls-1" x="48.319199" y="58.785999" width="2.6559" height="9.6603003" id="rect11"/>
    <rect class="cls-1" x="62.465801" y="58.785999" width="2.6559" height="9.6603003" id="rect12"/>
    <rect class="cls-1" x="76.6101" y="58.785999" width="2.6559" height="9.6603003" id="rect13"/>
    <rect class="cls-1" x="76.6101" y="73.286301" width="2.6559" height="9.6603003" id="rect14"/>
    <rect class="cls-1" x="48.319199" y="87.786697" width="2.6559" height="9.6603003" id="rect15"/>
    <rect class="cls-1" x="90.756599" y="73.286301" width="2.6559" height="9.6603003" id="rect16"/>
    <rect class="cls-1" x="90.756599" y="44.2845" width="2.6559" height="9.6613998" id="rect17"/>
  </g>
  <path class="cls-1" d="m 170.4543,183.21611 c 2.2945,-1.3672 3.8366,-3.8657 3.8366,-6.7306 0,-4.3288 -3.5092,-7.8379 -7.838,-7.8379 -4.3288,0 -7.838,3.5091 -7.838,7.8379 0,2.8649 1.5421,5.3634 3.8366,6.7306 -3.8538,1.373 -6.6366,5.0551 -6.6366,9.3649 v 23.9617 h 21.2763 v -23.9617 c 0,-4.3098 -2.7829,-7.9919 -6.6368,-9.3649 z" id="path17"/>
  <path class="cls-1" d="m 262.745,219.58781 c 2.2945,-1.3672 3.8366,-3.8657 3.8366,-6.7306 0,-4.3288 -3.5092,-7.8379 -7.838,-7.8379 -4.3288,0 -7.838,3.5091 -7.838,7.8379 0,2.8649 1.5421,5.3634 3.8366,6.7306 -3.8538,1.373 -6.6366,5.0551 -6.6366,9.3649 v 23.9617 h 21.2763 v -23.9617 c 0,-4.3098 -2.7829,-7.9919 -6.6368,-9.3649 z" id="path18"/>
  <path class="a" d="m 29.445625,147.54259 c -9.908597,0.94719 -17.977864,9.80087 -20.5390328,22.01252 -3.7545709,17.89944 2.6759718,32.18111 16.6320088,36.88534 4.45882,1.50312 8.579405,1.71127 12.256822,0.74804 2.058132,1.97731 3.518171,3.30282 6.248459,5.60641 0.05709,-3.91235 0.07994,-5.60758 0.05093,-8.73591 4.885318,-3.77073 8.474159,-10.30946 10.330456,-19.16 3.264807,-15.56493 -3.338552,-31.82744 -16.747118,-36.34779 a 24.724731,31.344268 0 0 0 -8.232523,-1.00861 z" id="path1-9" style="fill:#ffffff;stroke-width:0.347476"/>
  <path class="a" d="m 19.617577,203.59538 a 23.540589,29.843094 0 0 1 -4.701388,-3.99413 c 1.227963,-0.88381 2.533392,-1.6467 3.786046,-2.36658 1.39801,-0.72379 2.69418,-1.43584 4.061329,-2.1831 a 1.0184184,1.291079 0 0 1 0.950525,0.0939 c 1.718968,1.3928 5.345154,2.69562 8.165864,2.69562 2.780589,0 6.341973,-1.25979 8.091804,-2.63302 a 1.1906238,1.5093887 0 0 1 1.104825,-0.11346 c 1.339372,0.73161 2.610853,1.42801 3.981089,2.14006 1.284133,0.73591 2.256571,1.38145 3.469722,2.1518 a 19.988468,25.339968 0 0 1 -4.432591,4.67174 c 0.02901,3.12989 0.0067,4.82356 -0.05093,8.73591 -2.731829,-2.30359 -4.190327,-3.6291 -6.248461,-5.60641 -3.6768,0.96322 -7.798,0.75509 -12.256821,-0.74804 a 29.599254,37.523842 0 0 1 -5.921024,-2.84429 z" id="path2-9" style="fill:#ffffff;stroke-width:0.347476"/>
  <path class="a" d="m 106.4643,261.46467 c -8.04922,0.0332 -17.18968,0.0665 -23.111626,0.0912 0.717213,5.24923 1.481337,10.81885 2.318911,16.89514 l 0.202137,1.21284 c 2.758686,-1.93584 12.032767,-8.77112 16.704848,-12.40648 0,0 2.30995,-1.91433 4.14434,-3.45658 -0.0392,-0.5137 -0.12344,-1.3396 -0.25861,-2.33608 z" id="path3-7" style="fill:#ffffff;stroke-width:0.347476"/>
  <path class="a" d="m 41.976187,173.64314 a 1.5013957,1.9033634 0 0 1 1.201114,-0.44523 1.4168362,1.7961648 0 0 1 1.018416,0.86072 2.0016553,2.5375571 0 0 1 0.210164,1.02112 6.0052744,7.6130624 0 0 1 -0.612281,4.0356 3.820921,4.8438934 0 0 1 -0.987558,1.6432 2.5324674,3.2104831 0 0 1 -1.176742,0.67253 c 0,0 -0.0731,0.014 -0.201829,0.0415 -0.0966,0.45695 -0.204913,0.84233 -0.257992,1.04695 -0.348738,1.20031 -2.329713,5.40727 -4.804473,6.8255 a 13.555459,17.184653 0 0 0 0.202449,2.241 c 0.119743,0.87011 0.08179,1.64827 1.038788,2.08724 0.07468,0.0318 4.126438,2.47888 2.468895,1.46401 a 1.0452678,1.3251165 0 0 0 -0.104615,0.0731 c -1.749838,1.37324 -5.311215,2.63302 -8.091804,2.63302 -2.820712,0 -6.446897,-1.30282 -8.165865,-2.69562 a 0.99805003,1.2652574 0 0 0 -0.36663,-0.18074 c 0.208931,-0.11972 0.344411,-0.19837 0.344411,-0.19837 0.876765,-0.5086 1.878827,-1.10172 1.913392,-1.11815 0.935711,-0.42762 0.897134,-1.18896 1.018417,-2.0442 a 12.995328,16.474559 0 0 0 0.210476,-2.69562 9.2777927,11.76173 0 0 1 -2.326316,-2.58881 10.233871,12.973778 0 0 1 -1.9566,-4.86072 2.423836,3.072768 0 0 1 -1.550156,-0.70423 3.820921,4.8438934 0 0 1 -0.987556,-1.64319 6.0083605,7.6169748 0 0 1 -0.610434,-4.03403 2.0016553,2.5375571 0 0 1 0.209856,-1.02191 1.4168362,1.7961648 0 0 1 1.018419,-0.86071 1.5010871,1.9029722 0 0 1 1.201116,0.44522 c 0,0 0.607349,-11.34037 9.93421,-11.34037 9.326861,0 10.210728,11.34116 10.210728,11.34116 z" id="path4-0" style="fill:#ffffff;stroke-width:0.347476"/>
  <path class="b" d="m 40.211544,169.98546 a 11.59701,14.701869 0 0 0 -1.692426,-2.33215 7.7875069,9.8724501 0 0 0 -2.445441,-1.81533 l -2.135285,-0.68076 c -1.287216,1.00234 -3.383616,2.68466 -3.563847,2.59272 -0.123445,-0.0642 -0.653948,-1.74373 -0.668144,-1.95344 -2.490188,2.47888 -4.95692,4.51682 -7.789668,7.95305 a 1.481336,1.8779331 0 0 0 -1.285983,-0.55243 1.4097382,1.7871663 0 0 0 -0.345029,0.12363 l -0.0056,-0.0298 c -0.769679,-4.0579 -0.576177,-7.49256 0.07222,-9.90609 0.575254,-2.14203 1.857226,-4.57356 3.480832,-5.71713 -0.5089,-0.37755 -1.099275,-0.81769 -1.099275,-0.81769 2.525679,-3.22222 5.847883,-3.96087 8.731858,-3.84899 3.079016,0.11738 5.260899,1.44054 6.704278,3.94679 l 1.69397,1.54422 c 1.172725,0.68584 2.825334,3.14671 3.487309,5.49569 0.942498,3.34077 0.833248,6.86228 0.08673,9.29108 a 1.4476973,1.8352884 0 0 0 -0.261702,-0.0818 1.4742379,1.8689347 0 0 0 -1.24895,0.51096 15.338,19.444432 0 0 0 -1.715882,-3.72262 z" id="path5-3" style="fill:#7a7473;stroke-width:0.347476"/>
  <path class="c" d="m 35.626192,189.36887 a 19.319091,24.491377 0 0 0 0.30861,3.1115 2.0386887,2.5845054 0 0 0 1.247718,1.97848 c 0.08024,0.043 0.42897,0.26564 0.0617,0.0281 0.01604,0.0101 0.033,0.0184 0.04935,0.0282 l 0.201526,0.11738 q 0.321261,0.19092 0.642529,0.3838 0.7777,0.46595 1.555102,0.93232 a 0.75733303,0.96009335 0 0 0 1.013163,-0.33686 0.74961776,0.95031242 0 0 0 -0.26571,-1.28482 c -0.814119,-0.4871 -1.621753,-0.99648 -2.443904,-1.46087 -0.06326,-0.0357 -0.127451,-0.0689 -0.191335,-0.10212 q -0.130238,-0.0626 -0.02682,-0.0126 c -0.03981,-0.0242 -0.07931,-0.0501 -0.11758,-0.0782 -0.03825,-0.0281 -0.180231,-0.16705 -0.04663,-0.0235 -0.0543,-0.0583 -0.09876,-0.12597 -0.150293,-0.18779 0.11758,0.14124 0.03766,0.0603 0.0039,-0.0136 -0.01578,-0.0352 -0.03085,-0.0712 -0.04351,-0.10759 q 0.06358,0.19875 0.02163,0.0563 c -0.03085,-0.13928 -0.0617,-0.27386 -0.08179,-0.41784 a 15.24233,19.323149 0 0 1 -0.255526,-2.61228 0.7406695,0.93896846 0 1 0 -1.481339,0 z" id="path6-9" style="fill:#211715;stroke-width:0.347476"/>
  <path class="c" d="m 42.499898,174.30746 a 0.73449576,0.9311418 0 0 1 1.032618,0.17253 1.6180509,2.0512506 0 0 1 0.154301,1.04186 4.9862387,6.321201 0 0 1 -0.06885,1.29773 c -0.221891,1.54069 -0.83078,3.39632 -2.183112,3.70344 a 0.74714881,0.94718245 0 0 0 -0.517235,1.15532 0.75733303,0.96009335 0 0 0 0.911015,0.65572 c 2.138378,-0.48632 3.159877,-3.54148 3.320972,-5.99883 0.08394,-1.2813 -0.01042,-2.72027 -0.882626,-3.54617 a 2.2528651,2.8560232 0 0 0 -2.812997,0.19014 0.7468402,0.94679128 0 0 0 0,1.32826 0.75702442,0.95970205 0 0 0 1.04743,0 z" id="path7-8" style="fill:#211715;stroke-width:0.347476"/>
  <path class="c" d="m 40.874137,180.01207 a 5.5972899,7.0958483 0 0 1 -0.327133,1.91197 c -0.03084,0.11463 -0.06451,0.22769 -0.09073,0.34349 -0.01425,0.063 -0.07376,0.21637 0.01658,-0.0411 -0.04784,0.13577 -0.0969,0.26995 -0.149375,0.40219 a 12.865403,16.309848 0 0 1 -1.109461,2.26095 c -0.95669,1.6655 -2.26798,3.42723 -3.888498,3.90963 -0.927691,0.27582 -0.535141,2.08724 0.393783,1.81103 1.99734,-0.59429 3.545335,-2.6604 4.720211,-4.67879 1.013179,-1.73905 1.846118,-3.7101 1.916793,-5.9194 0.03859,-1.20852 -1.442761,-1.20658 -1.481336,0 z" id="path8-6" style="fill:#211715;stroke-width:0.347476"/>
  <path class="c" d="m 22.355579,172.9792 a 2.2544081,2.8579792 0 0 0 -2.812686,-0.19014 c -0.873371,0.8216 -0.966572,2.26917 -0.88263,3.54617 0.161713,2.45735 1.182293,5.5129 3.320663,5.99883 a 0.76196218,0.96596179 0 0 0 0.911329,-0.65572 0.74745741,0.94757371 0 0 0 -0.517541,-1.15532 c -1.352336,-0.30712 -1.960917,-2.16275 -2.18281,-3.70344 a 4.9297629,6.2496048 0 0 1 -0.07005,-1.22339 1.8825311,2.3865399 0 0 1 0.129309,-1.06535 0.72832354,0.92331707 0 0 1 1.056997,-0.22338 0.76165357,0.96557058 0 0 0 1.047426,0 0.74714881,0.94718245 0 0 0 1e-6,-1.32826 z" id="path9-5" style="fill:#211715;stroke-width:0.347476"/>
  <path class="c" d="m 21.626022,180.60752 c 0.831091,4.95109 3.680811,9.81534 7.889965,10.3885 a 0.74591436,0.94561751 0 0 0 0.740669,-0.93897 0.75764164,0.96048445 0 0 0 -0.740669,-0.93897 c -1.685944,-0.2277 -3.120681,-1.51878 -4.22551,-3.08372 a 10.003647,12.681917 0 0 1 -2.235893,-5.92723 c -0.198436,-1.18114 -1.626689,-0.68153 -1.428562,0.49922 z" id="path10-7" style="fill:#211715;stroke-width:0.347476"/>
  <path class="c" d="m 31.257175,177.67677 c -0.08055,0.39125 -0.154306,0.78248 -0.205845,1.18153 a 1.355731,1.7187 0 0 0 -0.0049,0.76135 0.89497381,1.1345846 0 0 0 0.469396,0.73279 1.2396931,1.5715953 0 0 0 0.593153,0.18701 c 0.12838,-0.008 0.250897,-0.0469 0.377121,-0.0685 a 0.83016537,1.0524249 0 0 0 0.44255,-0.43037 0.74066797,0.9389665 0 0 0 -0.265716,-1.28481 l -0.176834,-0.0947 a 0.74776603,0.94796496 0 0 0 -0.393784,0 c -0.04597,0.008 -0.09259,0.0223 -0.137336,0.0301 l 0.196895,-0.0332 a 0.51939343,0.65845028 0 0 1 -0.123444,0 l 0.196888,0.0337 a 0.54994599,0.69718266 0 0 1 -0.129919,-0.0481 l 0.17714,0.0947 a 0.61382862,0.77816851 0 0 1 -0.07715,-0.0516 l 0.149987,0.14672 a 0.21911428,0.2777776 0 0 1 -0.03085,-0.0391 l 0.116035,0.19015 a 0.25151851,0.31885739 0 0 1 -0.02131,-0.0493 l 0.07469,0.22417 a 0.3147839,0.39906079 0 0 1 -0.0148,-0.0782 l 0.02624,0.24961 a 0.61074248,0.77425615 0 0 1 0.0039,-0.17018 l -0.02624,0.24959 a 9.0583696,11.483561 0 0 1 0.212638,-1.23395 0.77152919,0.97809016 0 0 0 -0.07469,-0.72339 0.74066797,0.9389665 0 0 0 -1.012239,-0.33842 0.76628273,0.97143912 0 0 0 -0.339472,0.56103 z" id="path11-6" style="fill:#211715;stroke-width:0.347476"/>
  <path class="c" d="m 26.538811,174.60088 c -0.162328,0.66941 -0.05647,2.2097 0.944043,2.34076 1.322401,-0.0101 1.392765,-1.87245 0.947746,-2.74765 -0.364471,-0.71831 -1.436278,-1.01526 -1.891789,0.40689 z" id="path12-2" style="fill:#211715;stroke-width:0.347476"/>
  <path class="c" d="m 37.12913,174.60088 c 0.162637,0.66941 0.05676,2.2097 -0.943737,2.34076 -1.322708,-0.0101 -1.393074,-1.87245 -0.947744,-2.74804 0.364467,-0.71792 1.435968,-1.01487 1.891481,0.40728 z" id="path13-7" style="fill:#211715;stroke-width:0.347476"/>
  <path class="c" d="m 32.744681,186.41348 a 5.0553677,6.4088378 0 0 0 0.699622,-0.72263 7.3048381,9.2605572 0 0 0 0.576489,-0.89475 c 0.358299,-0.62872 0.816279,-1.6068 0.432055,-2.35837 a 1.0856958,1.3763685 0 0 0 -0.971819,-0.59664 q -0.285153,0 -0.570001,-0.003 -0.661974,-0.003 -1.323332,-0.006 -0.667215,-0.003 -1.334433,-0.006 a 0.74066889,0.93896761 0 0 0 0,1.87793 q 1.352644,0.005 2.705596,0.0117 l 0.579574,0.003 h 0.07283 a 0.49038393,0.62167408 0 0 1 -0.469709,-0.45422 l -0.0033,-0.32003 c -0.01266,0.0485 -0.02591,0.0966 -0.04014,0.14437 q -0.0463,0.14906 0.0046,-0.0117 c -0.01234,0.0352 -0.02558,0.0696 -0.03923,0.10407 -0.03085,0.0814 -0.06513,0.16079 -0.100916,0.23904 -0.07253,0.15923 -0.154304,0.30869 -0.237939,0.45971 -0.09783,0.17762 0.06358,-0.0904 -0.03766,0.0614 -0.05403,0.0814 -0.107085,0.16393 -0.162326,0.24374 -0.09258,0.1338 -0.190726,0.2594 -0.291947,0.38342 -0.109254,0.1338 0.109554,-0.0955 -0.02903,0.0309 -0.06913,0.0626 -0.137336,0.12714 -0.205539,0.19169 a 0.75980191,0.96322317 0 0 0 -0.265709,1.28482 0.74869192,0.94913864 0 0 0 1.01348,0.33686 z" id="path14-0" style="fill:#211715;stroke-width:0.347476"/>
  <path class="c" d="m 29.445625,146.60364 a 23.689958,30.032454 0 0 0 -14.36896,7.9859 c -3.972758,4.7234 -6.4234438,11 -7.42643,17.73983 -0.9181204,6.16392 -0.7042517,12.5978 1.2486429,18.41782 1.8316091,5.45657 5.1501101,9.88301 9.1744061,12.84781 a 29.630732,37.563748 0 0 0 7.269349,3.75117 28.64657,36.316095 0 0 0 10.323681,1.20109 q 1.172721,-0.15649 2.327238,-0.45306 l -0.570937,-0.0947 c 2.036842,1.95618 4.122432,3.81182 6.248774,5.60641 a 0.7468402,0.94679128 0 0 0 1.114395,-0.81103 c 0.04259,-2.91196 0.07744,-5.82315 0.05093,-8.73591 l -0.369092,0.81065 c 3.641619,-2.82668 6.456458,-7.05555 8.355349,-11.87402 1.957836,-4.9687 3.178705,-10.53911 3.166661,-16.11502 a 24.019863,30.450684 0 0 0 -2.832435,-14.27659 23.575155,29.886915 0 0 0 -7.964344,-10.8924 26.064416,33.042624 0 0 0 -13.710996,-5.19014 c -0.678946,-0.01 -1.357892,0.0199 -2.036838,0.0822 a 0.75856746,0.96165826 0 0 0 -0.740668,0.93895 0.7468402,0.94679128 0 0 0 0.740668,0.93898 24.604682,31.192076 0 0 1 14.868293,4.74413 22.111409,28.03128 0 0 1 8.077602,11.61188 22.7203,28.803191 0 0 1 1.999805,15.13771 27.395147,34.729632 0 0 1 -1.656627,8.58723 26.252359,33.280885 0 0 1 -3.359547,8.03521 19.87922,25.20147 0 0 1 -4.529804,5.71204 q -0.316939,0.28405 -0.64253,0.55243 c -0.30336,0.25001 -0.717521,0.46518 -0.821828,0.94524 a 3.4289842,4.3470237 0 0 0 -0.01917,1.13457 q 0.0041,0.57551 0.005,1.15181 c 0.0025,1.36228 -0.009,2.72456 -0.02626,4.08685 q -0.01658,1.30633 -0.03676,2.61228 l 1.114395,-0.81065 c -1.347397,-1.13692 -2.686769,-2.28911 -3.999291,-3.4906 q -0.894979,-0.8216 -1.776987,-1.66354 c -0.140424,-0.13419 -0.277756,-0.2856 -0.424038,-0.4061 a 0.9144164,1.1592324 0 0 0 -0.740666,-0.10915 c -0.414469,0.0958 -0.827391,0.19562 -1.24525,0.26877 -3.542861,0.61424 -7.166887,0.0887 -10.603278,-1.08528 -4.924808,-1.68231 -9.573424,-4.88614 -12.794404,-9.99373 -2.9923002,-4.74296 -4.3282789,-10.80907 -4.2369306,-16.85719 0.1046188,-6.92565 1.7720486,-14.01173 5.1818986,-19.48903 A 22.295649,28.264847 0 0 1 27.462896,148.7887 c 0.656726,-0.14318 1.316847,-0.24138 1.981288,-0.30672 a 0.7594933,0.96283197 0 0 0 0.740667,-0.93898 0.74653158,0.94640002 0 0 0 -0.739433,-0.93934 z" id="path15-3" style="fill:#211715;stroke-width:0.347476"/>
  <path class="c" d="m 19.989454,180.85478 c -0.0031,2.30831 -0.191338,4.72536 0.24689,6.98944 0.373728,1.92449 1.70693,3.03834 3.055255,3.80477 a 0.76350524,0.967918 0 0 0 1.013481,-0.33686 0.74622297,0.94600877 0 0 0 -0.265716,-1.28442 7.0579489,8.9475686 0 0 1 -1.521145,-1.08177 2.3704461,3.005084 0 0 1 -0.902381,-1.88536 c -0.327438,-2.01487 -0.147825,-4.16393 -0.145047,-6.2058 0.0016,-1.20852 -1.479794,-1.21009 -1.481337,0 z" id="path16-9" style="fill:#211715;stroke-width:0.347476"/>
  <path class="c" d="m 24.654736,189.086 a 1.2344466,1.5649442 0 0 1 0.268493,2.27348 1.9013565,2.4104053 0 0 1 -1.512198,0.75156 c -0.607655,-0.025 -1.419614,-0.77661 -1.515282,-1.63811 -0.09258,-0.83528 0.696228,-1.55085 1.423934,-1.75 a 1.5458358,1.9597014 0 0 1 1.335053,0.36307 z" id="path17-9" style="fill:#211715;stroke-width:0.347476"/>
  <path class="c" d="m 39.490313,159.30394 a 5.6167324,7.1204962 0 0 1 1.862165,2.09742 8.3170843,10.543812 0 0 1 1.402028,3.27268 10.245907,12.989037 0 0 1 0.102456,7.88849 c -0.292258,1.15338 1.137542,1.64712 1.428558,0.49923 a 11.659966,14.781681 0 0 0 -0.147817,-9.06142 10.10981,12.816502 0 0 0 -1.699528,-3.8658 6.6820601,8.471043 0 0 0 -2.2004,-2.45227 0.76011053,0.96361447 0 0 0 -1.013172,0.33685 0.74745741,0.94757371 0 0 0 0.26571,1.28482 z" id="path18-9" style="fill:#211715;stroke-width:0.347476"/>
  <path class="c" d="m 33.564356,164.34619 c -0.994652,0.77426 -1.975115,1.59193 -3.003409,2.2946 -0.07715,0.0529 -0.154306,0.10289 -0.233619,0.15376 -0.03487,0.0231 -0.134864,0.1291 -0.04938,0.0337 0.06759,-0.0759 0.04105,-0.003 -0.0036,0 -0.226522,0.008 0.629877,0.34898 0.322499,0.19562 0.705486,0.34976 0.364471,0.28051 0.31756,0.0821 a 1.8087729,2.2930345 0 0 0 -0.114804,-0.28874 3.7147585,4.7093084 0 0 1 -0.378973,-1.26917 c -0.0969,-0.78012 -0.855781,-0.79421 -1.237842,-0.41432 -2.528455,2.51252 -5.160605,4.82668 -7.511917,7.61581 -0.697771,0.82746 0.35151,2.15179 1.047427,1.32785 2.351006,-2.78834 4.98377,-5.10484 7.511919,-7.61697 l -1.238152,-0.41433 a 5.4377375,6.8935794 0 0 0 0.558897,1.7997 0.95669609,1.2128317 0 0 0 1.384124,0.65374 c 1.184138,-0.66939 2.275083,-1.67331 3.377132,-2.53089 0.811033,-0.63146 0.06789,-2.25627 -0.747764,-1.62169 z" id="path19" style="fill:#211715;stroke-width:0.347476"/>
  <path class="c" d="m 35.876782,166.74329 c 2.533703,1.26095 4.22983,4.18623 5.338982,7.232 a 0.74653158,0.94640002 0 0 0 1.013481,0.33685 0.75764164,0.96048445 0 0 0 0.26571,-1.28443 15.385526,19.504682 0 0 0 -2.444514,-4.77308 10.352687,13.124404 0 0 0 -1.770806,-2.02034 9.3546369,11.859147 0 0 0 -2.008445,-1.30085 0.74622297,0.94600877 0 0 0 -0.911331,0.65571 0.75795025,0.96087575 0 0 0 0.51754,1.15492 z" id="path20" style="fill:#211715;stroke-width:0.347476"/>
  <path class="c" d="m 24.270515,156.39315 c -2.354705,1.13692 -4.001151,4.11071 -4.71929,7.08332 -0.784182,3.24726 -0.593769,6.80125 0.01481,10.06493 0.219114,1.17371 1.647987,0.67803 1.428257,-0.4992 -0.535444,-2.87129 -0.71197,-5.96284 -0.06913,-8.83216 0.530811,-2.36855 1.840561,-5.08959 3.739139,-6.00626 a 0.76165357,0.96557058 0 0 0 0.517233,-1.15493 0.74591436,0.94561751 0 0 0 -0.91102,-0.6557 z" id="path21" style="fill:#211715;stroke-width:0.347476"/>
  <path class="c" d="m 38.809517,156.47491 a 8.4433073,10.703827 0 0 0 -5.68154,-4.21869 14.336555,18.17487 0 0 0 -7.180774,0.87245 10.839368,13.741384 0 0 0 -3.73698,3.05829 c -0.678945,0.85289 0.370334,2.18115 1.04743,1.32785 a 9.8842144,12.530508 0 0 1 5.816095,-3.44874 c 2.008136,-0.31299 4.273348,-0.24569 6.121311,0.90885 a 6.4191227,8.13771 0 0 1 2.335265,2.44796 0.76381385,0.9683093 0 0 0 1.013483,0.33685 0.74622297,0.94600877 0 0 0 0.26571,-1.28482 z" id="path22" style="fill:#211715;stroke-width:0.347476"/>
  <path class="a" d="m 20.563473,171.46629 c -1.357893,0.30517 -1.922342,2.63537 -1.812169,4.62051 0.10462,1.87792 0.498098,3.8881 1.789948,4.83723 0.510446,0.29304 1.281973,0.43975 1.731312,-0.17567 0.449339,-0.61541 0.549328,-1.5352 0.588522,-2.39279 a 17.976012,22.788718 0 0 0 -0.148751,-4.51799 c -0.09258,-0.83882 -0.228682,-1.45424 -0.724621,-1.98474 a 1.7738998,2.2488249 0 0 0 -1.424241,-0.38655 z" id="path23" style="fill:#ffffff;stroke-width:0.347476"/>
  <path class="c" d="m 20.366577,170.56058 c -1.485346,0.38654 -2.146393,2.3576 -2.317674,4.07512 a 6.9357385,8.7926392 0 0 0 0.81134,5.44913 3.3147979,4.2022665 0 0 0 1.697365,1.85094 2.166454,2.7464771 0 0 0 2.202254,-0.47887 c 0.608274,-0.74335 0.769367,-1.86699 0.830781,-2.88654 a 17.085668,21.660001 0 0 0 -0.03703,-3.65336 c -0.08518,-1.15376 -0.150602,-2.40219 -0.747766,-3.33842 -0.61136,-0.95892 -1.515901,-1.20266 -2.438033,-1.01722 a 0.74622297,0.94600877 0 0 0 -0.518468,1.15376 0.75887608,0.96204946 0 0 0 0.911022,0.65571 1.0036051,1.2722996 0 0 1 0.966263,0.50196 c 0.29349,0.55125 0.298119,1.40141 0.345645,2.04421 a 17.903488,22.696777 0 0 1 0.07253,2.71439 4.3187117,5.4749575 0 0 1 -0.236089,2.12911 c -0.436068,1.19014 -1.497692,-0.0227 -1.820809,-0.73552 a 5.603462,7.1036731 0 0 1 -0.603646,-3.72809 3.7786413,4.7902943 0 0 1 0.343487,-1.89945 1.2887623,1.6338018 0 0 1 0.932623,-1.027 0.74092375,0.93929084 0 1 0 -0.393787,-1.81103 z" id="path24" style="fill:#211715;stroke-width:0.347476"/>
  <path class="c" d="m 24.065905,195.577 q 0.771529,-0.44875 1.543059,-0.90337 c 0.119433,-0.0696 0.241027,-0.13575 0.359224,-0.20892 -0.42249,0.26056 0.09752,-0.0466 0.127456,-0.0633 0.05247,-0.0293 0.10462,-0.0591 0.154307,-0.0931 a 1.9532032,2.476133 0 0 0 1.028293,-1.99178 c 0.09937,-0.79813 0.205845,-1.59468 0.257692,-2.40063 a 0.74375408,0.94287889 0 0 0 -0.740669,-0.93897 0.75918469,0.96244067 0 0 0 -0.740668,0.93897 c -0.01357,0.20853 -0.03086,0.41706 -0.04876,0.62598 -0.0016,0.0156 -0.03272,0.30164 -0.0096,0.10094 -0.01018,0.0877 -0.02006,0.17566 -0.03086,0.2637 -0.0358,0.29537 -0.07623,0.58998 -0.112333,0.88536 -0.01513,0.12129 -0.03086,0.24256 -0.05216,0.36228 a 1.969251,2.4964773 0 0 0 -0.06697,0.29108 q 0.07684,-0.21948 0.02839,-0.0861 c -0.01142,0.0301 -0.02376,0.0598 -0.03672,0.0892 a 0.91163886,1.1557113 0 0 0 -0.06573,0.12833 c 0.04938,-0.15846 0.07715,-0.11737 0.0058,-0.0282 -0.02099,0.0266 -0.04321,0.052 -0.06573,0.0763 q 0.124988,-0.11737 0.05617,-0.0559 c -0.05277,0.0285 -0.102768,0.0844 -0.154305,0.11738 -0.03395,0.0231 -0.190414,0.11228 -0.03518,0.0282 -0.09258,0.0497 -0.185166,0.0935 -0.27775,0.14553 -0.131469,0.0743 -0.261702,0.15219 -0.392246,0.22888 q -0.740668,0.43427 -1.481335,0.86619 a 0.74375408,0.94287889 0 0 0 -0.265714,1.28483 0.76196218,0.96596179 0 0 0 1.01348,0.33685 z" id="path25" style="fill:#211715;stroke-width:0.347476"/>
  <path class="c" d="m 15.289299,200.41267 c 2.297306,-1.64319 4.75262,-2.85875 7.169666,-4.17917 a 2.2454586,2.8466337 0 0 1 0.69129,-0.35212 c 0.179303,-0.008 0.370333,0.21988 0.52464,0.32864 a 12.068876,15.300068 0 0 0 1.296169,0.77269 18.696004,23.701472 0 0 0 3.065131,1.20305 17.069311,21.639267 0 0 0 6.696869,0.25 20.111605,25.496071 0 0 0 3.214813,-1.0446 c 0.490381,-0.21635 0.973974,-0.46126 1.446156,-0.73552 0.191953,-0.11111 0.381746,-0.22888 0.567537,-0.35564 a 2.9768682,3.7738631 0 0 1 0.524636,-0.36425 c 0.237321,-0.0864 0.486061,0.11738 0.698393,0.23476 q 0.510441,0.27894 1.021807,0.55673 1.043729,0.56689 2.092384,1.12089 c 1.31685,0.69326 2.580003,1.54029 3.853634,2.35093 0.84961,0.54069 1.600772,-1.07903 0.747462,-1.62168 -1.14927,-0.73121 -2.289587,-1.4992 -3.468797,-2.15179 -1.251418,-0.69288 -2.519198,-1.34154 -3.773699,-2.02661 -0.641913,-0.3521 -1.244941,-0.50546 -1.904441,-0.10289 -0.406443,0.24844 -0.786654,0.55752 -1.200815,0.79264 a 16.600529,21.044979 0 0 1 -2.980878,1.2191 15.512056,19.66509 0 0 1 -6.648419,0.19953 19.468149,24.680344 0 0 1 -3.201846,-1.15454 10.084504,12.78442 0 0 1 -1.219326,-0.70775 c -0.522478,-0.36189 -0.970583,-0.72105 -1.596757,-0.60289 a 4.4004938,5.5786348 0 0 0 -1.058846,0.49765 q -0.536985,0.29343 -1.074277,0.58686 -1.025826,0.55673 -2.057823,1.09545 a 37.639822,47.717106 0 0 0 -4.17243,2.57004 c -0.830472,0.5939 -0.08456,2.21675 0.747457,1.62167 z" id="path26" style="fill:#211715;stroke-width:0.347476"/>
  <path class="d" d="m 109.97229,163.35793 a 19.959151,25.3028 0 0 0 -1.99517,-1.96871 c -0.0466,-0.0434 -0.0926,-0.0841 -0.14352,-0.12597 a 14.335937,18.174088 0 0 0 -3.10062,-1.98747 18.763589,23.787152 0 0 0 -7.039431,-1.6342 16.565966,21.00116 0 0 0 -10.897692,4.95774 c -4.023982,4.49922 -6.135512,10.68661 -5.515504,20.91627 0.867505,7.68035 -1.369628,16.03832 -0.9172,22.37126 0.131163,1.89945 0.878308,4.18623 2.953105,5.99218 0,0 6.717859,3.00116 14.307233,3.00116 7.589389,0 15.334299,-3.55711 15.334299,-3.55711 3.23486,-1.52034 3.28826,-4.10094 3.31387,-5.6029 a 12.494761,15.839974 0 0 0 -0.63697,-5.44248 c -0.57279,-2.40689 -1.62299,-7.29342 -1.48905,-15.93427 v 0 c 0.2435,-2.49373 0.15246,-6.11658 0.10832,-7.50899 -0.15431,-4.82784 -1.76433,-10.28363 -4.20576,-13.38497 -0.0228,-0.0289 -0.0497,-0.0603 -0.0772,-0.0912" id="path27" style="fill:#b5886a;stroke-width:0.347476"/>
  <path class="c" d="m 108.35022,160.57858 c -1.82082,-1.6467 -4.0709,-2.69639 -6.2463,-3.2946 a 20.185364,25.589576 0 0 0 -7.431366,-0.27386 16.855752,21.368531 0 0 0 -9.908901,6.82316 c -2.515814,3.59076 -3.811358,8.06415 -4.19712,12.8028 a 27.696044,35.111087 0 0 0 -0.129313,4.26918 c 0.02409,1.59233 0.195044,3.15688 0.265718,4.74294 0.141958,3.19641 -0.143199,6.39319 -0.467856,9.5583 -0.304911,2.96909 -0.685739,5.95617 -0.675545,8.9593 a 9.3305647,11.828631 0 0 0 0.354589,3.6252 7.1344846,9.0445951 0 0 0 1.598913,3.37636 9.085219,11.517599 0 0 0 1.427333,1.52348 0.74745741,0.94757371 0 0 0 1.013481,-0.33685 0.75578997,0.95813714 0 0 0 -0.26572,-1.28482 6.3790031,8.0868492 0 0 1 -2.036837,-2.85603 5.4898929,6.9596981 0 0 1 -0.577406,-2.81964 c -0.13764,-2.78442 0.16572,-5.58333 0.451493,-8.33802 0.315714,-3.04304 0.65765,-6.09233 0.694075,-9.16627 0.0185,-1.56494 -0.120978,-3.08215 -0.213874,-4.63458 a 31.699048,40.185811 0 0 1 -0.07469,-4.40062 c 0.121903,-4.49922 1.003911,-8.91588 3.14784,-12.56143 a 15.167338,19.228078 0 0 1 8.217717,-6.98747 18.015514,22.838796 0 0 1 12.790709,1.74296 13.418744,17.011335 0 0 1 1.51621,1.1518 0.74653158,0.94640002 0 0 0 1.01348,-0.33685 0.75671581,0.95931075 0 0 0 -0.26664,-1.28444 z" id="path28" style="fill:#211715;stroke-width:0.347476"/>
  <path class="c" d="m 113.15468,212.22839 c 1.56868,-0.7539 2.98921,-1.95617 3.57373,-4.03481 0.47218,-1.67684 0.33731,-3.75587 0.12869,-5.46166 -0.20183,-1.65297 -0.66104,-3.22965 -0.97398,-4.85133 a 32.349292,41.010146 0 0 1 -0.69561,-4.89044 50.025951,63.419364 0 0 1 -0.3012,-8.64867 l -0.54378,0.90571 h 0.002 a 0.7804789,0.98943594 0 0 0 0.54348,-0.90532 33.476034,42.438549 0 0 0 0.0731,-8.26016 18.948757,24.021894 0 0 0 -2.09301,-9.24218 12.200654,15.467126 0 0 0 -2.37167,-4.14709 c -0.69747,-0.8216 -1.74737,0.50273 -1.04744,1.32785 1.63812,1.93193 2.67197,4.75782 3.31543,7.4284 0.62709,2.60251 0.78109,5.22144 0.80238,7.92488 a 30.484969,38.646689 0 0 1 -0.15955,4.96869 l 0.54377,-0.90531 v 0 a 0.76689996,0.97222153 0 0 0 -0.54377,0.90531 44.621235,56.567648 0 0 0 0.87646,13.08803 c 0.21109,1.22691 0.49379,2.42253 0.76319,3.6291 a 11.971355,15.176438 0 0 1 0.48699,3.76213 c 0.009,0.42566 0.004,0.85211 -0.009,1.27777 -0.004,0.11464 -0.009,0.22888 -0.0149,0.3435 -0.004,0.072 -0.01,0.14398 -0.0149,0.21597 -0.0179,0.27034 0.0111,-0.0391 -0.0118,0.12481 a 2.9626721,3.7558662 0 0 1 -0.59038,1.83881 4.870818,6.1748788 0 0 1 -2.12941,1.79342 0.76165357,0.96557058 0 0 0 -0.51755,1.15493 0.74653158,0.94640002 0 0 0 0.91133,0.65571 z" id="path29" style="fill:#211715;stroke-width:0.347476"/>
  <path class="a" d="m 90.049545,206.67402 c 0.652098,-0.32395 1.357892,-0.6788 2.21923,-1.16236 a 2.1642935,2.7437385 0 0 0 0.515075,-0.41824 12.508957,15.857971 0 0 0 6.954564,-0.17644 13.548051,17.175263 0 0 0 5.236216,-4.01839 16.478012,20.889658 0 0 0 1.28722,-1.65258 19.715656,24.994115 0 0 0 1.27179,4.10173 c 0.29688,0.76094 2.6232,3.02776 3.82924,3.88065 -5.0998,2.83921 -10.46841,4.75001 -16.632004,4.02035 -2.073563,-0.2453 -4.845202,-1.36933 -6.416958,-3.65492 -0.0058,-0.008 -0.01109,-0.0161 -0.01692,-0.0239 0.0155,-0.008 0.02375,-0.0117 0.02375,-0.0117 0.583891,-0.31885 1.13414,-0.58841 1.728834,-0.8842 z" id="path30" style="fill:#ffffff;stroke-width:0.347476"/>
  <path class="a" d="m 88.331197,178.14861 c 0.883868,-1.00665 1.756924,-2.02661 2.600365,-3.02504 -0.06543,1.21714 -0.167888,2.3885 -0.32404,3.6111 a 0.32774558,0.41549268 0 0 0 0.424955,0.46519 c 3.602118,-1.5536 6.917222,-4.22027 9.069783,-7.58998 a 40.055326,50.779311 0 0 0 1.82884,5.39475 c 0.86411,2.15923 3.03951,5.89516 4.95044,6.53678 0.50088,0.23904 1.15297,0.47574 1.65354,0.71479 0.84189,-1.04265 2.28959,-1.0454 3.24968,-0.18231 a 3.6243354,4.5946761 0 0 1 1.39431,3.91235 5.9870663,7.5899794 0 0 1 -1.2539,4.11345 8.6334113,10.944829 0 0 1 -3.62371,3.52113 16.774279,21.265245 0 0 1 -3.32591,5.27855 13.548051,17.175263 0 0 1 -5.235594,4.01761 12.508957,15.857971 0 0 1 -6.954564,0.17644 12.344466,15.649442 0 0 1 -3.478982,-1.91392 11.925372,15.118144 0 0 1 -3.160493,-3.93036 16.188843,20.52307 0 0 1 -2.418282,-6.07668 22.432057,28.437776 0 0 1 -0.998352,-6.08802 c -0.1074,-1.17371 -0.150293,-2.16784 -0.16758,-2.88576 0.335468,-0.31298 0.762581,-0.74335 1.147419,-1.08647 1.506333,-1.49138 3.080558,-3.20734 4.622075,-4.9636 z" id="path31" style="fill:#ffffff;stroke-width:0.347476"/>
  <path class="e" d="m 127.49834,251.28315 c -1.30297,-11.04186 -2.19454,-17.91001 -4.38908,-27.9953 a 23.863089,30.251938 0 0 0 -3.63482,-9.30281 14.582827,18.487078 0 0 0 -2.78646,-3.44913 21.294204,26.995288 0 0 0 -4.7375,-3.36815 0.61722334,0.7824721 0 0 0 -0.49038,0.006 c -5.1285,2.86972 -10.52582,4.80947 -16.726757,4.07513 -2.073555,-0.24531 -4.845201,-1.36933 -6.416957,-3.65493 a 0.61290278,0.77699482 0 0 0 -0.684189,-0.21284 c -1.14557,0.56377 -2.240527,1.14789 -3.362015,1.77974 a 11.923829,15.116187 0 0 0 -2.68801,2.16745 8.6022417,10.905314 0 0 0 -2.573819,4.92175 51.183553,64.886892 0 0 0 -2.083131,10.04616 c -0.607964,4.22926 -1.141868,7.91862 -1.956604,12.07745 0,0 -0.03643,0.23943 -0.09474,0.62597 1.617742,0.0646 2.96854,0.11738 3.937577,0.1565 a 1.8492011,2.3442864 0 0 1 1.766802,1.95071 c 0.472174,3.50508 0.952375,7.05476 1.450472,10.72338 0.02284,0.16629 0.04509,0.32943 0.06794,0.49609 1.851662,-3.56025 3.035806,-7.14123 4.416537,-10.57042 0.555501,1.42919 1.198955,2.8079 1.724833,4.25469 a 14.901006,18.890442 0 0 1 0.788195,2.78208 c 0.04009,0.17998 0.08764,0.35604 0.141033,0.53052 0.343794,1.12989 0.295341,3.05399 0.975521,5.09233 a 32.479526,41.175248 0 0 1 2.923481,-2.13497 c 1.256052,-0.80985 2.663313,-1.52972 4.036634,-1.15414 1.752915,0.48122 2.602525,1.46283 4.343097,2.00274 1.2724,0.3971 1.96338,0 3.06358,-0.008 1.54306,3.76526 2.20874,10.02308 2.23899,11.0888 1.55446,-0.0289 8.79542,-0.1737 11.13902,-0.47613 1.8492,-0.23866 3.74531,-0.29147 5.47847,-1.1428 a 7.6736288,9.7280853 0 0 0 1.35604,-0.87011 5.5497637,7.0355979 0 0 0 2.45346,-3.93661 16.292536,20.654525 0 0 0 0.32281,-6.50117 z" id="path32" style="fill:#adab6b;fill-opacity:1;stroke-width:0.347476"/>
  <path class="c" d="m 112.0409,233.90052 q 1.64366,7.65454 2.99971,15.4014 c 0.20646,1.17958 1.63565,0.68036 1.42856,-0.49921 q -1.35572,-7.74647 -2.9997,-15.40139 c -0.24997,-1.16472 -1.67947,-0.6702 -1.42857,0.4992 z" id="path33" style="fill:#211715;stroke-width:0.347476"/>
  <path class="c" d="m 106.55842,250.25067 c 3.99466,0.45344 8.05476,-0.0974 12.04728,-0.37676 0.94805,-0.0661 0.95423,-1.94484 0,-1.87793 -3.99098,0.27934 -8.05262,0.83021 -12.04728,0.37676 a 0.74653158,0.94640002 0 0 0 -0.74066,0.93897 0.75609858,0.95852834 0 0 0 0.74066,0.93896 z" id="path34" style="fill:#211715;stroke-width:0.347476"/>
  <path class="c" d="m 83.786272,227.76868 a 10.856649,13.763293 0 0 1 0.211407,2.42567 c 0.05776,0.90414 0.09813,1.81025 0.146892,2.71518 a 25.741917,32.633782 0 0 0 0.550874,5.34272 16.999874,21.551238 0 0 0 1.589962,4.99961 c 0.641612,1.54655 1.330736,3.06298 1.768352,4.7273 a 15.594456,19.769549 0 0 1 0.602712,2.60054 c 0.140423,0.95736 0.237021,1.91706 0.436691,2.8615 0.246888,1.16589 1.67668,0.67137 1.428566,-0.49921 -0.179308,-0.84586 -0.28084,-1.70658 -0.396266,-2.56925 a 14.506909,18.390833 0 0 0 -0.468465,-2.18819 21.104101,26.754287 0 0 0 -1.697368,-4.94052 19.46136,24.671737 0 0 1 -1.691801,-4.79578 20.088458,25.466729 0 0 1 -0.620932,-5.17644 c -0.05801,-1.02582 -0.101849,-2.05242 -0.166955,-3.07746 a 13.085135,16.588409 0 0 0 -0.264177,-2.9237 c -0.244731,-1.16706 -1.673913,-0.67215 -1.428558,0.4992 z" id="path35" style="fill:#211715;stroke-width:0.347476"/>
  <path class="c" d="m 85.807682,241.44082 c -1.237223,3.09702 -2.34545,6.27542 -3.768148,9.24726 -0.496246,1.03559 0.784487,1.98044 1.27889,0.94796 1.423624,-2.97339 2.530609,-6.15023 3.768148,-9.24726 0.42959,-1.0755 -0.847759,-2.02739 -1.27889,-0.94796 z" id="path36" style="fill:#211715;stroke-width:0.347476"/>
  <path class="c" d="m 105.55018,199.49483 a 19.550549,24.784804 0 0 0 1.0033,3.40572 5.0720326,6.4299645 0 0 0 0.43762,1.10954 4.2934055,5.442876 0 0 0 0.5592,0.79108 18.502195,23.455775 0 0 0 3.3151,3.14593 c 0.82369,0.61346 1.56991,-1.009 0.74777,-1.62167 a 16.66503,21.126746 0 0 1 -2.96699,-2.79421 5.6830838,7.2046119 0 0 1 -0.466,-0.61659 c 0.0494,0.0743 0.0756,0.1565 0.0259,0.0302 -0.0243,-0.063 -0.0521,-0.1248 -0.0765,-0.18818 -0.0951,-0.24452 -0.18517,-0.49179 -0.27435,-0.74022 a 16.965618,21.507811 0 0 1 -0.87645,-3.02073 c -0.258,-1.16158 -1.6878,-0.66824 -1.42857,0.49921 z" id="path37" style="fill:#211715;stroke-width:0.347476"/>
  <path class="c" d="m 88.695672,208.36963 0.119735,-0.065 c 0.190726,-0.10368 -0.0796,0.0391 0.03084,-0.0165 0.07835,-0.0392 0.156778,-0.0825 0.23547,-0.12363 q 0.263869,-0.13616 0.528653,-0.26879 c 0.355523,-0.17802 0.712279,-0.35211 1.067484,-0.53208 q 0.63852,-0.32042 1.270248,-0.66001 a 4.7646554,6.0402934 0 0 0 1.35049,-0.94953 0.7443713,0.9436614 0 0 0 0,-1.32786 0.75887608,0.96204946 0 0 0 -1.04743,0 c -0.02226,0.0242 -0.08888,0.0935 -0.02684,0.0344 -0.04042,0.0392 -0.08335,0.0732 -0.12622,0.10642 a 2.7324476,3.4640039 0 0 1 -0.323423,0.20188 c -0.103999,0.0575 -0.207697,0.11502 -0.312013,0.17176 l -0.188251,0.10171 c 0.0691,-0.0371 -0.02309,0.0122 -0.04259,0.0223 q -0.565995,0.2993 -1.137541,0.58332 c -0.718139,0.35877 -1.43721,0.71284 -2.146396,1.09977 a 0.74282826,0.94170521 0 0 0 -0.265719,1.28482 0.76412246,0.96870041 0 0 0 1.013489,0.33685 z" id="path38" style="fill:#211715;stroke-width:0.347476"/>
  <path class="c" d="m 109.06002,184.92013 c 0.64438,-0.75783 1.71218,-0.67019 2.38218,-0.008 0.80239,0.795 1.0931,2.20539 0.97676,3.44288 -0.28516,3.04107 -2.39607,5.29459 -4.47487,6.44482 a 0.74591436,0.94561751 0 0 0 -0.26571,1.28482 0.76011053,0.96361447 0 0 0 1.01348,0.33686 c 2.18589,-1.20931 4.06009,-3.37089 4.89087,-6.25313 0.78419,-2.72104 0.14535,-6.27151 -2.1646,-7.38536 a 3.313872,4.2010927 0 0 0 -3.40739,0.80829 c -0.70023,0.82355 0.34905,2.14907 1.04743,1.32786 z" id="path39" style="fill:#211715;stroke-width:0.347476"/>
  <path class="c" d="m 81.821034,184.26558 a 25.821846,32.735111 0 0 0 1.514053,10.31768 c 0.961944,3.25273 2.536476,6.43466 4.714963,8.59898 4.279213,4.25077 10.563475,4.4601 15.09791,0.73513 a 18.1655,23.028937 0 0 0 5.79943,-7.83724 c 0.47402,-1.05086 -0.80517,-1.99804 -1.2792,-0.94797 a 16.947102,21.484336 0 0 1 -4.53907,6.51917 11.795446,14.953433 0 0 1 -13.428304,0.73474 c -2.129417,-1.7453 -3.718153,-4.60132 -4.696759,-7.52972 a 23.577931,29.890434 0 0 1 -1.701686,-10.59077 c -0.03426,-1.20501 -1.515895,-1.21049 -1.481337,0 z" id="path40" style="fill:#211715;stroke-width:0.347476"/>
  <path class="c" d="m 99.417758,171.96552 c 0.684202,2.40296 1.460052,4.90804 2.592342,7.03677 1.05361,1.98083 2.43001,4.15531 4.17768,5.187 a 0.76196218,0.96596179 0 0 0 1.01348,-0.33685 0.7468402,0.94679128 0 0 0 -0.26572,-1.28443 c -1.55602,-0.91863 -2.77534,-2.84898 -3.70334,-4.62323 -1.03292,-1.97183 -1.75414,-4.26174 -2.38556,-6.47849 a 0.75980191,0.96322317 0 0 0 -0.911023,-0.65609 0.74745741,0.94757371 0 0 0 -0.517243,1.15532 z" id="path41" style="fill:#211715;stroke-width:0.347476"/>
  <path class="c" d="m 99.574543,170.95026 a 16.841864,21.350924 0 0 1 -3.893759,4.37127 21.750024,27.573143 0 0 1 -2.360262,1.68232 c -0.412611,0.25351 -0.830781,0.49334 -1.256353,0.71127 a 6.9928315,8.8650178 0 0 1 -1.327035,0.60094 h 0.392556 q 0.201829,0.78755 0.227444,0.37871 c 0.0075,-0.0637 0.01542,-0.12754 0.02283,-0.19132 q 0.02775,-0.23826 0.05368,-0.47652 c 0.03609,-0.3349 0.07069,-0.67019 0.101531,-1.00626 0.05743,-0.63145 0.101232,-1.26409 0.136407,-1.89789 0.04751,-0.85289 -0.825221,-1.18388 -1.265304,-0.66509 -1.388749,1.64318 -2.789225,3.26721 -4.223959,4.8435 a 37.29603,47.28127 0 0 1 -4.031092,4.08646 c -0.797447,0.65493 -0.05585,2.2813 0.747453,1.62167 a 39.397364,49.945194 0 0 0 4.222427,-4.25664 c 1.473318,-1.61425 2.910827,-3.28013 4.334142,-4.96401 l -1.265304,-0.6651 c -0.05526,0.9957 -0.132089,1.98944 -0.249973,2.97692 a 1.5982999,2.0262115 0 0 0 0.05301,1.35289 1.0884734,1.3798896 0 0 0 0.939413,0.70775 2.8207107,3.5758975 0 0 0 0.913808,-0.33413 c 0.327433,-0.15453 0.651781,-0.31924 0.973972,-0.49061 0.620307,-0.3302 1.231054,-0.68622 1.827907,-1.0802 a 19.010478,24.10014 0 0 0 5.972858,-5.97808 0.7622708,0.96635309 0 0 0 0,-1.32785 0.74622297,0.94600877 0 0 0 -1.047414,0 z" id="path42" style="fill:#211715;stroke-width:0.347476"/>
  <path class="a" d="m 87.012189,262.76749 c 0,-0.0458 0,-0.0904 0,-0.13419 a 1.4896684,1.8884964 0 0 1 0.379286,-1.21283 l 0.273121,-0.43976 -0.355515,0.095 a 1.3390661,1.6975733 0 0 1 -1.401101,-0.6612 c -0.259234,-0.48513 -0.09567,-1.30281 0.0185,-1.59624 a 3.6743304,4.6580564 0 0 1 0.688198,-1.06416 c 0.311704,-0.39124 1.66342,-1.70188 2.015241,-2.02661 a 32.659446,41.403338 0 0 1 4.43475,-3.45069 c 1.256043,-0.80986 2.663321,-1.52973 4.036633,-1.15415 1.752924,0.48122 2.602525,1.46284 4.343098,2.00274 1.2258,0.38263 1.9134,0.0298 2.94447,-0.005 1.01163,2.47067 1.64644,6.01565 1.97202,8.46088 l -0.21386,0.0809 c -0.4404,0.23474 -1.55386,1.10954 -2.83553,1.78325 a 4.6837993,5.9377896 0 0 1 -3.603347,-0.0196 26.276741,33.311794 0 0 1 -3.286413,3.90103 c -0.219726,0.22339 -0.948358,0.90257 -1.543059,0.26369 -0.39039,-0.4198 -0.299043,-1.37989 -0.106467,-1.75392 0.927378,-1.80243 1.321475,-3.13888 2.347301,-4.80046 -1.700753,1.33959 -3.336709,2.90806 -5.030368,4.26839 -0.550876,0.4421 -1.010088,0.82629 -1.652618,0.68348 a 1.1810568,1.4972604 0 0 1 -0.993426,-1.55947 1.8340791,2.3251159 0 0 1 0.329292,-1.09545 l -0.510132,0.30008 a 3.3817667,4.2871649 0 0 1 -0.990341,0.41627 1.2273486,1.5559458 0 0 1 -0.993418,-0.37128 1.2035855,1.5258206 0 0 1 -0.266327,-0.91119 z" id="path43" style="fill:#ffffff;stroke-width:0.347476"/>
  <path class="c" d="m 87.112187,260.1736 a 0.73511299,0.93192433 0 0 1 -0.460447,-0.1072 c -0.205846,-0.17841 -0.149375,-0.47302 -0.08671,-0.74336 0.04568,-0.19562 0.01817,-0.0743 0,-0.0282 a 1.3088221,1.659232 0 0 1 0.11295,-0.24257 3.0395163,3.8532838 0 0 1 0.316013,-0.44914 5.9744133,7.5739389 0 0 1 0.480201,-0.55515 31.814777,40.332525 0 0 1 2.919463,-2.72458 c 1.398318,-1.15727 2.916071,-2.37794 4.513143,-3.0356 a 4.0477505,5.131452 0 0 1 2.395744,-0.13419 14.028561,17.784417 0 0 1 2.012158,0.99725 9.4126559,11.932699 0 0 0 2.576888,1.03013 c 0.8351,0.1389 1.63873,-0.076 2.47137,-0.11736 0.95022,-0.0481 0.95484,-1.92606 0,-1.87794 -0.78912,0.0392 -1.58379,0.28795 -2.37322,0.1299 a 9.7474993,12.35719 0 0 1 -2.441735,-1.07982 9.7728064,12.389272 0 0 0 -2.517031,-1.07472 5.7562248,7.2973348 0 0 0 -2.907744,0.49178 25.159566,31.895519 0 0 0 -5.294536,3.74844 19.638503,24.896306 0 0 0 -2.88213,2.8744 c -0.640987,0.83529 -1.138467,1.96244 -0.840349,3.16588 0.319105,1.28796 1.439676,1.76056 2.398844,1.54265 a 0.7468402,0.94679128 0 0 0 0.517235,-1.15493 0.75671581,0.95931075 0 0 0 -0.911032,-0.65571 z" id="path44" style="fill:#211715;stroke-width:0.347476"/>
  <path class="c" d="m 92.380184,255.3653 a 37.300966,47.287527 0 0 0 -3.929243,3.52543 c -1.080137,1.08685 -2.568576,2.53638 -2.094551,4.5489 a 1.6640341,2.1095448 0 0 0 1.308206,1.50196 c 0.70426,0.16705 1.338762,-0.12912 1.971414,-0.49648 a 0.7468402,0.94679128 0 0 0 0.26571,-1.28481 0.75825885,0.96126696 0 0 0 -1.013479,-0.33686 3.1919705,4.0465544 0 0 1 -0.555494,0.25781 0.72153404,0.91470988 0 0 1 -0.358923,0.0278 c -0.03275,-0.01 -0.187634,-0.0892 -0.137023,-0.0568 0.04159,0.0266 -0.02684,-0.0391 -0.04009,-0.072 a 0.62185252,0.78834067 0 0 1 -0.03801,-0.46205 c -0.009,0.0857 0.02867,-0.13224 0.03735,-0.16354 -0.01759,0.063 0.06577,-0.1565 0.09259,-0.20619 0.04134,-0.0809 0.127154,-0.31533 0.201521,-0.36579 -0.04417,0.0297 -0.121894,0.17957 -0.03084,0.0575 0.03084,-0.043 0.06168,-0.088 0.09259,-0.13106 0.07101,-0.0955 0.145358,-0.18741 0.220342,-0.27738 a 25.162961,31.899823 0 0 1 3.000022,-2.9734 c 0.573706,-0.51135 1.154821,-1.01213 1.756,-1.46987 0.816277,-0.62168 0.07252,-2.24609 -0.747462,-1.62168 z" id="path45" style="fill:#211715;stroke-width:0.347476"/>
  <path class="c" d="m 94.802167,257.30622 c -1.11903,0.89241 -2.195766,1.8623 -3.272827,2.83295 -0.98169,0.88458 -2.047941,1.71048 -2.580919,3.14631 -0.505815,1.36385 -0.121903,2.98905 1.049279,3.52386 1.258519,0.57434 2.422292,-0.63693 3.404291,-1.46947 1.287533,-1.09195 2.542344,-2.24452 3.849633,-3.29852 0.802382,-0.64671 0.06018,-2.27229 -0.747462,-1.62128 -1.228271,0.98984 -2.410256,2.06691 -3.616314,3.09898 a 11.609045,14.717127 0 0 1 -1.807844,1.44758 c -0.282689,0.15297 -0.696842,0.17488 -0.843442,-0.17332 -0.165104,-0.39124 0.06543,-0.82747 0.306771,-1.23552 a 6.2956779,7.9812154 0 0 1 1.503858,-1.59273 c 1.153904,-1.03795 2.303474,-2.08333 3.501512,-3.03912 0.805167,-0.64201 0.06168,-2.26916 -0.747461,-1.62128 z" id="path46" style="fill:#211715;stroke-width:0.347476"/>
  <path class="c" d="m 96.261907,260.93298 a 23.651379,29.983548 0 0 0 -1.416222,2.93623 c -0.421571,0.94132 -1.044346,1.83568 -0.972129,2.98552 a 1.6171251,2.0500769 0 0 0 0.6987,1.61384 1.6695891,2.1165871 0 0 0 1.447079,0.20698 3.2465948,4.1158034 0 0 0 1.001445,-0.75979 q 0.57433,-0.58685 1.128898,-1.20501 a 25.237026,31.993718 0 0 0 2.222002,-2.8169 0.75825885,0.96126696 0 0 0 0,-1.32785 0.74714881,0.94718245 0 0 0 -1.047427,0 q -0.792514,1.13928 -1.666503,2.17958 -0.454579,0.53794 -0.927995,1.04929 -0.228677,0.24726 -0.460447,0.48905 -0.128379,0.13381 -0.257383,0.26604 a 0.74714881,0.94718245 0 0 1 -0.112334,0.11464 c 0.04692,-0.0301 0.146892,-0.13186 0.03984,-0.0392 a 3.4583024,4.3841913 0 0 1 -0.310771,0.23944 c -0.109866,0.0747 0.06168,-0.002 -0.06485,0.0274 -0.04385,0.0105 -0.0858,0.0313 -0.130229,0.0391 0.10369,-0.0219 0.02684,0.0169 -0.0058,-0.0114 0.0075,0.007 0.162938,0.0755 -0.0098,-0.003 -0.0041,0 -0.104924,-0.0587 -0.04909,-0.0211 0.08456,0.0564 -0.04685,-0.10955 0.03542,0.0571 -0.04568,-0.0923 -0.04042,-0.17683 -0.02684,-0.0454 a 0.71752211,0.90962383 0 0 1 -0.02308,-0.11112 c -0.01142,-0.0693 -0.01051,-0.0497 0.0016,0.0579 l -0.0041,-0.0782 c 0,-0.0782 0,-0.1565 0.0025,-0.23475 0.0025,-0.17763 0.0041,-0.0126 -0.0034,0.0242 0.0067,-0.0352 0.01017,-0.0712 0.0185,-0.10563 0.0083,-0.0344 0.01667,-0.0676 0.02217,-0.10054 0.02626,-0.1565 -0.0041,0.0153 -0.02009,0.0477 0.05001,-0.10212 0.09845,-0.20539 0.149676,-0.30713 0.218799,-0.43584 0.424954,-0.88145 0.625858,-1.3302 a 23.030147,29.195991 0 0 1 1.394926,-2.88928 0.74591436,0.94561751 0 0 0 -0.265711,-1.28481 0.75733303,0.96009335 0 0 0 -1.013179,0.33685 z" id="path47" style="fill:#211715;stroke-width:0.347476"/>
  <path class="c" d="m 99.948578,264.53745 a 5.6346317,7.1431878 0 0 0 3.891592,-0.36269 c 0.91997,-0.50157 1.76495,-1.19679 2.68061,-1.70031 a 0.74498853,0.94444383 0 0 0 0.2657,-1.28442 0.7594933,0.96283197 0 0 0 -1.01317,-0.33725 c -0.8135,0.44757 -1.56774,1.06455 -2.37631,1.53013 a 4.247731,5.3849731 0 0 1 -3.05525,0.3435 c -0.915657,-0.34585 -1.306671,1.46635 -0.393788,1.81104 z" id="path48" style="fill:#211715;stroke-width:0.347476"/>
  <path class="c" d="m 75.681206,238.62314 c 0.566303,-2.9018 1.040944,-5.82942 1.475776,-8.76604 0.433607,-2.93074 0.831098,-5.86423 1.438752,-8.74803 q 0.453046,-2.15181 1.028293,-4.25939 a 9.8521194,12.48982 0 0 1 1.327035,-3.34156 c 1.27734,-2.20265 3.32498,-3.37245 5.253185,-4.39279 0.493778,-0.26096 0.995577,-0.49452 1.485963,-0.76096 0.103081,-0.0563 0.219116,-0.0633 0.08302,-0.12049 0.04385,0.0184 0.134247,0.18818 0.166338,0.23161 a 6.3493764,8.0492906 0 0 0 0.568162,0.67527 9.5564694,12.115016 0 0 0 2.40007,1.82825 c 1.811237,0.97574 3.720004,1.29108 5.675056,1.36111 4.341854,0.15296 8.627864,-1.0266 12.667584,-2.98983 q 0.66845,-0.32511 1.32919,-0.67488 0.38947,-0.2054 0.77647,-0.41666 c 0.31848,-0.17411 0.29534,-0.23162 0.60087,-0.0611 a 24.346067,30.864221 0 0 1 2.92841,1.91002 14.692384,18.625966 0 0 1 4.48228,5.28873 22.917811,29.053581 0 0 1 2.7241,6.91275 c 0.66691,2.46478 1.11873,5.05085 1.59585,7.58332 0.92213,4.89437 1.64181,9.84077 2.26829,14.8079 q 0.25799,2.04382 0.5018,4.09037 a 25.116978,31.84153 0 0 1 0.37404,3.62793 17.99206,22.809062 0 0 1 -0.11357,3.34546 5.9734875,7.5727651 0 0 1 -0.55828,2.74608 c -0.88911,2.10525 -2.67813,3.24414 -4.45419,3.72457 a 29.05579,36.834876 0 0 1 -3.40214,0.51683 c -0.58481,0.0685 -1.1684,0.13341 -1.75476,0.17566 -2.85127,0.20501 -5.70931,0.26369 -8.56552,0.32629 q -0.61723,0.0137 -1.23445,0.025 l 0.74067,0.93898 a 21.430612,27.168214 0 0 0 -0.46292,-4.04969 25.295973,32.068446 0 0 0 -1.34308,-6.01721 9.7937912,12.415877 0 0 0 -1.24555,-2.92645 0.76535691,0.97026541 0 0 0 -1.01318,-0.33684 0.74560575,0.94522634 0 0 0 -0.2657,1.28481 c 1.18167,1.94131 1.71742,4.46909 2.15533,6.82197 q 0.31387,1.68663 0.52465,3.40142 0.0419,0.34155 0.0793,0.68466 c -0.0263,-0.24139 0.009,0.0818 0.0124,0.1256 0.009,0.0896 0.0175,0.17878 0.0256,0.26837 0.0221,0.24687 0.0438,0.49492 0.0519,0.74336 a 0.75239526,0.95383346 0 0 0 0.74068,0.93896 c 2.70437,-0.0505 5.40966,-0.11737 8.11278,-0.25117 1.43166,-0.0717 2.85219,-0.21127 4.27922,-0.36893 2.20348,-0.24375 4.47054,-0.60603 6.30925,-2.3036 a 6.6351508,8.4115751 0 0 0 1.98993,-2.77465 7.3505129,9.3184598 0 0 0 0.72184,-3.28638 18.587372,23.563757 0 0 0 0.15801,-3.49491 23.441834,29.7179 0 0 0 -0.36817,-3.84781 c -0.63142,-5.28521 -1.29618,-10.56612 -2.18281,-15.79381 q -0.66382,-3.91666 -1.47548,-7.78912 a 30.041185,38.084091 0 0 0 -2.18929,-7.6428 17.724495,22.46986 0 0 0 -3.7416,-6.51564 20.711238,26.256243 0 0 0 -5.78432,-4.58177 1.5739194,1.9953039 0 0 0 -1.73068,0 q -0.74778,0.41315 -1.50603,0.79421 c -1.00855,0.50626 -2.03067,0.96988 -3.06668,1.37677 a 30.979673,39.273839 0 0 1 -6.39196,1.6561 c -2.086832,0.23669 -4.314697,0.31024 -6.372523,-0.26331 a 10.733514,13.60719 0 0 1 -2.584004,-1.13888 8.2288218,10.431919 0 0 1 -1.166248,-0.90337 c -0.372185,-0.35211 -0.657032,-0.79695 -1.000211,-1.1827 -0.476182,-0.536 -1.043103,-0.50078 -1.600146,-0.22302 -0.601179,0.2993 -1.198339,0.61112 -1.793341,0.92998 a 17.371134,22.021896 0 0 0 -3.105256,1.97417 10.269979,13.019553 0 0 0 -2.43988,2.79343 10.531991,13.351713 0 0 0 -1.486896,3.54382 c -1.679773,5.80125 -2.294521,11.92096 -3.297824,17.93621 q -0.362916,2.17605 -0.78387,4.3349 c -0.228994,1.17371 1.199265,1.6737 1.428566,0.49921 z" id="path49" style="fill:#211715;stroke-width:0.347476"/>
  <path class="c" d="m 107.91322,195.16111 a 24.698501,31.311012 0 0 1 -3.45922,1.89437 c -1.25389,0.52778 -2.54882,0.86072 -3.83574,1.22926 -0.929533,0.26526 -0.53606,2.0763 0.39379,1.81064 a 38.03793,48.2218 0 0 0 3.94807,-1.27699 27.909295,35.381432 0 0 0 3.70087,-2.03443 c 0.84868,-0.55124 0.1,-2.17214 -0.74777,-1.62167 z" id="path50" style="fill:#211715;stroke-width:0.347476"/>
  <path class="c" d="m 99.018417,198.11339 a 1.3390661,1.6975733 0 0 0 -0.08026,2.48982 2.0599828,2.6115006 0 0 0 1.697353,0.58685 c 0.65241,-0.11737 1.45882,-1.04655 1.48135,-1.98904 0.0231,-0.91393 -0.89313,-1.56886 -1.69552,-1.67567 a 1.6745269,2.1228468 0 0 0 -1.402948,0.58804 z" id="path51" style="fill:#211715;stroke-width:0.347476"/>
  <path class="c" d="m 108.36905,192.65212 a 25.79222,32.697552 0 0 1 -0.89282,4.06612 0.70980683,0.89984292 0 0 0 0.38022,0.89671 2.8700886,3.6384954 0 0 0 1.28011,0.43466 0.7804789,0.98943594 0 0 0 0.75456,-0.36932 13.177718,16.70578 0 0 0 0.98385,-4.6209 z" id="path52" style="fill:#211715;stroke-width:0.347476"/>
  <path class="c" d="m 107.06732,197.61495 a 6.8820401,8.7245641 0 0 0 2.01184,-3.26956 0.80671088,1.0226911 0 0 0 0.0747,-0.72379 0.75671581,0.95931075 0 0 0 -0.33948,-0.56103 0.74776603,0.94796496 0 0 0 -0.57062,-0.0947 0.72060821,0.91353617 0 0 0 -0.44286,0.43036 6.425912,8.146317 0 0 1 -0.34904,0.85406 q -0.10246,0.21715 -0.21602,0.42606 -0.0503,0.0939 -0.1034,0.18623 c -0.0197,0.0341 -0.0399,0.0677 -0.0592,0.10172 -0.0741,0.12833 0.087,-0.13889 0.0309,-0.0497 a 6.6416315,8.4197909 0 0 1 -1.08508,1.37206 0.74066797,0.9389665 0 0 0 -0.21602,0.6651 0.7536297,0.95539842 0 0 0 0.21602,0.6651 0.74529714,0.94483509 0 0 0 0.52464,0.27387 0.86411264,1.095461 0 0 0 0.52464,-0.27387 z" id="path53" style="fill:#211715;stroke-width:0.347476"/>
  <path class="a" d="m 111.73538,188.07465 a 3.7255601,4.7230017 0 0 1 0.48945,2.81691 3.449044,4.3724542 0 0 1 -0.66629,2.52151 1.8825311,2.3865399 0 0 1 -2.04485,0.74335 2.1865137,2.7719075 0 0 1 -0.90084,-0.91197 3.5573666,4.5097779 0 0 1 -0.61198,-3.94953 2.5216659,3.1967897 0 0 1 1.26531,-2.13733 c 0.70117,-0.43817 2.00319,-0.26016 2.47074,0.9159" id="path54" style="fill:#ffffff;stroke-width:0.347476"/>
  <path class="c" d="m 111.09686,188.54884 a 3.4132452,4.3270709 0 0 1 0.18517,3.6154 1.4504748,1.8388095 0 0 1 -0.68944,1.04892 c -0.13085,0.0892 -0.0519,0.0266 -0.0207,0.0126 -0.0442,0.0199 -0.0886,0.0391 -0.13363,0.0544 -0.0549,0.0196 -0.1111,0.0324 -0.16665,0.0493 -0.11387,0.0348 0.11389,-0.009 0,0 a 2.4050106,3.0489024 0 0 1 -0.283,0.008 c -0.0392,-0.003 -0.0787,-0.008 -0.11788,-0.0126 0.0898,0.0126 0.0975,0.0254 0.007,-0.01 -0.0401,-0.0153 -0.0808,-0.0282 -0.12129,-0.0438 0.0364,0.014 0.13209,0.0916 -0.0246,-0.0165 -0.0496,-0.0341 -0.0987,-0.0689 -0.1466,-0.10759 -0.12344,-0.10016 -0.0799,-0.07 -0.0521,-0.0423 a 2.0544278,2.6044584 0 0 1 -0.44162,-0.62051 2.7802824,3.5246456 0 0 1 -0.46292,-1.64319 2.9336625,3.7190899 0 0 1 0.19381,-1.7187 c 0.0453,-0.15297 -0.0377,0.0974 0.017,-0.0516 q 0.0416,-0.11463 0.0895,-0.22418 a 2.3019344,2.9182297 0 0 1 0.17066,-0.34116 c -0.021,0.0357 -0.0617,0.09 0.0352,-0.0481 0.0358,-0.0504 0.0729,-0.10055 0.11172,-0.14788 a 0.90176328,1.1431917 0 0 1 0.24257,-0.23475 1.5874983,2.0125183 0 0 0 0.1506,-0.10407 c -0.10956,0.10603 -0.0494,0.0223 0.0281,-0.01 a 1.8535217,2.3497637 0 0 1 0.28855,-0.0844 c -0.034,0.007 -0.14845,0.008 -0.0118,0.009 0.0636,0 0.12714,-0.007 0.19102,-0.005 0.0431,0 0.0861,0.007 0.12932,0.009 0.19226,0.008 -0.1253,-0.0497 0.0616,0.0113 0.10739,0.0352 0.21233,0.0665 0.31755,0.11229 -0.13392,-0.0583 0.11234,0.0782 0.14999,0.10485 0.0309,0.0215 0.14568,0.13224 0.0386,0.0227 0.0431,0.0442 0.0814,0.0947 0.1219,0.14281 0.0259,0.0309 0.11017,0.17605 0.0346,0.0391 a 1.7467421,2.214396 0 0 1 0.10709,0.22693 0.74119842,0.939639 0 1 0 1.27889,-0.95032 c -0.56939,-1.35055 -1.97882,-1.90767 -3.10217,-1.45149 -1.37024,0.55673 -2.0498,2.37128 -2.12942,4.08059 -0.0805,1.72497 0.57155,3.82121 1.83933,4.64828 a 2.6318402,3.336461 0 0 0 3.36911,-1.25626 4.5628236,5.7844251 0 0 0 0.62154,-2.90297 4.4862878,5.6873986 0 0 0 -0.59839,-3.11815 c -0.48175,-1.04226 -1.76249,-0.0982 -1.27889,0.94797 z" id="path55" style="fill:#211715;stroke-width:0.347476"/>
  <path class="a" d="m 39.791832,239.50264 c 1.486897,11.03716 3.056804,22.54185 5.058766,37.10991 a 1.2770351,1.6189349 0 0 0 1.14186,1.33685 c 6.90642,0.77935 30.263386,2.06182 38.384807,2.39437 a 1.2739489,1.6150224 0 0 0 1.29617,-1.89437 c -1.998879,-14.50781 -3.587298,-26.15452 -5.094866,-37.34505 a 1.8492011,2.3442864 0 0 0 -1.766811,-1.9507 c -6.661064,-0.25548 -31.277783,-1.27035 -37.725923,-1.53364 a 1.269937,1.6099364 0 0 0 -1.294003,1.88263 z" id="path56" style="fill:#ffffff;stroke-width:0.347476"/>
  <path class="c" d="m 39.077395,239.75107 q 1.521145,11.28559 3.065129,22.56728 0.889728,6.50782 1.783781,13.01369 c 0.141649,1.03012 0.177757,2.15179 0.833248,2.89984 0.464463,0.53051 1.018415,0.63341 1.613117,0.69679 0.685422,0.0732 1.371161,0.13692 2.0572,0.19561 4.166264,0.36737 8.341471,0.63381 12.513895,0.89514 q 7.250214,0.45346 14.502587,0.83061 3.016685,0.1565 6.03428,0.30164 1.198964,0.0555 2.397919,0.10759 a 2.7694812,3.5109525 0 0 0 1.543052,-0.31729 2.0393059,2.5852879 0 0 0 1.010096,-2.23474 8.439603,10.699132 0 0 0 -0.204305,-1.65963 l -0.24689,-1.79577 q -0.235162,-1.70813 -0.469706,-3.41667 -0.4373,-3.18308 -0.873682,-6.36697 -0.820595,-5.9906 -1.635639,-11.98317 -0.762581,-5.60876 -1.519295,-11.21909 c -0.116352,-0.86268 -0.16357,-1.78403 -0.546549,-2.53834 a 2.5840054,3.2758194 0 0 0 -1.719899,-1.45891 15.663893,19.857577 0 0 0 -2.054117,-0.12089 q -5.751908,-0.22653 -11.502881,-0.46323 -6.983579,-0.28481 -13.966532,-0.5712 -5.145786,-0.21127 -10.291581,-0.42215 a 2.3398936,2.9663516 0 0 0 -1.467759,0.41276 2.0133825,2.552424 0 0 0 -0.881083,2.39593 0.76473969,0.96948291 0 0 0 0.740659,0.93897 0.74529714,0.94483509 0 0 0 0.740678,-0.93897 c -0.05951,-0.58686 0.157385,-0.95306 0.63296,-0.93897 0.264794,0.008 0.52927,0.0219 0.793747,0.0324 l 2.009682,0.0825 5.317692,0.21832 q 6.629281,0.27191 13.259187,0.54264 6.153099,0.25117 12.306198,0.49883 l 2.224163,0.0884 c 0.588834,0.0231 1.200499,-0.0121 1.786249,0.0712 a 1.1187172,1.4182307 0 0 1 0.953299,0.99883 16.580779,21.019939 0 0 1 0.368176,2.64318 q 0.356755,2.64437 0.715354,5.28873 1.592136,11.74882 3.20772,23.49216 0.222192,1.61659 0.445019,3.23436 0.110166,0.80241 0.220958,1.60406 c 0.06168,0.44522 0.236404,1.02895 0.174681,1.47887 -0.07101,0.51839 -0.437616,0.57277 -0.788204,0.5579 q -0.516301,-0.0211 -1.032302,-0.0442 -2.66363,-0.11737 -5.326018,-0.25508 -6.867844,-0.3482 -13.733221,-0.76096 c -4.373644,-0.26252 -8.747288,-0.53756 -13.117848,-0.87832 -1.510343,-0.11737 -3.020995,-0.24022 -4.528879,-0.40024 -0.308612,-0.0328 -0.643763,-0.0204 -0.802391,-0.43231 a 4.7982941,6.0829381 0 0 1 -0.225902,-1.50352 l -0.233311,-1.69835 q -0.44255,-3.22144 -0.883867,-6.44249 -1.551078,-11.32394 -3.08611,-22.65257 -0.343487,-2.53678 -0.685114,-5.07395 a 0.7468402,0.94679128 0 0 0 -0.911024,-0.65609 0.75825885,0.96126696 0 0 0 -0.516617,1.15571 z" id="path57" style="fill:#211715;stroke-width:0.347476"/>
  <path class="c" d="m 102.20484,266.44433 c -4.866813,3.7852 -9.806453,7.42878 -14.764603,11.01759 -0.786963,0.56963 -1.573917,1.14358 -2.371065,1.6874 -0.84004,0.57199 -0.09259,2.19405 0.747462,1.62128 1.789948,-1.21987 3.543171,-2.53443 5.301946,-3.8255 q 3.995591,-2.93426 7.965269,-5.92371 1.940551,-1.464 3.868451,-2.9554 c 0.81134,-0.63106 0.0682,-2.25587 -0.74746,-1.62166 z" id="path58" style="fill:#211715;stroke-width:0.347476"/>
  <path class="c" d="m 24.201388,262.41538 q 2.575053,0 5.150727,-0.0105 l 8.142718,-0.0169 q 1.034154,0 2.067697,-0.004 c 0.953309,0 0.954843,-1.87794 0,-1.87794 q -2.661774,0 -5.324165,0.0105 l -8.094577,0.0169 q -0.971816,0 -1.944253,0.004 c -0.953302,0 -0.954844,1.87794 0,1.87794 z" id="path59" style="fill:#211715;stroke-width:0.347476"/>
  <path class="c" d="m 93.23997,190.74759 a 7.3335393,9.2969424 0 0 0 -0.265094,0.98473 c -0.129613,0.55713 -0.285156,1.25744 0.08269,1.72888 a 1.2211764,1.5481211 0 0 0 0.271578,0.24921 1.3007982,1.6490599 0 0 0 0.319723,0.1565 2.2145973,2.80751 0 0 0 0.456437,0.0391 0.74066797,0.9389665 0 0 0 0.740668,-0.93896 0.74961776,0.95031242 0 0 0 -0.216033,-0.66511 0.77739279,0.98552371 0 0 0 -0.524635,-0.27386 1.9035168,2.4131441 0 0 1 -0.24103,-0.002 l 0.196895,0.0337 a 0.60950803,0.7726912 0 0 1 -0.118502,-0.0423 l 0.17714,0.0947 a 0.79899561,1.0129101 0 0 1 -0.159244,-0.12049 l 0.149984,0.1467 a 0.03086116,0.03912361 0 0 1 -0.005,-0.008 l 0.115727,0.19013 a 0.06172234,0.07824721 0 0 1 -0.0067,-0.0149 l 0.07468,0.22418 a 0.12344466,0.15649442 0 0 1 -0.0067,-0.0357 l 0.02659,0.24961 a 0.49038393,0.62167408 0 0 1 0.0041,-0.14751 l -0.02659,0.24962 a 4.1702694,5.2867729 0 0 1 0.179916,-0.88068 c 0.06168,-0.24217 0.123445,-0.48669 0.201529,-0.72143 a 0.74066797,0.9389665 0 0 0 -0.07469,-0.72341 0.74066797,0.9389665 0 0 0 -1.013472,-0.33684 l -0.149992,0.14671 a 0.74282826,0.94170521 0 0 0 -0.19041,0.41432 z" id="path60" style="fill:#211715;stroke-width:0.347476"/>
  <path class="c" d="m 87.695152,186.62552 c -0.209547,0.83372 -0.116034,2.76564 1.082296,2.95892 1.588119,0.0266 1.712797,-2.30322 1.197414,-3.41276 -0.421871,-0.90845 -1.701986,-1.31337 -2.27971,0.45384 z" id="path61" style="fill:#211715;stroke-width:0.347476"/>
  <path class="c" d="m 101.32221,186.69634 c 0.19843,0.88105 0.0272,2.892 -1.28444,3.02934 -1.729773,-0.0587 -1.781927,-2.49688 -1.181065,-3.62677 0.491928,-0.92526 1.901665,-1.27738 2.465505,0.59743 z" id="path62" style="fill:#211715;stroke-width:0.347476"/>
  <path class="c" d="m 96.195858,200.93301 a 6.0333579,7.6486647 0 0 0 1.238149,-2.00663 c 0.362616,-0.86073 0.837265,-2.25627 -0.03084,-2.90845 -0.42804,-0.322 -1.018416,-0.1612 -1.490289,-0.10839 -0.504274,0.0563 -1.00823,0.12324 -1.512194,0.19563 -0.564453,0.0822 -1.128281,0.17058 -1.689959,0.27778 a 0.74282826,0.94170521 0 0 0 -0.517543,1.15493 0.76381385,0.9683093 0 0 0 0.911333,0.65571 q 0.154309,-0.0293 0.308612,-0.0563 c 0.216023,-0.0392 -0.08919,0.014 0.05218,-0.01 l 0.158937,-0.0262 q 0.402733,-0.065 0.806708,-0.12324 c 0.546858,-0.0782 1.094649,-0.15102 1.643049,-0.20931 0.217874,-0.0231 0.435757,-0.0446 0.653948,-0.0587 a 0.47279306,0.59937363 0 0 0 0.112951,-0.008 0.41508269,0.5262125 0 0 1 -0.273121,-0.14788 0.48390309,0.61345812 0 0 1 -0.136405,-0.49844 1.1727243,1.486697 0 0 0 -0.06169,0.28247 q -0.02342,0.0939 -0.05001,0.18583 c -0.03368,0.10564 -0.03767,0.12246 -0.01267,0.0509 a 5.0825256,6.4432667 0 0 1 -0.548708,1.20736 c -0.04543,0.0818 -0.09043,0.16432 -0.138881,0.24334 0.0731,-0.11737 -0.06577,0.0904 -0.08302,0.11307 -0.123445,0.16315 -0.25986,0.31025 -0.390397,0.4644 a 0.74714881,0.94718245 0 0 0 0,1.32786 0.75671581,0.95931075 0 0 0 1.047738,0 z" id="path63" style="fill:#211715;stroke-width:0.347476"/>
  <path class="c" d="m 129.35527,262.41538 c 2.96266,0 5.92533,-0.0184 8.88614,-0.0274 0.48299,0 0.96597,-0.004 1.45049,-0.004 0.95298,0 0.95483,-1.87794 0,-1.87794 -3.00372,0 -6.00774,0.0179 -9.01147,0.0274 -0.44131,0 -0.88263,0.004 -1.32394,0.004 -0.95298,0 -0.95483,1.87794 0,1.87794 z" id="path64" style="fill:#211715;stroke-width:0.347476"/>
</svg>