<?xml version="1.0" encoding="UTF-8"?>
<svg id="Layer_1" data-name="Layer 1" xmlns="http://www.w3.org/2000/svg" width="50mm" height="75mm" viewBox="0 0 141.7323 212.5984">
  <defs>
    <style>
      .cls-1 {
        font-family: TheSansPHB-Bold, 'TheSans PHB';
        font-size: 13.4195px;
        font-weight: 700;
      }

      .cls-1, .cls-2 {
        fill: #fff;
      }

      .cls-3 {
        fill: #b50938;
      }

      .cls-4 {
        letter-spacing: -.01em;
      }

      .cls-5 {
        letter-spacing: .015em;
      }
    </style>
  </defs>
  <g>
    <rect class="cls-3" width="141.7323" height="141.7322"/>
    <g>
      <g>
        <g>
          <circle class="cls-3" cx="63.7935" cy="92.6173" r="4.5873"/>
          <path class="cls-2" d="M63.7937,98.5325c-3.2609,0-5.9146-2.6537-5.9146-5.9146,0-3.2631,2.6537-5.9168,5.9146-5.9168s5.9146,2.6537,5.9146,5.9168c0,3.2609-2.6537,5.9146-5.9146,5.9146ZM63.7937,89.3571c-1.7953,0-3.2587,1.4634-3.2587,3.2609,0,1.7953,1.4634,3.2587,3.2587,3.2587s3.2587-1.4634,3.2587-3.2587c0-1.7975-1.4634-3.2609-3.2587-3.2609Z"/>
        </g>
        <g>
          <circle class="cls-3" cx="77.9388" cy="92.6173" r="4.5873"/>
          <path class="cls-2" d="M77.938,98.5325c-3.2609,0-5.9146-2.6537-5.9146-5.9146,0-3.2631,2.6537-5.9168,5.9146-5.9168,3.2631,0,5.9168,2.6537,5.9168,5.9168,0,3.2609-2.6537,5.9146-5.9168,5.9146ZM77.938,89.3571c-1.7953,0-3.2587,1.4634-3.2587,3.2609,0,1.7953,1.4634,3.2587,3.2587,3.2587,1.7975,0,3.2609-1.4634,3.2609-3.2587,0-1.7975-1.4634-3.2609-3.2609-3.2609Z"/>
        </g>
        <g>
          <circle class="cls-3" cx="92.0841" cy="92.6173" r="4.5873"/>
          <path class="cls-2" d="M92.0846,98.5325c-3.2609,0-5.9146-2.6537-5.9146-5.9146,0-3.2631,2.6537-5.9168,5.9146-5.9168s5.9146,2.6537,5.9146,5.9168c0,3.2609-2.6537,5.9146-5.9146,5.9146ZM92.0846,89.3571c-1.7953,0-3.2587,1.4634-3.2587,3.2609,0,1.7953,1.4634,3.2587,3.2587,3.2587s3.2587-1.4634,3.2587-3.2587c0-1.7975-1.4634-3.2609-3.2587-3.2609Z"/>
        </g>
      </g>
      <g>
        <g>
          <circle class="cls-3" cx="63.7935" cy="78.1165" r="4.5873"/>
          <path class="cls-2" d="M63.7937,84.0322c-3.2609,0-5.9146-2.6537-5.9146-5.9146,0-3.2631,2.6537-5.9168,5.9146-5.9168s5.9146,2.6537,5.9146,5.9168c0,3.2609-2.6537,5.9146-5.9146,5.9146ZM63.7937,74.8567c-1.7953,0-3.2587,1.4634-3.2587,3.2609,0,1.7953,1.4634,3.2587,3.2587,3.2587s3.2587-1.4634,3.2587-3.2587c0-1.7975-1.4634-3.2609-3.2587-3.2609Z"/>
        </g>
        <g>
          <circle class="cls-3" cx="49.6482" cy="78.1165" r="4.5873"/>
          <path class="cls-2" d="M49.6472,84.0322c-3.2609,0-5.9146-2.6537-5.9146-5.9146,0-3.2631,2.6537-5.9168,5.9146-5.9168,3.2631,0,5.9168,2.6537,5.9168,5.9168,0,3.2609-2.6537,5.9146-5.9168,5.9146ZM49.6472,74.8567c-1.7953,0-3.2587,1.4634-3.2587,3.2609,0,1.7953,1.4634,3.2587,3.2587,3.2587,1.7975,0,3.2609-1.4634,3.2609-3.2587,0-1.7975-1.4634-3.2609-3.2609-3.2609Z"/>
        </g>
      </g>
      <g>
        <circle class="cls-3" cx="92.0841" cy="63.6157" r="4.5873"/>
        <path class="cls-2" d="M92.0846,69.5318c-3.2609,0-5.9146-2.6537-5.9146-5.9168,0-3.2609,2.6537-5.9146,5.9146-5.9146s5.9146,2.6537,5.9146,5.9146c0,3.2631-2.6537,5.9168-5.9146,5.9168ZM92.0846,60.3564c-1.7953,0-3.2587,1.4634-3.2587,3.2587,0,1.7975,1.4634,3.2609,3.2587,3.2609s3.2587-1.4634,3.2587-3.2609c0-1.7953-1.4634-3.2587-3.2587-3.2587Z"/>
      </g>
      <g>
        <circle class="cls-3" cx="77.9388" cy="49.1149" r="4.5873"/>
        <path class="cls-2" d="M77.938,55.0293c-3.2609,0-5.9146-2.6526-5.9146-5.9146s2.6537-5.9157,5.9146-5.9157c3.2631,0,5.9168,2.6537,5.9168,5.9157s-2.6537,5.9146-5.9168,5.9146ZM77.938,45.8571c-1.7953,0-3.2587,1.4612-3.2587,3.2576s1.4634,3.2576,3.2587,3.2576c1.7975,0,3.2609-1.4612,3.2609-3.2576s-1.4634-3.2576-3.2609-3.2576Z"/>
      </g>
      <g>
        <circle class="cls-3" cx="49.6482" cy="49.1149" r="4.5873"/>
        <path class="cls-2" d="M49.6472,55.0293c-3.2609,0-5.9146-2.6526-5.9146-5.9146s2.6537-5.9157,5.9146-5.9157c3.2631,0,5.9168,2.6537,5.9168,5.9157s-2.6537,5.9146-5.9168,5.9146ZM49.6472,45.8571c-1.7953,0-3.2587,1.4612-3.2587,3.2576s1.4634,3.2576,3.2587,3.2576c1.7975,0,3.2609-1.4612,3.2609-3.2576s-1.4634-3.2576-3.2609-3.2576Z"/>
      </g>
      <rect class="cls-2" x="62.4658" y="44.2845" width="2.6559" height="9.6614"/>
      <rect class="cls-2" x="48.3192" y="58.786" width="2.6559" height="9.6603"/>
      <rect class="cls-2" x="62.4658" y="58.786" width="2.6559" height="9.6603"/>
      <rect class="cls-2" x="76.6101" y="58.786" width="2.6559" height="9.6603"/>
      <rect class="cls-2" x="76.6101" y="73.2863" width="2.6559" height="9.6603"/>
      <rect class="cls-2" x="48.3192" y="87.7867" width="2.6559" height="9.6603"/>
      <rect class="cls-2" x="90.7566" y="73.2863" width="2.6559" height="9.6603"/>
      <rect class="cls-2" x="90.7566" y="44.2845" width="2.6559" height="9.6614"/>
    </g>
    <path class="cls-2" d="M28.7221,41.4838c2.2945-1.3672,3.8366-3.8657,3.8366-6.7306,0-4.3288-3.5092-7.8379-7.838-7.8379s-7.838,3.5091-7.838,7.8379c0,2.8649,1.5421,5.3634,3.8366,6.7306-3.8538,1.373-6.6366,5.0551-6.6366,9.3649v23.9617h21.2763v-23.9617c0-4.3098-2.7829-7.9919-6.6368-9.3649Z"/>
    <path class="cls-2" d="M121.0128,77.8555c2.2945-1.3672,3.8366-3.8657,3.8366-6.7306,0-4.3288-3.5092-7.8379-7.838-7.8379s-7.838,3.5091-7.838,7.8379c0,2.8649,1.5421,5.3634,3.8366,6.7306-3.8538,1.373-6.6366,5.0551-6.6366,9.3649v23.9617h21.2763v-23.9617c0-4.3098-2.7829-7.9919-6.6368-9.3649Z"/>
  </g>
  <rect class="cls-3" x="0" y="146.6043" width="141.7323" height="65.9941"/>
  <text class="cls-1" transform="translate(9.1491 184.5)"><tspan x="0" y="0">Digitalit</tspan><tspan class="cls-4" x="47.772" y="0">ä</tspan><tspan class="cls-5" x="54.6694" y="0">t</tspan></text>
</svg>