<svg id="Ebene_1" data-name="Ebene 1" xmlns="http://www.w3.org/2000/svg" xmlns:xlink="http://www.w3.org/1999/xlink" viewBox="0 0 523 70.19"><defs><style>.cls-1{fill:none;}.cls-2{clip-path:url(#clip-path);}.cls-3{fill:#e50a5d;stroke:#e50a5d;stroke-miterlimit:10;}</style><clipPath id="clip-path"><rect class="cls-1" width="549" height="70"/></clipPath></defs><title>TBA-Logo</title><g class="cls-2"><path class="cls-3" d="M52,42.72c.7-11,1.56-23.92,2-26.27.7-3.66-1-3.75-2.09-3.48s-2.42.52-4.86,1.31c-2.27.69-2.44,3.39-2.44,5.74,0,.78-.87,12.44-1.58,23.58L22.48,45.69C24.14,18.36,33.11,10.09,41,8.27c5.58-1.39,8.88.78,9.84-.69,1.13-2-1.31-5.92-8-5.92-12.61,0-22.44,7.83-27.31,23.14a110.06,110.06,0,0,0-4.34,21.92C8.39,47,6.92,48.47,7,49.52a3,3,0,0,0,3.58,1.64h.08c.09,0,.09,0,.17-.08a103.06,103.06,0,0,0-.17,11c.27,3.75,1.48,7.14,4.88,7.14,5.31,0,6.78-5,6.78-11-.08-2.86-.08-5.47,0-7.91,7-.44,15.06-1,20.36-1.22-.27,4.52-.34,8.7-.34,11.48.08,5.66,1.3,8.27,5.39,8.27,3.92,0,3.48-8.09,3.48-10.63,0-1.64.17-5.47.44-10.34a11.18,11.18,0,0,0,4.08-2.53c1.39-1.64.26-2.86-2.86-2.61Zm0,0"/></g><path class="cls-3" d="M96.19,53.59c-2.78-1.39-7.12-3.83-7.56-6.34a4.53,4.53,0,0,1,4.44-5c2.7,0,5,1.3,4.26,3.66-.53,1.47-2.26,1.3-2.26,2.52s.78,1.92,2.26,1.92c2.27,0,4.17-3.39,4.17-6,0-1.83-.44-5.48-7.92-5.48-4.69,0-12.09,2.78-12.78,8.7-.7,5.73,5.66,8.86,7.48,9.56,3.39,1.31,3.56,2.27,3.47,3.92-.08,1.3-1.64,2.52-4.34,2.52-1.3,0-3.66-.44-4.26-2.44C82.53,59.42,81.41,60,80.8,61A9.83,9.83,0,0,1,75,64c2.61-4,1.48-9.39-3-11.31-2.87-1.22-7.14-3.39-7.58-5.92-.34-2.34,1.56-4.17,4.44-4.17,2.7,0,5,1.31,4.27,3.66-.53,1.49-2.27,1.31-2.27,2.52s.78,1.92,2.27,1.92c2.26,0,4.17-3.39,4.17-6,0-1.83-1-5.48-8.44-5.48-4.7,0-11.56,1.91-12.27,7.83s5.83,8.44,7.49,9.14c3.39,1.3,3.56,2.27,3.48,3.91-.09,1.31-1.66,2.53-4.36,2.53-1.3,0-3.66-.44-4.27-2.44-.69-2.53-3-.44-3,2.17,0,5.92,7,6.44,9.31,6.44A12.87,12.87,0,0,0,71,67.61c2.69,0,6.51-.61,9.3-3.31.7,4.88,7.14,5.39,9.23,5.39,10.09,0,15.56-11.49,6.69-16.09Zm0,0"/><path class="cls-3" d="M129,50.3c-1.81,3.13-6.44,10.17-12.51,10.17a8.24,8.24,0,0,1-7.14-4.17,10.45,10.45,0,0,0,9.49-7c1.56-4.78-.44-10.09-6.27-10.09-8.53,0-11.83,9.48-11.83,13.92S100,68,113.59,68,130.2,55.08,130.9,52.2s0-5-1.92-1.91Zm-18.17-7.14A3.49,3.49,0,0,1,114,47.77,9.14,9.14,0,0,1,108.71,54c-.61.34-.87-1.12-.87-1.73-.42-4.61,1-9.14,3-9.14Zm0,0"/><path class="cls-3" d="M167.65,53.59c-2.78-1.39-7.12-3.83-7.56-6.34a4.53,4.53,0,0,1,4.44-5c2.7,0,5,1.3,4.27,3.66-.53,1.47-2.27,1.3-2.27,2.52s.78,1.92,2.27,1.92c2.27,0,4.17-3.39,4.17-6,0-1.83-.44-5.48-7.92-5.48-4.69,0-12.09,2.78-12.78,8.7-.7,5.73,5.66,8.86,7.48,9.56,3.39,1.31,3.56,2.27,3.47,3.92-.08,1.3-1.64,2.52-4.34,2.52-1.3,0-3.66-.44-4.27-2.44-.61-1.66-1.73-1.12-2.34-.08a9.83,9.83,0,0,1-5.75,3c2.61-4,1.48-9.39-3-11.31-2.88-1.22-7.14-3.39-7.58-5.92-.34-2.34,1.56-4.17,4.44-4.17,2.7,0,5,1.31,4.27,3.66-.53,1.49-2.27,1.31-2.27,2.52s.78,1.92,2.27,1.92c2.27,0,4.17-3.39,4.17-6,0-1.83-1-5.48-8.44-5.48-4.7,0-11.56,1.91-12.27,7.83s5.83,8.44,7.49,9.14c3.39,1.3,3.56,2.27,3.48,3.91-.09,1.31-1.66,2.53-4.36,2.53-1.3,0-3.66-.44-4.27-2.44-.69-2.53-3-.44-3,2.17,0,5.92,7,6.44,9.31,6.44a12.87,12.87,0,0,0,5.66-1.12c2.69,0,6.52-.61,9.3-3.31.7,4.88,7.14,5.39,9.23,5.39,10.09,0,15.56-11.49,6.69-16.09Zm0,0"/><path class="cls-3" d="M227.24,56.12c-1.83,1.66-6.78,4.27-9.47,4.27-2.7-.27-1.75-2.27-2.09-4.7v.08c-.7-4.52.69-14.09-6.44-14.09-5.83,0-8.88,8.7-10.53,12.89,0-2.19-.08-4.19-.08-4.09-.44-4.44-1.92-8.8-6.09-8.8-5.39,0-8.7,7.41-10.53,11.14.26-4.09.44-7.12.7-8.44.69-3.83-1.14-3.83-2.09-3.56s-2.44.51-4.87,1.3-2.34,3.39-2.34,5.75c0,.61-.34,5.3-.61,11.22a52.36,52.36,0,0,1-.61,5.49c-.61,2.87.61,3.39,1.73,3.39h4.27a3.4,3.4,0,0,0,3.39-2.61,17.59,17.59,0,0,0,.17-3.73c1.39-4.44,4-12.53,6.36-10.45,2.17,2,1.22,7,.78,10.62-.27,3.22,0,4.27,1,4.61s4.34,1,6,.25c1.39-.59,1.91-1.64,2.27-4.69.78-1.56,4.08-12.87,6.61-10.8a6,6,0,0,1,1.56,3.14C206.1,63.08,208.63,68,215.24,68c6.17,0,11.31-7.92,12.44-9.75,1-1.47,2.09-4.17-.44-2.08Zm0,0"/><path class="cls-3" d="M252.82,50.3c-1.81,3.13-6.44,10.17-12.52,10.17a8.24,8.24,0,0,1-7.14-4.17,10.45,10.45,0,0,0,9.48-7c1.56-4.78-.44-10.09-6.26-10.09-8.53,0-11.83,9.48-11.83,13.92S223.85,68,237.43,68,254,55.08,254.74,52.2s0-5-1.92-1.91Zm-18.17-7.14a3.49,3.49,0,0,1,3.22,4.61A9.14,9.14,0,0,1,232.55,54c-.61.34-.87-1.12-.87-1.73-.42-4.61,1-9.14,3-9.14Zm0,0"/><path class="cls-3" d="M289.49,56.12c-1.83,1.66-4.78,4.27-7.47,4.27-2.7-.27-3.83-2.27-4.09-4.7,0,.08,0,.08-.09.08-.25-4.78.17-14.09-6.44-14.09-4.52,0-7.73,5.84-9.83,11.14.27-4.09.44-7.12.7-8.44.69-3.83-1.14-3.83-2.09-3.56s-2.44.51-4.87,1.3S253,45.5,253,47.86c0,.61-.34,5.3-.61,11.22a52.07,52.07,0,0,1-.61,5.49c-.61,2.87.61,3.39,1.73,3.39h4.27a3.41,3.41,0,0,0,3.39-2.61,33.68,33.68,0,0,0,.26-5.75c1.83-4.42,3.49-10.52,5.56-8.44a5.88,5.88,0,0,1,1.56,3.14C268.27,63.08,270.79,68,277.4,68c6.27,0,11.41-7.92,12.53-9.75,1-1.47,2.09-4.17-.44-2.08Zm0,0"/><g class="cls-2"><path class="cls-3" d="M300.62,29.33c.34-2.36.69-4.17,1-5.22,1-3.66-.78-3.75-1.83-3.48s-2.52.52-5,1.31-2.61,3.39-2.87,5.73l-.44,2.61c-6.27.44-4.87.61-6.27.61-3.73.26-4.25,5-.08,4.53,1.73-.27.08.08,5.66-.36-.61,4.88-1.39,10.7-1.75,16.63-.69,10.53,1.39,16.27,8.7,16.27s14.63-9.48,15.84-12.09c1-2.52,1-5.31-.53-3.56s-5.73,7-9.83,7c-3.83,0-5.66-4.53-5.22-10,.27-3,.88-9.22,1.83-14.87,4.88-.34,9.73-.52,13.56-.78,5.66-.25,10.09-1.3,11.48-3.66,1.66-2.69-.34-3-6.34-2.34Zm0,0"/><path class="cls-3" d="M347.24,54c-1.39,1.83-5.83,7-9.73,7-4.09,0-5.66-4.52-5.22-10s3.56-29.41,4.61-33.16-.87-3.83-1.83-3.56-2.44.53-5,1.31-2.61,3.39-2.86,5.73c0,1.31-3.31,21.58-4,32S324.8,69.69,332,69.69s14.53-9.48,15.75-12.09c1-2.52,1-5.3-.53-3.56ZM373.52.19c-18,0-61.86,4.86-67.08,6.25-2.17.53-.78,3.92,2.09,3.92s57.67.88,62.89,1.83c5.14,1.13,8.7-5.56,9.41-8.61s-2.36-4-7.31-3.39Zm0,0"/></g><path class="cls-3" d="M392.07,39.67A13.4,13.4,0,0,0,386,41.06c-4.17,1.41-11.48,5.66-15,2.09a15.58,15.58,0,0,0-10-3.48c-7.92,0-13.84,6.19-14.27,14.09A13.08,13.08,0,0,0,359.88,68c7.73,0,14.44-6.34,15.14-14.19a14.14,14.14,0,0,0-.27-3.83c2.34-.42,4-3.12,6-4.52a17.23,17.23,0,0,0-3,8.34A13.09,13.09,0,0,0,391,68a15.58,15.58,0,0,0,15.14-14.19c.44-7.91-4.78-14.09-14.09-14.09ZM363.44,63c-1.56.42-6.27-3-7.39-8.09s1.56-10,3-10.53c1.56-.27,6.27,2.88,7.48,8.09,1.13,5-1.48,10.27-3.14,10.53Zm31.16,0c-1.58.42-6.27-3-7.41-8.09s1.56-10,3-10.53c1.56-.27,6.27,2.88,7.49,8.09,1.13,5-1.49,10.27-3.13,10.53Zm0,0"/><path class="cls-3" d="M430.07,52.3c-1.39,1.83-5.83,7-9.73,7-4.09,0-5.66-4.53-5.23-10s3.58-29.41,4.63-33.14-.88-3.83-1.83-3.56-2.44.52-5,1.3-2.61,3.39-2.86,5.75c0,1.3-3.31,21.58-4,32S407.63,68,414.85,68s14.53-9.48,15.75-12.09c1-2.52,1-5.31-.53-3.56Zm0,0"/><path class="cls-3" d="M438.13,46.3c1.39-10.27,3.39-25.58,4.08-28.38,1-3.73-.86-3.83-1.81-3.56s-2.44.53-5,1.31-2.61,3.39-2.87,5.73c0,1.31-3.3,21.58-4,32s1.56,16.27,8.8,16.27c7.91,0,15.73-6.27,17.83-13.48,3-10.44-1.12-15.14-7-15.14a12.87,12.87,0,0,0-10.09,5.23ZM438,48.2c5-3.66,10.69-1,9.73,3.48-1.12,5.48-4.08,10.09-8.78,10.09-1.73,0-1.73-3.58-1.73-4.53.08-3.22.34-6.17.69-9Zm0,0"/><g class="cls-2"><path class="cls-3" d="M470.15,39.67c-7.92,0-13.84,6.19-14.27,14.09A13.08,13.08,0,0,0,469.1,68c7.74,0,14.44-6.34,15.14-14.19.44-7.91-4.8-14.09-14.09-14.09ZM472.67,63c-1.56.42-6.27-3-7.39-8.09s1.56-10,3-10.53c1.56-.27,6.27,2.88,7.49,8.09,1.13,5-1.49,10.27-3.14,10.53Zm0,0"/><path class="cls-3" d="M515,56.12A14.29,14.29,0,0,1,506.12,60c-4.61,0-6.09-4.78-6.8-8.27,3.58-4.09,6.8-7.58,7.49-7.83,1.48-.78,3.83.78,3.83-1.92s-2.17-3-4.87-2.08c-2.44,1-5.22,4.44-7.39,8l-.17-.34c-1.12-3.92-3.39-8.36-8.26-8.36s-7.31,9.14-4.53,8.44,3.66,1.83,4.09,4.88l1,4.88c-2,2.17-3.92,4.17-5,5.47l-1,1.48c-.61.78-1.14,1.75-.87,2.34.34,1.14,1.31.44,4.53-2.61a34.68,34.68,0,0,0,3.3-3.47c1.39,3.56,3.48,6.88,7,7.3a10.9,10.9,0,0,0,7.22-1.3c5.12-2.61,8.78-7.39,9.73-8.36C516.9,57,517.34,54,515,56.12Zm0,0"/></g></svg>