<?xml version="1.0" encoding="UTF-8" standalone="no"?>
<!-- Created with Inkscape (http://www.inkscape.org/) -->

<svg
   width="116.41292mm"
   height="98.851372mm"
   viewBox="0 0 116.41292 98.851372"
   version="1.1"
   id="svg1"
   inkscape:version="1.4.2 (ebf0e940, 2025-05-08)"
   sodipodi:docname="ZuK_Rosenberger23_CC_NC_ND.svg"
   xmlns:inkscape="http://www.inkscape.org/namespaces/inkscape"
   xmlns:sodipodi="http://sodipodi.sourceforge.net/DTD/sodipodi-0.dtd"
   xmlns="http://www.w3.org/2000/svg"
   xmlns:svg="http://www.w3.org/2000/svg">
  <sodipodi:namedview
     id="namedview1"
     pagecolor="#ffffff"
     bordercolor="#000000"
     borderopacity="0.25"
     inkscape:showpageshadow="2"
     inkscape:pageopacity="0.0"
     inkscape:pagecheckerboard="0"
     inkscape:deskcolor="#d1d1d1"
     inkscape:document-units="mm"
     inkscape:zoom="0.37059484"
     inkscape:cx="376.42187"
     inkscape:cy="634.11569"
     inkscape:window-width="1920"
     inkscape:window-height="1147"
     inkscape:window-x="0"
     inkscape:window-y="25"
     inkscape:window-maximized="1"
     inkscape:current-layer="layer1" />
  <defs
     id="defs1">
    <clipPath
       clipPathUnits="userSpaceOnUse"
       id="clipPath5967">
      <path
         d="M 0,0 H 439.37 V 637.795 H 0 Z"
         transform="matrix(1.3333333,0,0,1.3333333,95720.613,-4.6226667e-4)"
         clip-rule="evenodd"
         id="path5967" />
    </clipPath>
    <clipPath
       clipPathUnits="userSpaceOnUse"
       id="clipPath5917">
      <path
         d="M 0,0 H 331.65399 V 280.20999 H 0 Z"
         transform="matrix(1.333332,0,0,-1.333332,95807.543,465.81394)"
         id="path5917" />
    </clipPath>
    <clipPath
       clipPathUnits="userSpaceOnUse"
       id="clipPath5916">
      <path
         d="M 0,280.21 H 331.654 V 0 H 0 Z"
         transform="translate(-117.40322,-255.5903)"
         id="path5916" />
    </clipPath>
    <clipPath
       clipPathUnits="userSpaceOnUse"
       id="clipPath5918">
      <path
         d="M 0,0 H 331.65399 V 280.20999 H 0 Z"
         transform="translate(-330.82194,-255.5903)"
         id="path5918" />
    </clipPath>
    <clipPath
       clipPathUnits="userSpaceOnUse"
       id="clipPath5919">
      <path
         d="M 0,0 H 331.65399 V 280.20999 H 0 Z"
         transform="translate(-117.40322,-255.5888)"
         id="path5919" />
    </clipPath>
    <clipPath
       clipPathUnits="userSpaceOnUse"
       id="clipPath5920">
      <path
         d="M 0,0 H 331.65399 V 280.20999 H 0 Z"
         transform="translate(-120.42123,-255.5888)"
         id="path5920" />
    </clipPath>
    <clipPath
       clipPathUnits="userSpaceOnUse"
       id="clipPath5921">
      <path
         d="M 0,0 H 331.65399 V 280.20999 H 0 Z"
         transform="translate(-213.25032,-255.5888)"
         id="path5921" />
    </clipPath>
    <clipPath
       clipPathUnits="userSpaceOnUse"
       id="clipPath5922">
      <path
         d="M 0,0 H 331.65399 V 280.20999 H 0 Z"
         transform="translate(-117.40322,-197.8476)"
         id="path5922" />
    </clipPath>
    <clipPath
       clipPathUnits="userSpaceOnUse"
       id="clipPath5923">
      <path
         d="M 0,0 H 331.65399 V 280.20999 H 0 Z"
         transform="translate(-330.82194,-197.8476)"
         id="path5923" />
    </clipPath>
    <clipPath
       clipPathUnits="userSpaceOnUse"
       id="clipPath5924">
      <path
         d="M 0,0 H 331.65399 V 280.20999 H 0 Z"
         transform="translate(-117.40322,-197.84599)"
         id="path5924" />
    </clipPath>
    <clipPath
       clipPathUnits="userSpaceOnUse"
       id="clipPath5925">
      <path
         d="M 0,0 H 331.65399 V 280.20999 H 0 Z"
         transform="translate(-117.40322,-140.1049)"
         id="path5925" />
    </clipPath>
    <clipPath
       clipPathUnits="userSpaceOnUse"
       id="clipPath5926">
      <path
         d="M 0,0 H 331.65399 V 280.20999 H 0 Z"
         transform="translate(-330.82194,-140.1049)"
         id="path5926" />
    </clipPath>
    <clipPath
       clipPathUnits="userSpaceOnUse"
       id="clipPath5927">
      <path
         d="M 0,0 H 331.65399 V 280.20999 H 0 Z"
         transform="translate(-117.40322,-140.10331)"
         id="path5927" />
    </clipPath>
    <clipPath
       clipPathUnits="userSpaceOnUse"
       id="clipPath5928">
      <path
         d="M 0,0 H 331.65399 V 280.20999 H 0 Z"
         transform="translate(-120.42123,-140.10331)"
         id="path5928" />
    </clipPath>
    <clipPath
       clipPathUnits="userSpaceOnUse"
       id="clipPath5929">
      <path
         d="M 0,0 H 331.65399 V 280.20999 H 0 Z"
         transform="translate(-213.25032,-140.10331)"
         id="path5929" />
    </clipPath>
    <clipPath
       clipPathUnits="userSpaceOnUse"
       id="clipPath5930">
      <path
         d="M 0,0 H 331.65399 V 280.20999 H 0 Z"
         transform="translate(-117.40322,-82.362097)"
         id="path5930" />
    </clipPath>
    <clipPath
       clipPathUnits="userSpaceOnUse"
       id="clipPath5931">
      <path
         d="M 0,0 H 331.65399 V 280.20999 H 0 Z"
         transform="translate(-330.82194,-82.362097)"
         id="path5931" />
    </clipPath>
    <clipPath
       clipPathUnits="userSpaceOnUse"
       id="clipPath5932">
      <path
         d="M 0,0 H 331.65399 V 280.20999 H 0 Z"
         transform="translate(-117.40322,-82.3605)"
         id="path5932" />
    </clipPath>
    <clipPath
       clipPathUnits="userSpaceOnUse"
       id="clipPath5933">
      <path
         d="M 0,0 H 331.65399 V 280.20999 H 0 Z"
         transform="translate(-120.42123,-82.3605)"
         id="path5933" />
    </clipPath>
    <clipPath
       clipPathUnits="userSpaceOnUse"
       id="clipPath5934">
      <path
         d="M 0,0 H 331.65399 V 280.20999 H 0 Z"
         transform="translate(-213.25032,-82.3605)"
         id="path5934" />
    </clipPath>
    <clipPath
       clipPathUnits="userSpaceOnUse"
       id="clipPath5935">
      <path
         d="M 0,0 H 331.65399 V 280.20999 H 0 Z"
         transform="translate(-117.40322,-24.619397)"
         id="path5935" />
    </clipPath>
    <clipPath
       clipPathUnits="userSpaceOnUse"
       id="clipPath5936">
      <path
         d="M 0,0 H 331.65399 V 280.20999 H 0 Z"
         transform="translate(-330.82194,-24.619397)"
         id="path5936" />
    </clipPath>
    <clipPath
       clipPathUnits="userSpaceOnUse"
       id="clipPath5937">
      <path
         d="M 0,0 H 331.65399 V 280.20999 H 0 Z"
         transform="translate(-117.40322,-24.6178)"
         id="path5937" />
    </clipPath>
    <clipPath
       clipPathUnits="userSpaceOnUse"
       id="clipPath5938">
      <path
         d="M 0,0 H 331.65399 V 280.20999 H 0 Z"
         transform="translate(-120.42123,-24.6178)"
         id="path5938" />
    </clipPath>
    <clipPath
       clipPathUnits="userSpaceOnUse"
       id="clipPath5939">
      <path
         d="M 0,0 H 331.65399 V 280.20999 H 0 Z"
         transform="translate(-213.25032,-24.6178)"
         id="path5939" />
    </clipPath>
    <clipPath
       clipPathUnits="userSpaceOnUse"
       id="clipPath5940">
      <path
         d="M 0,0 H 331.65399 V 280.20999 H 0 Z"
         transform="matrix(1,0,0,-1,-38.441645,252.9302)"
         id="path5940" />
    </clipPath>
    <clipPath
       clipPathUnits="userSpaceOnUse"
       id="clipPath5941">
      <path
         d="M 0,0 H 331.65399 V 280.20999 H 0 Z"
         transform="matrix(1,0,0,-1,-27.773635,79.691697)"
         id="path5941" />
    </clipPath>
  </defs>
  <g
     inkscape:label="Layer 1"
     inkscape:groupmode="layer"
     id="layer1"
     transform="translate(-66.14523,-101.86458)">
    <g
       id="g5966"
       clip-path="url(#clipPath5967)"
       transform="matrix(0.26458333,0,0,0.26458333,-25283.227,77.469495)">
      <g
         clip-path="url(#clipPath5917)"
         id="g5942">
        <path
           d="m 0,0 c 0,-13.597 -26.095,-24.619 -58.286,-24.619 -32.19,0 -58.285,11.022 -58.285,24.619 0,13.597 26.095,24.619 58.285,24.619 C -26.095,24.619 0,13.597 0,0"
           style="fill:#e77b45;fill-opacity:1;fill-rule:nonzero;stroke:none"
           transform="matrix(1.333332,0,0,-1.333332,95964.08,125.02721)"
           clip-path="url(#clipPath5916)"
           id="path5942" />
      </g>
      <path
         d="m 0,0 c 0,-13.597 -26.095,-24.619 -58.286,-24.619 -32.19,0 -58.285,11.022 -58.285,24.619 0,13.597 26.095,24.619 58.285,24.619 C -26.095,24.619 0,13.597 0,0"
         style="fill:#e77b45;fill-opacity:1;fill-rule:nonzero;stroke:none"
         transform="matrix(1.333332,0,0,-1.333332,96248.638,125.02721)"
         clip-path="url(#clipPath5918)"
         id="path5943" />
      <path
         d="M 0,0 H 1"
         style="fill:none;stroke:#e77b45;stroke-width:0.7;stroke-linecap:butt;stroke-linejoin:miter;stroke-miterlimit:10;stroke-dasharray:none;stroke-opacity:1"
         transform="matrix(1.333332,0,0,-1.333332,95964.08,125.02921)"
         clip-path="url(#clipPath5919)"
         id="path5944" />
      <path
         d="M 0,0 H 91.82"
         style="fill:none;stroke:#e77b45;stroke-width:0.7;stroke-linecap:butt;stroke-linejoin:miter;stroke-miterlimit:10;stroke-dasharray:2.018, 2.018;stroke-dashoffset:0;stroke-opacity:1"
         transform="matrix(1.333332,0,0,-1.333332,95968.104,125.02921)"
         clip-path="url(#clipPath5920)"
         id="path5945" />
      <path
         d="M 0,0 H 1"
         style="fill:none;stroke:#e77b45;stroke-width:0.7;stroke-linecap:butt;stroke-linejoin:miter;stroke-miterlimit:10;stroke-dasharray:none;stroke-opacity:1"
         transform="matrix(1.333332,0,0,-1.333332,96091.876,125.02921)"
         clip-path="url(#clipPath5921)"
         id="path5946" />
      <path
         d="m 0,0 c 0,-13.597 -26.095,-24.619 -58.286,-24.619 -32.19,0 -58.285,11.022 -58.285,24.619 0,13.597 26.095,24.619 58.285,24.619 C -26.095,24.619 0,13.597 0,0"
         style="fill:#ed9868;fill-opacity:1;fill-rule:nonzero;stroke:none"
         transform="matrix(1.333332,0,0,-1.333332,95964.08,202.01741)"
         clip-path="url(#clipPath5922)"
         id="path5947" />
      <path
         d="m 0,0 c 0,-13.597 -26.095,-24.619 -58.286,-24.619 -32.19,0 -58.285,11.022 -58.285,24.619 0,13.597 26.095,24.619 58.285,24.619 C -26.095,24.619 0,13.597 0,0"
         style="fill:#ed9868;fill-opacity:1;fill-rule:nonzero;stroke:none"
         transform="matrix(1.333332,0,0,-1.333332,96248.638,202.01741)"
         clip-path="url(#clipPath5923)"
         id="path5948" />
      <path
         d="M 0,0 H 96.847"
         style="fill:none;stroke:#ed9868;stroke-width:0.7;stroke-linecap:butt;stroke-linejoin:miter;stroke-miterlimit:10;stroke-dasharray:2, 2;stroke-dashoffset:0;stroke-opacity:1"
         transform="matrix(1.333332,0,0,-1.333332,95964.08,202.01955)"
         clip-path="url(#clipPath5924)"
         id="path5949" />
      <path
         d="m 0,0 c 0,-13.597 -26.095,-24.619 -58.286,-24.619 -32.19,0 -58.285,11.022 -58.285,24.619 0,13.597 26.095,24.619 58.285,24.619 C -26.095,24.619 0,13.597 0,0"
         style="fill:#f2b38d;fill-opacity:1;fill-rule:nonzero;stroke:none"
         transform="matrix(1.333332,0,0,-1.333332,95964.08,279.00759)"
         clip-path="url(#clipPath5925)"
         id="path5950" />
      <path
         d="m 0,0 c 0,-13.597 -26.095,-24.619 -58.286,-24.619 -32.19,0 -58.285,11.022 -58.285,24.619 0,13.597 26.095,24.619 58.285,24.619 C -26.095,24.619 0,13.597 0,0"
         style="fill:#f2b38d;fill-opacity:1;fill-rule:nonzero;stroke:none"
         transform="matrix(1.333332,0,0,-1.333332,96248.638,279.00759)"
         clip-path="url(#clipPath5926)"
         id="path5951" />
      <path
         d="M 0,0 H 1"
         style="fill:none;stroke:#f2b38d;stroke-width:0.7;stroke-linecap:butt;stroke-linejoin:miter;stroke-miterlimit:10;stroke-dasharray:none;stroke-opacity:1"
         transform="matrix(1.333332,0,0,-1.333332,95964.08,279.00972)"
         clip-path="url(#clipPath5927)"
         id="path5952" />
      <path
         d="M 0,0 H 91.82"
         style="fill:none;stroke:#f2b38d;stroke-width:0.7;stroke-linecap:butt;stroke-linejoin:miter;stroke-miterlimit:10;stroke-dasharray:2.018, 2.018;stroke-dashoffset:0;stroke-opacity:1"
         transform="matrix(1.333332,0,0,-1.333332,95968.104,279.00972)"
         clip-path="url(#clipPath5928)"
         id="path5953" />
      <path
         d="M 0,0 H 1"
         style="fill:none;stroke:#f2b38d;stroke-width:0.7;stroke-linecap:butt;stroke-linejoin:miter;stroke-miterlimit:10;stroke-dasharray:none;stroke-opacity:1"
         transform="matrix(1.333332,0,0,-1.333332,96091.876,279.00972)"
         clip-path="url(#clipPath5929)"
         id="path5954" />
      <path
         d="m 0,0 c 0,-13.597 -26.095,-24.619 -58.286,-24.619 -32.19,0 -58.285,11.022 -58.285,24.619 0,13.597 26.095,24.619 58.285,24.619 C -26.095,24.619 0,13.597 0,0"
         style="fill:#f8cdb3;fill-opacity:1;fill-rule:nonzero;stroke:none"
         transform="matrix(1.333332,0,0,-1.333332,95964.08,355.99792)"
         clip-path="url(#clipPath5930)"
         id="path5955" />
      <path
         d="m 0,0 c 0,-13.597 -26.095,-24.619 -58.286,-24.619 -32.19,0 -58.285,11.022 -58.285,24.619 0,13.597 26.095,24.619 58.285,24.619 C -26.095,24.619 0,13.597 0,0"
         style="fill:#f8cdb3;fill-opacity:1;fill-rule:nonzero;stroke:none"
         transform="matrix(1.333332,0,0,-1.333332,96248.638,355.99792)"
         clip-path="url(#clipPath5931)"
         id="path5956" />
      <path
         d="M 0,0 H 1"
         style="fill:none;stroke:#f8cdb3;stroke-width:0.7;stroke-linecap:butt;stroke-linejoin:miter;stroke-miterlimit:10;stroke-dasharray:none;stroke-opacity:1"
         transform="matrix(1.333332,0,0,-1.333332,95964.08,356.00005)"
         clip-path="url(#clipPath5932)"
         id="path5957" />
      <path
         d="M 0,0 H 91.82"
         style="fill:none;stroke:#f8cdb3;stroke-width:0.7;stroke-linecap:butt;stroke-linejoin:miter;stroke-miterlimit:10;stroke-dasharray:2.018, 2.018;stroke-dashoffset:0;stroke-opacity:1"
         transform="matrix(1.333332,0,0,-1.333332,95968.104,356.00005)"
         clip-path="url(#clipPath5933)"
         id="path5958" />
      <path
         d="M 0,0 H 1"
         style="fill:none;stroke:#f8cdb3;stroke-width:0.7;stroke-linecap:butt;stroke-linejoin:miter;stroke-miterlimit:10;stroke-dasharray:none;stroke-opacity:1"
         transform="matrix(1.333332,0,0,-1.333332,96091.876,356.00005)"
         clip-path="url(#clipPath5934)"
         id="path5959" />
      <path
         d="m 0,0 c 0,-13.597 -26.095,-24.619 -58.286,-24.619 -32.19,0 -58.285,11.022 -58.285,24.619 0,13.597 26.095,24.619 58.285,24.619 C -26.095,24.619 0,13.597 0,0"
         style="fill:#fce7d9;fill-opacity:1;fill-rule:nonzero;stroke:none"
         transform="matrix(1.333332,0,0,-1.333332,95964.08,432.98811)"
         clip-path="url(#clipPath5935)"
         id="path5960" />
      <path
         d="m 0,0 c 0,-13.597 -26.095,-24.619 -58.286,-24.619 -32.19,0 -58.285,11.022 -58.285,24.619 0,13.597 26.095,24.619 58.285,24.619 C -26.095,24.619 0,13.597 0,0"
         style="fill:#fce7d9;fill-opacity:1;fill-rule:nonzero;stroke:none"
         transform="matrix(1.333332,0,0,-1.333332,96248.638,432.98811)"
         clip-path="url(#clipPath5936)"
         id="path5961" />
      <path
         d="M 0,0 H 1"
         style="fill:none;stroke:#fce7d9;stroke-width:0.7;stroke-linecap:butt;stroke-linejoin:miter;stroke-miterlimit:10;stroke-dasharray:none;stroke-opacity:1"
         transform="matrix(1.333332,0,0,-1.333332,95964.08,432.99024)"
         clip-path="url(#clipPath5937)"
         id="path5962" />
      <path
         d="M 0,0 H 91.82"
         style="fill:none;stroke:#fce7d9;stroke-width:0.7;stroke-linecap:butt;stroke-linejoin:miter;stroke-miterlimit:10;stroke-dasharray:2.018, 2.018;stroke-dashoffset:0;stroke-opacity:1"
         transform="matrix(1.333332,0,0,-1.333332,95968.104,432.99024)"
         clip-path="url(#clipPath5938)"
         id="path5963" />
      <path
         d="M 0,0 H 1"
         style="fill:none;stroke:#fce7d9;stroke-width:0.7;stroke-linecap:butt;stroke-linejoin:miter;stroke-miterlimit:10;stroke-dasharray:none;stroke-opacity:1"
         transform="matrix(1.333332,0,0,-1.333332,96091.876,432.99024)"
         clip-path="url(#clipPath5939)"
         id="path5964" />
      <path
         d="M 0.63225379,-6.0584437 V 1.5613246e-4 H 1.2885044 V -6.0584437 Z M 5.8851887,1.5613246e-4 V -2.9295343 c 0,-1.0078135 -0.539063,-1.6054704 -1.5468765,-1.6054704 -0.3984379,0 -0.8671884,0.1640627 -1.0898449,0.4804693 V -4.4764108 H 2.6039354 V 1.5613246e-4 H 3.2484673 V -2.9529718 c 0,-0.5625006 0.492188,-0.9609385 1.0898449,-0.9609385 0.8203133,0 0.9140634,0.5390631 0.9140634,0.984376 V 1.5613246e-4 Z M 9.1371451,-3.8435977 V -4.4646921 H 8.0824565 v -0.4335942 c 0,-0.4101566 0.2695316,-0.539063 0.4804693,-0.539063 H 9.043395 V -6.0584437 H 8.6449571 c -0.8203133,0 -1.1953137,0.492188 -1.1953137,1.2656263 v 0.3281253 H 6.6762051 v 0.6210944 H 7.4496434 V 1.5613246e-4 H 8.0824565 V -3.8435977 Z m 4.0693399,2.308596 v -1.3945326 c 0,-0.9960947 -0.656251,-1.6054704 -1.664064,-1.6054704 -0.996095,0 -1.675783,0.6210944 -1.675783,1.6054704 v 1.3945326 c 0,0.99609479 0.667969,1.61718916 1.675783,1.61718916 0.984376,0 1.664064,-0.63281313 1.664064,-1.61718916 z m -0.632813,0 c 0,0.62109442 -0.398438,0.99609479 -1.031251,0.99609479 -0.820313,0 -1.031251,-0.55078179 -1.031251,-0.99609479 v -1.3945326 c 0,-0.6210944 0.398438,-0.984376 1.031251,-0.984376 0.820313,0 1.031251,0.5273443 1.031251,0.984376 z m 3.656254,-2.3320335 v -0.6093756 h -0.351563 c -0.257813,0 -0.585938,0.1640626 -0.796876,0.4218754 V -4.4764108 H 14.436955 V 1.5613246e-4 h 0.644532 V -2.8357842 c 0,-0.738282 0.445313,-1.031251 0.785157,-1.031251 z m 5.964849,0.6210943 c 0,-0.5742193 -0.339844,-1.2890638 -1.242188,-1.2890638 -0.398438,0 -0.878908,0.1054689 -1.23047,0.5507818 -0.175782,-0.3281253 -0.492188,-0.5507818 -0.94922,-0.5507818 -0.363282,0 -0.76172,0.1289064 -0.996095,0.4101567 V -4.4764108 H 17.13227 V 1.5613246e-4 h 0.644532 V -2.8240654 c 0,-0.691407 0.28125,-1.0898449 0.937501,-1.0898449 0.445313,0 0.632813,0.3750004 0.632813,0.7500008 V 1.5613246e-4 h 0.632813 V -2.8357842 c 0,-0.6679694 0.281251,-1.0781261 0.925783,-1.0781261 0.480469,0 0.644531,0.3398441 0.644531,0.7265632 V 1.5613246e-4 h 0.644532 z m 4.382817,0.1523439 c 0,-1.0664073 -0.796876,-1.4414077 -1.558595,-1.4414077 -0.679688,0 -1.546877,0.3867192 -1.582033,1.4531265 h 0.644532 c 0.02344,-0.6093756 0.457032,-0.8320321 0.937501,-0.8320321 0.527344,0 0.925782,0.1875002 0.925782,0.8437509 v 0.4335941 h -1.23047 c -0.820313,0 -1.441408,0.4218755 -1.441408,1.2656263 0,1.01953228 0.76172,1.45312646 1.488283,1.45312646 0.503907,0 0.984376,-0.22265647 1.183595,-0.50390675 V 1.5613246e-4 h 0.632813 z m -0.632813,1.5703141 c 0,0.60937562 -0.550782,0.98437599 -1.078126,0.98437599 -0.46875,0 -0.960938,-0.17578142 -0.960938,-0.83203209 0,-0.4804692 0.339844,-0.6679694 0.820313,-0.6679694 h 1.218751 z m 1.429689,-2.3320336 h 0.843751 v 2.6953152 c 0,0.8320321 0.480469,1.16015743246 1.066407,1.16015743246 h 0.562501 V -0.62093824 h -0.527345 c -0.246094,0 -0.46875,-0.12890638 -0.46875,-0.50390676 v -2.7304715 h 0.984376 v -0.6210943 h -0.984376 v -1.5820329 h -0.632813 v 1.5820329 H 27.374468 Z M 31.590293,1.5613246e-4 V -4.4764108 H 30.957479 V 1.5613246e-4 Z M 31.660605,-5.2029741 v -0.9257821 h -0.785157 v 0.9257821 z m 4.573247,3.6679724 v -1.3945326 c 0,-0.9960947 -0.656251,-1.6054704 -1.664064,-1.6054704 -0.996095,0 -1.675783,0.6210944 -1.675783,1.6054704 v 1.3945326 c 0,0.99609479 0.667969,1.61718916 1.675783,1.61718916 0.984376,0 1.664064,-0.63281313 1.664064,-1.61718916 z m -0.632813,0 c 0,0.62109442 -0.398438,0.99609479 -1.031251,0.99609479 -0.820314,0 -1.031251,-0.55078179 -1.031251,-0.99609479 v -1.3945326 c 0,-0.6210944 0.398438,-0.984376 1.031251,-0.984376 0.820313,0 1.031251,0.5273443 1.031251,0.984376 z M 40.745575,1.5613246e-4 V -2.9295343 c 0,-1.0078135 -0.539063,-1.6054704 -1.546876,-1.6054704 -0.398438,0 -0.867189,0.1640627 -1.089845,0.4804693 V -4.4764108 H 37.464322 V 1.5613246e-4 h 0.644532 V -2.9529718 c 0,-0.5625006 0.492188,-0.9609385 1.089845,-0.9609385 0.820313,0 0.914063,0.5390631 0.914063,0.984376 V 1.5613246e-4 Z m 169.743335,0 -2.01563,-3.35156583246 1.89844,-2.707034 h -0.75 l -2.03906,2.8828154 v -2.8828154 h -0.65625 V 1.5613246e-4 h 0.65625 V -2.0271896 l 0.51562,-0.7617196 1.64063,2.78906533246 z M 214.55532,-1.5350017 v -1.3945326 c 0,-0.9960947 -0.65625,-1.6054704 -1.66406,-1.6054704 -0.9961,0 -1.67579,0.6210944 -1.67579,1.6054704 v 1.3945326 c 0,0.99609479 0.66797,1.61718916 1.67579,1.61718916 0.98437,0 1.66406,-0.63281313 1.66406,-1.61718916 z m -0.63281,0 c 0,0.62109442 -0.39844,0.99609479 -1.03125,0.99609479 -0.82032,0 -1.03126,-0.55078179 -1.03126,-0.99609479 v -1.3945326 c 0,-0.6210944 0.39844,-0.984376 1.03126,-0.984376 0.82031,0 1.03125,0.5273443 1.03125,0.984376 z m 6.92578,-1.7109392 c 0,-0.5742193 -0.33984,-1.2890638 -1.24218,-1.2890638 -0.39844,0 -0.87891,0.1054689 -1.23047,0.5507818 -0.17579,-0.3281253 -0.49219,-0.5507818 -0.94922,-0.5507818 -0.36329,0 -0.76172,0.1289064 -0.9961,0.4101567 v -0.3515628 h -0.64453 V 1.5613246e-4 h 0.64453 V -2.8240654 c 0,-0.691407 0.28125,-1.0898449 0.9375,-1.0898449 0.44532,0 0.63282,0.3750004 0.63282,0.7500008 V 1.5613246e-4 h 0.63281 V -2.8357842 c 0,-0.6679694 0.28125,-1.0781261 0.92578,-1.0781261 0.48047,0 0.64453,0.3398441 0.64453,0.7265632 V 1.5613246e-4 h 0.64453 z m 6.33985,0 c 0,-0.5742193 -0.33984,-1.2890638 -1.24218,-1.2890638 -0.39844,0 -0.87891,0.1054689 -1.23047,0.5507818 -0.17579,-0.3281253 -0.49219,-0.5507818 -0.94922,-0.5507818 -0.36329,0 -0.76172,0.1289064 -0.9961,0.4101567 v -0.3515628 h -0.64453 V 1.5613246e-4 h 0.64453 V -2.8240654 c 0,-0.691407 0.28125,-1.0898449 0.9375,-1.0898449 0.44532,0 0.63282,0.3750004 0.63282,0.7500008 V 1.5613246e-4 h 0.63281 V -2.8357842 c 0,-0.6679694 0.28125,-1.0781261 0.92578,-1.0781261 0.48047,0 0.64453,0.3398441 0.64453,0.7265632 V 1.5613246e-4 h 0.64453 z m 4.56153,3.24609703246 V -4.4764108 h -0.64453 v 2.9882842 c 0,0.57421932 -0.42187,0.94921969 -1.01953,0.94921969 -0.82032,0 -1.00782,-0.55078179 -1.00782,-0.99609479 v -2.9414091 h -0.64453 v 2.9414091 c 0,0.99609479 0.64453,1.61718916 1.65235,1.61718916 0.38672,0 0.82031,-0.17578142 1.01953,-0.43359418 V 1.5613246e-4 Z m 4.5879,0 V -2.9295343 c 0,-1.0078135 -0.53907,-1.6054704 -1.54688,-1.6054704 -0.39844,0 -0.86719,0.1640627 -1.08984,0.4804693 v -0.4218754 h -0.64454 V 1.5613246e-4 h 0.64454 V -2.9529718 c 0,-0.5625006 0.49218,-0.9609385 1.08984,-0.9609385 0.82031,0 0.91406,0.5390631 0.91406,0.984376 V 1.5613246e-4 Z m 1.99805,0 V -4.4764108 H 237.7028 V 1.5613246e-4 Z M 238.40593,-5.2029741 v -0.9257821 h -0.78516 v 0.9257821 z m 4.73731,5.20313023246 -1.6875,-2.57812753246 1.71094,-1.8867207 h -0.84375 l -1.95704,2.1562522 v -3.7500038 h -0.63281 V 1.5613246e-4 h 0.63281 V -1.4060953 l 0.65625,-0.7148444 1.35938,2.12109583246 z M 247.12762,-3.093597 c 0,-1.0664073 -0.79688,-1.4414077 -1.5586,-1.4414077 -0.67969,0 -1.54687,0.3867192 -1.58203,1.4531265 h 0.64453 c 0.0234,-0.6093756 0.45703,-0.8320321 0.9375,-0.8320321 0.52735,0 0.92578,0.1875002 0.92578,0.8437509 v 0.4335941 h -1.23047 c -0.82031,0 -1.4414,0.4218755 -1.4414,1.2656263 0,1.01953228 0.76172,1.45312646 1.48828,1.45312646 0.50391,0 0.98438,-0.22265647 1.18359,-0.50390675 V 1.5613246e-4 h 0.63282 z m -0.63282,1.5703141 c 0,0.60937562 -0.55078,0.98437599 -1.07812,0.98437599 -0.46875,0 -0.96094,-0.17578142 -0.96094,-0.83203209 0,-0.4804692 0.33984,-0.6679694 0.82031,-0.6679694 h 1.21875 z m 1.42969,-2.3320336 h 0.84375 v 2.6953152 c 0,0.8320321 0.48047,1.16015743246 1.06641,1.16015743246 h 0.5625 V -0.62093824 h -0.52734 c -0.2461,0 -0.46875,-0.12890638 -0.46875,-0.50390676 v -2.7304715 h 0.98437 v -0.6210943 h -0.98437 v -1.5820329 h -0.63282 v 1.5820329 h -0.84375 z m 4.21583,3.85547263246 V -4.4764108 H 251.5075 V 1.5613246e-4 Z M 252.21063,-5.2029741 v -0.9257821 h -0.78516 v 0.9257821 z m 4.57325,3.6679724 v -1.3945326 c 0,-0.9960947 -0.65625,-1.6054704 -1.66407,-1.6054704 -0.99609,0 -1.67578,0.6210944 -1.67578,1.6054704 v 1.3945326 c 0,0.99609479 0.66797,1.61718916 1.67578,1.61718916 0.98438,0 1.66407,-0.63281313 1.66407,-1.61718916 z m -0.63282,0 c 0,0.62109442 -0.39843,0.99609479 -1.03125,0.99609479 -0.82031,0 -1.03125,-0.55078179 -1.03125,-0.99609479 v -1.3945326 c 0,-0.6210944 0.39844,-0.984376 1.03125,-0.984376 0.82032,0 1.03125,0.5273443 1.03125,0.984376 z M 261.2956,1.5613246e-4 V -2.9295343 c 0,-1.0078135 -0.53906,-1.6054704 -1.54688,-1.6054704 -0.39843,0 -0.86718,0.1640627 -1.08984,0.4804693 v -0.4218754 h -0.64453 V 1.5613246e-4 h 0.64453 V -2.9529718 c 0,-0.5625006 0.49219,-0.9609385 1.08984,-0.9609385 0.82032,0 0.91407,0.5390631 0.91407,0.984376 V 1.5613246e-4 Z M -6.0650185,46.292195 v 6.058599 h 0.6562506 v -6.058599 z m 5.2529349,6.058599 v -2.92969 c 0,-1.007814 -0.539063,-1.60547 -1.5468765,-1.60547 -0.3984379,0 -0.8671884,0.164062 -1.0898449,0.480469 v -0.421876 h -0.6445319 v 4.476567 h 0.6445319 v -2.953128 c 0,-0.5625 0.492188,-0.960938 1.0898449,-0.960938 0.8203133,0 0.9140634,0.539063 0.9140634,0.984376 v 2.92969 z m 0.79101642,-3.855472 h 0.84375084 v 2.695315 c 0,0.832032 0.48046924,1.160157 1.06640734,1.160157 H 2.4515915 V 51.7297 H 1.9242473 c -0.246094,0 -0.4687505,-0.128906 -0.4687505,-0.503907 v -2.730471 h 0.984376 V 47.874227 H 1.4554968 V 46.292195 H 0.82268366 v 1.582032 h -0.84375084 z m 6.75879578,0.925782 c 0,-0.996095 -0.6562506,-1.60547 -1.6640641,-1.60547 -0.9960948,0 -1.6757829,0.621094 -1.6757829,1.60547 v 1.394533 c 0,0.996094 0.6679694,1.617189 1.6757829,1.617189 0.9375009,0 1.5820328,-0.597657 1.6523454,-1.546877 H 6.0931967 c -0.058594,0.585938 -0.4453129,0.925782 -1.0195322,0.925782 -0.8203133,0 -1.0312511,-0.550781 -1.0312511,-0.996094 v -0.492188 h 2.6953152 z m -0.6328131,0.28125 H 4.0424134 v -0.28125 c 0,-0.621094 0.3984379,-0.984376 1.0312511,-0.984376 0.8203133,0 1.031251,0.527344 1.031251,0.984376 z M 9.7611692,48.483603 V 47.874227 H 9.4096063 c -0.2578127,0 -0.5859381,0.164063 -0.7968758,0.421876 V 47.874227 H 7.9681986 v 4.476567 h 0.6445319 v -2.83594 c 0,-0.738282 0.445313,-1.031251 0.7851571,-1.031251 z m 4.1835978,2.332034 v -1.394533 c 0,-0.984376 -0.644532,-1.60547 -1.640627,-1.60547 -0.386719,0 -0.714844,0.105468 -0.996094,0.410156 v -0.351563 h -0.644532 v 6.398444 h 0.644532 v -2.273439 c 0.175781,0.257812 0.621094,0.433594 0.996094,0.433594 1.019533,0 1.640627,-0.621095 1.640627,-1.617189 z m -0.632813,0 c 0,0.445313 -0.175781,0.996094 -1.007814,0.996094 -0.621094,0 -0.996094,-0.375 -0.996094,-0.996094 v -1.394533 c 0,-0.457032 0.175781,-0.984376 0.996094,-0.984376 0.632814,0 1.007814,0.363282 1.007814,0.984376 z m 5.121099,-1.394533 c 0,-0.996095 -0.656251,-1.60547 -1.664064,-1.60547 -0.996095,0 -1.675783,0.621094 -1.675783,1.60547 v 1.394533 c 0,0.996094 0.667969,1.617189 1.675783,1.617189 0.937501,0 1.582033,-0.597657 1.652345,-1.546877 h -0.632813 c -0.05859,0.585938 -0.445313,0.925782 -1.019532,0.925782 -0.820314,0 -1.031251,-0.550781 -1.031251,-0.996094 v -0.492188 h 2.695315 z m -0.632813,0.28125 h -2.062502 v -0.28125 c 0,-0.621094 0.398438,-0.984376 1.031251,-0.984376 0.820313,0 1.031251,0.527344 1.031251,0.984376 z m 3.656253,-1.218751 v -0.609376 h -0.351562 c -0.257813,0 -0.585939,0.164063 -0.796876,0.421876 v -0.421876 h -0.644532 v 4.476567 h 0.644532 v -2.83594 c 0,-0.738282 0.445313,-1.031251 0.785157,-1.031251 z m 3.972661,2.542971 c 0,-0.597657 -0.410157,-0.960938 -0.937501,-1.125001 -0.363282,-0.105469 -0.843751,-0.199219 -1.171877,-0.28125 -0.28125,-0.08203 -0.492188,-0.269532 -0.492188,-0.503907 0,-0.539063 0.457032,-0.679688 0.890626,-0.679688 0.644532,0 0.984376,0.316407 1.019533,0.832032 h 0.644532 c -0.03516,-0.925782 -0.703126,-1.441408 -1.640627,-1.441408 -0.820313,0 -1.558595,0.363282 -1.558595,1.289064 0,0.562501 0.457031,0.972657 0.984376,1.101564 0.316406,0.08203 0.796875,0.175781 1.125001,0.269531 0.292969,0.08203 0.503906,0.246094 0.503906,0.539063 0,0.632813 -0.527344,0.773439 -1.031251,0.773439 -0.609375,0 -1.007813,-0.328126 -1.007813,-0.914064 h -0.644532 c 0,0.960939 0.691407,1.535158 1.652345,1.535158 0.890626,0 1.664065,-0.375 1.664065,-1.394533 z m 4.327152,-0.210937 v -1.394533 c 0,-0.996095 -0.65625,-1.60547 -1.664064,-1.60547 -0.996095,0 -1.675783,0.621094 -1.675783,1.60547 v 1.394533 c 0,0.996094 0.66797,1.617189 1.675783,1.617189 0.984376,0 1.664064,-0.632813 1.664064,-1.617189 z m -0.632813,0 c 0,0.621094 -0.398438,0.996094 -1.031251,0.996094 -0.820313,0 -1.031251,-0.550781 -1.031251,-0.996094 v -1.394533 c 0,-0.621094 0.398438,-0.984376 1.031251,-0.984376 0.820314,0 1.031251,0.527344 1.031251,0.984376 z m 5.144537,1.535157 v -2.92969 c 0,-1.007814 -0.539063,-1.60547 -1.546877,-1.60547 -0.398438,0 -0.867188,0.164062 -1.089845,0.480469 v -0.421876 h -0.644532 v 4.476567 h 0.644532 v -2.953128 c 0,-0.5625 0.492188,-0.960938 1.089845,-0.960938 0.820313,0 0.914063,0.539063 0.914063,0.984376 v 2.92969 z m 4.54102,-2.92969 c 0,-0.996095 -0.656251,-1.60547 -1.664064,-1.60547 -0.996095,0 -1.675783,0.621094 -1.675783,1.60547 v 1.394533 c 0,0.996094 0.667969,1.617189 1.675783,1.617189 0.937501,0 1.582032,-0.597657 1.652345,-1.546877 h -0.632813 c -0.05859,0.585938 -0.445313,0.925782 -1.019532,0.925782 -0.820314,0 -1.031251,-0.550781 -1.031251,-0.996094 v -0.492188 h 2.695315 z m -0.632813,0.28125 h -2.062502 v -0.28125 c 0,-0.621094 0.398437,-0.984376 1.031251,-0.984376 0.820313,0 1.031251,0.527344 1.031251,0.984376 z m 1.828126,1.488283 c 0,0.832032 0.492188,1.160157 1.078127,1.160157 h 0.246094 V 51.7297 h -0.210938 c -0.246094,0 -0.468751,-0.128906 -0.468751,-0.503907 v -4.933598 h -0.644532 z m 2.097659,0 c 0,0.832032 0.492188,1.160157 1.078126,1.160157 h 0.246094 V 51.7297 h -0.210938 c -0.246094,0 -0.46875,-0.128906 -0.46875,-0.503907 v -4.933598 h -0.644532 z m 5.39356,-1.769533 c 0,-0.996095 -0.656251,-1.60547 -1.664064,-1.60547 -0.996095,0 -1.675783,0.621094 -1.675783,1.60547 v 1.394533 c 0,0.996094 0.667969,1.617189 1.675783,1.617189 0.937501,0 1.582033,-0.597657 1.652345,-1.546877 H 46.85105 c -0.05859,0.585938 -0.445313,0.925782 -1.019532,0.925782 -0.820314,0 -1.031251,-0.550781 -1.031251,-0.996094 v -0.492188 h 2.695315 z m -0.632813,0.28125 h -2.062502 v -0.28125 c 0,-0.621094 0.398438,-0.984376 1.031251,-0.984376 0.820313,0 1.031251,0.527344 1.031251,0.984376 z m -49.7900891,13.649428 -2.015627,-3.351566 1.8984394,-2.707034 h -0.7500008 l -2.0390645,2.882816 v -2.882816 h -0.6562506 v 6.0586 h 0.6562506 v -2.027346 l 0.5156255,-0.761719 1.6406267,2.789065 z m 4.0634806,-1.535158 v -1.394532 c 0,-0.996095 -0.65625062,-1.605471 -1.66406412,-1.605471 -0.99609478,0 -1.67578288,0.621095 -1.67578288,1.605471 v 1.394532 c 0,0.996095 0.6679694,1.617189 1.67578288,1.617189 0.98437598,0 1.66406412,-0.632813 1.66406412,-1.617189 z m -0.63281309,0 c 0,0.621095 -0.3984379,0.996095 -1.03125103,0.996095 -0.82031328,0 -1.03125108,-0.550782 -1.03125108,-0.996095 v -1.394532 c 0,-0.621095 0.3984379,-0.984376 1.03125108,-0.984376 0.82031332,0 1.03125103,0.527344 1.03125103,0.984376 z M 7.4291356,60.105685 c 0,-0.574219 -0.3398441,-1.289064 -1.2421888,-1.289064 -0.3984379,0 -0.8789071,0.105469 -1.2304699,0.550782 -0.1757815,-0.328125 -0.492188,-0.550782 -0.9492197,-0.550782 -0.3632817,0 -0.7617196,0.128907 -0.9960948,0.410157 V 58.875215 H 2.3666305 v 4.476567 H 3.0111624 V 60.52756 c 0,-0.691407 0.2812503,-1.089844 0.937501,-1.089844 0.4453129,0 0.6328131,0.375 0.6328131,0.75 v 3.164066 h 0.6328131 v -2.83594 c 0,-0.66797 0.2812503,-1.078126 0.9257822,-1.078126 0.4804692,0 0.6445319,0.339844 0.6445319,0.726563 v 3.187503 h 0.6445319 z m 6.3427794,0 c 0,-0.574219 -0.339844,-1.289064 -1.242188,-1.289064 -0.398438,0 -0.878908,0.105469 -1.23047,0.550782 -0.175782,-0.328125 -0.492188,-0.550782 -0.94922,-0.550782 -0.3632817,0 -0.7617196,0.128907 -0.9960948,0.410157 V 58.875215 H 8.7094103 v 4.476567 H 9.3539422 V 60.52756 c 0,-0.691407 0.2812503,-1.089844 0.9375008,-1.089844 0.445313,0 0.632813,0.375 0.632813,0.75 v 3.164066 h 0.632813 v -2.83594 c 0,-0.66797 0.281251,-1.078126 0.925783,-1.078126 0.480469,0 0.644531,0.339844 0.644531,0.726563 v 3.187503 h 0.644532 z m 4.558599,3.246097 v -4.476567 h -0.644532 v 2.988284 c 0,0.57422 -0.421876,0.94922 -1.019532,0.94922 -0.820314,0 -1.007814,-0.550782 -1.007814,-0.996095 v -2.941409 h -0.644532 v 2.941409 c 0,0.996095 0.644532,1.617189 1.652346,1.617189 0.386719,0 0.820313,-0.175781 1.019532,-0.433594 v 0.351563 z m 4.590825,0 v -2.92969 c 0,-1.007814 -0.539063,-1.605471 -1.546877,-1.605471 -0.398438,0 -0.867188,0.164063 -1.089845,0.480469 v -0.421875 h -0.644532 v 4.476567 h 0.644532 v -2.953128 c 0,-0.562501 0.492188,-0.960938 1.089845,-0.960938 0.820313,0 0.914063,0.539063 0.914063,0.984376 v 2.92969 z m 1.998048,0 v -4.476567 h -0.632813 v 4.476567 z m 0.07031,-5.20313 V 57.22287 H 24.20454 v 0.925782 z m 4.73438,5.20313 -1.687502,-2.578128 1.710939,-1.88672 h -0.843751 l -1.957033,2.156252 v -3.750004 h -0.63281 v 6.0586 h 0.632813 v -1.406251 l 0.656251,-0.714845 1.359376,2.121096 z m 3.987308,-3.093753 c 0,-1.066407 -0.796875,-1.441408 -1.558595,-1.441408 -0.679688,0 -1.546876,0.386719 -1.582033,1.453127 h 0.644532 c 0.02344,-0.609376 0.457032,-0.832032 0.937501,-0.832032 0.527344,0 0.925782,0.1875 0.925782,0.84375 v 0.433595 h -1.23047 c -0.820313,0 -1.441407,0.421875 -1.441407,1.265626 0,1.019532 0.761719,1.453126 1.488282,1.453126 0.503907,0 0.984376,-0.222656 1.183595,-0.503906 v 0.421875 h 0.632813 z m -0.632813,1.570314 c 0,0.609376 -0.550782,0.984376 -1.078126,0.984376 -0.46875,0 -0.960938,-0.175781 -0.960938,-0.832032 0,-0.480469 0.339844,-0.66797 0.820313,-0.66797 h 1.218751 z m 1.429689,-2.332034 h 0.843751 v 2.695316 c 0,0.832032 0.480469,1.160157 1.066407,1.160157 h 0.562501 v -0.621094 h -0.527344 c -0.246094,0 -0.468751,-0.128907 -0.468751,-0.503907 v -2.730472 h 0.984376 v -0.621094 h -0.984376 v -1.582033 h -0.632813 v 1.582033 h -0.843751 z m 4.215825,3.855473 v -4.476567 h -0.632813 v 4.476567 z m 0.07031,-5.20313 V 57.22287 h -0.785157 v 0.925782 z m 4.570317,3.667972 v -1.394532 c 0,-0.996095 -0.65625,-1.605471 -1.664064,-1.605471 -0.996095,0 -1.675783,0.621095 -1.675783,1.605471 v 1.394532 c 0,0.996095 0.66797,1.617189 1.675783,1.617189 0.984376,0 1.664064,-0.632813 1.664064,-1.617189 z m -0.632813,0 c 0,0.621095 -0.398438,0.996095 -1.031251,0.996095 -0.820313,0 -1.031251,-0.550782 -1.031251,-0.996095 v -1.394532 c 0,-0.621095 0.398438,-0.984376 1.031251,-0.984376 0.820314,0 1.031251,0.527344 1.031251,0.984376 z m 5.144537,1.535158 v -2.92969 c 0,-1.007814 -0.539063,-1.605471 -1.546877,-1.605471 -0.398438,0 -0.867188,0.164063 -1.089845,0.480469 v -0.421875 h -0.644532 v 4.476567 h 0.644532 v -2.953128 c 0,-0.562501 0.492188,-0.960938 1.089845,-0.960938 0.820313,0 0.914064,0.539063 0.914064,0.984376 v 2.92969 z M 224.50455,50.733605 v -2.847659 c 0,-0.515625 -0.26953,-1.60547 -1.64063,-1.60547 h -1.79297 v 6.070318 h 1.82813 c 1.33594,0 1.60547,-1.101563 1.60547,-1.617189 z m -0.65625,-0.01172 c 0,0.84375 -0.60938,0.984376 -0.96094,0.984376 h -1.16016 v -4.781255 h 1.13672 c 0.36328,0 0.98438,0.128906 0.98438,0.996094 z m 2.5957,1.628907 v -4.476567 h -0.63281 v 4.476567 z m 0.0703,-5.20313 V 46.22188 h -0.78516 v 0.925782 z m 3.87012,5.554693 c 0,0.843751 -0.53907,0.94922 -0.98438,0.94922 -0.49219,0 -0.85547,-0.246094 -0.9375,-0.691407 h -0.63281 c 0.0937,0.832032 0.73828,1.312501 1.57031,1.312501 0.83203,0 1.61719,-0.339844 1.61719,-1.570314 v -4.82813 h -0.63281 v 0.351563 c -0.17578,-0.246094 -0.6211,-0.410156 -0.98438,-0.410156 -0.99609,0 -1.65234,0.621094 -1.65234,1.60547 v 1.394533 c 0,0.996094 0.64453,1.617189 1.65234,1.617189 0.375,0 0.8086,-0.164063 0.98438,-0.433594 z m 0,-1.88672 c 0,0.621094 -0.36328,0.996094 -0.98438,0.996094 -0.83203,0 -1.00781,-0.550781 -1.00781,-0.996094 v -1.394533 c 0,-0.621094 0.375,-0.984376 1.00781,-0.984376 0.8086,0 0.98438,0.527344 0.98438,0.984376 z m 2.67187,1.535157 v -4.476567 h -0.63281 v 4.476567 z m 0.0703,-5.20313 V 46.22188 h -0.78516 v 0.925782 z m 0.82324,1.347658 h 0.84375 v 2.695315 c 0,0.832032 0.48047,1.160157 1.06641,1.160157 h 0.5625 V 51.7297 h -0.52735 c -0.24609,0 -0.46875,-0.128906 -0.46875,-0.503907 v -2.730471 h 0.98438 v -0.621095 h -0.98438 v -1.582032 h -0.63281 v 1.582032 h -0.84375 z m 6.60645,0.761719 c 0,-1.066407 -0.79687,-1.441407 -1.55859,-1.441407 -0.67969,0 -1.54688,0.386719 -1.58204,1.453126 h 0.64454 c 0.0234,-0.609376 0.45703,-0.832032 0.9375,-0.832032 0.52734,0 0.92578,0.1875 0.92578,0.843751 v 0.433594 H 238.693 c -0.82031,0 -1.44141,0.421875 -1.44141,1.265626 0,1.019533 0.76172,1.453127 1.48828,1.453127 0.50391,0 0.98438,-0.222657 1.1836,-0.503907 v 0.421875 h 0.63281 z m -0.63281,1.570314 c 0,0.609376 -0.55078,0.984376 -1.07813,0.984376 -0.46875,0 -0.96094,-0.175781 -0.96094,-0.832032 0,-0.480469 0.33985,-0.667969 0.82032,-0.667969 h 1.21875 z m 1.88672,0.363282 c 0,0.832032 0.49219,1.160157 1.07813,1.160157 h 0.24609 V 51.7297 h -0.21094 c -0.24609,0 -0.46875,-0.128906 -0.46875,-0.503907 v -4.933598 h -0.64453 z m 5.39356,-1.769533 c 0,-0.996095 -0.65625,-1.60547 -1.66406,-1.60547 -0.9961,0 -1.67579,0.621094 -1.67579,1.60547 v 1.394533 c 0,0.996094 0.66797,1.617189 1.67579,1.617189 0.9375,0 1.58203,-0.597657 1.65234,-1.546877 h -0.63281 c -0.0586,0.585938 -0.44532,0.925782 -1.01953,0.925782 -0.82032,0 -1.03126,-0.550781 -1.03126,-0.996094 v -0.492188 h 2.69532 z m -0.63281,0.28125 h -2.06251 v -0.28125 c 0,-0.621094 0.39844,-0.984376 1.03126,-0.984376 0.82031,0 1.03125,0.527344 1.03125,0.984376 z m -36.08207,13.649428 -2.01563,-3.351566 1.89844,-2.707034 h -0.75 l -2.03906,2.882816 V 57.29318 h -0.65625 v 6.0586 h 0.65625 v -2.027346 l 0.51562,-0.761719 1.64063,2.789065 z m 4.06641,-1.535158 V 60.42209 c 0,-0.996095 -0.65625,-1.605471 -1.66406,-1.605471 -0.9961,0 -1.67579,0.621095 -1.67579,1.605471 v 1.394532 c 0,0.996095 0.66797,1.617189 1.67579,1.617189 0.98437,0 1.66406,-0.632813 1.66406,-1.617189 z m -0.63281,0 c 0,0.621095 -0.39844,0.996095 -1.03125,0.996095 -0.82032,0 -1.03126,-0.550782 -1.03126,-0.996095 V 60.42209 c 0,-0.621095 0.39844,-0.984376 1.03126,-0.984376 0.82031,0 1.03125,0.527344 1.03125,0.984376 z m 6.92578,-1.710939 c 0,-0.574219 -0.33984,-1.289064 -1.24218,-1.289064 -0.39844,0 -0.87891,0.105469 -1.23047,0.550782 -0.17579,-0.328125 -0.49219,-0.550782 -0.94922,-0.550782 -0.36329,0 -0.76172,0.128907 -0.9961,0.410157 v -0.351563 h -0.64453 v 4.476567 h 0.64453 v -2.82422 c 0,-0.691407 0.28125,-1.089844 0.9375,-1.089844 0.44532,0 0.63282,0.375 0.63282,0.75 v 3.164066 h 0.63281 v -2.83594 c 0,-0.66797 0.28125,-1.078126 0.92578,-1.078126 0.48047,0 0.64453,0.339844 0.64453,0.726563 v 3.187503 h 0.64453 z m 6.33985,0 c 0,-0.574219 -0.33984,-1.289064 -1.24218,-1.289064 -0.39844,0 -0.87891,0.105469 -1.23047,0.550782 -0.17579,-0.328125 -0.49219,-0.550782 -0.94922,-0.550782 -0.36329,0 -0.76172,0.128907 -0.9961,0.410157 v -0.351563 h -0.64453 v 4.476567 h 0.64453 v -2.82422 c 0,-0.691407 0.28125,-1.089844 0.9375,-1.089844 0.44532,0 0.63282,0.375 0.63282,0.75 v 3.164066 h 0.63281 v -2.83594 c 0,-0.66797 0.28125,-1.078126 0.92578,-1.078126 0.48047,0 0.64453,0.339844 0.64453,0.726563 v 3.187503 h 0.64453 z m 4.56153,3.246097 v -4.476567 h -0.64453 v 2.988284 c 0,0.57422 -0.42187,0.94922 -1.01953,0.94922 -0.82032,0 -1.00782,-0.550782 -1.00782,-0.996095 v -2.941409 h -0.64453 v 2.941409 c 0,0.996095 0.64453,1.617189 1.65235,1.617189 0.38672,0 0.82031,-0.175781 1.01953,-0.433594 v 0.351563 z m 4.5879,0 v -2.92969 c 0,-1.007814 -0.53907,-1.605471 -1.54688,-1.605471 -0.39844,0 -0.86719,0.164063 -1.08984,0.480469 v -0.421875 h -0.64454 v 4.476567 h 0.64454 v -2.953128 c 0,-0.562501 0.49218,-0.960938 1.08984,-0.960938 0.82031,0 0.91406,0.539063 0.91406,0.984376 v 2.92969 z m 1.99805,0 v -4.476567 h -0.63282 v 4.476567 z m 0.0703,-5.20313 v -0.92578 h -0.78516 v 0.925782 z m 4.73731,5.20313 -1.6875,-2.578128 1.71094,-1.88672 h -0.84375 l -1.95704,2.156252 V 57.29318 h -0.63281 v 6.0586 h 0.63281 v -1.406251 l 0.65625,-0.714845 1.35938,2.121096 z m 3.98438,-3.093753 c 0,-1.066407 -0.79688,-1.441408 -1.5586,-1.441408 -0.67969,0 -1.54687,0.386719 -1.58203,1.453127 h 0.64453 c 0.0234,-0.609376 0.45703,-0.832032 0.9375,-0.832032 0.52735,0 0.92578,0.1875 0.92578,0.84375 v 0.433595 h -1.23047 c -0.82031,0 -1.4414,0.421875 -1.4414,1.265626 0,1.019532 0.76172,1.453126 1.48828,1.453126 0.50391,0 0.98438,-0.222656 1.18359,-0.503906 v 0.421875 h 0.63282 z m -0.63282,1.570314 c 0,0.609376 -0.55078,0.984376 -1.07812,0.984376 -0.46875,0 -0.96094,-0.175781 -0.96094,-0.832032 0,-0.480469 0.33984,-0.66797 0.82031,-0.66797 h 1.21875 z m 1.42969,-2.332034 h 0.84375 v 2.695316 c 0,0.832032 0.48047,1.160157 1.06641,1.160157 h 0.5625 v -0.621094 h -0.52734 c -0.2461,0 -0.46875,-0.128907 -0.46875,-0.503907 v -2.730472 h 0.98437 v -0.621094 h -0.98437 V 57.29318 h -0.63282 v 1.582033 h -0.84375 z m 4.21583,3.855473 v -4.476567 h -0.63282 v 4.476567 z m 0.0703,-5.20313 v -0.92578 h -0.78516 v 0.925782 z m 4.57325,3.667972 V 60.42209 c 0,-0.996095 -0.65625,-1.605471 -1.66407,-1.605471 -0.99609,0 -1.67578,0.621095 -1.67578,1.605471 v 1.394532 c 0,0.996095 0.66797,1.617189 1.67578,1.617189 0.98438,0 1.66407,-0.632813 1.66407,-1.617189 z m -0.63282,0 c 0,0.621095 -0.39843,0.996095 -1.03125,0.996095 -0.82031,0 -1.03125,-0.550782 -1.03125,-0.996095 V 60.42209 c 0,-0.621095 0.39844,-0.984376 1.03125,-0.984376 0.82032,0 1.03125,0.527344 1.03125,0.984376 z m 5.14454,1.535158 v -2.92969 c 0,-1.007814 -0.53906,-1.605471 -1.54688,-1.605471 -0.39843,0 -0.86718,0.164063 -1.08984,0.480469 v -0.421875 h -0.64453 v 4.476567 h 0.64453 v -2.953128 c 0,-0.562501 0.49219,-0.960938 1.08984,-0.960938 0.82032,0 0.91407,0.539063 0.91407,0.984376 v 2.92969 z M -1.4566155,115.38015 v -0.64453 h -2.6250026 v -2.23828 h 2.4257837 v -0.64453 h -2.4257837 v -1.88672 h 2.6250026 v -0.64454 h -3.2812533 v 6.0586 z m 1.76660334,0 v -4.47656 h -0.63281313 v 4.47656 z m 0.0703126,-5.20313 v -0.92578 H -0.4048566 v 0.92578 z m 4.59668426,5.20313 v -2.92969 c 0,-1.00781 -0.539063,-1.60547 -1.5468766,-1.60547 -0.3984379,0 -0.8671883,0.16407 -1.0898448,0.48047 v -0.42187 H 1.6957314 v 4.47656 h 0.6445319 v -2.95312 c 0,-0.5625 0.492188,-0.96094 1.0898448,-0.96094 0.8203134,0 0.9140635,0.53906 0.9140635,0.98437 v 2.92969 z m 4.5644577,0 v -2.92969 c 0,-1.00781 -0.5273443,-1.60547 -1.5468766,-1.60547 -0.3867191,0 -0.8671883,0.17578 -1.0898448,0.49219 v -2.01563 H 6.2601891 v 6.0586 H 6.904721 v -2.95312 c 0,-0.5625 0.492188,-0.96094 1.0898448,-0.96094 0.8203134,0 0.9140635,0.53906 0.9140635,0.98437 v 2.92969 z m 4.5410206,-2.92969 c 0,-0.99609 -0.656251,-1.60547 -1.664065,-1.60547 -0.996094,0 -1.675783,0.6211 -1.675783,1.60547 v 1.39454 c 0,0.99609 0.66797,1.61719 1.675783,1.61719 0.937501,0 1.582033,-0.59766 1.652346,-1.54688 h -0.632813 c -0.05859,0.58594 -0.445313,0.92578 -1.019533,0.92578 -0.820313,0 -1.031251,-0.55078 -1.031251,-0.99609 v -0.49219 h 2.695316 z m -0.632814,0.28125 h -2.062502 v -0.28125 c 0,-0.62109 0.398438,-0.98437 1.031251,-0.98437 0.820314,0 1.031251,0.52734 1.031251,0.98437 z m 2.578128,2.64844 v -4.47656 h -0.632813 v 4.47656 z m 0.07031,-5.20313 v -0.92578 H 15.31293 v 0.92578 z m 0.820313,1.34766 h 0.843751 V 114.22 c 0,0.83203 0.480469,1.16015 1.066407,1.16015 h 0.562501 v -0.62109 h -0.527345 c -0.246094,0 -0.46875,-0.12891 -0.46875,-0.50391 v -2.73047 h 0.984376 v -0.62109 h -0.984376 v -1.58204 h -0.632813 v 1.58204 H 16.9184 Z m 3.465824,2.69532 c 0,0.83203 0.492188,1.16015 1.078126,1.16015 h 0.246094 v -0.62109 h -0.210938 c -0.246094,0 -0.46875,-0.12891 -0.46875,-0.50391 v -4.9336 h -0.644532 z m 2.850588,1.16015 v -4.47656 h -0.632813 v 4.47656 z m 0.07031,-5.20313 v -0.92578 h -0.785157 v 0.92578 z m 2.909183,0.66797 c -0.996095,0 -1.675783,0.6211 -1.675783,1.60547 v 1.39454 c 0,0.99609 0.667969,1.61719 1.675783,1.61719 0.937501,0 1.582032,-0.59766 1.652345,-1.54688 h -0.632813 c -0.05859,0.58594 -0.445313,0.92578 -1.019532,0.92578 -0.820314,0 -1.031251,-0.55078 -1.031251,-0.99609 v -1.39454 c 0,-0.62109 0.398437,-0.98437 1.031251,-0.98437 0.726563,0 0.984376,0.49219 1.019532,0.9375 h 0.632813 c -0.05859,-0.97266 -0.691407,-1.5586 -1.652345,-1.5586 z m 6.005865,4.53516 v -2.92969 c 0,-1.00781 -0.527344,-1.60547 -1.546877,-1.60547 -0.386719,0 -0.867188,0.17578 -1.089844,0.49219 v -2.01563 h -0.644532 v 6.0586 h 0.644532 v -2.95312 c 0,-0.5625 0.492188,-0.96094 1.089844,-0.96094 0.820314,0 0.914064,0.53906 0.914064,0.98437 v 2.92969 z m 4.705083,0 -1.687502,-2.57812 1.710939,-1.88672 h -0.84375 l -1.957034,2.15625 v -3.75001 h -0.632813 v 6.0586 h 0.632813 v -1.40625 l 0.656251,-0.71484 1.359376,2.12109 z m 4.136723,-2.92969 c 0,-0.99609 -0.656251,-1.60547 -1.664064,-1.60547 -0.996095,0 -1.675783,0.6211 -1.675783,1.60547 v 1.39454 c 0,0.99609 0.667969,1.61719 1.675783,1.61719 0.9375,0 1.582032,-0.59766 1.652345,-1.54688 H 40.41745 c -0.05859,0.58594 -0.445313,0.92578 -1.019532,0.92578 -0.820314,0 -1.031251,-0.55078 -1.031251,-0.99609 v -0.49219 h 2.695315 z m -0.632813,0.28125 h -2.062502 v -0.28125 c 0,-0.62109 0.398437,-0.98437 1.031251,-0.98437 0.820313,0 1.031251,0.52734 1.031251,0.98437 z m 2.578127,2.64844 v -4.47656 h -0.632813 v 4.47656 z m 0.07031,-5.20313 v -0.92578 h -0.785157 v 0.92578 z m 0.820313,1.34766 h 0.843751 V 114.22 c 0,0.83203 0.480469,1.16015 1.066407,1.16015 h 0.562501 v -0.62109 h -0.527345 c -0.246093,0 -0.46875,-0.12891 -0.46875,-0.50391 v -2.73047 h 0.984376 v -0.62109 h -0.984376 v -1.58204 h -0.632813 v 1.58204 h -0.843751 z m 180.284357,-1.55859 v -0.64454 h -3.28125 v 6.0586 h 0.65625 v -2.87109 h 2.42578 v -0.64453 h -2.42578 v -1.89844 z m 2.7627,1.54687 v -0.60937 h -0.35156 c -0.25782,0 -0.58594,0.16406 -0.79688,0.42187 v -0.42187 H 225.152 v 4.47656 h 0.64453 v -2.83594 c 0,-0.73828 0.44531,-1.03125 0.78516,-1.03125 z m 4.16016,0.9375 c 0,-0.99609 -0.65625,-1.60547 -1.66406,-1.60547 -0.9961,0 -1.67579,0.6211 -1.67579,1.60547 v 1.39454 c 0,0.99609 0.66797,1.61719 1.67579,1.61719 0.9375,0 1.58203,-0.59766 1.65234,-1.54688 h -0.63281 c -0.0586,0.58594 -0.44531,0.92578 -1.01953,0.92578 -0.82032,0 -1.03125,-0.55078 -1.03125,-0.99609 v -0.49219 h 2.69531 z m -0.63281,0.28125 h -2.0625 v -0.28125 c 0,-0.62109 0.39843,-0.98437 1.03125,-0.98437 0.82031,0 1.03125,0.52734 1.03125,0.98437 z m 2.57812,2.64844 v -4.47656 h -0.63281 v 4.47656 z m 0.0703,-5.20313 v -0.92578 h -0.78516 v 0.92578 z m 4.59375,5.20313 v -2.92969 c 0,-1.00781 -0.52734,-1.60547 -1.54687,-1.60547 -0.38672,0 -0.86719,0.17578 -1.08985,0.49219 v -2.01563 h -0.64453 v 6.0586 h 0.64453 v -2.95312 c 0,-0.5625 0.49219,-0.96094 1.08985,-0.96094 0.82031,0 0.91406,0.53906 0.91406,0.98437 v 2.92969 z m 4.54102,-2.92969 c 0,-0.99609 -0.65625,-1.60547 -1.66406,-1.60547 -0.9961,0 -1.67578,0.6211 -1.67578,1.60547 v 1.39454 c 0,0.99609 0.66796,1.61719 1.67578,1.61719 0.9375,0 1.58203,-0.59766 1.65234,-1.54688 h -0.63281 c -0.0586,0.58594 -0.44531,0.92578 -1.01953,0.92578 -0.82032,0 -1.03125,-0.55078 -1.03125,-0.99609 v -0.49219 h 2.69531 z m -0.63281,0.28125 h -2.0625 v -0.28125 c 0,-0.62109 0.39843,-0.98437 1.03125,-0.98437 0.82031,0 1.03125,0.52734 1.03125,0.98437 z m 2.57813,2.64844 v -4.47656 h -0.63282 v 4.47656 z m 0.0703,-5.20313 v -0.92578 h -0.78516 v 0.92578 z m 0.82324,1.34766 h 0.84375 V 114.22 c 0,0.83203 0.48047,1.16015 1.06641,1.16015 h 0.5625 v -0.62109 h -0.52734 c -0.2461,0 -0.46875,-0.12891 -0.46875,-0.50391 v -2.73047 h 0.98437 v -0.62109 h -0.98437 v -1.58204 h -0.63282 v 1.58204 h -0.84375 z m 0,0"
         style="fill:#ffffff;fill-opacity:1;fill-rule:nonzero;stroke:none"
         aria-label="InformationKommunikation&#10;Interpersonelle&#10;Kommunikation&#10;Digitale&#10;Kommunikation&#10;EinheitlichkeitFreiheit"
         transform="matrix(1.333332,0,0,1.333332,95858.798,128.57401)"
         clip-path="url(#clipPath5940)"
         id="path5965" />
      <path
         d="M 0.63275093,-6.0584892 V 1.1062091e-4 H 1.2890016 V -6.0584892 Z M 5.8856859,1.1062091e-4 V -2.9295798 c 0,-1.0078135 -0.5390631,-1.6054704 -1.5468766,-1.6054704 -0.3984379,0 -0.8671883,0.1640627 -1.0898448,0.4804693 V -4.4764564 H 2.6044326 V 1.1062091e-4 H 3.2489645 V -2.9530173 c 0,-0.5625006 0.492188,-0.9609385 1.0898448,-0.9609385 0.8203133,0 0.9140634,0.539063 0.9140634,0.984376 V 1.1062091e-4 Z m 4.5644581,0 V -2.9295798 c 0,-1.0078135 -0.5390635,-1.6054704 -1.546877,-1.6054704 -0.3984379,0 -0.8671884,0.1640627 -1.0898448,0.4804693 V -4.4764564 H 7.1688903 V 1.1062091e-4 H 7.8134222 V -2.9530173 c 0,-0.5625006 0.492188,-0.9609385 1.0898448,-0.9609385 0.8203133,0 0.9140634,0.539063 0.9140634,0.984376 V 1.1062091e-4 Z M 14.991164,-2.9295798 c 0,-0.9960948 -0.656251,-1.6054704 -1.664064,-1.6054704 -0.996095,0 -1.675783,0.6210944 -1.675783,1.6054704 v 1.3945326 c 0,0.99609478 0.667969,1.61718915 1.675783,1.61718915 0.937501,0 1.582032,-0.59765684 1.652345,-1.54687655 h -0.632813 c -0.05859,0.58593809 -0.445313,0.92578218 -1.019532,0.92578218 -0.820314,0 -1.031251,-0.55078178 -1.031251,-0.99609478 v -0.492188 h 2.695315 z m -0.632813,0.2812503 h -2.062502 v -0.2812503 c 0,-0.6210944 0.398437,-0.984376 1.031251,-0.984376 0.820313,0 1.031251,0.5273443 1.031251,0.984376 z M 19.502887,1.1062091e-4 V -2.9295798 c 0,-1.0078135 -0.539063,-1.6054704 -1.546877,-1.6054704 -0.398437,0 -0.867188,0.1640627 -1.089844,0.4804693 V -4.4764564 H 16.221634 V 1.1062091e-4 h 0.644532 V -2.9530173 c 0,-0.5625006 0.492188,-0.9609385 1.089844,-0.9609385 0.820314,0 0.914064,0.539063 0.914064,0.984376 V 1.1062091e-4 Z M 24.067345,-1.5350472 v -1.3945326 c 0,-0.984376 -0.644532,-1.6054704 -1.640627,-1.6054704 -0.386719,0 -0.714844,0.1054689 -0.996095,0.4101567 v -0.3515629 h -0.644532 v 6.3984439 h 0.644532 v -2.27343973 c 0.175782,0.25781276 0.621095,0.43359418 0.996095,0.43359418 1.019532,0 1.640627,-0.62109437 1.640627,-1.61718915 z m -0.632813,0 c 0,0.445313 -0.175782,0.99609478 -1.007814,0.99609478 -0.621094,0 -0.996095,-0.37500037 -0.996095,-0.99609478 v -1.3945326 c 0,-0.4570317 0.175782,-0.984376 0.996095,-0.984376 0.632813,0 1.007814,0.3632816 1.007814,0.984376 z m 5.124028,-1.3945326 c 0,-0.9960948 -0.656251,-1.6054704 -1.664064,-1.6054704 -0.996095,0 -1.675783,0.6210944 -1.675783,1.6054704 v 1.3945326 c 0,0.99609478 0.667969,1.61718915 1.675783,1.61718915 0.937501,0 1.582033,-0.59765684 1.652345,-1.54687655 h -0.632813 c -0.05859,0.58593809 -0.445313,0.92578218 -1.019532,0.92578218 -0.820313,0 -1.031251,-0.55078178 -1.031251,-0.99609478 v -0.492188 h 2.695315 z m -0.632813,0.2812503 h -2.062502 v -0.2812503 c 0,-0.6210944 0.398438,-0.984376 1.031251,-0.984376 0.820313,0 1.031251,0.5273443 1.031251,0.984376 z m 3.656254,-1.2187512 v -0.6093757 h -0.351563 c -0.257813,0 -0.585938,0.1640627 -0.796876,0.4218755 V -4.4764564 H 29.78903 V 1.1062091e-4 h 0.644532 V -2.8358297 c 0,-0.738282 0.445313,-1.031251 0.785157,-1.031251 z m 3.96973,2.5429712 c 0,-0.5976568 -0.410156,-0.9609384 -0.937501,-1.1250011 -0.363281,-0.1054688 -0.843751,-0.1992189 -1.171876,-0.2812503 -0.28125,-0.082031 -0.492188,-0.2695315 -0.492188,-0.5039067 0,-0.5390631 0.457032,-0.6796882 0.890626,-0.6796882 0.644532,0 0.984376,0.3164066 1.019532,0.8320321 h 0.644532 c -0.03516,-0.9257822 -0.703126,-1.4414077 -1.640627,-1.4414077 -0.820313,0 -1.558595,0.3632816 -1.558595,1.2890638 0,0.5625005 0.457032,0.9726572 0.984376,1.1015636 0.316407,0.082031 0.796876,0.1757814 1.125001,0.2695315 0.292969,0.082031 0.503907,0.246094 0.503907,0.539063 0,0.63281318 -0.527344,0.77343832 -1.031251,0.77343832 -0.609376,0 -1.007814,-0.32812533 -1.007814,-0.91406342 h -0.644531 c 0,0.96093847 0.691407,1.53515779 1.652345,1.53515779 0.890626,0 1.664064,-0.37500037 1.664064,-1.39453269 z m 4.35059,-0.2109377 v -1.3945326 c 0,-0.984376 -0.644531,-1.6054704 -1.640626,-1.6054704 -0.386719,0 -0.714845,0.1054689 -0.996095,0.4101567 V -4.4764564 H 36.621068 V 1.9219875 H 37.2656 v -2.27343973 c 0.175781,0.25781276 0.621094,0.43359418 0.996095,0.43359418 1.019532,0 1.640626,-0.62109437 1.640626,-1.61718915 z m -0.632813,0 c 0,0.445313 -0.175781,0.99609478 -1.007813,0.99609478 -0.621095,0 -0.996095,-0.37500037 -0.996095,-0.99609478 v -1.3945326 c 0,-0.4570317 0.175781,-0.984376 0.996095,-0.984376 0.632813,0 1.007813,0.3632816 1.007813,0.984376 z m 5.124029,-1.3945326 c 0,-0.9960948 -0.656251,-1.6054704 -1.664064,-1.6054704 -0.996095,0 -1.675783,0.6210944 -1.675783,1.6054704 v 1.3945326 c 0,0.99609478 0.667969,1.61718915 1.675783,1.61718915 0.937501,0 1.582033,-0.59765684 1.652345,-1.54687655 h -0.632813 c -0.05859,0.58593809 -0.445313,0.92578218 -1.019532,0.92578218 -0.820314,0 -1.031251,-0.55078178 -1.031251,-0.99609478 v -0.492188 h 2.695315 z m -0.632813,0.2812503 h -2.062502 v -0.2812503 c 0,-0.6210944 0.398438,-0.984376 1.031251,-0.984376 0.820313,0 1.031251,0.5273443 1.031251,0.984376 z M 49.045885,1.1062091e-4 47.358384,-2.578017 49.069323,-4.4647376 h -0.843751 l -1.957033,2.1562522 V -6.0584892 H 45.635726 V 1.1062091e-4 h 0.632813 V -1.4061408 l 0.65625,-0.7148445 1.359377,2.12109592091 z M 49.432604,-3.855362 h 0.843751 v 2.6953152 c 0,0.83203209 0.480469,1.16015742091 1.066408,1.16015742091 h 0.5625 V -0.62098375 h -0.527344 c -0.246094,0 -0.468751,-0.12890638 -0.468751,-0.50390675 V -3.855362 h 0.984376 v -0.6210944 h -0.984376 v -1.5820328 h -0.632813 v 1.5820328 H 49.432604 Z M 53.648429,1.1062091e-4 V -4.4764564 H 53.015616 V 1.1062091e-4 Z M 53.718742,-5.2030196 v -0.9257822 h -0.785158 v 0.9257822 z m 2.557619,4.59375461 -1.066407,-3.86719141 H 54.541985 L 55.81933,1.1062091e-4 h 0.949219 L 58.045894,-4.4764564 h -0.65625 l -1.066408,3.86719141 z m 5.847662,-2.32031481 c 0,-0.9960948 -0.65625,-1.6054704 -1.664064,-1.6054704 -0.996095,0 -1.675783,0.6210944 -1.675783,1.6054704 v 1.3945326 c 0,0.99609478 0.66797,1.61718915 1.675783,1.61718915 0.937501,0 1.582033,-0.59765684 1.652346,-1.54687655 h -0.632814 c -0.05859,0.58593809 -0.445312,0.92578218 -1.019532,0.92578218 -0.820313,0 -1.031251,-0.55078178 -1.031251,-0.99609478 v -0.492188 h 2.695315 z m -0.632813,0.2812503 h -2.062502 v -0.2812503 c 0,-0.6210944 0.398438,-0.984376 1.031251,-0.984376 0.820314,0 1.031251,0.5273443 1.031251,0.984376 z m 149.89468,2.25879129 v -0.19921895 c 0,-0.33984409 -0.14062,-1.07812604 -0.79687,-1.32422004 0.53906,-0.2578128 0.6914,-0.9257822 0.6914,-1.2539075 v -0.1054689 c 0,-0.5156255 -0.21094,-1.5703141 -1.58203,-1.5703141 h -1.79297 v 6.0585998 h 1.83984 c 1.35938,0 1.64063,-1.08984479 1.64063,-1.60547031 z m -0.76172,-2.80078409 c 0,0.8437509 -0.49219,0.9609385 -0.89062,0.9609385 h -1.17188 v -1.968752 h 1.125 c 0.35156,0 0.9375,0.082031 0.9375,0.937501 z m 0.10547,2.78906533 c 0,0.84375085 -0.64453,0.97265722 -0.99609,0.97265722 h -1.17188 V -1.5848519 h 1.20703 c 0.39844,0 0.96094,0.1523439 0.96094,0.99609474 z m 5.0918,-1.31250133 c 0,-0.9960947 -0.65625,-1.6054703 -1.66406,-1.6054703 -0.9961,0 -1.67578,0.6210943 -1.67578,1.6054703 v 1.39453266 c 0,0.99609475 0.66797,1.61718914 1.67578,1.61718914 0.9375,0 1.58203,-0.59765687 1.65234,-1.54687657 h -0.63281 c -0.0586,0.58593809 -0.44531,0.92578218 -1.01953,0.92578218 -0.82031,0 -1.03125,-0.5507818 -1.03125,-0.99609475 v -0.49218799 h 2.69531 z m -0.63281,0.2812503 h -2.0625 v -0.2812503 c 0,-0.6210944 0.39844,-0.984376 1.03125,-0.984376 0.82031,0 1.03125,0.5273443 1.03125,0.984376 z m 5.14454,2.6484401 v -2.9296904 c 0,-1.0078135 -0.53907,-1.6054703 -1.54688,-1.6054703 -0.39844,0 -0.86719,0.1640626 -1.08985,0.4804692 v -0.4218754 h -0.64453 v 4.4765669 h 0.64453 v -2.9531279 c 0,-0.5625006 0.49219,-0.9609385 1.08985,-0.9609385 0.82031,0 0.91406,0.5390631 0.91406,0.984376 v 2.9296904 z m 4.56445,0 v -4.4765669 h -0.64453 v 2.98828421 c 0,0.57421933 -0.42187,0.9492197 -1.01953,0.9492197 -0.82031,0 -1.00781,-0.5507818 -1.00781,-0.99609475 V -3.2606348 h -0.64454 v 2.94140916 c 0,0.99609475 0.64454,1.61718914 1.65235,1.61718914 0.38672,0 0.82031,-0.1757814 1.01953,-0.4335942 v 0.3515628 z m 0.81739,-3.8554726 h 0.84375 v 2.69531524 c 0,0.83203208 0.48047,1.16015736 1.06641,1.16015736 h 0.5625 V 0.59483778 h -0.52735 c -0.24609,0 -0.46875,-0.12890638 -0.46875,-0.50390676 V -2.6395405 h 0.98438 v -0.6210943 h -0.98438 v -1.5820329 h -0.63281 v 1.5820329 h -0.84375 z m 6.50098,3.8554726 V 0.59483778 h -2.37891 l 2.20313,-3.28125328 v -0.5742193 h -2.85938 v 0.6210943 h 2.10938 L 229.0988,0.64171283 V 1.2159321 Z m 4.24512,-2.9296904 c 0,-0.9960947 -0.65625,-1.6054703 -1.66406,-1.6054703 -0.9961,0 -1.67579,0.6210943 -1.67579,1.6054703 v 1.39453266 c 0,0.99609475 0.66797,1.61718914 1.67579,1.61718914 0.9375,0 1.58203,-0.59765687 1.65234,-1.54687657 h -0.63281 c -0.0586,0.58593809 -0.44531,0.92578218 -1.01953,0.92578218 -0.82032,0 -1.03125,-0.5507818 -1.03125,-0.99609475 v -0.49218799 h 2.69531 z m -0.63281,0.2812503 h -2.0625 v -0.2812503 c 0,-0.6210944 0.39843,-0.984376 1.03125,-0.984376 0.82031,0 1.03125,0.5273443 1.03125,0.984376 z m 3.65625,-1.2187512 v -0.6093756 h -0.35156 c -0.25781,0 -0.58594,0.1640626 -0.79688,0.4218754 v -0.4218754 h -0.64453 v 4.4765669 h 0.64453 v -2.8359403 c 0,-0.738282 0.44532,-1.031251 0.78516,-1.031251 z m 4.18067,2.33203356 V -1.7137583 c 0,-0.984376 -0.64453,-1.6054703 -1.64063,-1.6054703 -0.38672,0 -0.71484,0.1054688 -0.99609,0.4101566 v -0.3515628 h -0.64453 v 6.3984439 h 0.64453 V 0.8643693 c 0.17578,0.2578128 0.62109,0.4335942 0.99609,0.4335942 1.01954,0 1.64063,-0.62109439 1.64063,-1.61718914 z m -0.63281,0 c 0,0.44531295 -0.17578,0.99609475 -1.00782,0.99609475 -0.62109,0 -0.99609,-0.37500037 -0.99609,-0.99609475 V -1.7137583 c 0,-0.4570317 0.17578,-0.984376 0.99609,-0.984376 0.63282,0 1.00782,0.3632816 1.00782,0.984376 z m 5.12403,-1.39453266 c 0,-0.9960947 -0.65625,-1.6054703 -1.66407,-1.6054703 -0.99609,0 -1.67578,0.6210943 -1.67578,1.6054703 v 1.39453266 c 0,0.99609475 0.66797,1.61718914 1.67578,1.61718914 0.9375,0 1.58203,-0.59765687 1.65235,-1.54687657 h -0.63282 c -0.0586,0.58593809 -0.44531,0.92578218 -1.01953,0.92578218 -0.82031,0 -1.03125,-0.5507818 -1.03125,-0.99609475 v -0.49218799 h 2.69532 z m -0.63282,0.2812503 h -2.0625 v -0.2812503 c 0,-0.6210944 0.39844,-0.984376 1.03125,-0.984376 0.82032,0 1.03125,0.5273443 1.03125,0.984376 z m 3.65626,-1.2187512 v -0.6093756 h -0.35157 c -0.25781,0 -0.58593,0.1640626 -0.79687,0.4218754 v -0.4218754 h -0.64453 v 4.4765669 h 0.64453 v -2.8359403 c 0,-0.738282 0.44531,-1.031251 0.78515,-1.031251 z m 3.96973,2.54297128 c 0,-0.59765685 -0.41016,-0.96093848 -0.9375,-1.12500108 -0.36329,-0.1054689 -0.84375,-0.199219 -1.17188,-0.2812503 -0.28125,-0.082031 -0.49219,-0.2695316 -0.49219,-0.5039068 0,-0.539063 0.45703,-0.6796882 0.89063,-0.6796882 0.64453,0 0.98437,0.3164066 1.01953,0.8320321 h 0.64453 c -0.0352,-0.9257822 -0.70312,-1.4414077 -1.64062,-1.4414077 -0.82032,0 -1.5586,0.3632816 -1.5586,1.2890638 0,0.5625006 0.45703,0.9726572 0.98438,1.10156362 0.3164,0.0820313 0.79687,0.17578142 1.125,0.26953152 0.29297,0.0820313 0.5039,0.24609399 0.5039,0.53906304 0,0.63281313 -0.52734,0.77343827 -1.03125,0.77343827 -0.60937,0 -1.00781,-0.32812533 -1.00781,-0.91406342 h -0.64453 c 0,0.96093847 0.6914,1.53515777 1.65234,1.53515777 0.89063,0 1.66407,-0.37500036 1.66407,-1.39453262 z m 4.35059,-0.21093772 V -1.7137583 c 0,-0.984376 -0.64453,-1.6054703 -1.64063,-1.6054703 -0.38672,0 -0.71484,0.1054688 -0.99609,0.4101566 v -0.3515628 h -0.64454 v 6.3984439 h 0.64454 V 0.8643693 c 0.17578,0.2578128 0.62109,0.4335942 0.99609,0.4335942 1.01953,0 1.64063,-0.62109439 1.64063,-1.61718914 z m -0.63282,0 c 0,0.44531295 -0.17578,0.99609475 -1.00781,0.99609475 -0.62109,0 -0.99609,-0.37500037 -0.99609,-0.99609475 V -1.7137583 c 0,-0.4570317 0.17578,-0.984376 0.99609,-0.984376 0.63281,0 1.00781,0.3632816 1.00781,0.984376 z m 5.12403,-1.39453266 c 0,-0.9960947 -0.65625,-1.6054703 -1.66406,-1.6054703 -0.9961,0 -1.67578,0.6210943 -1.67578,1.6054703 v 1.39453266 c 0,0.99609475 0.66797,1.61718914 1.67578,1.61718914 0.9375,0 1.58203,-0.59765687 1.65234,-1.54687657 h -0.63281 c -0.0586,0.58593809 -0.44531,0.92578218 -1.01953,0.92578218 -0.82031,0 -1.03125,-0.5507818 -1.03125,-0.99609475 v -0.49218799 h 2.69531 z m -0.63281,0.2812503 h -2.0625 v -0.2812503 c 0,-0.6210944 0.39844,-0.984376 1.03125,-0.984376 0.82031,0 1.03125,0.5273443 1.03125,0.984376 z m 5.28516,2.6484401 -1.6875,-2.5781275 1.71094,-1.8867207 h -0.84375 l -1.95704,2.1562522 v -3.7500038 h -0.63281 v 6.0585998 h 0.63281 v -1.40625136 l 0.65626,-0.71484446 1.35937,2.12109582 z m 0.38672,-3.8554726 h 0.84375 v 2.69531524 c 0,0.83203208 0.48047,1.16015736 1.06641,1.16015736 h 0.5625 V 0.59483778 h -0.52735 c -0.24609,0 -0.46875,-0.12890638 -0.46875,-0.50390676 V -2.6395405 h 0.98438 v -0.6210943 h -0.98438 v -1.5820329 h -0.63281 v 1.5820329 h -0.84375 z m 4.21582,3.8554726 v -4.4765669 h -0.63281 v 4.4765669 z m 0.0703,-5.2031302 v -0.9257821 h -0.78516 v 0.9257821 z m 2.55762,4.59375464 -1.06641,-3.86719134 h -0.66797 l 1.27735,4.4765669 h 0.94922 l 1.27734,-4.4765669 h -0.65625 l -1.06641,3.86719134 z m 5.84766,-2.32031484 c 0,-0.9960947 -0.65625,-1.6054703 -1.66406,-1.6054703 -0.9961,0 -1.67579,0.6210943 -1.67579,1.6054703 v 1.39453266 c 0,0.99609475 0.66797,1.61718914 1.67579,1.61718914 0.9375,0 1.58203,-0.59765687 1.65234,-1.54687657 h -0.63281 c -0.0586,0.58593809 -0.44532,0.92578218 -1.01953,0.92578218 -0.82032,0 -1.03126,-0.5507818 -1.03126,-0.99609475 v -0.49218799 h 2.69532 z m -0.63281,0.2812503 h -2.06251 v -0.2812503 c 0,-0.6210944 0.39844,-0.984376 1.03126,-0.984376 0.82031,0 1.03125,0.5273443 1.03125,0.984376 z M 17.67476,52.34196 v -0.644532 h -2.625002 v -2.238284 h 2.425783 V 48.814613 H 15.049758 V 46.927892 H 17.67476 V 46.28336 h -3.281253 v 6.0586 z m 2.847659,-3.867192 v -0.609375 h -0.351563 c -0.257812,0 -0.585938,0.164063 -0.796875,0.421875 v -0.421875 h -0.644532 v 4.476567 h 0.644532 v -2.83594 c 0,-0.738282 0.445313,-1.031252 0.785157,-1.031252 z m 3.457035,4.218755 c 0,0.843751 -0.539063,0.949219 -0.984376,0.949219 -0.492188,0 -0.85547,-0.246094 -0.937501,-0.691407 h -0.632813 c 0.09375,0.832033 0.738282,1.312502 1.570314,1.312502 0.832032,0 1.617189,-0.339844 1.617189,-1.570314 v -4.82813 h -0.632813 v 0.351563 c -0.175781,-0.246094 -0.621094,-0.410157 -0.984376,-0.410157 -0.996095,0 -1.652345,0.621094 -1.652345,1.60547 v 1.394533 c 0,0.996095 0.644531,1.617189 1.652345,1.617189 0.375,0 0.808595,-0.164062 0.984376,-0.433594 z m 0,-1.886721 c 0,0.621094 -0.363282,0.996095 -0.984376,0.996095 -0.832032,0 -1.007814,-0.550782 -1.007814,-0.996095 v -1.394533 c 0,-0.621094 0.375001,-0.984376 1.007814,-0.984376 0.808595,0 0.984376,0.527345 0.984376,0.984376 z m 5.214849,-1.394533 c 0,-0.996094 -0.656251,-1.60547 -1.664064,-1.60547 -0.996095,0 -1.675783,0.621094 -1.675783,1.60547 v 1.394533 c 0,0.996095 0.667969,1.617189 1.675783,1.617189 0.937501,0 1.582033,-0.597657 1.652345,-1.546876 h -0.632813 c -0.05859,0.585938 -0.445313,0.925782 -1.019532,0.925782 -0.820314,0 -1.031251,-0.550782 -1.031251,-0.996095 v -0.492188 h 2.695315 z M 28.56149,49.69352 h -2.062502 v -0.281251 c 0,-0.621094 0.398438,-0.984376 1.031251,-0.984376 0.820313,0 1.031251,0.527345 1.031251,0.984376 z m 5.144536,1.113282 v -1.394533 c 0,-0.996094 -0.632813,-1.60547 -1.640626,-1.60547 -0.375001,0 -0.808595,0.175781 -0.996095,0.445313 V 46.28336 h -0.644532 v 6.0586 h 0.644532 v -0.351563 c 0.175781,0.246094 0.621094,0.433594 0.996095,0.433594 0.984376,0 1.640626,-0.632813 1.640626,-1.617189 z m -0.644532,0 c 0,0.621094 -0.375,0.996095 -0.996094,0.996095 -0.832033,0 -0.996095,-0.550782 -0.996095,-0.996095 v -1.394533 c 0,-0.621094 0.363281,-0.984376 0.996095,-0.984376 0.820313,0 0.996094,0.527345 0.996094,0.984376 z m 5.150396,1.535158 v -2.929691 c 0,-1.007813 -0.539063,-1.60547 -1.546876,-1.60547 -0.398438,0 -0.867189,0.164063 -1.089845,0.480469 v -0.421875 h -0.644532 v 4.476567 h 0.644532 v -2.953128 c 0,-0.562501 0.492188,-0.960939 1.089845,-0.960939 0.820313,0 0.914063,0.539063 0.914063,0.984376 v 2.929691 z m 1.998049,0 v -4.476567 h -0.632813 v 4.476567 z m 0.07031,-5.20313 v -0.925783 h -0.785158 v 0.925783 z m 4.385746,3.87891 c 0,-0.597657 -0.410157,-0.960939 -0.937501,-1.125001 -0.363281,-0.105469 -0.843751,-0.199219 -1.171876,-0.281251 -0.28125,-0.08203 -0.492188,-0.269531 -0.492188,-0.503906 0,-0.539063 0.457032,-0.679689 0.890626,-0.679689 0.644532,0 0.984376,0.316407 1.019532,0.832033 h 0.644532 c -0.03516,-0.925783 -0.703126,-1.441408 -1.640627,-1.441408 -0.820313,0 -1.558595,0.363281 -1.558595,1.289064 0,0.5625 0.457032,0.972657 0.984376,1.101563 0.316407,0.08203 0.796876,0.175782 1.125001,0.269532 0.292969,0.08203 0.503907,0.246094 0.503907,0.539063 0,0.632813 -0.527344,0.773438 -1.031251,0.773438 -0.609376,0 -1.007814,-0.328125 -1.007814,-0.914063 h -0.644531 c 0,0.960938 0.691406,1.535157 1.652345,1.535157 0.890626,0 1.664064,-0.375 1.664064,-1.394532 z m 3.59766,-0.773439 v -0.609375 h -2.531253 v 0.609375 z M 7.6171329,63.342947 5.9296312,60.76482 7.6405704,58.878099 H 6.7968196 L 4.8397864,61.034351 V 57.284348 H 4.2069733 v 6.058599 H 4.8397864 V 61.936696 L 5.496037,61.221852 6.8554134,63.342947 Z M 11.753856,61.80779 v -1.394533 c 0,-0.996095 -0.656251,-1.60547 -1.664064,-1.60547 -0.9960951,0 -1.6757833,0.621094 -1.6757833,1.60547 v 1.394533 c 0,0.996094 0.6679694,1.617189 1.6757833,1.617189 0.984376,0 1.664064,-0.632813 1.664064,-1.617189 z m -0.632813,0 c 0,0.621094 -0.398438,0.996094 -1.031251,0.996094 -0.8203137,0 -1.0312514,-0.550781 -1.0312514,-0.996094 v -1.394533 c 0,-0.621094 0.3984379,-0.984376 1.0312514,-0.984376 0.820313,0 1.031251,0.527344 1.031251,0.984376 z m 6.925788,-1.71094 c 0,-0.574219 -0.339844,-1.289063 -1.242189,-1.289063 -0.398438,0 -0.878907,0.105468 -1.23047,0.550781 -0.175781,-0.328125 -0.492188,-0.550781 -0.94922,-0.550781 -0.363281,0 -0.761719,0.128906 -0.996094,0.410156 V 58.86638 h -0.644532 v 4.476567 h 0.644532 v -2.824221 c 0,-0.691407 0.28125,-1.089845 0.937501,-1.089845 0.445313,0 0.632813,0.375 0.632813,0.750001 v 3.164065 h 0.632813 v -2.83594 c 0,-0.667969 0.28125,-1.078126 0.925782,-1.078126 0.480469,0 0.644532,0.339844 0.644532,0.726563 v 3.187503 h 0.644532 z m 6.33985,0 c 0,-0.574219 -0.339844,-1.289063 -1.242189,-1.289063 -0.398438,0 -0.878907,0.105468 -1.23047,0.550781 -0.175781,-0.328125 -0.492188,-0.550781 -0.949219,-0.550781 -0.363282,0 -0.76172,0.128906 -0.996095,0.410156 V 58.86638 h -0.644532 v 4.476567 h 0.644532 v -2.824221 c 0,-0.691407 0.28125,-1.089845 0.937501,-1.089845 0.445313,0 0.632813,0.375 0.632813,0.750001 v 3.164065 h 0.632813 v -2.83594 c 0,-0.667969 0.28125,-1.078126 0.925782,-1.078126 0.480469,0 0.644532,0.339844 0.644532,0.726563 v 3.187503 h 0.644532 z m 4.558598,3.246097 V 58.86638 h -0.644532 v 2.988285 c 0,0.574219 -0.421875,0.949219 -1.019532,0.949219 -0.820313,0 -1.007813,-0.550781 -1.007813,-0.996094 V 58.86638 H 25.62887 v 2.94141 c 0,0.996094 0.644532,1.617189 1.652345,1.617189 0.386719,0 0.820313,-0.175782 1.019532,-0.433594 v 0.351562 z m 4.590825,0 v -2.92969 c 0,-1.007814 -0.539063,-1.60547 -1.546876,-1.60547 -0.398438,0 -0.867189,0.164062 -1.089845,0.480469 V 58.86638 h -0.644532 v 4.476567 h 0.644532 v -2.953128 c 0,-0.5625 0.492188,-0.960938 1.089845,-0.960938 0.820313,0 0.914063,0.539063 0.914063,0.984376 v 2.92969 z m 1.998049,0 V 58.86638 H 34.90134 v 4.476567 z m 0.07031,-5.20313 v -0.925782 h -0.785157 v 0.925782 z m 4.737309,5.20313 -1.687502,-2.578127 1.71094,-1.886721 h -0.843751 l -1.957034,2.156252 v -3.750003 h -0.632813 v 6.058599 h 0.632813 v -1.406251 l 0.656251,-0.714844 1.359377,2.121095 z m 3.984379,-3.093753 c 0,-1.066407 -0.796876,-1.441407 -1.558595,-1.441407 -0.679688,0 -1.546877,0.386719 -1.582033,1.453126 h 0.644532 c 0.02344,-0.609376 0.457031,-0.832032 0.937501,-0.832032 0.527344,0 0.925782,0.1875 0.925782,0.843751 v 0.433594 h -1.23047 c -0.820313,0 -1.441408,0.421875 -1.441408,1.265626 0,1.019533 0.76172,1.453127 1.488283,1.453127 0.503907,0 0.984376,-0.222657 1.183595,-0.503907 v 0.421875 h 0.632813 z m -0.632813,1.570314 c 0,0.609376 -0.550782,0.984376 -1.078126,0.984376 -0.468751,0 -0.960939,-0.175781 -0.960939,-0.832032 0,-0.480469 0.339844,-0.667969 0.820314,-0.667969 h 1.218751 z m 1.429689,-2.332033 h 0.843751 v 2.695315 c 0,0.832032 0.480469,1.160157 1.066407,1.160157 h 0.562501 v -0.621094 h -0.527345 c -0.246094,0 -0.46875,-0.128906 -0.46875,-0.503907 V 59.487475 H 47.58397 V 58.86638 H 46.599594 V 57.284348 H 45.966781 V 58.86638 H 45.12303 Z m 4.215824,3.855472 V 58.86638 h -0.632813 v 4.476567 z m 0.07031,-5.20313 V 57.214035 H 48.62401 v 0.925782 z m 4.573247,3.667973 v -1.394533 c 0,-0.996095 -0.656251,-1.60547 -1.664065,-1.60547 -0.996094,0 -1.675782,0.621094 -1.675782,1.60547 v 1.394533 c 0,0.996094 0.667969,1.617189 1.675782,1.617189 0.984376,0 1.664065,-0.632813 1.664065,-1.617189 z m -0.632813,0 c 0,0.621094 -0.398438,0.996094 -1.031252,0.996094 -0.820313,0 -1.031251,-0.550781 -1.031251,-0.996094 v -1.394533 c 0,-0.621094 0.398438,-0.984376 1.031251,-0.984376 0.820314,0 1.031252,0.527344 1.031252,0.984376 z m 5.141606,1.535157 v -2.92969 c 0,-1.007814 -0.539063,-1.60547 -1.546876,-1.60547 -0.398438,0 -0.867189,0.164062 -1.089845,0.480469 V 58.86638 h -0.644532 v 4.476567 h 0.644532 v -2.953128 c 0,-0.5625 0.492188,-0.960938 1.089845,-0.960938 0.820313,0 0.914063,0.539063 0.914063,0.984376 v 2.92969 z M 232.83416,48.190588 v -0.445312 c 0,-0.515626 -0.26954,-1.605471 -1.64063,-1.605471 h -1.79297 v 6.0586 h 0.65625 v -2.390627 h 1.17187 c 1.33594,0 1.60548,-1.089845 1.60548,-1.61719 z m -0.65626,-0.01172 c 0,0.855469 -0.62109,0.984376 -0.98437,0.984376 h -1.13672 v -2.378909 h 1.125 c 0.35156,0 0.99609,0.117188 0.99609,0.984376 z m 3.4629,0.152344 v -0.609376 h -0.35156 c -0.25782,0 -0.58594,0.164063 -0.79688,0.421875 v -0.421875 h -0.64453 v 4.476567 h 0.64453 v -2.83594 c 0,-0.738282 0.44531,-1.031251 0.78516,-1.031251 z m 4.16016,2.332033 v -1.394532 c 0,-0.996095 -0.65625,-1.605471 -1.66407,-1.605471 -0.99609,0 -1.67578,0.621095 -1.67578,1.605471 v 1.394532 c 0,0.996095 0.66797,1.617189 1.67578,1.617189 0.98438,0 1.66407,-0.632813 1.66407,-1.617189 z m -0.63281,0 c 0,0.621095 -0.39844,0.996095 -1.03126,0.996095 -0.82031,0 -1.03125,-0.550782 -1.03125,-0.996095 v -1.394532 c 0,-0.621095 0.39844,-0.984376 1.03125,-0.984376 0.82032,0 1.03126,0.527344 1.03126,0.984376 z m 4.64941,1.535158 v -0.621094 h -2.3789 l 2.20312,-3.281254 v -0.574219 h -2.85937 v 0.621094 h 2.10937 l -2.19141,3.281254 v 0.574219 z m 4.24513,-2.92969 c 0,-0.996095 -0.65625,-1.605471 -1.66407,-1.605471 -0.99609,0 -1.67578,0.621095 -1.67578,1.605471 v 1.394532 c 0,0.996095 0.66797,1.617189 1.67578,1.617189 0.9375,0 1.58203,-0.597657 1.65235,-1.546876 h -0.63282 c -0.0586,0.585938 -0.44531,0.925782 -1.01953,0.925782 -0.82031,0 -1.03125,-0.550782 -1.03125,-0.996095 v -0.492188 h 2.69532 z m -0.63282,0.28125 h -2.0625 v -0.28125 c 0,-0.621095 0.39844,-0.984376 1.03125,-0.984376 0.82032,0 1.03125,0.527344 1.03125,0.984376 z m 4.9336,1.32422 c 0,-0.597657 -0.41016,-0.960939 -0.9375,-1.125001 -0.36328,-0.105469 -0.84375,-0.199219 -1.17188,-0.28125 -0.28125,-0.08203 -0.49218,-0.269532 -0.49218,-0.503907 0,-0.539063 0.45703,-0.679688 0.89062,-0.679688 0.64453,0 0.98438,0.316406 1.01953,0.832032 h 0.64454 c -0.0352,-0.925783 -0.70313,-1.441408 -1.64063,-1.441408 -0.82031,0 -1.5586,0.363282 -1.5586,1.289064 0,0.5625 0.45704,0.972657 0.98438,1.101563 0.31641,0.08203 0.79688,0.175782 1.125,0.269532 0.29297,0.08203 0.50391,0.246094 0.50391,0.539063 0,0.632813 -0.52735,0.773438 -1.03125,0.773438 -0.60938,0 -1.00782,-0.328125 -1.00782,-0.914063 h -0.64453 c 0,0.960938 0.69141,1.535158 1.65235,1.535158 0.89062,0 1.66406,-0.375001 1.66406,-1.394533 z m 4.13672,0 c 0,-0.597657 -0.41015,-0.960939 -0.9375,-1.125001 -0.36328,-0.105469 -0.84375,-0.199219 -1.17187,-0.28125 -0.28125,-0.08203 -0.49219,-0.269532 -0.49219,-0.503907 0,-0.539063 0.45703,-0.679688 0.89063,-0.679688 0.64453,0 0.98437,0.316406 1.01953,0.832032 h 0.64453 c -0.0352,-0.925783 -0.70313,-1.441408 -1.64063,-1.441408 -0.82031,0 -1.55859,0.363282 -1.55859,1.289064 0,0.5625 0.45703,0.972657 0.98437,1.101563 0.31641,0.08203 0.79688,0.175782 1.125,0.269532 0.29297,0.08203 0.50391,0.246094 0.50391,0.539063 0,0.632813 -0.52734,0.773438 -1.03125,0.773438 -0.60938,0 -1.00781,-0.328125 -1.00781,-0.914063 h -0.64454 c 0,0.960938 0.69141,1.535158 1.65235,1.535158 0.89063,0 1.66406,-0.375001 1.66406,-1.394533 z m 3.60059,-0.773438 v -0.609376 h -2.53125 v 0.609376 z m -39.05863,13.095716 -1.6875,-2.578128 1.71094,-1.88672 h -0.84375 l -1.95704,2.156252 v -3.750004 h -0.63281 v 6.0586 h 0.63281 v -1.406252 l 0.65626,-0.714844 1.35937,2.121096 z m 4.13672,-1.535158 V 60.26677 c 0,-0.996094 -0.65625,-1.60547 -1.66406,-1.60547 -0.99609,0 -1.67578,0.621094 -1.67578,1.60547 v 1.394533 c 0,0.996095 0.66797,1.617189 1.67578,1.617189 0.98438,0 1.66406,-0.632813 1.66406,-1.617189 z m -0.63281,0 c 0,0.621094 -0.39844,0.996095 -1.03125,0.996095 -0.82031,0 -1.03125,-0.550782 -1.03125,-0.996095 V 60.26677 c 0,-0.621094 0.39844,-0.984376 1.03125,-0.984376 0.82031,0 1.03125,0.527345 1.03125,0.984376 z m 6.92579,-1.710939 c 0,-0.574219 -0.33985,-1.289064 -1.24219,-1.289064 -0.39844,0 -0.87891,0.105469 -1.23047,0.550782 -0.17578,-0.328125 -0.49219,-0.550782 -0.94922,-0.550782 -0.36328,0 -0.76172,0.128906 -0.99609,0.410157 v -0.351563 h -0.64454 v 4.476567 h 0.64454 v -2.824222 c 0,-0.691407 0.28125,-1.089845 0.9375,-1.089845 0.44531,0 0.63281,0.375001 0.63281,0.750001 v 3.164066 h 0.63281 v -2.83594 c 0,-0.66797 0.28125,-1.078127 0.92579,-1.078127 0.48046,0 0.64453,0.339845 0.64453,0.726564 v 3.187503 h 0.64453 z m 6.34278,0 c 0,-0.574219 -0.33985,-1.289064 -1.24219,-1.289064 -0.39844,0 -0.87891,0.105469 -1.23047,0.550782 -0.17578,-0.328125 -0.49219,-0.550782 -0.94922,-0.550782 -0.36328,0 -0.76172,0.128906 -0.99609,0.410157 v -0.351563 h -0.64454 v 4.476567 h 0.64454 v -2.824222 c 0,-0.691407 0.28125,-1.089845 0.9375,-1.089845 0.44531,0 0.63281,0.375001 0.63281,0.750001 v 3.164066 h 0.63281 v -2.83594 c 0,-0.66797 0.28125,-1.078127 0.92578,-1.078127 0.48047,0 0.64454,0.339845 0.64454,0.726564 v 3.187503 h 0.64453 z m 4.5586,3.246097 v -4.476567 h -0.64453 v 2.988284 c 0,0.574219 -0.42188,0.94922 -1.01954,0.94922 -0.82031,0 -1.00781,-0.550782 -1.00781,-0.996095 v -2.941409 h -0.64453 v 2.941409 c 0,0.996095 0.64453,1.617189 1.65234,1.617189 0.38672,0 0.82032,-0.175781 1.01954,-0.433594 v 0.351563 z m 4.59082,0 V 60.26677 c 0,-1.007813 -0.53906,-1.60547 -1.54687,-1.60547 -0.39844,0 -0.86719,0.164063 -1.08985,0.480469 v -0.421875 h -0.64453 v 4.476567 h 0.64453 v -2.953128 c 0,-0.562501 0.49219,-0.960939 1.08985,-0.960939 0.82031,0 0.91406,0.539064 0.91406,0.984376 v 2.929691 z m 1.99805,0 v -4.476567 h -0.63281 v 4.476567 z m 0.0703,-5.20313 v -0.925782 h -0.78515 v 0.925782 z m 4.73438,5.20313 -1.6875,-2.578128 1.71094,-1.88672 h -0.84375 l -1.95703,2.156252 v -3.750004 h -0.63282 v 6.0586 h 0.63282 v -1.406252 l 0.65625,-0.714844 1.35937,2.121096 z m 3.98438,-3.093753 c 0,-1.066408 -0.79687,-1.441408 -1.55859,-1.441408 -0.67969,0 -1.54688,0.386719 -1.58204,1.453127 h 0.64454 c 0.0234,-0.609376 0.45703,-0.832033 0.9375,-0.832033 0.52734,0 0.92578,0.187501 0.92578,0.843751 v 0.433594 h -1.23047 c -0.82031,0 -1.44141,0.421876 -1.44141,1.265627 0,1.019532 0.76172,1.453126 1.48828,1.453126 0.50391,0 0.98438,-0.222656 1.1836,-0.503907 v 0.421876 h 0.63281 z m -0.63281,1.570314 c 0,0.609375 -0.55078,0.984376 -1.07813,0.984376 -0.46875,0 -0.96094,-0.175782 -0.96094,-0.832032 0,-0.480469 0.33985,-0.66797 0.82032,-0.66797 h 1.21875 z m 1.42969,-2.332034 h 0.84375 v 2.695315 c 0,0.832033 0.48047,1.160158 1.06641,1.160158 h 0.5625 v -0.621094 h -0.52735 c -0.24609,0 -0.46875,-0.128907 -0.46875,-0.503907 v -2.73047 h 0.98438 v -0.621094 h -0.98438 v -1.582033 h -0.63281 v 1.582033 h -0.84375 z m 4.21582,3.855473 v -4.476567 h -0.63281 v 4.476567 z m 0.0703,-5.20313 V 57.067549 H 262.049 v 0.925782 z m 4.57324,3.667972 V 60.26677 c 0,-0.996094 -0.65625,-1.60547 -1.66406,-1.60547 -0.9961,0 -1.67579,0.621094 -1.67579,1.60547 v 1.394533 c 0,0.996095 0.66797,1.617189 1.67579,1.617189 0.98437,0 1.66406,-0.632813 1.66406,-1.617189 z m -0.63281,0 c 0,0.621094 -0.39844,0.996095 -1.03125,0.996095 -0.82032,0 -1.03125,-0.550782 -1.03125,-0.996095 V 60.26677 c 0,-0.621094 0.39843,-0.984376 1.03125,-0.984376 0.82031,0 1.03125,0.527345 1.03125,0.984376 z m 5.14454,1.535158 V 60.26677 c 0,-1.007813 -0.53907,-1.60547 -1.54688,-1.60547 -0.39844,0 -0.86719,0.164063 -1.08985,0.480469 v -0.421875 h -0.64453 v 4.476567 h 0.64453 v -2.953128 c 0,-0.562501 0.49219,-0.960939 1.08985,-0.960939 0.82031,0 0.91406,0.539064 0.91406,0.984376 v 2.929691 z m 0,0"
         style="fill:#e77b45;fill-opacity:1;fill-rule:nonzero;stroke:none"
         aria-label="Innenperspektive&#10;Benutzerperspektive&#10;Ergebnis-&#10;kommunikation&#10;Prozess-&#10;kommunikation"
         transform="matrix(1.333332,0,0,1.333332,95844.574,359.55845)"
         clip-path="url(#clipPath5941)"
         id="path5966" />
    </g>
  </g>
</svg>
