<?xml version="1.0" encoding="UTF-8" standalone="no"?>
<svg
   id="Layer_1"
   data-name="Layer 1"
   width="100mm"
   height="100mm"
   viewBox="0 0 283.4646 283.4644"
   version="1.1"
   sodipodi:docname="IS1_Digi_Datenschutz.svg"
   inkscape:version="1.4.3 (0d15f75, 2025-12-25)"
   xmlns:inkscape="http://www.inkscape.org/namespaces/inkscape"
   xmlns:sodipodi="http://sodipodi.sourceforge.net/DTD/sodipodi-0.dtd"
   xmlns="http://www.w3.org/2000/svg"
   xmlns:svg="http://www.w3.org/2000/svg">
  <sodipodi:namedview
     id="namedview18"
     pagecolor="#ffffff"
     bordercolor="#000000"
     borderopacity="0.25"
     inkscape:showpageshadow="2"
     inkscape:pageopacity="0.0"
     inkscape:pagecheckerboard="0"
     inkscape:deskcolor="#d1d1d1"
     inkscape:document-units="mm"
     inkscape:zoom="1.4742587"
     inkscape:cx="83.092608"
     inkscape:cy="223.163"
     inkscape:window-width="1920"
     inkscape:window-height="937"
     inkscape:window-x="0"
     inkscape:window-y="30"
     inkscape:window-maximized="1"
     inkscape:current-layer="Layer_1" />
  <defs
     id="defs1">
    <style
       id="style1">
      .cls-1 {
        fill: #fff;
      }

      .cls-2 {
        fill: #b50938;
      }
    </style>
  </defs>
  <rect
     class="cls-2"
     width="141.7323"
     height="141.73219"
     id="rect1"
     x="141.73219"
     y="141.7323" />
  <rect
     class="cls-2"
     width="283.46451"
     height="141.73225"
     id="rect1-3"
     x="-1.7848733e-05"
     y="0"
     style="fill:#9ebecc;fill-opacity:1;stroke-width:1.41421" />
  <rect
     class="cls-2"
     width="141.7323"
     height="141.73219"
     id="rect1-3-8"
     x="0"
     y="141.7323"
     style="fill:#6c94a8;fill-opacity:1" />
  <g
     id="g17"
     transform="translate(141.7322,141.73231)">
    <g
       id="g4">
      <g
         id="g1">
        <circle
           class="cls-2"
           cx="63.793499"
           cy="92.617302"
           r="4.5872998"
           id="circle1" />
        <path
           class="cls-1"
           d="m 63.7937,98.5325 c -3.2609,0 -5.9146,-2.6537 -5.9146,-5.9146 0,-3.2631 2.6537,-5.9168 5.9146,-5.9168 3.2609,0 5.9146,2.6537 5.9146,5.9168 0,3.2609 -2.6537,5.9146 -5.9146,5.9146 z m 0,-9.1754 c -1.7953,0 -3.2587,1.4634 -3.2587,3.2609 0,1.7953 1.4634,3.2587 3.2587,3.2587 1.7953,0 3.2587,-1.4634 3.2587,-3.2587 0,-1.7975 -1.4634,-3.2609 -3.2587,-3.2609 z"
           id="path1" />
      </g>
      <g
         id="g2">
        <circle
           class="cls-2"
           cx="77.938797"
           cy="92.617302"
           r="4.5872998"
           id="circle2" />
        <path
           class="cls-1"
           d="m 77.938,98.5325 c -3.2609,0 -5.9146,-2.6537 -5.9146,-5.9146 0,-3.2631 2.6537,-5.9168 5.9146,-5.9168 3.2631,0 5.9168,2.6537 5.9168,5.9168 0,3.2609 -2.6537,5.9146 -5.9168,5.9146 z m 0,-9.1754 c -1.7953,0 -3.2587,1.4634 -3.2587,3.2609 0,1.7953 1.4634,3.2587 3.2587,3.2587 1.7975,0 3.2609,-1.4634 3.2609,-3.2587 0,-1.7975 -1.4634,-3.2609 -3.2609,-3.2609 z"
           id="path2" />
      </g>
      <g
         id="g3">
        <circle
           class="cls-2"
           cx="92.084099"
           cy="92.617302"
           r="4.5872998"
           id="circle3" />
        <path
           class="cls-1"
           d="m 92.0846,98.5325 c -3.2609,0 -5.9146,-2.6537 -5.9146,-5.9146 0,-3.2631 2.6537,-5.9168 5.9146,-5.9168 3.2609,0 5.9146,2.6537 5.9146,5.9168 0,3.2609 -2.6537,5.9146 -5.9146,5.9146 z m 0,-9.1754 c -1.7953,0 -3.2587,1.4634 -3.2587,3.2609 0,1.7953 1.4634,3.2587 3.2587,3.2587 1.7953,0 3.2587,-1.4634 3.2587,-3.2587 0,-1.7975 -1.4634,-3.2609 -3.2587,-3.2609 z"
           id="path3" />
      </g>
    </g>
    <g
       id="g7">
      <g
         id="g5">
        <circle
           class="cls-2"
           cx="63.793499"
           cy="78.116501"
           r="4.5872998"
           id="circle4" />
        <path
           class="cls-1"
           d="m 63.7937,84.0322 c -3.2609,0 -5.9146,-2.6537 -5.9146,-5.9146 0,-3.2631 2.6537,-5.9168 5.9146,-5.9168 3.2609,0 5.9146,2.6537 5.9146,5.9168 0,3.2609 -2.6537,5.9146 -5.9146,5.9146 z m 0,-9.1755 c -1.7953,0 -3.2587,1.4634 -3.2587,3.2609 0,1.7953 1.4634,3.2587 3.2587,3.2587 1.7953,0 3.2587,-1.4634 3.2587,-3.2587 0,-1.7975 -1.4634,-3.2609 -3.2587,-3.2609 z"
           id="path4" />
      </g>
      <g
         id="g6">
        <circle
           class="cls-2"
           cx="49.648201"
           cy="78.116501"
           r="4.5872998"
           id="circle5" />
        <path
           class="cls-1"
           d="m 49.6472,84.0322 c -3.2609,0 -5.9146,-2.6537 -5.9146,-5.9146 0,-3.2631 2.6537,-5.9168 5.9146,-5.9168 3.2631,0 5.9168,2.6537 5.9168,5.9168 0,3.2609 -2.6537,5.9146 -5.9168,5.9146 z m 0,-9.1755 c -1.7953,0 -3.2587,1.4634 -3.2587,3.2609 0,1.7953 1.4634,3.2587 3.2587,3.2587 1.7975,0 3.2609,-1.4634 3.2609,-3.2587 0,-1.7975 -1.4634,-3.2609 -3.2609,-3.2609 z"
           id="path5" />
      </g>
    </g>
    <g
       id="g8">
      <circle
         class="cls-2"
         cx="92.084099"
         cy="63.6157"
         r="4.5872998"
         id="circle7" />
      <path
         class="cls-1"
         d="m 92.0846,69.5318 c -3.2609,0 -5.9146,-2.6537 -5.9146,-5.9168 0,-3.2609 2.6537,-5.9146 5.9146,-5.9146 3.2609,0 5.9146,2.6537 5.9146,5.9146 0,3.2631 -2.6537,5.9168 -5.9146,5.9168 z m 0,-9.1754 c -1.7953,0 -3.2587,1.4634 -3.2587,3.2587 0,1.7975 1.4634,3.2609 3.2587,3.2609 1.7953,0 3.2587,-1.4634 3.2587,-3.2609 0,-1.7953 -1.4634,-3.2587 -3.2587,-3.2587 z"
         id="path7" />
    </g>
    <g
       id="g9">
      <circle
         class="cls-2"
         cx="77.938797"
         cy="49.114899"
         r="4.5872998"
         id="circle8" />
      <path
         class="cls-1"
         d="m 77.938,55.0293 c -3.2609,0 -5.9146,-2.6526 -5.9146,-5.9146 0,-3.262 2.6537,-5.9157 5.9146,-5.9157 3.2631,0 5.9168,2.6537 5.9168,5.9157 0,3.262 -2.6537,5.9146 -5.9168,5.9146 z m 0,-9.1722 c -1.7953,0 -3.2587,1.4612 -3.2587,3.2576 0,1.7964 1.4634,3.2576 3.2587,3.2576 1.7975,0 3.2609,-1.4612 3.2609,-3.2576 0,-1.7964 -1.4634,-3.2576 -3.2609,-3.2576 z"
         id="path8" />
    </g>
    <g
       id="g10">
      <circle
         class="cls-2"
         cx="49.648201"
         cy="49.114899"
         r="4.5872998"
         id="circle9" />
      <path
         class="cls-1"
         d="m 49.6472,55.0293 c -3.2609,0 -5.9146,-2.6526 -5.9146,-5.9146 0,-3.262 2.6537,-5.9157 5.9146,-5.9157 3.2631,0 5.9168,2.6537 5.9168,5.9157 0,3.262 -2.6537,5.9146 -5.9168,5.9146 z m 0,-9.1722 c -1.7953,0 -3.2587,1.4612 -3.2587,3.2576 0,1.7964 1.4634,3.2576 3.2587,3.2576 1.7975,0 3.2609,-1.4612 3.2609,-3.2576 0,-1.7964 -1.4634,-3.2576 -3.2609,-3.2576 z"
         id="path9" />
    </g>
    <rect
       class="cls-1"
       x="62.465801"
       y="44.2845"
       width="2.6559"
       height="9.6613998"
       id="rect10" />
    <rect
       class="cls-1"
       x="48.319199"
       y="58.785999"
       width="2.6559"
       height="9.6603003"
       id="rect11" />
    <rect
       class="cls-1"
       x="62.465801"
       y="58.785999"
       width="2.6559"
       height="9.6603003"
       id="rect12" />
    <rect
       class="cls-1"
       x="76.6101"
       y="58.785999"
       width="2.6559"
       height="9.6603003"
       id="rect13" />
    <rect
       class="cls-1"
       x="76.6101"
       y="73.286301"
       width="2.6559"
       height="9.6603003"
       id="rect14" />
    <rect
       class="cls-1"
       x="48.319199"
       y="87.786697"
       width="2.6559"
       height="9.6603003"
       id="rect15" />
    <rect
       class="cls-1"
       x="90.756599"
       y="73.286301"
       width="2.6559"
       height="9.6603003"
       id="rect16" />
    <rect
       class="cls-1"
       x="90.756599"
       y="44.2845"
       width="2.6559"
       height="9.6613998"
       id="rect17" />
  </g>
  <path
     class="cls-1"
     d="m 170.4543,183.21611 c 2.2945,-1.3672 3.8366,-3.8657 3.8366,-6.7306 0,-4.3288 -3.5092,-7.8379 -7.838,-7.8379 -4.3288,0 -7.838,3.5091 -7.838,7.8379 0,2.8649 1.5421,5.3634 3.8366,6.7306 -3.8538,1.373 -6.6366,5.0551 -6.6366,9.3649 v 23.9617 h 21.2763 v -23.9617 c 0,-4.3098 -2.7829,-7.9919 -6.6368,-9.3649 z"
     id="path17" />
  <path
     class="cls-1"
     d="m 262.745,219.58781 c 2.2945,-1.3672 3.8366,-3.8657 3.8366,-6.7306 0,-4.3288 -3.5092,-7.8379 -7.838,-7.8379 -4.3288,0 -7.838,3.5091 -7.838,7.8379 0,2.8649 1.5421,5.3634 3.8366,6.7306 -3.8538,1.373 -6.6366,5.0551 -6.6366,9.3649 v 23.9617 h 21.2763 v -23.9617 c 0,-4.3098 -2.7829,-7.9919 -6.6368,-9.3649 z"
     id="path18" />
  <path
     class="a"
     d="m 15.053652,182.50633 c -0.0064,20.70683 -0.0146,47.53779 -0.02087,68.40542 a 7.0712304,6.8965122 0 0 0 7.079573,6.90058 c 24.596446,0.007 76.970719,0.0305 102.690925,0.0346 a 7.0701869,6.8954945 0 0 0 7.07541,-6.89955 c 0,-20.86151 0.009,-47.68943 0.0209,-68.40135 a 7.0670572,6.892442 0 0 0 -7.07019,-6.90262 c -21.57054,-0.007 -78.661051,-0.0274 -102.69406,-0.0336 a 7.0701869,6.8954945 0 0 0 -7.081659,6.89651 z"
     id="path7-3"
     style="fill:#ffffff;stroke-width:1.03045" />
  <path
     class="b"
     d="m 12.966821,182.50633 q -0.0064,23.33233 -0.0146,46.66263 v 11.71602 c 0,3.5363 -0.297371,7.21198 0.03341,10.733 a 9.2603181,9.0315108 0 0 0 5.814953,7.61497 c 2.468726,0.95658 5.382983,0.61567 7.993609,0.61669 l 36.466348,0.0122 40.387509,0.0153 H 120.638 c 2.85582,0 5.816,0.29004 8.43915,-1.03188 a 9.3187487,9.0884988 0 0 0 4.88735,-8.09935 c 0.13251,-15.5922 0,-31.19154 0.01,-46.78374 l 0.006,-11.45347 v -5.58381 a 49.730252,48.501502 0 0 0 -0.0564,-5.26117 9.2425795,9.0142109 0 0 0 -5.94746,-7.50607 c -2.22457,-0.81411 -4.77258,-0.55461 -7.11297,-0.55461 l -32.598407,-0.01 -38.355971,-0.0132 H 32.809479 25.618252 c -2.656538,0 -5.321424,-0.20354 -7.761972,1.03085 a 9.305184,9.0752689 0 0 0 -4.889445,7.89992 c -0.06784,2.6204 4.105844,2.61938 4.173664,0 a 5.0334391,4.9090712 0 0 1 4.809103,-4.85718 c 2.105614,-0.0713 4.226875,0 6.334576,0 h 15.274571 l 36.292095,0.0122 33.893286,0.011 h 6.53387 c 1.91258,0 4.26339,-0.33684 6.09772,0.23914 a 4.9708341,4.8480131 0 0 1 2.78175,2.22149 8.2106409,8.0077704 0 0 1 0.65004,4.18248 q 0,5.2622 -0.006,10.52235 -0.0126,22.72277 -0.0146,45.44555 c 0,3.48743 0.0291,6.97589 0,10.4623 a 5.0490903,4.9243359 0 0 1 -4.80702,5.05764 c -5.00839,0.16487 -10.05331,0 -15.06588,0 l -37.845742,-0.0122 -37.138312,-0.0142 H 27.343135 23.86125 a 10.016795,9.7692962 0 0 1 -3.469356,-0.29308 5.0021366,4.8785422 0 0 1 -2.782791,-2.45861 9.8415001,9.5983332 0 0 1 -0.489357,-4.30154 v -10.60884 q 0.0064,-22.71768 0.01357,-45.43537 v -10.17635 c 0.0071,-2.6204 -4.166362,-2.62448 -4.167402,-7.7e-4 z"
     id="path8-6"
     style="fill:#211715;stroke-width:1.03045" />
  <path
     class="b"
     d="m 24.751159,190.76239 q 17.993709,15.53319 36.593648,30.38353 2.314295,1.84499 4.643199,3.67673 a 36.230536,35.33534 0 0 0 4.382345,3.35818 6.0048593,5.8564892 0 0 0 5.188909,0.33175 c 1.748763,-0.68792 3.241893,-2.17977 4.707892,-3.31241 q 10.10966,-7.80424 19.929248,-15.96058 11.11864,-9.19026 21.97851,-18.6685 c 2.00963,-1.74729 -0.95054,-4.61703 -2.95078,-2.8789 -12.3123,10.70654 -24.809298,21.22991 -37.661055,31.3228 q -2.118135,1.6618 -4.247744,3.30731 c -0.767953,0.59329 -1.531733,1.1937 -2.310122,1.77477 a 2.6659279,2.6000575 0 0 1 -1.835372,0.7907 3.5528316,3.4650471 0 0 1 -1.773806,-1.01763 q -1.051763,-0.82124 -2.102486,-1.64756 -2.144218,-1.68317 -4.278001,-3.38059 -9.040159,-7.18958 -17.925896,-14.56438 -9.777849,-8.10241 -19.389794,-16.39207 c -2.004402,-1.72998 -4.966658,1.13771 -2.950781,2.87787 z"
     id="path9-5"
     style="fill:#211715;stroke-width:1.03045" />
  <path
     id="path10"
     style="fill:#ffffff;stroke-width:3.74999909;fill-opacity:1;stroke-dasharray:none;stroke:#000000;stroke-opacity:1"
     class="b"
     d="M 143.05514 12.083493 A 28.929715 28.428987 0 0 0 115.25534 38.81542 L 107.707 38.812491 A 15.662081 15.390995 0 0 0 92.025856 54.205065 C 92.025856 72.791032 92.013978 94.030574 92.008278 112.71677 A 15.66718 15.396006 0 0 0 107.67771 128.12399 L 180.86275 128.15622 A 15.662081 15.390995 0 0 0 196.53804 112.75486 C 196.53804 94.073667 196.53772 72.836018 196.55562 54.247545 A 15.659531 15.388489 0 0 0 180.89205 38.841787 L 173.29097 38.838858 A 29.026615 28.524209 0 0 0 154.45602 13.93359 A 28.929715 28.428987 0 0 0 143.05514 12.083493 z M 142.96725 22.158686 A 18.869977 18.543367 0 0 1 163.05904 38.834463 L 125.50339 38.819815 A 18.869977 18.543367 0 0 1 142.96725 22.158686 z " />
  <path
     id="path11"
     style="fill:#9ebecc;fill-opacity:1;stroke-width:3.74999909;stroke:#000000;stroke-opacity:1;stroke-dasharray:none"
     class="a"
     d="M 144.28414 60.300278 A 13.729183 13.491552 0 0 0 130.28171 73.974591 C 130.28171 80.468765 133.41688 85.145211 138.6987 87.010233 L 138.6987 101.35105 A 5.5028932 5.4076467 0 0 0 144.18893 106.76365 L 144.35739 106.76365 A 5.5079932 5.4126585 0 0 0 149.88278 101.35398 C 149.88278 95.556496 149.88365 91.456876 149.88571 87.03367 C 155.24166 85.184358 158.28512 80.495717 158.28512 73.974591 A 13.716434 13.479024 0 0 0 144.28414 60.300278 z " />
</svg>
