<?xml version="1.0" encoding="UTF-8" standalone="no"?>
<svg
   id="Layer_1"
   data-name="Layer 1"
   width="100mm"
   height="100mm"
   viewBox="0 0 283.4646 283.4644"
   version="1.1"
   sodipodi:docname="IS1_Digi_Beurteilung.svg"
   inkscape:version="1.4.3 (0d15f75, 2025-12-25)"
   xml:space="preserve"
   xmlns:inkscape="http://www.inkscape.org/namespaces/inkscape"
   xmlns:sodipodi="http://sodipodi.sourceforge.net/DTD/sodipodi-0.dtd"
   xmlns="http://www.w3.org/2000/svg"
   xmlns:svg="http://www.w3.org/2000/svg"><sodipodi:namedview
     id="namedview18"
     pagecolor="#ffffff"
     bordercolor="#000000"
     borderopacity="0.25"
     inkscape:showpageshadow="2"
     inkscape:pageopacity="0.0"
     inkscape:pagecheckerboard="0"
     inkscape:deskcolor="#d1d1d1"
     inkscape:document-units="mm"
     inkscape:zoom="1.4742587"
     inkscape:cx="-55.960326"
     inkscape:cy="403.59266"
     inkscape:window-width="1920"
     inkscape:window-height="937"
     inkscape:window-x="0"
     inkscape:window-y="30"
     inkscape:window-maximized="1"
     inkscape:current-layer="Layer_1" /><defs
     id="defs1"><style
       id="style1">
      .cls-1 {
        fill: #fff;
      }

      .cls-2 {
        fill: #b50938;
      }
    </style></defs><rect
     class="cls-2"
     width="141.7323"
     height="141.73219"
     id="rect1"
     x="141.73219"
     y="141.7323" /><rect
     class="cls-2"
     width="283.46451"
     height="141.73225"
     id="rect1-3"
     x="-1.7848733e-05"
     y="0"
     style="fill:#9ebecc;fill-opacity:1;stroke-width:1.41421" /><rect
     class="cls-2"
     width="141.7323"
     height="141.73219"
     id="rect1-3-8"
     x="0"
     y="141.7323"
     style="fill:#6c94a8;fill-opacity:1" /><g
     id="g17"
     transform="translate(141.7322,141.73231)"><g
       id="g4"><g
         id="g1"><circle
           class="cls-2"
           cx="63.793499"
           cy="92.617302"
           r="4.5872998"
           id="circle1" /><path
           class="cls-1"
           d="m 63.7937,98.5325 c -3.2609,0 -5.9146,-2.6537 -5.9146,-5.9146 0,-3.2631 2.6537,-5.9168 5.9146,-5.9168 3.2609,0 5.9146,2.6537 5.9146,5.9168 0,3.2609 -2.6537,5.9146 -5.9146,5.9146 z m 0,-9.1754 c -1.7953,0 -3.2587,1.4634 -3.2587,3.2609 0,1.7953 1.4634,3.2587 3.2587,3.2587 1.7953,0 3.2587,-1.4634 3.2587,-3.2587 0,-1.7975 -1.4634,-3.2609 -3.2587,-3.2609 z"
           id="path1" /></g><g
         id="g2"><circle
           class="cls-2"
           cx="77.938797"
           cy="92.617302"
           r="4.5872998"
           id="circle2" /><path
           class="cls-1"
           d="m 77.938,98.5325 c -3.2609,0 -5.9146,-2.6537 -5.9146,-5.9146 0,-3.2631 2.6537,-5.9168 5.9146,-5.9168 3.2631,0 5.9168,2.6537 5.9168,5.9168 0,3.2609 -2.6537,5.9146 -5.9168,5.9146 z m 0,-9.1754 c -1.7953,0 -3.2587,1.4634 -3.2587,3.2609 0,1.7953 1.4634,3.2587 3.2587,3.2587 1.7975,0 3.2609,-1.4634 3.2609,-3.2587 0,-1.7975 -1.4634,-3.2609 -3.2609,-3.2609 z"
           id="path2" /></g><g
         id="g3"><circle
           class="cls-2"
           cx="92.084099"
           cy="92.617302"
           r="4.5872998"
           id="circle3" /><path
           class="cls-1"
           d="m 92.0846,98.5325 c -3.2609,0 -5.9146,-2.6537 -5.9146,-5.9146 0,-3.2631 2.6537,-5.9168 5.9146,-5.9168 3.2609,0 5.9146,2.6537 5.9146,5.9168 0,3.2609 -2.6537,5.9146 -5.9146,5.9146 z m 0,-9.1754 c -1.7953,0 -3.2587,1.4634 -3.2587,3.2609 0,1.7953 1.4634,3.2587 3.2587,3.2587 1.7953,0 3.2587,-1.4634 3.2587,-3.2587 0,-1.7975 -1.4634,-3.2609 -3.2587,-3.2609 z"
           id="path3" /></g></g><g
       id="g7"><g
         id="g5"><circle
           class="cls-2"
           cx="63.793499"
           cy="78.116501"
           r="4.5872998"
           id="circle4" /><path
           class="cls-1"
           d="m 63.7937,84.0322 c -3.2609,0 -5.9146,-2.6537 -5.9146,-5.9146 0,-3.2631 2.6537,-5.9168 5.9146,-5.9168 3.2609,0 5.9146,2.6537 5.9146,5.9168 0,3.2609 -2.6537,5.9146 -5.9146,5.9146 z m 0,-9.1755 c -1.7953,0 -3.2587,1.4634 -3.2587,3.2609 0,1.7953 1.4634,3.2587 3.2587,3.2587 1.7953,0 3.2587,-1.4634 3.2587,-3.2587 0,-1.7975 -1.4634,-3.2609 -3.2587,-3.2609 z"
           id="path4" /></g><g
         id="g6"><circle
           class="cls-2"
           cx="49.648201"
           cy="78.116501"
           r="4.5872998"
           id="circle5" /><path
           class="cls-1"
           d="m 49.6472,84.0322 c -3.2609,0 -5.9146,-2.6537 -5.9146,-5.9146 0,-3.2631 2.6537,-5.9168 5.9146,-5.9168 3.2631,0 5.9168,2.6537 5.9168,5.9168 0,3.2609 -2.6537,5.9146 -5.9168,5.9146 z m 0,-9.1755 c -1.7953,0 -3.2587,1.4634 -3.2587,3.2609 0,1.7953 1.4634,3.2587 3.2587,3.2587 1.7975,0 3.2609,-1.4634 3.2609,-3.2587 0,-1.7975 -1.4634,-3.2609 -3.2609,-3.2609 z"
           id="path5" /></g></g><g
       id="g8"><circle
         class="cls-2"
         cx="92.084099"
         cy="63.6157"
         r="4.5872998"
         id="circle7" /><path
         class="cls-1"
         d="m 92.0846,69.5318 c -3.2609,0 -5.9146,-2.6537 -5.9146,-5.9168 0,-3.2609 2.6537,-5.9146 5.9146,-5.9146 3.2609,0 5.9146,2.6537 5.9146,5.9146 0,3.2631 -2.6537,5.9168 -5.9146,5.9168 z m 0,-9.1754 c -1.7953,0 -3.2587,1.4634 -3.2587,3.2587 0,1.7975 1.4634,3.2609 3.2587,3.2609 1.7953,0 3.2587,-1.4634 3.2587,-3.2609 0,-1.7953 -1.4634,-3.2587 -3.2587,-3.2587 z"
         id="path7" /></g><g
       id="g9"><circle
         class="cls-2"
         cx="77.938797"
         cy="49.114899"
         r="4.5872998"
         id="circle8" /><path
         class="cls-1"
         d="m 77.938,55.0293 c -3.2609,0 -5.9146,-2.6526 -5.9146,-5.9146 0,-3.262 2.6537,-5.9157 5.9146,-5.9157 3.2631,0 5.9168,2.6537 5.9168,5.9157 0,3.262 -2.6537,5.9146 -5.9168,5.9146 z m 0,-9.1722 c -1.7953,0 -3.2587,1.4612 -3.2587,3.2576 0,1.7964 1.4634,3.2576 3.2587,3.2576 1.7975,0 3.2609,-1.4612 3.2609,-3.2576 0,-1.7964 -1.4634,-3.2576 -3.2609,-3.2576 z"
         id="path8" /></g><g
       id="g10"><circle
         class="cls-2"
         cx="49.648201"
         cy="49.114899"
         r="4.5872998"
         id="circle9" /><path
         class="cls-1"
         d="m 49.6472,55.0293 c -3.2609,0 -5.9146,-2.6526 -5.9146,-5.9146 0,-3.262 2.6537,-5.9157 5.9146,-5.9157 3.2631,0 5.9168,2.6537 5.9168,5.9157 0,3.262 -2.6537,5.9146 -5.9168,5.9146 z m 0,-9.1722 c -1.7953,0 -3.2587,1.4612 -3.2587,3.2576 0,1.7964 1.4634,3.2576 3.2587,3.2576 1.7975,0 3.2609,-1.4612 3.2609,-3.2576 0,-1.7964 -1.4634,-3.2576 -3.2609,-3.2576 z"
         id="path9" /></g><rect
       class="cls-1"
       x="62.465801"
       y="44.2845"
       width="2.6559"
       height="9.6613998"
       id="rect10" /><rect
       class="cls-1"
       x="48.319199"
       y="58.785999"
       width="2.6559"
       height="9.6603003"
       id="rect11" /><rect
       class="cls-1"
       x="62.465801"
       y="58.785999"
       width="2.6559"
       height="9.6603003"
       id="rect12" /><rect
       class="cls-1"
       x="76.6101"
       y="58.785999"
       width="2.6559"
       height="9.6603003"
       id="rect13" /><rect
       class="cls-1"
       x="76.6101"
       y="73.286301"
       width="2.6559"
       height="9.6603003"
       id="rect14" /><rect
       class="cls-1"
       x="48.319199"
       y="87.786697"
       width="2.6559"
       height="9.6603003"
       id="rect15" /><rect
       class="cls-1"
       x="90.756599"
       y="73.286301"
       width="2.6559"
       height="9.6603003"
       id="rect16" /><rect
       class="cls-1"
       x="90.756599"
       y="44.2845"
       width="2.6559"
       height="9.6613998"
       id="rect17" /></g><path
     class="cls-1"
     d="m 170.4543,183.21611 c 2.2945,-1.3672 3.8366,-3.8657 3.8366,-6.7306 0,-4.3288 -3.5092,-7.8379 -7.838,-7.8379 -4.3288,0 -7.838,3.5091 -7.838,7.8379 0,2.8649 1.5421,5.3634 3.8366,6.7306 -3.8538,1.373 -6.6366,5.0551 -6.6366,9.3649 v 23.9617 h 21.2763 v -23.9617 c 0,-4.3098 -2.7829,-7.9919 -6.6368,-9.3649 z"
     id="path17" /><path
     class="cls-1"
     d="m 262.745,219.58781 c 2.2945,-1.3672 3.8366,-3.8657 3.8366,-6.7306 0,-4.3288 -3.5092,-7.8379 -7.838,-7.8379 -4.3288,0 -7.838,3.5091 -7.838,7.8379 0,2.8649 1.5421,5.3634 3.8366,6.7306 -3.8538,1.373 -6.6366,5.0551 -6.6366,9.3649 v 23.9617 h 21.2763 v -23.9617 c 0,-4.3098 -2.7829,-7.9919 -6.6368,-9.3649 z"
     id="path18" /><g
     id="g18"
     transform="matrix(0.74975481,0,0,0.68655653,437.03773,-159.29557)"><path
       class="a"
       d="m -334.26959,340.29471 c 2.9048,6.35811 5.17236,11.49296 9.43521,20.80741 -13.92788,7.66223 -70.53912,39.47449 -82.69109,46.57749 -6.36327,-14.03381 -12.73175,-28.86267 -18.69413,-43.49538 -10.46485,-25.69447 -20.95907,-51.31557 -30.91987,-77.21442 26.30771,-14.03081 71.83972,-34.45418 81.19331,-38.69067 5.13253,11.60375 17.28319,38.90703 25.34533,57.0598"
       id="path1-7"
       style="fill:#ffffff;stroke-width:0.699135" /><path
       class="a"
       d="m -353.54415,343.04293 c -2.08605,1.33405 -4.28113,2.70031 -6.51474,4.0426 1.93327,-8.01932 3.96578,-16.06035 5.93104,-21.85175 0.0581,0.0472 0.0901,0.0696 0.0901,0.0696 1.85557,1.30785 10.38845,9.30846 11.65445,10.19035 -2.76377,2.00033 -6.71257,4.70364 -11.16085,7.54918 z"
       id="path2-5"
       style="fill:#ffffff;stroke-width:0.699135" /><path
       class="b"
       d="m -315.5056,275.125 a 2.4523312,2.8118531 0 0 0 -1.08383,0.6543 c -7.19442,9.41327 -32.35105,42.07972 -37.61481,49.41854 1.37111,0.82349 9.63303,8.55759 11.57153,10.1065 l 0.16975,0.1355 c 12.2375,-15.90164 24.18576,-31.76286 36.57539,-47.9123 2.01422,-2.93986 0.0842,-6.55051 -2.66453,-9.28974 -2.60968,-2.60598 -5.25528,-3.60915 -6.9535,-3.1128 z"
       id="path3-5"
       style="fill:#adab6b;fill-opacity:1;stroke-width:0.699135" /><path
       class="c"
       d="m -359.59271,346.8018 -0.46618,0.28073 c 0.94672,-3.92731 1.9176,-7.86061 2.89239,-11.52889 1.83664,1.37523 5.26638,4.34205 6.56567,5.58178 -2.77487,1.82216 -5.83963,3.76636 -8.99188,5.66638 z"
       id="path4-4"
       style="fill:#211715;stroke-width:0.699135" /><path
       class="c"
       d="m -335.62242,341.2013 c 3.1627,6.92557 6.26794,13.88483 9.43521,20.80741 l 0.56216,-2.4585 q -6.18959,3.40702 -12.35698,6.86793 -9.15381,5.11164 -18.29847,10.24874 -10.10379,5.67462 -20.19908,11.3642 -9.19233,5.18351 -18.37421,10.39098 c -4.17405,2.36941 -8.34942,4.73808 -12.50584,7.15016 q -0.47859,0.277 -0.95652,0.55624 l 2.14416,0.64456 c -6.90061,-15.22338 -13.45713,-30.64515 -19.79102,-46.19119 -6.46381,-15.85748 -12.93415,-31.71046 -19.28044,-47.63007 q -5.34342,-13.40871 -10.5432,-26.88854 l -0.56215,2.4585 c 11.85685,-6.32068 23.91872,-12.13903 36.00082,-17.86455 q 16.97567,-8.04327 34.05711,-15.77362 5.37737,-2.44353 10.76127,-4.87134 l -1.76939,-0.82349 q 9.74861,22.04116 19.5625,44.04488 2.89239,6.50709 5.78218,13.01418 c 0.91407,2.06172 3.62038,0.2448 2.70631,-1.81318 q -10.52883,-23.7106 -21.06746,-47.41372 -2.14089,-4.82267 -4.27722,-9.64834 a 1.5669848,1.7967113 0 0 0 -1.76938,-0.82349 q -12.14087,5.49569 -24.26345,11.04603 c -12.62925,5.8191 -25.22781,11.73253 -37.73822,17.87503 -6.55784,3.21911 -13.09477,6.50036 -19.56446,9.94854 -0.82658,0.4402 -0.87621,1.641 -0.56216,2.4585 6.13736,15.94582 12.47059,31.79506 18.87499,47.60537 6.4044,15.81031 12.75068,31.63709 19.41102,47.29692 q 5.52166,12.98424 11.32865,25.80676 a 1.5963658,1.8303996 0 0 0 2.14416,0.64457 c 3.8254,-2.2354 7.67431,-4.41691 11.5206,-6.60366 q 8.92594,-5.07496 17.86689,-10.11249 10.08159,-5.68958 20.17493,-11.35596 9.37318,-5.26511 18.75616,-10.51076 6.64009,-3.71171 13.29129,-7.39796 l 1.08253,-0.5989 a 1.5917954,1.8251592 0 0 0 0.56215,-2.45851 c -3.16792,-6.92182 -6.27251,-13.88183 -9.43586,-20.80666 -0.93562,-2.04975 -3.64128,-0.23507 -2.70566,1.81318 z"
       id="path5-1"
       style="fill:#211715;stroke-width:0.699135" /><path
       class="c"
       d="m -328.93204,373.35195 q -6.18959,3.40627 -12.35633,6.86718 -9.15511,5.11164 -18.29912,10.24874 -10.10379,5.67237 -20.19909,11.36345 -9.19232,5.18351 -18.37354,10.39098 c -4.17471,2.37016 -8.35008,4.73808 -12.5065,7.15016 q -0.47793,0.27699 -0.95652,0.55698 l 2.14416,0.64457 c -6.90061,-15.22563 -13.45714,-30.6459 -19.79102,-46.19045 -6.46381,-15.85822 -12.93415,-31.7112 -19.27979,-47.63082 q -5.34407,-13.40646 -10.54384,-26.88853 a 1.5774314,1.8086893 0 0 0 -2.14351,-0.64457 1.6061594,1.841629 0 0 0 -0.56216,2.4585 c 6.13736,15.94956 12.47059,31.7958 18.87434,47.60536 6.40374,15.80957 12.75068,31.6356 19.41102,47.29693 q 5.52297,12.98423 11.32865,25.80676 a 1.5963658,1.8303996 0 0 0 2.14415,0.64457 c 3.82541,-2.23465 7.67431,-4.41691 11.52061,-6.60366 q 8.92593,-5.07346 17.86689,-10.11249 10.08224,-5.68959 20.17493,-11.35596 9.37448,-5.26437 18.75615,-10.51076 6.6401,-3.71171 13.29195,-7.39796 l 1.08187,-0.59891 a 1.5813488,1.8131811 0 0 0 0.56216,-2.45775 1.6009361,1.83564 0 0 0 -2.14416,-0.64457 z"
       id="path6"
       style="fill:#211715;stroke-width:0.699135" /><path
       class="c"
       d="m -352.92976,326.23694 c 3.45193,-4.77925 7.04033,-9.43273 10.59738,-14.10718 q 7.56985,-9.94779 15.18017,-19.85665 c 3.86653,-5.04352 7.65668,-10.18137 11.60809,-15.14179 0.0346,-0.0427 0.15082,-0.17892 -0.0287,-0.0112 a 1.0720788,1.22925 0 0 1 0.18674,-0.1355 c 0.28075,-0.1602 0.0202,-0.0547 0.26116,-0.11678 a 2.4092391,2.7624436 0 0 1 0.96108,-0.0479 7.4431777,8.5343784 0 0 1 2.79838,1.26294 c 1.87516,1.30187 4.13814,3.50059 4.66831,6.0639 0.24027,1.16262 -0.18282,1.94644 -0.83638,2.80212 q -1.55197,2.0213 -3.10132,4.05009 -3.03016,3.961 -6.05248,7.92949 -12.04881,15.8118 -24.10545,31.61612 -1.4808,1.92922 -2.96422,3.85694 c -1.32997,1.72784 0.87817,4.27917 2.21598,2.54085 q 12.59268,-16.35531 25.06392,-32.83265 3.17576,-4.17061 6.35609,-8.33599 1.59832,-2.09167 3.19926,-4.18334 c 0.94606,-1.23599 2.18855,-2.48396 2.83493,-3.96774 1.24902,-2.86276 0.27684,-5.85803 -1.33454,-8.22519 a 15.118792,17.335269 0 0 0 -6.66622,-5.66938 c -1.87385,-0.76135 -4.27917,-0.85044 -5.73582,0.94477 -0.77174,0.95076 -1.49712,1.95692 -2.2447,2.93239 q -3.14703,4.10548 -6.29602,8.20872 -7.85843,10.24575 -15.69923,20.51245 c -4.10354,5.3819 -8.22667,10.75108 -12.24272,16.21832 q -0.42178,0.57345 -0.83964,1.15139 a 1.6113827,1.8476181 0 0 0 0,2.54085 1.5793901,1.8109352 0 0 0 2.21598,0 z"
       id="path7-8"
       style="fill:#211715;stroke-width:0.699135" /><path
       class="c"
       d="m -354.82843,326.85231 c 0.55759,0.39678 1.08318,0.85719 1.60747,1.30861 q 0.58762,0.50682 1.17524,1.02188 l 0.18542,0.16395 0.19588,0.17218 0.72865,0.64981 c 1.76285,1.57811 3.51461,3.17494 5.28269,4.74706 0.73714,0.6558 1.4697,1.32358 2.23491,1.93671 a 1.5793901,1.8109352 0 0 0 2.14351,-0.64457 1.5983245,1.8326455 0 0 0 -0.56216,-2.45775 c -0.24092,-0.1939 -0.47793,-0.39528 -0.71297,-0.59891 q -0.21351,-0.18416 -0.42636,-0.37057 l -0.23308,-0.20437 -0.17107,-0.14973 c 0.17433,0.15422 -0.13058,-0.11679 -0.18999,-0.16919 l -0.27292,-0.24405 c -0.20763,-0.18491 -0.41525,-0.37432 -0.62288,-0.55698 l -1.33781,-1.2038 c -1.82227,-1.64699 -3.64063,-3.29397 -5.48902,-4.89903 -0.63593,-0.55174 -1.27056,-1.12295 -1.94828,-1.60357 a 1.5673918,1.7971779 0 1 0 -1.582,3.10307 z"
       id="path8-8"
       style="fill:#211715;stroke-width:0.699135" /><path
       class="c"
       d="m -355.54859,324.48889 c -2.45363,7.18685 -4.22824,14.68437 -6.02179,22.11602 a 1.5852663,1.8176729 0 0 0 2.30216,2.02879 c 5.91929,-3.55525 11.75239,-7.3246 17.41247,-11.40688 1.70279,-1.2285 0.13058,-4.34205 -1.582,-3.10232 -5.65682,4.08153 -11.49122,7.85088 -17.41247,11.40687 l 2.30216,2.02879 c 1.79355,-7.43165 3.56816,-14.92693 6.0218,-22.11602 a 1.5793901,1.8109352 0 0 0 -1.09494,-2.20995 1.6028948,1.8378859 0 0 0 -1.92739,1.2547 z"
       id="path9-3"
       style="fill:#211715;stroke-width:0.699135" /><path
       class="c"
       d="m -427.57569,315.77259 c 6.8771,-3.9887 13.8097,-7.85088 20.76254,-11.66964 q 10.9467,-6.01524 21.98219,-11.81562 c 3.18947,-1.66645 6.38677,-3.31643 9.61019,-4.89379 a 1.5761255,1.8071921 0 0 0 0.56215,-2.4585 1.609424,1.8453722 0 0 0 -2.14416,-0.64457 c -6.32409,3.09483 -12.5646,6.421 -18.79271,9.75988 q -11.30972,6.0639 -22.52541,12.34566 -5.53276,3.09783 -11.03419,6.27351 c -1.80007,1.04434 -0.21546,4.14517 1.58201,3.10307 z"
       id="path10"
       style="fill:#211715;stroke-width:0.699135" /><path
       class="c"
       d="m -416.04987,342.83855 q 16.42331,-10.00993 33.43684,-18.6828 4.61086,-2.36567 9.26088,-4.62803 a 1.5767784,1.8079407 0 0 0 0.56216,-2.45775 1.609424,1.8453722 0 0 0 -2.14416,-0.64457 q -16.96326,8.24391 -33.4166,17.80017 -4.66439,2.69955 -9.28047,5.50991 c -1.78179,1.08551 -0.20044,4.18858 1.58135,3.10307 z"
       id="path11"
       style="fill:#211715;stroke-width:0.699135" /><path
       class="c"
       d="m -404.89686,369.25245 q 14.42345,-8.78891 29.3529,-16.43691 4.00038,-2.0505 8.03928,-4.00068 a 1.6198705,1.8573503 0 0 0 1.09493,-2.20995 1.5774314,1.8086893 0 0 0 -1.92804,-1.25471 c -10.13839,4.87134 -20.10377,10.22104 -29.91309,15.90913 q -4.13488,2.39562 -8.22667,4.89005 c -1.78179,1.08552 -0.19979,4.18859 1.582,3.10307 z"
       id="path12"
       style="fill:#211715;stroke-width:0.699135" /></g><path
     class="a"
     d="m 96.290543,181.40492 a 3.5196452,3.1095854 0 0 1 2.543583,-0.82266 3.264398,2.8840761 0 0 1 2.932624,1.43942 c 0.9968,1.52667 0.95484,4.34051 0.28586,6.08133 -0.47396,1.23311 -1.25007,3.11919 -3.120723,4.47137 a 3.8775836,3.4258219 0 0 1 -2.990396,0.7629 l -0.286846,-0.0436 a 22.792529,20.137062 0 0 1 -1.028879,2.46708 c -0.805251,1.931 -5.471279,8.98983 -11.233345,11.11057 v 2.23503 c 0,0 0,0.24558 0,0.58669 -2.737127,1.90831 -8.154079,5.67304 -8.680374,6.00237 h -1.600115 c -0.515922,-0.32277 -5.739355,-3.95274 -8.521397,-5.89202 v -0.56356 c 0,0 0,-1.33474 0,-2.25683 -2.814141,-0.98229 -5.294036,-2.74799 -7.640135,-5.23033 a 26.758981,23.641399 0 0 1 -5.077299,-8.46207 3.8015526,3.358649 0 0 1 -3.235266,-0.71577 c -1.871153,-1.35219 -2.647258,-3.23827 -3.120734,-4.47137 -0.668971,-1.74083 -0.710935,-4.55468 0.285365,-6.08134 a 3.2653854,2.8849483 0 0 1 2.933117,-1.43941 3.5196452,3.1095854 0 0 1 2.543596,0.82265 c 0,0 -4.959803,-19.01127 22.504194,-19.01127 27.464007,0 22.50717,19.01083 22.50717,19.01083 z"
     id="path1-70"
     style="fill:#ffffff;stroke-width:0.464059" /><path
     class="b"
     d="m 97.908923,159.00884 c 0.33769,0.35287 0.681803,0.73496 1.040241,1.14934 2.188596,2.5299 2.985946,5.5998 2.962246,8.8206 -0.0222,3.06509 0.0612,5.45235 -0.58948,8.1288 0,0 -0.51445,1.9755 -0.97952,3.76431 a 3.981756,3.5178575 0 0 0 -1.508284,-0.28963 3.5196452,3.1095854 0 0 0 -2.543583,0.82266 l -0.300665,-0.41308 -0.756371,-2.87273 c -0.322883,-1.227 -0.334232,-2.44265 -0.59244,-3.82451 -0.938047,-4.90711 -5.650004,-7.69042 -8.502638,-8.66268 l -4.68727,-0.95963 c -5.269349,-0.12602 -8.502639,0.95264 -13.259525,3.35865 -6.031634,3.04461 -9.249128,5.37603 -15.262484,7.9949 q -0.528271,2.16699 -0.849179,4.37017 l -0.803262,1.00891 a 3.5196452,3.1095854 0 0 0 -2.543582,-0.82266 4.4117758,3.8977775 0 0 0 -0.957795,0.11864 c -0.654658,-1.57943 -1.323642,-3.19203 -1.323642,-3.19203 -1.866214,-5.3398 -1.208098,-10.80001 0.658117,-13.86118 2.724777,-5.39739 9.074355,-11.99867 20.966309,-14.1434 a 28.456348,25.141014 0 0 1 10.838857,0.064 c 4.155554,0.87238 6.806765,2.08497 7.858354,4.07095 l 4.255277,1.77658 c 3.095059,0.43969 4.867465,1.48915 6.880319,3.59289 z"
     id="path2-3"
     style="fill:#c6c6c6;stroke-width:0.464059" /><path
     class="a"
     d="m 73.402237,246.12957 c -3.159736,-5.40873 -3.971395,-7.19275 -6.440423,-12.45317 -3.324133,-7.08196 -5.899319,-12.44708 -8.264671,-19.72094 a 3.6578836,3.2317182 0 0 1 0.815598,-1.73516 c 1.026916,-1.05078 2.320437,-2.57046 3.370544,-3.60816 0.444343,0.31929 9.538447,6.65319 10.227659,7.08459 h 1.601596 c 0.691189,-0.4314 9.781833,-6.7653 10.228152,-7.08459 1.049614,1.0377 2.343629,2.55738 3.37005,3.60816 a 3.6564022,3.2304095 0 0 1 0.813623,1.71116 199.97697,176.67845 0 0 1 -8.264671,19.64374 152.14653,134.42054 0 0 1 -6.967706,12.55437"
     id="path3-9"
     style="fill:#ffffff;stroke-width:0.464059" /><path
     class="c"
     d="m 52.114525,180.66471 a 5.0160745,4.4316719 0 0 0 -5.521628,-0.68307 4.8289592,4.2663566 0 0 0 -2.445835,2.92856 c -0.824491,2.88974 0.01481,6.21306 1.894852,8.66181 1.377944,1.79493 3.34981,3.07818 5.898826,2.77504 a 1.1918114,1.0529582 0 0 0 0.827455,-1.28763 1.2174842,1.0756401 0 0 0 -1.457426,-0.73149 c -1.734393,0.20632 -3.077769,-1.46647 -3.777849,-2.62978 a 10.78456,9.5280943 0 0 1 -1.289569,-3.73987 c -0.09183,-1.16419 0.0025,-2.7868 0.735622,-3.62952 -0.08246,0.0947 0.161448,-0.15267 0.18958,-0.1784 a 0.80869389,0.71447622 0 0 1 0.246859,-0.18059 2.3456072,2.07233 0 0 1 0.862022,-0.29835 2.496682,2.2058036 0 0 1 2.160458,0.47371 c 1.130097,0.89985 2.814141,-0.57621 1.675645,-1.48042 z"
     id="path4-8"
     style="fill:#211715;stroke-width:0.464059" /><path
     class="c"
     d="m 97.12836,182.14513 a 2.5179114,2.2245596 0 0 1 3.49151,0.21809 c -0.16835,-0.18276 0.0559,0.0873 0.0835,0.1247 a 3.3794319,2.9857079 0 0 1 0.18367,0.29181 5.2333061,4.6235946 0 0 1 0.32338,0.98011 9.3024483,8.2186575 0 0 1 0.1131,2.19665 10.768268,9.5137002 0 0 1 -1.24908,3.67182 c -0.698103,1.18251 -2.054323,2.90763 -3.817849,2.69782 a 1.2268646,1.0839276 0 0 0 -1.457907,0.73149 1.1932926,1.0542668 0 0 0 0.826467,1.29155 c 4.137757,0.49203 6.545079,-3.0725 7.616429,-6.0944 a 11.889973,10.50472 0 0 0 0.31449,-4.74356 5.4036353,4.7740794 0 0 0 -2.10023,-3.28144 4.969666,4.3906701 0 0 0 -6.004474,0.43618 c -1.135532,0.90379 0.543065,2.38072 1.675645,1.48042 z"
     id="path5-6"
     style="fill:#211715;stroke-width:0.464059" /><path
     class="c"
     d="m 94.936793,191.55762 a 28.029785,24.764145 0 0 1 -1.530499,4.10018 c -0.05383,0.12087 0.105131,-0.21025 0.04104,-0.0873 -0.02027,0.0393 -0.0385,0.0794 -0.05928,0.11863 -0.03902,0.074 -0.07702,0.14874 -0.116533,0.22289 -0.112099,0.2085 -0.230569,0.41439 -0.352015,0.61895 -0.27451,0.46107 -0.568754,0.91339 -0.874854,1.35873 a 28.076194,24.805149 0 0 1 -6.014851,6.33476 11.130156,9.8334258 0 0 1 -4.510509,2.07974 c -1.485571,0.30534 -0.856588,2.3227 0.629971,2.01913 3.4214,-0.69791 6.270095,-2.90415 8.505603,-5.1985 a 30.511163,26.956429 0 0 0 4.779583,-6.37924 c 0.076,-0.14961 0.14811,-0.30098 0.219701,-0.45277 0.03116,-0.0667 0.171809,-0.35811 0.03648,-0.0829 0.188605,-0.3834 0.373245,-0.76725 0.539633,-1.15895 a 22.303758,19.705237 0 0 0 0.990373,-2.93729 1.2135346,1.0721506 0 0 0 -0.827456,-1.28763 1.1957611,1.0564477 0 0 0 -1.457425,0.73106 z"
     id="path6-5"
     style="fill:#211715;stroke-width:0.464059" /><path
     class="c"
     d="m 50.28089,192.04267 a 28.237142,24.947347 0 0 0 3.96843,8.25443 c 2.038024,2.71177 4.717379,5.25039 7.96203,6.84815 a 15.780886,13.942319 0 0 0 5.356736,1.61737 1.2234087,1.0808743 0 0 0 1.457426,-0.73104 1.1932926,1.0542668 0 0 0 -0.827455,-1.28763 C 61.551258,205.87462 56.589985,200.8035 54.053318,195.58932 a 26.753056,23.636165 0 0 1 -1.487547,-4.10018 c -0.336702,-1.31335 -2.622077,-0.75766 -2.284881,0.55658 z"
     id="path7-7"
     style="fill:#211715;stroke-width:0.464059" /><path
     class="c"
     d="m 56.582589,182.63278 a 2.511987,2.2193253 0 0 1 2.014323,-2.15433 20.613302,18.211728 0 0 1 4.804765,-0.62856 16.829029,14.868346 0 0 1 5.025961,0.41657 c 1.26981,0.30534 1.579861,1.36571 1.678597,2.40426 0.213773,2.22719 -0.171809,4.67551 -2.536667,5.8999 -2.250821,1.16549 -5.282674,1.19165 -7.672219,0.33847 a 4.3619113,3.8537224 0 0 1 -2.592957,-2.32489 10.637435,9.3981102 0 0 1 -0.723779,-3.94924 c 0.08588,-1.34651 -2.283894,-1.34215 -2.369798,0 -0.180701,2.83522 0.855106,6.3906 3.873139,7.82347 a 11.49007,10.151408 0 0 0 10.189152,0.15355 7.1587677,6.3247284 0 0 0 3.516184,-3.27622 11.217542,9.9106315 0 0 0 0.706503,-4.43472 c -0.125399,-1.66886 -0.586538,-3.31286 -2.314509,-4.23931 a 7.1711105,6.3356331 0 0 0 -2.653186,-0.68526 22.957427,20.28275 0 0 0 -9.850474,0.56007 c -2.180698,0.62505 -3.286602,2.12729 -3.466809,4.10016 a 1.1952674,1.0560116 0 0 0 1.184892,1.04686 1.2085975,1.0677887 0 0 0 1.186882,-1.05078 z"
     id="path8-6"
     style="fill:#211715;stroke-width:0.464059" /><path
     class="c"
     d="m 93.671911,182.63278 c -0.14811,-1.59426 -0.899528,-3.10828 -2.630475,-3.80705 -1.783767,-0.72058 -3.946202,-0.92516 -5.883512,-1.04075 a 20.262769,17.902034 0 0 0 -6.220722,0.4362 4.6077778,4.070944 0 0 0 -3.395724,3.46681 c -0.526295,3.01669 -0.005,6.41198 2.956322,8.32597 2.768705,1.78837 6.886729,1.9973 10.035595,0.93999 a 6.7292418,5.9452447 0 0 0 4.040516,-3.19595 12.729276,11.246239 0 0 0 1.10047,-5.1261 c -0.08537,-1.33997 -2.455702,-1.34868 -2.369797,0 a 10.790979,9.5337647 0 0 1 -0.538633,3.48952 4.5825988,4.0486987 0 0 1 -2.005939,2.45269 9.0881789,8.0293516 0 0 1 -7.636183,0.35592 5.1098789,4.5145474 0 0 1 -2.705524,-2.10722 8.0286814,7.093292 0 0 1 -0.688224,-3.29758 c 0.01824,-1.03552 0.03154,-2.36719 1.098493,-3.01843 a 4.813654,4.2528346 0 0 1 1.937806,-0.47981 17.148952,15.150996 0 0 1 2.478426,-0.18625 22.730322,20.082103 0 0 1 5.460398,0.50991 c 0.702056,0.13958 1.503343,0.29573 1.996565,0.80083 a 2.8872052,2.5508286 0 0 1 0.602815,1.48304 1.2150156,1.0734591 0 0 0 1.184905,1.04685 1.1942799,1.0551392 0 0 0 1.182422,-1.04859 z"
     id="path9-2"
     style="fill:#211715;stroke-width:0.464059" /><path
     class="c"
     d="m 71.637722,183.46155 c 0.222172,-0.0489 0.444343,-0.0925 0.669959,-0.12827 0.09627,-0.0156 0.193039,-0.0288 0.289812,-0.0436 0.323376,-0.0458 -0.253268,0.0196 0.07258,-0.008 a 11.310359,9.9926349 0 0 1 1.266858,-0.0515 q 0.292774,0.005 0.585043,0.024 0.170339,0.0106 0.340172,0.0284 c 0.0494,0.004 0.09879,0.01 0.14811,0.0149 q -0.230569,-0.0284 -0.0247,0 a 12.293332,10.861085 0 0 1 1.242664,0.24384 1.1853143,1.047218 0 1 0 0.629971,-2.01913 11.378985,10.053265 0 0 0 -5.847982,-0.0803 1.1962548,1.0568839 0 0 0 -0.827455,1.28762 1.2090912,1.0682248 0 0 0 1.457426,0.73149 z"
     id="path10-7"
     style="fill:#211715;stroke-width:0.464059" /><path
     class="c"
     d="m 93.433944,182.97562 c 0.314993,-0.0636 0.625032,-0.14133 0.945457,-0.18058 l -0.314991,0.0376 c 0.03306,-0.004 0.06612,-0.008 0.09879,-0.0106 a 1.2189653,1.0769486 0 0 0 1.184894,-1.04685 l -0.04243,-0.27828 A 1.1848994,1.0468516 0 0 0 95.001051,181.035 l -0.239942,-0.16401 a 1.1770001,1.0398726 0 0 0 -0.597874,-0.14263 7.6238408,6.7356176 0 0 0 -0.852636,0.12036 c -0.169339,0.0344 -0.33769,0.0742 -0.507042,0.10821 a 1.3280749,1.1733462 0 0 0 -0.707972,0.47981 0.87731933,0.77510636 0 0 0 -0.140712,0.38907 0.9000299,0.79517103 0 0 0 0.02127,0.41744 l 0.119445,0.25038 a 1.1927989,1.0538306 0 0 0 0.42509,0.37555 l 0.282894,0.10559 a 1.1962548,1.0568839 0 0 0 0.62997,0 z"
     id="path11-0"
     style="fill:#211715;stroke-width:0.464059" /><path
     class="c"
     d="m 55.003703,180.95825 c -0.208834,-0.0436 -0.41521,-0.0903 -0.624043,-0.13089 a 8.7929416,7.7685112 0 0 0 -0.97606,-0.13957 1.3122761,1.1593882 0 0 0 -0.839298,0.30532 1.319188,1.1654947 0 0 0 -0.345607,0.74152 l 0.04244,0.27828 a 1.1848994,1.0468516 0 0 0 0.304606,0.46193 l 0.239955,0.16358 a 1.1848994,1.0468516 0 0 0 0.597874,0.14306 c 0.04053,0.004 0.08145,0.008 0.121979,0.0132 l -0.31498,-0.0376 c 0.394969,0.0484 0.776105,0.14436 1.163169,0.22244 a 0.89459912,0.79037297 0 0 0 0.472489,0.0184 0.88028157,0.77772349 0 0 0 0.440377,-0.12391 1.3201756,1.1663671 0 0 0 0.543079,-0.62594 l 0.04243,-0.27828 a 1.1774938,1.0403087 0 0 0 -0.161941,-0.52823 1.1952674,1.0560116 0 0 0 -0.707984,-0.47981 z"
     id="path12-3"
     style="fill:#211715;stroke-width:0.464059" /><path
     class="c"
     d="m 81.455605,164.20339 a 24.21194,21.391104 0 0 0 -6.359952,0.55091 27.490655,24.287829 0 0 0 -5.776378,2.00036 c -3.876105,1.73602 -7.504375,3.85023 -11.256549,5.78212 a 75.52105,66.722396 0 0 1 -6.727764,3.08254 1.1942799,1.0551392 0 0 0 -0.425076,1.43243 1.2130409,1.0717143 0 0 0 1.620837,0.37557 105.76955,93.446771 0 0 0 10.974149,-5.34592 c 3.56457,-1.91314 7.245659,-4.01032 11.269874,-5.07855 a 21.30943,18.826754 0 0 1 6.680859,-0.70575 c 1.52556,0.03 1.525065,-2.06362 0,-2.09371 z"
     id="path13"
     style="fill:#211715;stroke-width:0.464059" /><path
     class="c"
     d="m 51.583303,176.61382 c -0.278956,1.25404 -0.502103,2.51505 -0.688238,3.78219 a 1.1784813,1.0411812 0 0 0 0.345595,0.74151 1.1848994,1.0468516 0 0 0 1.675645,0 1.388801,1.2269973 0 0 0 0.345595,-0.74151 q 0.01976,-0.13523 0.04053,-0.27088 l -0.04244,0.27829 q 0.246846,-1.62392 0.605778,-3.23302 a 1.265374,1.1179503 0 0 0 -0.119445,-0.80652 1.1848994,1.0468516 0 0 0 -2.165891,0.24994 z"
     id="path14"
     style="fill:#211715;stroke-width:0.464059" /><path
     class="c"
     d="m 93.76819,177.1704 q 0.357931,1.60822 0.605778,3.23302 l -0.04244,-0.27829 q 0.02077,0.13522 0.04053,0.27088 a 1.2984524,1.1471749 0 0 0 0.345594,0.74151 1.1848994,1.0468516 0 0 0 1.675646,0 1.1355287,1.0032328 0 0 0 0.345594,-0.74151 c -0.186122,-1.26714 -0.409776,-2.5299 -0.688225,-3.78219 a 1.1923051,1.0533945 0 0 0 -1.457919,-0.73106 1.2150156,1.0734591 0 0 0 -0.827455,1.28764 z"
     id="path15"
     style="fill:#211715;stroke-width:0.464059" /><path
     class="c"
     d="m 85.825413,167.17994 c 0.118052,0.0393 0.23599,0.0794 0.353004,0.12088 q 0.113999,0.0414 -0.02127,-0.01 0.108172,0.0414 0.214774,0.0837 c 0.225122,0.0912 0.448282,0.1845 0.668476,0.28396 a 15.657953,13.833707 0 0 1 1.467307,0.75634 13.176576,11.641426 0 0 1 2.805236,2.19229 9.7754209,8.6365258 0 0 1 1.890913,3.03587 c 0.533199,1.54585 0.476921,3.18418 0.888672,4.75445 0.345595,1.31249 2.628994,0.75679 2.285376,-0.55657 -0.437426,-1.67148 -0.362391,-3.41492 -0.996794,-5.05194 a 12.801853,11.310359 0 0 0 -2.391027,-3.66135 15.897401,14.04526 0 0 0 -6.533243,-3.96627 1.1942799,1.0551392 0 0 0 -1.457426,0.73105 1.2100787,1.0690972 0 0 0 0.827455,1.28763 z"
     id="path16"
     style="fill:#211715;stroke-width:0.464059" /><path
     class="c"
     d="m 90.711636,156.4253 a 9.5937362,8.4760086 0 0 1 4.097782,1.37703 15.231884,13.457277 0 0 1 3.241193,3.03064 13.420468,11.856903 0 0 1 2.307099,4.62098 c 0.42853,1.77006 0.37028,3.5702 0.3604,5.36947 a 33.713846,29.78598 0 0 1 -0.53913,6.00588 c -0.312504,1.31424 1.97139,1.87561 2.28488,0.55657 a 33.991804,30.031554 0 0 0 0.61863,-5.882 37.126852,32.801351 0 0 0 -0.32288,-6.07827 15.433316,13.635242 0 0 0 -2.3071,-5.20286 19.097125,16.872195 0 0 0 -3.786746,-3.78611 11.355287,10.032328 0 0 0 -5.32465,-2.03046 1.2209402,1.0786933 0 0 0 -1.457426,0.73149 1.1942799,1.0551392 0 0 0 0.827455,1.28764 z"
     id="path17-9"
     style="fill:#211715;stroke-width:0.464059" /><path
     class="c"
     d="m 87.794314,153.11112 c -0.816093,-1.49263 -2.388063,-2.53599 -4.05531,-3.22124 a 22.742171,20.092572 0 0 0 -6.726775,-1.66711 31.126321,27.499919 0 0 0 -25.173682,7.60188 29.320339,25.904343 0 0 0 -5.727017,7.24726 c -2.478908,4.56908 -2.449774,9.91675 -0.80178,14.71525 0.441378,1.28589 2.729705,0.73759 2.284881,-0.55657 -1.335979,-3.89036 -1.664791,-8.47252 0.129845,-12.30356 a 26.554585,23.460816 0 0 1 4.806741,-6.71162 28.589157,25.258348 0 0 1 22.031732,-8.07254 22.751057,20.100423 0 0 1 7.128646,1.24183 c 1.711682,0.56355 3.291556,1.38272 4.056311,2.78158 a 1.1962548,1.0568839 0 0 0 1.621332,0.37555 1.2105723,1.0695334 0 0 0 0.425076,-1.43245 z"
     id="path18-9"
     style="fill:#211715;stroke-width:0.464059" /><path
     class="c"
     d="m 72.90852,188.94355 a 20.781656,18.360468 0 0 1 0.487788,1.97157 l -0.04244,-0.27829 a 1.3399238,1.1838147 0 0 1 0.0089,0.27218 l 0.04243,-0.27828 a 0.74895522,0.66169745 0 0 1 -0.03407,0.12259 l 0.119445,-0.25037 a 0.56035872,0.49507358 0 0 1 -0.0494,0.0789 l 0.18564,-0.21198 a 0.480378,0.42441108 0 0 1 -0.07309,0.0637 l 0.239942,-0.164 a 1.4421213,1.2741056 0 0 1 -0.176749,0.0829 l 0.282895,-0.10559 a 1.2836412,1.1340892 0 0 1 -0.29622,0.0767 l 0.314979,-0.0376 a 1.1755191,1.0385641 0 0 1 -0.279437,0 l 0.314992,0.0376 c -0.105639,-0.0132 -0.208846,-0.0358 -0.314497,-0.048 a 0.89459912,0.79037297 0 0 0 -0.472476,-0.0187 0.8758382,0.7737978 0 0 0 -0.44039,0.12431 1.1848994,1.0468516 0 0 0 -0.425077,1.432 1.1355287,1.0032328 0 0 0 0.707972,0.47981 c 0.243894,0.0293 0.479885,0.0837 0.727719,0.0933 a 2.3337584,2.0618614 0 0 0 1.077277,-0.22682 1.5620925,1.3800994 0 0 0 0.864973,-0.90726 2.56432,2.2655614 0 0 0 -0.01013,-0.97576 c -0.121474,-0.63552 -0.287836,-1.26495 -0.472476,-1.88782 a 1.1853073,1.0472118 0 1 0 -2.285376,0.55658 z"
     id="path19"
     style="fill:#211715;stroke-width:0.464059" /><path
     class="c"
     d="m 61.59421,183.34988 c -0.372738,1.06997 -0.129831,3.53312 2.164423,3.74118 3.032854,-0.016 3.19429,-2.99225 2.172314,-4.39154 -0.834853,-1.14543 -3.292543,-1.62219 -4.336737,0.65036 z"
     id="path20"
     style="fill:#211715;stroke-width:0.464059" /><path
     class="c"
     d="m 85.973029,183.34988 c 0.372751,1.0704 0.129845,3.53312 -2.164409,3.74118 -3.032854,-0.016 -3.194302,-2.99225 -2.172327,-4.39154 0.834371,-1.14543 3.292049,-1.62219 4.336736,0.65036 z"
     id="path21"
     style="fill:#211715;stroke-width:0.464059" /><path
     class="c"
     d="m 69.868762,198.3866 a 13.056606,11.535432 0 0 0 4.154554,0.51556 9.7843076,8.6443771 0 0 0 4.242433,-0.6835 1.1918114,1.0529582 0 0 0 0.425089,-1.43201 1.2150156,1.0734591 0 0 0 -1.621344,-0.37557 c -0.0064,0.003 -0.104626,0.0406 -0.104626,0.0436 l -0.03902,0.0149 q 0.310546,-0.1139 0.176256,-0.0663 c -0.09525,0.024 -0.187605,0.0624 -0.281907,0.0873 a 6.5055919,5.7476515 0 0 1 -0.695141,0.16007 c -0.163423,0.0296 -0.328316,0.0493 -0.493717,0.0763 -0.13429,0.0222 0.194521,-0.0174 -0.04091,0.004 -0.111086,0.0106 -0.221677,0.021 -0.333245,0.0293 -0.458656,0.035 -0.919781,0.048 -1.382389,0.0463 -0.450258,0 -0.900516,-0.017 -1.34881,-0.0524 q -0.135279,-0.0106 -0.271039,-0.024 c -0.122486,-0.0119 -0.210329,-0.024 -0.0361,0 -0.162423,-0.0206 -0.323871,-0.0436 -0.485307,-0.071 a 9.8391091,8.692794 0 0 1 -1.238231,-0.29136 1.1937862,1.054703 0 0 0 -1.457425,0.73105 1.2125472,1.0712782 0 0 0 0.827455,1.28762 z"
     id="path22"
     style="fill:#211715;stroke-width:0.464059" /><path
     class="c"
     d="m 80.851308,196.35569 c 0.197472,0.46455 0.394956,0.93039 0.551958,1.40802 a 1.231308,1.0878533 0 0 0 0.543079,0.62549 0.8758382,0.7737978 0 0 0 0.440391,0.12431 0.89459912,0.79037297 0 0 0 0.472474,-0.0187 1.197736,1.0581925 0 0 0 0.707984,-0.47981 1.2224213,1.0800019 0 0 0 0.119446,-0.80651 c -0.15552,-0.47763 -0.353004,-0.94347 -0.551957,-1.40802 a 0.88867462,0.78513871 0 0 0 -0.21181,-0.35593 0.89706765,0.79255389 0 0 0 -0.33275,-0.27001 0.88028157,0.77772349 0 0 0 -0.440391,-0.1239 0.89459912,0.79037297 0 0 0 -0.472475,0.0184 1.2002045,1.0603734 0 0 0 -0.708478,0.4798 1.1621889,1.026787 0 0 0 -0.11894,0.80695 z"
     id="path23"
     style="fill:#211715;stroke-width:0.464059" /><path
     class="c"
     d="m 128.19741,240.48442 c -0.20488,-3.56845 -0.44038,-7.13561 -0.67587,-10.70232 q -0.47841,-7.24813 -0.97952,-14.4954 -0.47841,-6.94107 -0.97311,-13.88168 -0.19107,-2.67777 -0.38805,-5.35509 c -0.11755,-1.5886 -0.18218,-3.19376 -0.45026,-4.76929 -0.90941,-5.34984 -5.02743,-9.96863 -10.98006,-11.51536 a 27.295148,24.115098 0 0 0 -2.7939,-0.56312 1.2184717,1.0765124 0 0 0 -1.45793,0.73149 1.1957611,1.0564477 0 0 0 0.82795,1.28763 17.526638,15.48468 0 0 1 4.69517,1.20824 13.394301,11.833785 0 0 1 3.0763,1.83198 13.741379,12.140426 0 0 1 4.07852,6.32473 35.053276,30.969359 0 0 1 0.59788,4.97255 q 0.18612,2.50722 0.36485,5.01617 0.48137,6.69854 0.94199,13.39839 0.49865,7.21281 0.97903,14.42736 c 0.24685,3.71283 0.4937,7.42566 0.71192,11.13981 q 0.0282,0.47282 0.0553,0.9461 c 0.077,1.34083 2.4473,1.34911 2.3698,0 z"
     id="path24"
     style="fill:#211715;stroke-width:0.464059" /><path
     class="d"
     d="m 73.402237,246.12957 c -2.517909,-4.31347 -3.546305,-6.32212 -5.112348,-9.62885 0.79437,-5.75768 1.545307,-10.91867 1.545307,-11.1228 a 7.0521268,6.2305117 0 0 0 -0.246858,-1.4089 c -0.05928,-0.20936 -0.113619,-0.41874 -0.162918,-0.63246 -0.261665,-1.04686 -0.311039,-1.58338 -0.617139,-2.69129 0,0 -0.005,-0.0218 -0.01381,-0.0628 1.465811,-1.74474 3.236748,-3.81403 4.316482,-4.8853 h 1.601597 c 1.073313,1.06648 2.828454,3.11526 4.289338,4.85434 l -0.141701,0.33542 a 16.11167,14.234565 0 0 0 -0.750429,2.15478 10.32788,9.1246202 0 0 0 -0.592453,2.49499 c -0.005,0.33717 0.795852,5.33284 1.743779,11.224 -1.604067,3.11045 -2.955335,5.42444 -5.369073,9.36931"
     id="path25"
     style="fill:#ad0101;fill-opacity:1;stroke-width:0.464059" /><path
     class="e"
     d="m 73.402237,246.12957 c -3.159736,-5.40873 -3.971395,-7.19275 -6.440423,-12.45317 -3.442629,-7.33407 -6.081503,-12.82699 -8.513012,-20.50609 -1.002228,0.22814 -4.684306,1.06735 -6.030646,1.39014 -10.254322,2.44701 -17.245219,6.33345 -20.760428,10.33767 -0.251786,0.28787 -0.488764,0.57575 -0.705996,0.868 -2.977058,3.96931 -5.238252,11.38887 -6.521881,16.01247 0,0 -3.184422,10.46851 -4.19159,14.40729 -0.9183,3.60728 -1.653922,7.51989 -0.222171,10.98759 0.03407,0.082 0.06865,0.16399 0.107666,0.24644 H 127.99899 c -1.15084,-6.17642 -2.01484,-13.65749 -3.29847,-21.33483 -1.07136,-6.39452 -3.84599,-13.88388 -6.61075,-17.6002 l -2.14713,-2.50023 c -3.14543,-4.37846 -10.44489,-8.75474 -21.624418,-11.42464 -1.048639,-0.25037 -3.505329,-0.81436 -5.016576,-1.15895 a 199.07051,175.87761 0 0 1 -8.442408,20.17414 152.14653,134.42054 0 0 1 -6.967706,12.55437"
     id="path26"
     style="fill:#645d5c;stroke-width:0.464059" /><path
     class="c"
     d="m 116.96704,225.45599 c -2.23797,-3.08733 -5.63814,-5.42486 -9.19334,-7.24073 -4.52533,-2.3118 -9.48364,-3.821 -14.520444,-4.98911 q -2.450775,-0.56704 -4.904008,-1.12537 c -1.477667,-0.33674 -2.108132,1.68238 -0.629971,2.01912 8.152599,1.85686 16.691283,3.70366 23.294133,8.59988 a 19.384956,17.126491 0 0 1 3.90721,3.79265 c 0.82005,1.13148 2.8719,0.0824 2.04642,-1.05687 z"
     id="path30"
     style="fill:#211715;stroke-width:0.464059" /><path
     class="c"
     d="m 112.02107,228.0404 a 153.93819,136.00347 0 0 1 -17.216592,1.89262 1.2130409,1.0717143 0 0 0 -1.184892,1.04686 1.1952674,1.0560116 0 0 0 1.184892,1.04685 159.69631,141.09074 0 0 0 17.846562,-1.96721 1.1957611,1.0564477 0 0 0 0.82746,-1.28807 1.2105723,1.0695334 0 0 0 -1.45743,-0.73105 z"
     id="path31"
     style="fill:#211715;stroke-width:0.464059" /><path
     class="c"
     d="m 117.06825,229.01311 a 32.198656,28.44732 0 0 1 3.0521,5.61112 67.531372,59.663564 0 0 1 2.50212,7.40778 c 0.70648,2.70001 1.13207,5.43971 1.55271,8.18375 0.43939,2.86491 0.83929,5.73459 1.25896,8.60207 0.43249,2.9661 0.87632,5.92912 1.42335,8.8795 a 1.1942799,1.0551392 0 0 0 1.45742,0.73105 1.2125472,1.0712782 0 0 0 0.82745,-1.28762 c -1.0195,-5.49991 -1.70574,-11.04429 -2.54258,-16.56687 -0.42459,-2.79903 -0.82401,-5.60633 -1.50631,-8.3674 a 68.679737,60.678136 0 0 0 -2.41522,-7.47845 36.408504,32.166695 0 0 0 -3.56359,-6.77138 c -0.82942,-1.12494 -2.88226,-0.0768 -2.04641,1.05645 z"
     id="path32"
     style="fill:#211715;stroke-width:0.464059" /><path
     class="c"
     d="m 74.915446,246.65778 a 202.28751,178.7198 0 0 0 12.54019,-24.91157 q 1.586283,-3.92569 2.942998,-7.92118 c 0.440377,-1.29287 -1.846467,-1.84551 -2.285376,-0.55657 a 192.78759,170.32669 0 0 1 -11.461937,25.93269 c -1.200688,2.16043 -2.486305,4.28293 -3.781308,6.40019 -0.724754,1.18557 1.320184,2.24376 2.046421,1.05644 z"
     id="path33"
     style="fill:#211715;stroke-width:0.464059" /><path
     class="c"
     d="M 6.9331721,268.4014 H 135.19087 c 1.46491,0 1.46776,-2.15449 0,-2.15449 H 6.9331721 c -1.464914,0 -1.4672874,2.15449 0,2.15449 z"
     id="path34"
     style="fill:#211715;stroke-width:0.461444" /><path
     class="c"
     d="m 70.18326,225.61215 c 2.369798,0 4.739596,-0.0436 7.109394,-0.0436 a 1.1849033,1.046855 0 1 0 0,-2.09371 c -2.369798,0 -4.739596,0.0436 -7.109394,0.0436 a 1.1849033,1.046855 0 0 0 0,2.09371 z"
     id="path35"
     style="fill:#211715;stroke-width:0.464059" /><path
     class="c"
     d="m 67.665834,220.92486 c 0.192557,0.71231 0.329305,1.43157 0.489271,2.14955 0.164411,0.73802 0.526295,1.5489 0.493704,2.30481 -0.02318,0.55963 -0.145146,1.12711 -0.222666,1.68195 -0.43051,3.08777 -0.871382,6.17424 -1.297954,9.26201 a 1.1913177,1.0525221 0 0 0 1.184905,1.04685 1.2140283,1.0725867 0 0 0 1.184893,-1.04685 c 0.431499,-3.12529 0.878311,-6.24883 1.313762,-9.37368 a 11.540921,10.196334 0 0 0 0.197485,-1.7731 19.585895,17.304021 0 0 0 -0.533706,-2.48628 c -0.179206,-0.77336 -0.319919,-1.55152 -0.528258,-2.32053 -0.354486,-1.30855 -2.640356,-0.75504 -2.284882,0.55659 z"
     id="path36"
     style="fill:#211715;stroke-width:0.464059" /><path
     class="c"
     d="m 80.392653,236.41566 c -0.488283,-3.03719 -0.983469,-6.07393 -1.449041,-9.11633 -0.03015,-0.19717 -0.106652,-0.70619 -0.157977,-1.06737 -0.02964,-0.21242 -0.07106,-0.42788 -0.08094,-0.64207 a 6.7484964,5.9622562 0 0 1 0.416691,-1.89609 20.889284,18.455557 0 0 1 0.761792,-2.2804 1.2209402,1.0786933 0 0 0 -0.425077,-1.43245 1.1937862,1.054703 0 0 0 -1.62085,0.37557 23.74736,20.980652 0 0 0 -0.938047,2.5927 9.491045,8.3852814 0 0 0 -0.568753,2.59968 20.192662,17.840095 0 0 0 0.246858,1.79884 c 0.487282,3.21033 1.010626,6.41632 1.526547,9.62275 a 1.1923051,1.0533945 0 0 0 1.457427,0.73148 1.2164968,1.0747677 0 0 0 0.827455,-1.28805 z"
     id="path37"
     style="fill:#211715;stroke-width:0.464059" /><path
     class="c"
     d="m 63.404641,207.6774 v 1.56372 a 1.2219276,1.0795657 0 0 0 0.345594,0.74154 1.1848994,1.0468516 0 0 0 1.67861,0 1.2298269,1.0865447 0 0 0 0.345594,-0.74154 v -1.56372 a 1.2214339,1.0791296 0 0 0 -0.345594,-0.74152 1.1848994,1.0468516 0 0 0 -1.67861,0 1.231308,1.0878533 0 0 0 -0.345594,0.74152 z"
     id="path38"
     style="fill:#211715;stroke-width:0.464059" /><path
     class="c"
     d="m 82.207516,207.58186 v 1.61391 h 2.369799 v -0.0899 a 1.222915,1.0804381 0 0 0 -0.345595,-0.74151 1.1848994,1.0468516 0 0 0 -1.678609,0 1.231308,1.0878533 0 0 0 -0.345595,0.74151 v 0.0899 a 1.2214339,1.0791296 0 0 0 0.345595,0.74151 1.1848994,1.0468516 0 0 0 1.678609,0 1.2303207,1.0869809 0 0 0 0.345595,-0.74151 v -1.61391 a 1.222915,1.0804381 0 0 0 -0.345595,-0.74151 1.1848994,1.0468516 0 0 0 -1.678609,0 1.231308,1.0878533 0 0 0 -0.345595,0.74151 z"
     id="path39"
     style="fill:#211715;stroke-width:0.464059" /><path
     class="c"
     d="m 57.536924,214.17834 a 157.39415,139.05679 0 0 0 5.44758,13.70112 c 1.895334,4.13898 3.783778,8.29498 5.851428,12.36985 1.100964,2.17004 2.310062,4.29514 3.543341,6.40847 0.699092,1.19822 2.745019,0.14046 2.046421,-1.05644 -2.062217,-3.53312 -3.933369,-7.11771 -5.657401,-10.78868 -2.087398,-4.44389 -4.223675,-8.87556 -6.081997,-13.3997 q -1.582825,-3.85154 -2.863502,-7.79119 c -0.420644,-1.29242 -2.70849,-0.74153 -2.284882,0.55657 z"
     id="path40"
     style="fill:#211715;stroke-width:0.464059" /><path
     class="c"
     d="m 21.267153,267.1438 c -1.343871,-2.97479 -0.915337,-6.28111 -0.212786,-9.33836 0.46309,-2.01518 1.045675,-4.00899 1.621332,-6.00106 0.938046,-3.23871 1.931383,-6.46301 2.88178,-9.69822 1.410521,-4.80242 2.726741,-9.7632 5.344879,-14.18964 2.455702,-4.15294 6.872415,-6.91619 11.522166,-8.96845 5.085191,-2.24594 10.574241,-3.45506 16.049459,-4.70255 l 0.543078,-0.12391 c 1.475692,-0.33542 0.850166,-2.35541 -0.629971,-2.01868 -5.113335,1.16245 -10.223212,2.28389 -15.072905,4.17171 -5.055575,1.96852 -10.195573,4.75838 -13.330127,8.88996 -1.695392,2.23458 -2.8092,4.83034 -3.794139,7.36067 -1.020012,2.62106 -1.858322,5.29576 -2.623572,7.98224 -0.888672,3.11962 -1.857322,6.22092 -2.767236,9.33443 -0.565296,1.93536 -1.132567,3.87161 -1.64009,5.81962 -0.82795,3.18112 -1.490511,6.47826 -0.888674,9.73659 a 12.458231,11.006772 0 0 0 0.709949,2.30046 1.2214339,1.0791296 0 0 0 1.457426,0.73105 1.1923051,1.0533945 0 0 0 0.827455,-1.28763 z"
     id="path41"
     style="fill:#211715;stroke-width:0.464059" /><path
     class="c"
     d="m 95.674392,223.63011 c -0.279931,0.66038 -0.582574,1.31336 -0.89213,1.96284 0.08639,-0.18145 -0.0385,0.0794 -0.06561,0.13566 q -0.06371,0.1309 -0.128362,0.26563 -0.156014,0.32236 -0.31498,0.64381 -0.328811,0.66738 -0.664044,1.33126 c -1.04024,2.06447 -2.114554,4.115 -3.20071,6.16072 q -3.33105,6.27544 -6.805765,12.49113 c -0.798321,1.43112 -1.596162,2.86312 -2.427063,4.2803 -0.700574,1.19472 1.343871,2.25465 2.046422,1.05646 1.826719,-3.11832 3.55222,-6.28723 5.282674,-9.44915 2.341652,-4.27988 4.658631,-8.57241 6.862535,-12.91117 0.90695,-1.78575 1.816852,-3.57674 2.593451,-5.41266 a 1.1942799,1.0551392 0 0 0 -0.827456,-1.28763 1.2105723,1.0695334 0 0 0 -1.457425,0.73105 z"
     id="path42"
     style="fill:#211715;stroke-width:0.464059" /><path
     class="c"
     d="m 50.084406,224.84358 a 60.607115,53.546024 0 0 0 3.052095,6.08352 c 1.112819,2.03961 2.245881,4.07356 3.441641,6.07697 0.71143,1.19211 2.757357,0.13523 2.045927,-1.05688 -1.170085,-1.96284 -2.280929,-3.95231 -3.371532,-5.94917 -0.619115,-1.13409 -1.22934,-2.26818 -1.813394,-3.41667 q -0.18958,-0.37118 -0.373727,-0.74413 c -0.0494,-0.0995 -0.0988,-0.19847 -0.148123,-0.29792 q -0.08436,-0.17447 -0.01634,-0.0332 c -0.02862,-0.0597 -0.05675,-0.11996 -0.08487,-0.18014 -0.159459,-0.34285 -0.315473,-0.68744 -0.448776,-1.03901 -0.482849,-1.27061 -2.772671,-0.72582 -2.285376,0.55657 z"
     id="path43"
     style="fill:#211715;stroke-width:0.464059" /><path
     class="c"
     d="m 106.18396,234.47331 c -0.50112,7.8562 -0.89262,15.7176 -1.46828,23.56986 a 1.1848994,1.0468516 0 0 0 2.36979,0 c 0.57566,-7.85138 0.96717,-15.71366 1.46828,-23.56986 0.0859,-1.34608 -2.28438,-1.34172 -2.36979,0 z"
     id="path44"
     style="fill:#211715;stroke-width:0.464059" /><path
     class="c"
     d="m 95.848177,238.55864 c -0.321402,7.82217 -0.568754,15.65175 -1.21205,23.45995 a 1.1952674,1.0560116 0 0 0 1.184905,1.04684 1.2081038,1.0673524 0 0 0 1.184892,-1.04684 c 0.641828,-7.80777 0.888674,-15.63778 1.21205,-23.45995 0.05536,-1.34737 -2.314495,-1.34563 -2.369797,0 z"
     id="path45"
     style="fill:#211715;stroke-width:0.464059" /><path
     class="c"
     d="m 36.471385,230.05952 a 159.71063,141.10338 0 0 0 17.846563,1.96721 1.1849033,1.046855 0 0 0 0,-2.09371 153.96682,136.02876 0 0 1 -17.216592,-1.89262 1.217978,1.0760762 0 0 0 -1.457427,0.73105 1.1957611,1.0564477 0 0 0 0.827456,1.28807 z"
     id="path46"
     style="fill:#211715;stroke-width:0.464059" /><path
     class="c"
     d="m 40.074955,234.47331 c 0.501115,7.8562 0.893119,15.7176 1.468788,23.56986 a 1.2130409,1.0717143 0 0 0 1.184906,1.04686 1.1952674,1.0560116 0 0 0 1.184892,-1.04686 c -0.575657,-7.85138 -0.967661,-15.71366 -1.468775,-23.56986 -0.08537,-1.33953 -2.455715,-1.34826 -2.369811,0 z"
     id="path47"
     style="fill:#211715;stroke-width:0.464059" /><path
     class="c"
     d="m 50.411229,238.55864 c 0.32092,7.82217 0.568259,15.65175 1.211569,23.45995 a 1.2140283,1.0725867 0 0 0 1.184892,1.04684 1.1942799,1.0551392 0 0 0 1.184905,-1.04684 c -0.641827,-7.80777 -0.888672,-15.63778 -1.211555,-23.45995 -0.05536,-1.34345 -2.425595,-1.34956 -2.369811,0 z"
     id="path48"
     style="fill:#211715;stroke-width:0.464059" /><path
     class="a"
     d="m 84.940692,208.61258 c 1.049614,1.0377 2.343629,2.55738 3.37005,3.60815 0.604791,0.61852 1.049614,1.75436 0.705502,2.57351 -0.394968,0.6979 -4.755885,6.87433 -7.692954,8.53663 -0.927685,-1.09046 -4.771693,-5.80608 -6.61075,-7.63328 0.689707,-0.43226 9.781833,-6.76616 10.228152,-7.08501 z"
     id="path49"
     style="fill:#ffffff;stroke-width:0.464059" /><path
     class="a"
     d="m 62.883285,208.61258 c -1.049626,1.0377 -2.343628,2.55738 -3.370544,3.60815 -0.604295,0.61852 -1.049132,1.75436 -0.705007,2.57351 0.394956,0.6979 4.755391,6.87433 7.69246,8.53663 0.928167,-1.09046 4.772187,-5.80608 6.61075,-7.63328 -0.6902,-0.43226 -9.781833,-6.76616 -10.227659,-7.08501 z"
     id="path50"
     style="fill:#ffffff;stroke-width:0.464059" /><path
     class="c"
     d="m 84.102863,209.35411 c 1.159231,1.1559 2.328327,2.3685 3.37005,3.60814 a 2.4601476,2.1735257 0 0 1 0.377692,0.67303 2.1584918,1.9070147 0 0 1 0.09867,0.42224 c 0.0038,0.0546 -0.0025,0.11126 0.0064,0.16489 0,0.004 -0.04395,0.25821 -0.0038,0.11125 0.02711,-0.0969 -0.06269,0.10202 -0.09626,0.15398 -0.07803,0.12034 -0.158979,0.23945 -0.240931,0.35854 a 48.599147,42.937056 0 0 1 -4.08001,5.1239 c -0.482356,0.5147 -0.982976,1.01763 -1.519138,1.48915 -0.230557,0.20283 -0.467535,0.40086 -0.714393,0.58797 -0.06168,0.0466 -0.281907,0.20502 -0.246859,0.1832 0.0114,-0.008 -0.239448,0.14788 -0.326341,0.19803 l 1.621344,0.37557 c -2.230085,-2.63023 -4.330314,-5.38039 -6.795896,-7.84573 l -0.239942,1.64443 c 3.11036,-1.96808 6.060273,-4.17214 9.063981,-6.2667 0.468042,-0.32672 0.938047,-0.65081 1.403619,-0.98187 a 1.1927989,1.0538306 0 0 0 0,-1.48042 1.2130409,1.0717143 0 0 0 -1.675646,0 c -2.857586,2.03701 -5.764041,4.02383 -8.65964,6.0194 q -0.268087,0.18537 -0.537151,0.36944 l -0.249822,0.171 c -0.211798,0.14525 0.134785,-0.0913 -0.0064,0.005 -0.177737,0.11995 -0.352991,0.24297 -0.534681,0.35768 a 1.2076101,1.0669162 0 0 0 -0.239942,1.644 c 2.332774,2.33229 4.316482,4.93415 6.425615,7.42217 a 1.2085975,1.0677887 0 0 0 1.621331,0.37556 c 2.415714,-1.3958 4.206397,-3.70105 5.831186,-5.76118 0.670454,-0.85012 1.32116,-1.71508 1.928419,-2.60185 a 4.9074588,4.3357104 0 0 0 0.477416,-0.79953 4.0869159,3.6107658 0 0 0 -0.29622,-2.62018 c -0.438909,-0.85624 -1.276231,-1.55763 -1.937806,-2.2839 -0.704513,-0.77335 -1.40016,-1.55326 -2.14565,-2.29608 -1.018518,-1.01327 -2.688248,0.47196 -1.679103,1.47911 z"
     id="path51"
     style="fill:#211715;stroke-width:0.464059" /><path
     class="c"
     d="m 62.045469,207.87107 c -0.654658,0.65427 -1.270316,1.33343 -1.887937,2.01256 -0.617633,0.67915 -1.313762,1.31774 -1.862768,2.03177 a 3.999036,3.5331242 0 0 0 -0.29622,3.73988 50.644085,44.743745 0 0 0 4.518906,5.68746 15.619937,13.800121 0 0 0 3.386834,2.89105 1.214522,1.0730229 0 0 0 1.621343,-0.37555 c 2.109121,-2.48628 4.092348,-5.08988 6.425121,-7.42219 a 1.2071163,1.0664801 0 0 0 -0.239941,-1.64398 c -0.140219,-0.0873 -0.27698,-0.1832 -0.414222,-0.27611 l -0.171316,-0.11652 c -0.163917,-0.11126 0.190074,0.13089 0.01482,0.0106 l -0.496668,-0.34066 q -1.188363,-0.81698 -2.372762,-1.63963 -2.593451,-1.79709 -5.180974,-3.60203 c -0.455692,-0.31799 -0.914347,-0.63379 -1.366581,-0.95614 a 1.2209402,1.0786933 0 0 0 -1.675646,0 1.1932926,1.0542668 0 0 0 0,1.48043 c 2.895105,2.06361 5.838596,4.07705 8.773195,6.0966 0.561344,0.38646 1.115278,0.78514 1.694405,1.15197 l -0.239942,-1.64444 c -2.466077,2.46535 -4.566305,5.21551 -6.795897,7.84573 l 1.621344,-0.37557 c -0.105639,-0.0606 -0.208846,-0.12337 -0.310546,-0.18886 -0.101712,-0.0654 -0.0064,0 0.0128,0.0106 -0.04687,-0.0319 -0.09335,-0.0654 -0.138243,-0.099 -0.226617,-0.16923 -0.447788,-0.34284 -0.661574,-0.52342 -0.463583,-0.39257 -0.899034,-0.81436 -1.319183,-1.24487 -0.871396,-0.89376 -1.6712,-1.83854 -2.438425,-2.80339 -0.641815,-0.80913 -1.264882,-1.63265 -1.85437,-2.47275 -0.164894,-0.23555 -0.328318,-0.47195 -0.482343,-0.71316 a 0.9415014,0.83181084 0 0 1 -0.06321,-0.10256 c 0.076,0.17447 0.02672,0 0.02964,-0.078 a 2.4315125,2.1482267 0 0 1 0.209327,-0.84358 c 0.370294,-0.71448 1.135531,-1.32295 1.686019,-1.93014 0.641814,-0.70269 1.275243,-1.40844 1.952612,-2.08367 1.006675,-1.0054 -0.663537,-2.49151 -1.677621,-1.48172 z"
     id="path52"
     style="fill:#211715;stroke-width:0.464059" /><path
     class="c"
     d="m 22.622385,238.55864 q 0.29622,-5.17275 0.60973,-10.3442 0.412739,-6.87913 0.839298,-13.75781 0.408787,-6.59777 0.839299,-13.19382 0.167869,-2.56042 0.345606,-5.12041 c 0.09867,-1.42808 0.128857,-2.88843 0.36386,-4.30517 a 14.398504,12.720992 0 0 1 3.282663,-6.62222 13.04525,11.5254 0 0 1 6.229613,-3.47684 c 0.857564,-0.21375 1.727971,-0.37383 2.606776,-0.51515 a 1.1952674,1.0560116 0 0 0 0.827455,-1.28763 1.211066,1.0699696 0 0 0 -1.457425,-0.73148 c -3.011625,0.48547 -5.731957,1.36526 -8.136804,3.06422 a 15.484168,13.680169 0 0 0 -4.804765,6.06911 c -0.817094,1.99513 -1.01359,4.08318 -1.166145,6.18167 q -0.170327,2.34582 -0.323378,4.69207 -0.436933,6.4665 -0.833876,12.93473 -0.44433,7.10027 -0.869914,14.20098 -0.337196,5.60283 -0.664031,11.20567 -0.02863,0.50293 -0.05776,1.00628 c -0.07752,1.34652 2.292786,1.34304 2.369811,0 z"
     id="path53"
     style="fill:#211715;stroke-width:0.464059" /><path
     class="f"
     d="m 59.880553,252.13936 c -3.234277,0.95177 -6.368831,1.86166 -8.941547,2.57351 0.328317,0.58231 0.634911,1.15852 0.997782,1.8163 0.309064,0.55962 0.687743,1.21303 1.014578,1.85684 2.66256,-0.73628 6.002996,-1.71072 9.380456,-2.70436 -0.261666,-0.81392 -0.549006,-1.67103 -0.86054,-2.5565 q -0.235002,-0.66606 -0.474451,-1.31555 z"
     id="path54"
     style="fill:#adab6b;fill-opacity:1;stroke-width:0.464059" /><path
     class="a"
     d="m 43.812829,265.33928 a 4.0508753,3.578924 0 0 1 -0.763767,-0.50683 v 0.78513 c 0,0.63116 -0.747479,1.45207 -1.466319,1.90135 -0.684272,0.42788 -2.479895,0.3568 -3.538894,-0.20457 l -0.118053,0.36377 a 3.2994514,2.9150456 0 0 1 -1.092579,1.56243 c -1.718597,1.05514 -3.888935,-0.021 -5.179973,-1.09832 l -2.042482,0.63072 a 2.4142328,2.1329601 0 0 1 -1.813381,-0.0833 c -2.055807,-0.84402 -3.14147,-2.03438 -3.132578,-4.31128 a 8.9430288,7.9011124 0 0 1 1.24858,-4.42338 4.9217764,4.3483599 0 0 1 1.23428,-1.29548 c 0.523331,-0.32061 0.871889,-0.54132 1.357196,-0.82309 a 14.039578,12.403882 0 0 0 3.709235,-3.03455 12.681881,11.204365 0 0 1 7.304407,-4.3257 c 2.673922,-0.46714 4.591485,-0.45232 6.275035,-0.13346 1.579861,0.3001 3.57839,1.78138 4.364869,3.04023 0.693658,1.11054 1.152808,2.00646 1.782285,3.14623 0.586524,1.06255 1.423365,2.46096 1.682067,3.49604 a 1.9886564,1.7569659 0 0 1 -1.250568,2.07668 2.8072244,2.480166 0 0 1 -2.361401,-0.16181 8.4424087,7.4588176 0 0 1 -2.630968,-2.15302 c -0.599863,-0.6979 -1.582826,-1.74476 -2.389051,-2.60057 a 1.9649584,1.7360289 0 0 0 -1.513717,-0.60716 c 0.0494,0.0636 0.07802,0.10558 0.07802,0.10558 l 3.89437,5.34287 c 0.39151,0.55744 1.001734,2.28171 -0.322402,3.21296 a 2.8570889,2.5242209 0 0 1 -3.314253,0.0986 z"
     id="path55"
     style="fill:#ffffff;stroke-width:0.464059" /><path
     class="c"
     d="m 52.04738,255.50281 c 4.916838,-1.37747 9.803569,-2.83784 14.692263,-4.29079 1.438173,-0.42746 0.821527,-2.45006 -0.629971,-2.0191 -4.887705,1.45293 -9.775424,2.91373 -14.692263,4.29077 -1.448535,0.40567 -0.829925,2.42783 0.629971,2.01912 z"
     id="path56"
     style="fill:#211715;stroke-width:0.464059" /><path
     class="c"
     d="m 53.988149,259.19514 c 4.443376,-1.24401 8.85416,-2.56303 13.269391,-3.87509 1.438173,-0.42747 0.821527,-2.45007 -0.629971,-2.01868 -4.415231,1.31205 -8.828485,2.63065 -13.269391,3.87509 -1.448535,0.40566 -0.829431,2.42739 0.629971,2.01868 z"
     id="path57"
     style="fill:#211715;stroke-width:0.464059" /><path
     class="f"
     d="m 74.383729,249.5785 c -1.239207,-3.5209 -2.292291,-6.94673 -2.528282,-8.37132 -0.205881,-1.24488 -1.012602,-1.78619 -2.287845,-1.80189 -1.925455,-0.023 -2.669475,0.10295 -5.117286,0.6774 a 17.205729,15.201158 0 0 0 -5.067913,2.05489 c -0.981,0.6656 -1.772899,1.73341 -1.279196,2.73532 0.775117,1.57465 2.146639,4.78149 3.368569,8.25312 1.283641,3.64348 2.15059,6.80019 2.522354,8.48517 0.236978,1.07259 1.574439,1.55545 2.809695,1.61391 a 17.203753,15.199412 0 0 0 5.493001,-0.84666 c 2.3851,-0.75328 3.079746,-1.02329 4.64974,-2.00645 1.040734,-0.65168 1.357208,-1.50181 0.728225,-2.63023 -0.720322,-1.29286 -2.037541,-4.60178 -3.291062,-8.16326 z"
     id="path58"
     style="fill:#adab6b;fill-opacity:1;stroke-width:0.464059" /><path
     class="c"
     d="m 39.829592,251.48595 c 1.881514,-0.3219 3.993599,-0.5544 5.870186,-0.0833 1.959035,0.49202 3.197253,2.05356 4.062227,3.56453 0.526789,0.91991 1.019999,1.85423 1.535934,2.77894 0.444329,0.79343 1.025433,1.66973 1.178482,2.55738 0.129845,0.75418 -0.773153,1.01283 -1.465824,0.86235 -1.010131,-0.2181 -1.807466,-1.04293 -2.440895,-1.7212 -0.795358,-0.85145 -1.553704,-1.72993 -2.352027,-2.58005 a 3.6099937,3.1894078 0 0 0 -2.876345,-1.33561 c -1.525547,-0.0388 -1.524571,2.05487 0,2.09369 a 2.3125288,2.0431054 0 0 1 0.234027,0.01 c 0.188098,0.0218 -0.259703,-0.0947 0.116532,0.021 a 0.91484114,0.80825667 0 0 1 0.388547,0.21069 18.469126,16.317363 0 0 1 1.338449,1.42371 29.648653,26.194407 0 0 0 2.374738,2.50328 c 1.009626,0.8497 2.320423,1.57508 3.764525,1.51184 a 3.406586,3.0096984 0 0 0 3.159734,-1.99601 c 0.41569,-1.15154 -0.190087,-2.34014 -0.710454,-3.38001 -0.536657,-1.07216 -1.151327,-2.11639 -1.727971,-3.17153 a 14.99441,13.247471 0 0 0 -2.018782,-3.01537 9.2575211,8.1789644 0 0 0 -2.870912,-1.98247 c -2.486799,-1.06431 -5.57545,-0.73629 -8.189623,-0.28964 a 1.1962548,1.0568839 0 0 0 -0.827456,1.28762 1.2095849,1.0686611 0 0 0 1.457427,0.73151 z"
     id="path59"
     style="fill:#211715;stroke-width:0.464059" /><path
     class="c"
     d="m 39.199621,249.46685 a 14.443925,12.761121 0 0 0 -6.593472,3.30063 c -0.947434,0.85537 -1.659357,1.87778 -2.634922,2.71222 a 24.302783,21.471362 0 0 1 -3.148867,2.10591 c -2.369811,1.45687 -3.285133,4.06178 -3.338954,6.51359 -0.04636,2.11683 0.784503,3.95973 2.876346,5.09818 1.143917,0.62244 2.37375,0.93518 3.6875,0.54654 0.641827,-0.18974 1.280677,-0.39519 1.921021,-0.59279 l -1.152807,-0.26955 c 1.214519,0.99102 2.81414,1.87953 4.529774,1.83504 1.925455,-0.05 3.178,-1.20737 3.723548,-2.76108 0.452727,-1.2898 -1.83413,-1.84158 -2.285376,-0.55657 -0.269569,0.76813 -0.750442,1.30857 -1.732923,1.22133 a 4.7346608,4.1830444 0 0 1 -2.559378,-1.22133 1.1848994,1.0468516 0 0 0 -1.152808,-0.26912 l -1.512716,0.46715 c -0.648742,0.20022 -1.135531,0.33282 -1.794635,0.027 a 4.1120948,3.6330111 0 0 1 -1.662321,-1.23834 4.6620859,4.1189249 0 0 1 -0.517402,-2.19665 8.4547515,7.4697224 0 0 1 0.583066,-2.86664 7.6485261,6.757427 0 0 1 0.809684,-1.26493 4.7010888,4.1533838 0 0 1 1.270316,-0.97227 25.091235,22.167956 0 0 0 2.912877,-1.94322 32.709151,28.898338 0 0 0 2.344122,-2.40688 12.014388,10.614639 0 0 1 6.059286,-3.25267 c 1.469763,-0.35374 0.84572,-2.37415 -0.629971,-2.0191 z"
     id="path60"
     style="fill:#211715;stroke-width:0.464059" /><path
     class="c"
     d="m 37.614326,260.91504 c 0.753394,0.79735 1.530487,1.57725 2.307098,2.35541 q 0.5875,0.58973 1.171568,1.1812 a 12.821107,11.32737 0 0 0 1.318194,1.27889 4.6512243,4.1093288 0 0 0 3.394245,1.05514 3.6292485,3.2064192 0 0 0 3.071853,-1.96284 4.5569259,4.0260168 0 0 0 -0.573694,-3.55362 l -1.988154,-2.72749 -1.739827,-2.38464 a 1.2105723,1.0695334 0 0 0 -1.620849,-0.37555 1.197736,1.0581925 0 0 0 -0.425078,1.43244 l 3.285628,4.508 c 0.186122,0.25518 0.37669,0.50816 0.55838,0.76595 0.03952,0.0559 0.07549,0.11336 0.115012,0.16924 0.03952,0.0559 0.127375,0.26171 0.01431,0.004 0.02166,0.0497 0.04548,0.0994 0.06422,0.15049 0.06472,0.17448 0.112605,0.34546 0.158977,0.52342 0.0741,0.28484 0.0114,-0.18931 0.01431,0.11034 0,0.0672 0.0076,0.13347 0.0076,0.20063 0,0.0192 -0.02862,0.34897 0.0064,0.12734 a 1.9827318,1.7517317 0 0 1 -0.0494,0.20108 c -0.06814,0.22944 -0.0038,0.11903 -0.168846,0.32321 0.109566,-0.13609 -0.151567,0.1309 -0.148109,0.12695 0.0494,-0.0358 -0.260678,0.14787 -0.246858,0.14045 a 1.4811244,1.3085645 0 0 1 -0.518392,0.14787 c 0.120459,-0.0136 -0.450752,-0.0132 -0.325847,0 a 2.3638745,2.0884688 0 0 1 -1.234266,-0.4737 10.142246,8.9606136 0 0 1 -1.127627,-1.09046 q -0.616647,-0.62944 -1.241184,-1.25361 c -0.811166,-0.81307 -1.622332,-1.62655 -2.40881,-2.4588 a 1.1947736,1.0555753 0 0 0 -1.675646,0 1.2105723,1.0695334 0 0 0 0,1.48086 z"
     id="path61"
     style="fill:#211715;stroke-width:0.464059" /><path
     class="c"
     d="m 32.404713,264.31817 c 1.010626,0.84229 2.080481,1.62393 3.123191,2.43438 0.996313,0.77423 1.812406,1.59993 3.140976,1.90875 a 4.8338962,4.2707183 0 0 0 3.337965,-0.15092 4.2750187,3.7769534 0 0 0 2.227109,-2.89367 1.1848994,1.0468516 0 1 0 -2.369797,0 c 0.01139,-0.18014 -0.03065,0.0973 -0.0494,0.14045 0.04104,-0.0913 -0.0494,0.0703 -0.05383,0.078 a 2.5312415,2.2363368 0 0 1 -0.403354,0.47239 c -0.120966,0.11126 -0.317461,0.25343 -0.404848,0.3254 -0.102219,0.0833 -0.115519,0.0524 0.02179,0.01 a 2.4981631,2.2071122 0 0 1 -0.272533,0.071 c -0.06663,0.014 -0.134291,0.0253 -0.20193,0.034 0.264136,-0.034 -0.09867,-0.003 -0.126413,0 a 4.6408563,4.1001689 0 0 1 -0.59738,-0.017 c -0.202917,-0.0166 0.0064,0.005 -0.113619,-0.0149 -0.101712,-0.017 -0.203412,-0.035 -0.303629,-0.0572 -0.119446,-0.0262 -0.236484,-0.058 -0.353498,-0.0913 -0.187605,-0.0528 -0.0025,0.01 -0.103739,-0.0314 A 2.6966337,2.3824598 0 0 1 38.648,266.41844 c -0.02558,-0.0136 -0.25475,-0.16314 -0.14811,-0.0829 0.106652,0.0803 -0.08892,-0.0873 -0.10868,-0.10428 -0.113618,-0.0973 -0.230062,-0.19149 -0.345594,-0.28657 -0.435945,-0.35636 -0.880768,-0.70314 -1.330546,-1.04686 -0.888672,-0.67697 -1.780802,-1.34737 -2.634427,-2.0588 -1.109362,-0.92384 -2.788465,0.55396 -1.675645,1.48304 z"
     id="path62"
     style="fill:#211715;stroke-width:0.464059" /><path
     class="c"
     d="m 75.526658,249.30021 c -0.881263,-2.50938 -1.770923,-5.0432 -2.373256,-7.61845 -0.220195,-0.9413 -0.341642,-1.89088 -1.202664,-2.57657 -0.959276,-0.76377 -2.244399,-0.78078 -3.463859,-0.73847 a 20.192662,17.840095 0 0 0 -7.549783,1.77224 8.7386338,7.7205306 0 0 0 -3.230832,1.99425 3.9590455,3.497793 0 0 0 -0.909409,1.80451 3.0298868,2.6768868 0 0 0 0.09867,1.0547 6.481894,5.7267146 0 0 0 0.311533,0.6678 104.1576,92.022617 0 0 1 5.282674,14.73793 c 0.242906,0.93345 0.322883,1.96285 1.081723,2.70437 0.9183,0.89593 2.382136,1.19385 3.702801,1.17552 2.708983,-0.0375 5.407097,-0.79735 7.864776,-1.75479 a 9.8065244,8.6640056 0 0 0 3.162204,-1.80538 c 1.153303,-1.09788 0.973589,-2.39903 0.313497,-3.66397 -1.226856,-2.34669 -2.176265,-5.17538 -3.085673,-7.75369 -0.452727,-1.28239 -2.741066,-0.73497 -2.285375,0.55658 0.811166,2.29916 1.647994,4.60091 2.649235,6.8425 0.171328,0.38339 0.349052,0.76506 0.537163,1.14237 a 3.1755305,2.8055622 0 0 1 0.3841,0.93736 c 0.03407,0.58712 -1.057517,1.06866 -1.637138,1.37444 a 18.16056,16.044746 0 0 1 -6.113588,1.86862 c -0.987409,0.15092 -2.146639,0.31449 -3.113818,0.003 A 1.2342703,1.0904704 0 0 1 65.175015,261.489 7.2456604,6.4014975 0 0 1 64.937049,260.47268 108.4183,95.786922 0 0 0 60.324334,246.9635 q -0.272533,-0.63465 -0.557404,-1.26495 a 14.239035,12.580103 0 0 1 -0.59244,-1.25971 c -0.24093,-0.77205 0.829925,-1.44858 1.473715,-1.79753 a 19.053677,16.833811 0 0 1 6.586062,-2.06928 c 0.763768,-0.12127 2.117518,-0.28482 2.88672,-0.0436 a 0.85214022,0.75286078 0 0 1 0.488765,0.52343 13.182007,11.646225 0 0 1 0.260677,1.1873 c 0.601826,2.57351 1.491499,5.10907 2.372762,7.61846 0.448295,1.28327 2.736622,0.73455 2.2834,-0.55744 z"
     id="path63"
     style="fill:#211715;stroke-width:0.464059" /><path
     class="c"
     d="m 75.827324,255.76758 c -4.394002,0.55396 -8.442409,1.92969 -12.571287,3.30543 a 1.2189653,1.0769486 0 0 0 -0.827949,1.28806 1.1947736,1.0555753 0 0 0 1.45792,0.73106 c 4.127409,-1.37618 8.177779,-2.75147 12.571287,-3.30544 a 1.1923051,1.0533945 0 0 0 0.827455,-1.28762 1.2155094,1.0738953 0 0 0 -1.457426,-0.73149 z"
     id="path64"
     style="fill:#211715;stroke-width:0.464059" /><path
     class="c"
     d="m 60.078037,247.32122 c 3.876598,-1.70112 8.015356,-2.55868 12.194597,-3.4703 1.481125,-0.32278 0.85313,-2.34233 -0.629972,-2.01868 -4.388086,0.95744 -8.689267,1.89349 -12.759397,3.68098 -1.365594,0.59976 -0.166376,2.40646 1.196254,1.808 z"
     id="path65"
     style="fill:#211715;stroke-width:0.464059" /></svg>
