<?xml version="1.0" encoding="UTF-8"?>
<svg id="Layer_1" data-name="Layer 1" xmlns="http://www.w3.org/2000/svg" width="50mm" height="50mm" viewBox="0 0 141.7323 141.7323">
  <defs>
    <style>
      .cls-1 {
        fill: #fff;
        fill-rule: evenodd;
      }

      .cls-2 {
        fill: #b50938;
      }
    </style>
  </defs>
  <rect class="cls-2" width="141.7323" height="141.7323"/>
  <path class="cls-1" d="M29.1325,29.6775c13.8274-13.8274,36.2501-13.8274,50.0774,0,13.0799,12.7062,13.8273,32.8867,2.9896,47.0878l7.8479,7.4742c2.2423-1.4949,5.232-1.4949,7.1005.7474l24.2912,24.2913c5.9794,5.6057-7.1006,18.6856-12.7062,12.7062l-24.2912-24.2913c-2.2423-1.8686-2.2423-4.8583-.7474-7.1005l-7.4742-7.848c-14.2011,10.8377-34.3815,10.0903-47.0877-2.9897-13.8273-13.8274-13.8273-36.2501,0-50.0775ZM33.9907,34.5357c11.2114-11.5851,29.5233-11.5851,40.7346,0,11.2113,11.2114,11.2113,29.5233,0,40.7347-11.2114,11.2114-29.5233,11.2114-40.7346,0-11.5851-11.2114-11.585-29.5233,0-40.7347Z"/>
</svg>