<?xml version="1.0" encoding="UTF-8"?>
<svg id="Layer_1" data-name="Layer 1" xmlns="http://www.w3.org/2000/svg" width="50mm" height="75mm" viewBox="0 0 141.7323 212.5984">
  <defs>
    <style>
      .cls-1 {
        fill-rule: evenodd;
      }

      .cls-1, .cls-2 {
        fill: #fff;
      }

      .cls-3 {
        fill: #b50938;
      }
    </style>
  </defs>
  <rect class="cls-3" x="0" y="146.6043" width="141.7323" height="65.9941"/>
  <g>
    <path class="cls-2" d="M11.8319,160.8184v2.334h2.9238v1.4346h-2.9238v3.8096h-1.7432v-9.0537h4.8418v1.4756h-3.0986Z"/>
    <path class="cls-2" d="M18.6883,168.5303c-1.8906,0-3.1113-.9785-3.1113-3.3525,0-2.0791,1.3818-3.5811,3.4072-3.5811,1.8916,0,3.1113,1.0459,3.1113,3.3398,0,2.0918-1.4082,3.5938-3.4072,3.5938ZM18.8631,163.0449c-.7646,0-1.5156.5898-1.5156,1.958s.4971,2.0654,1.4893,2.0654c.8447,0,1.4883-.6836,1.4883-2.0381,0-1.2881-.4561-1.9854-1.4619-1.9854Z"/>
    <path class="cls-2" d="M27.0477,163.2725c-1.2334-.2539-1.8506.5508-1.8506,2.4014v2.7227h-1.7158v-6.666h1.6221c0,.335-.04.8721-.1201,1.3408h.0264c.3213-.8447.9658-1.582,2.1191-1.4883l-.0811,1.6895Z"/>
    <path class="cls-2" d="M29.3973,168.5303c-.4824,0-.9648-.0537-1.3945-.1201l.04-1.4082c.416.1074.9258.2012,1.4346.2012.6582,0,1.0869-.2686,1.0869-.7109,0-1.1807-2.6963-.5098-2.6963-2.7764,0-1.167.9531-2.1328,2.8301-2.1328.3896,0,.8184.0537,1.2207.1211l-.0527,1.3545c-.376-.1074-.8184-.1748-1.2344-.1748-.6709,0-.9922.2686-.9922.6846,0,1.0859,2.7363.6035,2.7363,2.7627,0,1.3145-1.1543,2.1992-2.9785,2.1992Z"/>
    <path class="cls-2" d="M36.3749,168.5176c-1.8506,0-3.0049-.9658-3.0049-3.2324,0-2.0791,1.0869-3.6758,3.4473-3.6758.4561,0,.9395.0674,1.3682.1885l-.1748,1.4883c-.3613-.1338-.7773-.2412-1.207-.2412-1.0859,0-1.6357.8047-1.6357,2.0654,0,1.1396.4424,1.918,1.583,1.918.4551,0,.9512-.0938,1.3145-.2812l.1338,1.4619c-.4561.1738-1.1133.3086-1.8242.3086Z"/>
    <path class="cls-2" d="M43.6336,168.3965v-4.2656c0-.6973-.1875-1.1123-.8184-1.1123-.8711,0-1.5557.9922-1.5557,2.1592v3.2188h-1.7168v-9.791h1.7168v2.8564c0,.4023-.0264.9658-.1201,1.3545l.0264.0137c.3896-.751,1.1533-1.2471,2.1865-1.2471,1.502,0,1.9844.9658,1.9844,2.1328v4.6807h-1.7031Z"/>
    <path class="cls-2" d="M51.3905,168.3965c0-.3086.0127-.832.0801-1.1807l-.0127-.0127c-.4023.791-1.168,1.3408-2.2676,1.3408-1.502,0-1.9844-.9658-1.9844-2.1328v-4.6807h1.7031v4.2656c0,.6973.1875,1.1133.832,1.1133.8711,0,1.542-.9932,1.542-2.1602v-3.2188h1.7168v6.666h-1.6094Z"/>
    <path class="cls-2" d="M58.9452,168.3965v-4.2656c0-.6973-.1875-1.1123-.8174-1.1123-.873,0-1.5566.9922-1.5566,2.1592v3.2188h-1.7168v-6.666h1.623c0,.3086-.0273.832-.0938,1.1807l.0137.0127c.4023-.791,1.1797-1.3408,2.2656-1.3408,1.5029,0,1.9863.9658,1.9863,2.1328v4.6807h-1.7041Z"/>
    <path class="cls-2" d="M64.9178,171.79c-1.7705,0-2.8564-.6709-2.8564-1.9717,0-.6973.4688-1.3281,1.0195-1.6094-.4023-.2012-.6582-.5498-.6582-1.0195,0-.4834.3223-.9795.792-1.1533-.6572-.3359-.9932-1.0469-.9932-1.8643,0-1.4082,1.0605-2.5889,3.0186-2.5889.4424,0,.791.0674,1.167.1475h2.2529v1.3408h-.8984c.2012.1885.335.5098.335.8857,0,1.4756-1.0332,2.4414-2.8828,2.4414-.2285,0-.4834-.0137-.6582-.0537-.2148.0938-.3223.2676-.3223.4287,0,.3086.2559.416,1.0332.416h1.0332c1.4482,0,2.2793.6709,2.2793,1.958,0,1.4482-1.4346,2.6426-3.6611,2.6426ZM65.8299,168.5439h-1.4756c-.3887.2148-.6035.5771-.6035.9521,0,.6172.5635.9795,1.4219.9795,1.127,0,1.7168-.4697,1.7168-1.0996,0-.4834-.3223-.832-1.0596-.832ZM65.1727,162.8301c-.8184,0-1.3145.4961-1.3145,1.207,0,.7383.4824,1.1943,1.3145,1.1943.7773,0,1.2871-.4434,1.2871-1.1807,0-.7646-.4824-1.2207-1.2871-1.2207Z"/>
    <path class="cls-2" d="M71.118,168.5303c-.4824,0-.9648-.0537-1.3945-.1201l.04-1.4082c.416.1074.9258.2012,1.4346.2012.6582,0,1.0869-.2686,1.0869-.7109,0-1.1807-2.6963-.5098-2.6963-2.7764,0-1.167.9531-2.1328,2.8301-2.1328.3887,0,.8184.0537,1.2207.1211l-.0537,1.3545c-.376-.1074-.8184-.1748-1.2334-.1748-.6709,0-.9922.2686-.9922.6846,0,1.0859,2.7354.6035,2.7354,2.7627,0,1.3145-1.1533,2.1992-2.9775,2.1992Z"/>
    <path class="cls-2" d="M75.2254,165.6738v-1.3682h3.2988v1.3682h-3.2988Z"/>
    <path class="cls-2" d="M14.2596,184.5c0-.3086.0127-.832.0801-1.1807l-.0127-.0127c-.4023.791-1.168,1.3408-2.2676,1.3408-1.502,0-1.9844-.9658-1.9844-2.1328v-4.6807h1.7031v4.2656c0,.6973.1875,1.1133.832,1.1133.8711,0,1.542-.9932,1.542-2.1602v-3.2188h1.7168v6.666h-1.6094Z"/>
    <path class="cls-2" d="M21.8143,184.5v-4.2656c0-.6973-.1875-1.1123-.8174-1.1123-.873,0-1.5566.9922-1.5566,2.1592v3.2188h-1.7168v-6.666h1.623c0,.3086-.0273.832-.0938,1.1807l.0137.0127c.4023-.791,1.1797-1.3408,2.2656-1.3408,1.5029,0,1.9863.9658,1.9863,2.1328v4.6807h-1.7041Z"/>
    <path class="cls-2" d="M29.409,184.5c0-.3223.0273-.751.0811-1.1133h-.0264c-.3496.7373-1.0869,1.2607-2.1064,1.2607-1.6221,0-2.4277-1.2207-2.4277-3.125,0-2.2529,1.3145-3.8096,3.5283-3.8096.2812,0,.5488.0137.8438.0537v-3.0576h1.7041v9.791h-1.5967ZM29.3016,179.1748c-.3086-.0664-.6035-.1064-.8984-.1064-.9785,0-1.6758.6162-1.6758,2.2666,0,1.2471.3613,1.8906,1.1396,1.8906.8984,0,1.4346-1.0459,1.4346-2.1855v-1.8652Z"/>
    <path class="cls-2" d="M38.4549,184.5264c-.5498,0-1.502-.0264-2.6416-.0264v-9.04c.7637-.04,1.9443-.0674,3.0576-.0674,1.958,0,3.0439.792,3.0439,2.2402,0,.8984-.5762,1.6904-1.4346,2.0254v.0264c1.0732.2285,1.6094,1.1133,1.6094,2.0254,0,1.3145-.8984,2.8164-3.6348,2.8164ZM38.5751,176.8008c-.3613,0-.71.0137-1.0186.0273v2.3604c.2139.0137.4287.0137.7109.0137,1.1934,0,1.8105-.4834,1.8105-1.2881,0-.6699-.4023-1.1133-1.5029-1.1133ZM38.3211,180.5029c-.1348,0-.5771,0-.7646.0137v2.5352c.2139.0264.5498.0537.9521.0537,1.1406,0,1.7168-.5371,1.7168-1.3555,0-.8848-.7646-1.2471-1.9043-1.2471Z"/>
    <path class="cls-2" d="M48.9872,181.4424h-4.1309c-.0137,1.2471.6035,1.8506,1.8379,1.8506.6572,0,1.3682-.1475,1.9453-.416l.1602,1.3281c-.7109.2812-1.5557.4287-2.3867.4287-2.1191,0-3.2998-1.0596-3.2998-3.4062,0-2.0391,1.126-3.541,3.125-3.541,1.9443,0,2.8037,1.3281,2.8037,2.9775,0,.2275-.0137.4961-.0547.7783ZM46.1844,178.9473c-.7109,0-1.207.5234-1.3008,1.3281h2.4551c.0264-.832-.4297-1.3281-1.1543-1.3281Z"/>
    <path class="cls-2" d="M54.0477,179.376c-1.2344-.2539-1.8516.5508-1.8516,2.4014v2.7227h-1.7168v-6.666h1.623c0,.335-.0391.8721-.1201,1.3408h.0264c.3223-.8447.9668-1.582,2.1191-1.4883l-.0801,1.6895Z"/>
    <path class="cls-2" d="M59.4286,184.5c0-.3086.0137-.832.0801-1.1807l-.0137-.0127c-.4023.791-1.166,1.3408-2.2656,1.3408-1.5029,0-1.9863-.9658-1.9863-2.1328v-4.6807h1.7041v4.2656c0,.6973.1875,1.1133.8311,1.1133.8721,0,1.543-.9932,1.543-2.1602v-3.2188h1.7168v6.666h-1.6094Z"/>
    <path class="cls-2" d="M66.8622,176.1172c-.2676-.0938-.5762-.1211-.8311-.1211-.751,0-1.0869.3896-1.0869,1.2744v.5635h1.5566v1.3281h-1.5566v5.3379h-1.7031v-5.3379h-1.166v-1.3281h1.166v-.5361c0-1.8115.832-2.6963,2.6562-2.6963.3613,0,.7373.0273,1.0859.1074l-.1211,1.4082Z"/>
    <path class="cls-2" d="M68.6219,184.6338c-.4824,0-.9648-.0537-1.3945-.1201l.04-1.4082c.416.1074.9258.2012,1.4346.2012.6582,0,1.0869-.2686,1.0869-.7109,0-1.1807-2.6963-.5098-2.6963-2.7764,0-1.167.9531-2.1328,2.8301-2.1328.3896,0,.8184.0537,1.2207.1211l-.0527,1.3545c-.376-.1074-.8184-.1748-1.2344-.1748-.6709,0-.9922.2686-.9922.6846,0,1.0859,2.7363.6035,2.7363,2.7627,0,1.3145-1.1543,2.1992-2.9785,2.1992Z"/>
    <path class="cls-2" d="M77.034,176.1172c-.2676-.0938-.5762-.1211-.832-.1211-.75,0-1.0859.3896-1.0859,1.2744v.5635h1.5557v1.3281h-1.5557v5.3379h-1.7031v-5.3379h-1.166v-1.3281h1.166v-.5361c0-1.8115.832-2.6963,2.6553-2.6963.3623,0,.7373.0273,1.0869.1074l-.1211,1.4082Z"/>
    <path class="cls-2" d="M82.9383,181.4424h-4.1309c-.0137,1.2471.6035,1.8506,1.8369,1.8506.6572,0,1.3682-.1475,1.9443-.416l.1621,1.3281c-.7109.2812-1.5566.4287-2.3887.4287-2.1191,0-3.2988-1.0596-3.2988-3.4062,0-2.0391,1.127-3.541,3.125-3.541,1.9453,0,2.8027,1.3281,2.8027,2.9775,0,.2275-.0127.4961-.0527.7783ZM80.1346,178.9473c-.7109,0-1.207.5234-1.3008,1.3281h2.4541c.0273-.832-.4287-1.3281-1.1533-1.3281Z"/>
    <path class="cls-2" d="M84.4305,184.5v-9.791h1.7168v9.791h-1.7168Z"/>
    <path class="cls-2" d="M92.0233,184.5c0-.3223.0264-.751.0811-1.1133h-.0273c-.3486.7373-1.0859,1.2607-2.1055,1.2607-1.623,0-2.4277-1.2207-2.4277-3.125,0-2.2529,1.3145-3.8096,3.5273-3.8096.2812,0,.5498.0137.8447.0537v-3.0576h1.7041v9.791h-1.5967ZM91.9159,179.1748c-.3086-.0664-.6035-.1064-.8984-.1064-.9795,0-1.6768.6162-1.6768,2.2666,0,1.2471.3623,1.8906,1.1406,1.8906.8984,0,1.4346-1.0459,1.4346-2.1855v-1.8652Z"/>
    <path class="cls-2" d="M95.1532,181.7773v-1.3682h3.2988v1.3682h-3.2988Z"/>
    <path class="cls-2" d="M12.704,200.7373c-1.8916,0-3.1123-.9785-3.1123-3.3525,0-2.0791,1.3818-3.5811,3.4072-3.5811,1.8906,0,3.1113,1.0459,3.1113,3.3398,0,2.0918-1.4082,3.5938-3.4062,3.5938ZM12.8778,195.252c-.7637,0-1.5156.5898-1.5156,1.958s.4961,2.0654,1.4883,2.0654c.8457,0,1.4893-.6836,1.4893-2.0381,0-1.2881-.4561-1.9854-1.4619-1.9854Z"/>
    <path class="cls-2" d="M21.0633,195.4795c-1.2344-.2539-1.8516.5508-1.8516,2.4014v2.7227h-1.7168v-6.666h1.623c0,.335-.0391.8721-.1201,1.3408h.0264c.3223-.8447.9668-1.582,2.1191-1.4883l-.0801,1.6895Z"/>
    <path class="cls-2" d="M23.118,193.0791c-.5898,0-1.0605-.4697-1.0605-1.0459,0-.5635.4707-1.0332,1.0605-1.0332s1.0723.4561,1.0723,1.0332c0,.5762-.4824,1.0459-1.0723,1.0459ZM22.2586,200.6035v-6.666h1.7168v6.666h-1.7168Z"/>
    <path class="cls-2" d="M31.2333,197.5459h-4.1309c-.0137,1.2471.6035,1.8506,1.8379,1.8506.6562,0,1.3672-.1475,1.9443-.416l.1611,1.3281c-.7109.2812-1.5566.4287-2.3877.4287-2.1191,0-3.2998-1.0596-3.2998-3.4062,0-2.0391,1.127-3.541,3.125-3.541,1.9453,0,2.8037,1.3281,2.8037,2.9775,0,.2275-.0127.4961-.0537.7783ZM28.4305,195.0508c-.7109,0-1.207.5234-1.3008,1.3281h2.4541c.0264-.832-.4287-1.3281-1.1533-1.3281Z"/>
    <path class="cls-2" d="M36.8163,200.6035v-4.2656c0-.6973-.1875-1.1123-.8174-1.1123-.873,0-1.5566.9922-1.5566,2.1592v3.2188h-1.7168v-6.666h1.623c0,.3086-.0273.832-.0938,1.1807l.0137.0127c.4023-.791,1.1797-1.3408,2.2656-1.3408,1.5029,0,1.9863.9658,1.9863,2.1328v4.6807h-1.7041Z"/>
    <path class="cls-2" d="M42.5614,200.7373c-1.4756,0-1.9316-.5361-1.9316-2.0918v-3.3799h-1.1533v-1.3281h1.1396v-2.0518l1.7168-.4561v2.5078h1.623v1.3281h-1.623v2.9238c0,.8584.2012,1.0996.791,1.0996.2822,0,.5908-.04.832-.1074v1.3818c-.4297.1074-.9258.1738-1.3945.1738Z"/>
    <path class="cls-2" d="M46.2118,193.0791c-.5898,0-1.0596-.4697-1.0596-1.0459,0-.5635.4697-1.0332,1.0596-1.0332s1.0732.4561,1.0732,1.0332c0,.5762-.4834,1.0459-1.0732,1.0459ZM45.3534,200.6035v-6.666h1.7168v6.666h-1.7168Z"/>
    <path class="cls-2" d="M54.328,197.5459h-4.1309c-.0137,1.2471.6035,1.8506,1.8369,1.8506.6582,0,1.3691-.1475,1.9453-.416l.1611,1.3281c-.7109.2812-1.5557.4287-2.3877.4287-2.1191,0-3.2988-1.0596-3.2988-3.4062,0-2.0391,1.126-3.541,3.125-3.541,1.9443,0,2.8027,1.3281,2.8027,2.9775,0,.2275-.0137.4961-.0537.7783ZM51.5243,195.0508c-.7109,0-1.207.5234-1.3008,1.3281h2.4551c.0273-.832-.4297-1.3281-1.1543-1.3281Z"/>
    <path class="cls-2" d="M59.3876,195.4795c-1.2334-.2539-1.8506.5508-1.8506,2.4014v2.7227h-1.7168v-6.666h1.623c0,.335-.04.8721-.1201,1.3408h.0264c.3213-.8447.9658-1.582,2.1191-1.4883l-.0811,1.6895Z"/>
    <path class="cls-2" d="M64.7684,200.6035c0-.3086.0137-.832.0801-1.1807l-.0127-.0127c-.4023.791-1.167,1.3408-2.2666,1.3408-1.502,0-1.9854-.9658-1.9854-2.1328v-4.6807h1.7041v4.2656c0,.6973.1875,1.1133.8311,1.1133.8721,0,1.542-.9932,1.542-2.1602v-3.2188h1.7168v6.666h-1.6094Z"/>
    <path class="cls-2" d="M72.3231,200.6035v-4.2656c0-.6973-.1875-1.1123-.8174-1.1123-.8721,0-1.5557.9922-1.5557,2.1592v3.2188h-1.7168v-6.666h1.623c0,.3086-.0273.832-.0938,1.1807l.0127.0127c.4023-.791,1.1807-1.3408,2.2666-1.3408,1.502,0,1.9844.9658,1.9844,2.1328v4.6807h-1.7031Z"/>
    <path class="cls-2" d="M78.2958,203.9971c-1.7705,0-2.8574-.6709-2.8574-1.9717,0-.6973.4707-1.3281,1.0195-1.6094-.4023-.2012-.6562-.5498-.6562-1.0195,0-.4834.3213-.9795.791-1.1533-.6572-.3359-.9922-1.0469-.9922-1.8643,0-1.4082,1.0586-2.5889,3.0176-2.5889.4424,0,.791.0674,1.166.1475h2.2539v1.3408h-.8984c.2012.1885.335.5098.335.8857,0,1.4756-1.0322,2.4414-2.8838,2.4414-.2275,0-.4824-.0137-.6562-.0537-.2148.0938-.3223.2676-.3223.4287,0,.3086.2539.416,1.0322.416h1.0332c1.4482,0,2.2803.6709,2.2803,1.958,0,1.4482-1.4355,2.6426-3.6621,2.6426ZM79.2079,200.751h-1.4746c-.3896.2148-.6045.5771-.6045.9521,0,.6172.5635.9795,1.4219.9795,1.127,0,1.7168-.4697,1.7168-1.0996,0-.4834-.3213-.832-1.0596-.832ZM78.5506,195.0371c-.8174,0-1.3145.4961-1.3145,1.207,0,.7383.4834,1.1943,1.3145,1.1943.7783,0,1.2881-.4434,1.2881-1.1807,0-.7646-.4834-1.2207-1.2881-1.2207Z"/>
  </g>
  <rect class="cls-3" width="141.7323" height="141.7323"/>
  <path class="cls-1" d="M29.1325,29.6775c13.8274-13.8274,36.2501-13.8274,50.0774,0,13.0799,12.7062,13.8273,32.8867,2.9896,47.0878l7.8479,7.4742c2.2423-1.4949,5.232-1.4949,7.1005.7474l24.2912,24.2913c5.9794,5.6057-7.1006,18.6856-12.7062,12.7062l-24.2912-24.2913c-2.2423-1.8686-2.2423-4.8583-.7474-7.1005l-7.4742-7.848c-14.2011,10.8377-34.3815,10.0903-47.0877-2.9897-13.8273-13.8274-13.8273-36.2501,0-50.0775ZM33.9907,34.5357c11.2114-11.5851,29.5233-11.5851,40.7346,0,11.2113,11.2114,11.2113,29.5233,0,40.7347-11.2114,11.2114-29.5233,11.2114-40.7346,0-11.5851-11.2114-11.585-29.5233,0-40.7347Z"/>
</svg>